<?xml version="1.0" standalone="no"?>
<!DOCTYPE svg PUBLIC "-//W3C//DTD SVG 1.1//EN" "http://www.w3.org/Graphics/SVG/1.1/DTD/svg11.dtd">
<svg version="1.1" width="1200" height="582" onload="init(evt)" viewBox="0 0 1200 582" xmlns="http://www.w3.org/2000/svg" xmlns:xlink="http://www.w3.org/1999/xlink">
<!-- Flame graph stack visualization. See https://github.com/brendangregg/FlameGraph for latest version, and http://www.brendangregg.com/flamegraphs.html for examples. -->
<!-- NOTES:  -->
<defs>
	<linearGradient id="background" y1="0" y2="1" x1="0" x2="0" >
		<stop stop-color="#eeeeee" offset="5%" />
		<stop stop-color="#eeeeb0" offset="95%" />
	</linearGradient>
</defs>
<style type="text/css">
	text { font-family:Verdana; font-size:12px; fill:rgb(0,0,0); }
	#search, #ignorecase { opacity:0.1; cursor:pointer; }
	#search:hover, #search.show, #ignorecase:hover, #ignorecase.show { opacity:1; }
	#subtitle { text-anchor:middle; font-color:rgb(160,160,160); }
	#title { text-anchor:middle; font-size:17px}
	#unzoom { cursor:pointer; }
	#frames > *:hover { stroke:black; stroke-width:0.5; cursor:pointer; }
	.hide { display:none; }
	.parent { opacity:0.5; }
</style>
<script type="text/ecmascript">
<![CDATA[
	"use strict";
	var details, searchbtn, unzoombtn, matchedtxt, svg, searching, currentSearchTerm, ignorecase, ignorecaseBtn;
	function init(evt) {
		details = document.getElementById("details").firstChild;
		searchbtn = document.getElementById("search");
		ignorecaseBtn = document.getElementById("ignorecase");
		unzoombtn = document.getElementById("unzoom");
		matchedtxt = document.getElementById("matched");
		svg = document.getElementsByTagName("svg")[0];
		searching = 0;
		currentSearchTerm = null;

		// use GET parameters to restore a flamegraphs state.
		var params = get_params();
		if (params.x && params.y)
			zoom(find_group(document.querySelector('[x="' + params.x + '"][y="' + params.y + '"]')));
                if (params.s) search(params.s);
	}

	// event listeners
	window.addEventListener("click", function(e) {
		var target = find_group(e.target);
		if (target) {
			if (target.nodeName == "a") {
				if (e.ctrlKey === false) return;
				e.preventDefault();
			}
			if (target.classList.contains("parent")) unzoom(true);
			zoom(target);
			if (!document.querySelector('.parent')) {
				// we have basically done a clearzoom so clear the url
				var params = get_params();
				if (params.x) delete params.x;
				if (params.y) delete params.y;
				history.replaceState(null, null, parse_params(params));
				unzoombtn.classList.add("hide");
				return;
			}

			// set parameters for zoom state
			var el = target.querySelector("rect");
			if (el && el.attributes && el.attributes.y && el.attributes._orig_x) {
				var params = get_params()
				params.x = el.attributes._orig_x.value;
				params.y = el.attributes.y.value;
				history.replaceState(null, null, parse_params(params));
			}
		}
		else if (e.target.id == "unzoom") clearzoom();
		else if (e.target.id == "search") search_prompt();
		else if (e.target.id == "ignorecase") toggle_ignorecase();
	}, false)

	// mouse-over for info
	// show
	window.addEventListener("mouseover", function(e) {
		var target = find_group(e.target);
		if (target) details.nodeValue = "Function: " + g_to_text(target);
	}, false)

	// clear
	window.addEventListener("mouseout", function(e) {
		var target = find_group(e.target);
		if (target) details.nodeValue = ' ';
	}, false)

	// ctrl-F for search
	// ctrl-I to toggle case-sensitive search
	window.addEventListener("keydown",function (e) {
		if (e.keyCode === 114 || (e.ctrlKey && e.keyCode === 70)) {
			e.preventDefault();
			search_prompt();
		}
		else if (e.ctrlKey && e.keyCode === 73) {
			e.preventDefault();
			toggle_ignorecase();
		}
	}, false)

	// functions
	function get_params() {
		var params = {};
		var paramsarr = window.location.search.substr(1).split('&');
		for (var i = 0; i < paramsarr.length; ++i) {
			var tmp = paramsarr[i].split("=");
			if (!tmp[0] || !tmp[1]) continue;
			params[tmp[0]]  = decodeURIComponent(tmp[1]);
		}
		return params;
	}
	function parse_params(params) {
		var uri = "?";
		for (var key in params) {
			uri += key + '=' + encodeURIComponent(params[key]) + '&';
		}
		if (uri.slice(-1) == "&")
			uri = uri.substring(0, uri.length - 1);
		if (uri == '?')
			uri = window.location.href.split('?')[0];
		return uri;
	}
	function find_child(node, selector) {
		var children = node.querySelectorAll(selector);
		if (children.length) return children[0];
	}
	function find_group(node) {
		var parent = node.parentElement;
		if (!parent) return;
		if (parent.id == "frames") return node;
		return find_group(parent);
	}
	function orig_save(e, attr, val) {
		if (e.attributes["_orig_" + attr] != undefined) return;
		if (e.attributes[attr] == undefined) return;
		if (val == undefined) val = e.attributes[attr].value;
		e.setAttribute("_orig_" + attr, val);
	}
	function orig_load(e, attr) {
		if (e.attributes["_orig_"+attr] == undefined) return;
		e.attributes[attr].value = e.attributes["_orig_" + attr].value;
		e.removeAttribute("_orig_"+attr);
	}
	function g_to_text(e) {
		var text = find_child(e, "title").firstChild.nodeValue;
		return (text)
	}
	function g_to_func(e) {
		var func = g_to_text(e);
		// if there's any manipulation we want to do to the function
		// name before it's searched, do it here before returning.
		return (func);
	}
	function update_text(e) {
		var r = find_child(e, "rect");
		var t = find_child(e, "text");
		var w = parseFloat(r.attributes.width.value) -3;
		var txt = find_child(e, "title").textContent.replace(/\([^(]*\)$/,"");
		t.attributes.x.value = parseFloat(r.attributes.x.value) + 3;

		// Smaller than this size won't fit anything
		if (w < 2 * 12 * 0.59) {
			t.textContent = "";
			return;
		}

		t.textContent = txt;
		var sl = t.getSubStringLength(0, txt.length);
		// check if only whitespace or if we can fit the entire string into width w
		if (/^ *$/.test(txt) || sl < w)
			return;

		// this isn't perfect, but gives a good starting point
		// and avoids calling getSubStringLength too often
		var start = Math.floor((w/sl) * txt.length);
		for (var x = start; x > 0; x = x-2) {
			if (t.getSubStringLength(0, x + 2) <= w) {
				t.textContent = txt.substring(0, x) + "..";
				return;
			}
		}
		t.textContent = "";
	}

	// zoom
	function zoom_reset(e) {
		if (e.attributes != undefined) {
			orig_load(e, "x");
			orig_load(e, "width");
		}
		if (e.childNodes == undefined) return;
		for (var i = 0, c = e.childNodes; i < c.length; i++) {
			zoom_reset(c[i]);
		}
	}
	function zoom_child(e, x, ratio) {
		if (e.attributes != undefined) {
			if (e.attributes.x != undefined) {
				orig_save(e, "x");
				e.attributes.x.value = (parseFloat(e.attributes.x.value) - x - 10) * ratio + 10;
				if (e.tagName == "text")
					e.attributes.x.value = find_child(e.parentNode, "rect[x]").attributes.x.value + 3;
			}
			if (e.attributes.width != undefined) {
				orig_save(e, "width");
				e.attributes.width.value = parseFloat(e.attributes.width.value) * ratio;
			}
		}

		if (e.childNodes == undefined) return;
		for (var i = 0, c = e.childNodes; i < c.length; i++) {
			zoom_child(c[i], x - 10, ratio);
		}
	}
	function zoom_parent(e) {
		if (e.attributes) {
			if (e.attributes.x != undefined) {
				orig_save(e, "x");
				e.attributes.x.value = 10;
			}
			if (e.attributes.width != undefined) {
				orig_save(e, "width");
				e.attributes.width.value = parseInt(svg.width.baseVal.value) - (10 * 2);
			}
		}
		if (e.childNodes == undefined) return;
		for (var i = 0, c = e.childNodes; i < c.length; i++) {
			zoom_parent(c[i]);
		}
	}
	function zoom(node) {
		var attr = find_child(node, "rect").attributes;
		var width = parseFloat(attr.width.value);
		var xmin = parseFloat(attr.x.value);
		var xmax = parseFloat(xmin + width);
		var ymin = parseFloat(attr.y.value);
		var ratio = (svg.width.baseVal.value - 2 * 10) / width;

		// XXX: Workaround for JavaScript float issues (fix me)
		var fudge = 0.0001;

		unzoombtn.classList.remove("hide");

		var el = document.getElementById("frames").children;
		for (var i = 0; i < el.length; i++) {
			var e = el[i];
			var a = find_child(e, "rect").attributes;
			var ex = parseFloat(a.x.value);
			var ew = parseFloat(a.width.value);
			var upstack;
			// Is it an ancestor
			if (0 == 0) {
				upstack = parseFloat(a.y.value) > ymin;
			} else {
				upstack = parseFloat(a.y.value) < ymin;
			}
			if (upstack) {
				// Direct ancestor
				if (ex <= xmin && (ex+ew+fudge) >= xmax) {
					e.classList.add("parent");
					zoom_parent(e);
					update_text(e);
				}
				// not in current path
				else
					e.classList.add("hide");
			}
			// Children maybe
			else {
				// no common path
				if (ex < xmin || ex + fudge >= xmax) {
					e.classList.add("hide");
				}
				else {
					zoom_child(e, xmin, ratio);
					update_text(e);
				}
			}
		}
		search();
	}
	function unzoom(dont_update_text) {
		unzoombtn.classList.add("hide");
		var el = document.getElementById("frames").children;
		for(var i = 0; i < el.length; i++) {
			el[i].classList.remove("parent");
			el[i].classList.remove("hide");
			zoom_reset(el[i]);
			if(!dont_update_text) update_text(el[i]);
		}
		search();
	}
	function clearzoom() {
		unzoom();

		// remove zoom state
		var params = get_params();
		if (params.x) delete params.x;
		if (params.y) delete params.y;
		history.replaceState(null, null, parse_params(params));
	}

	// search
	function toggle_ignorecase() {
		ignorecase = !ignorecase;
		if (ignorecase) {
			ignorecaseBtn.classList.add("show");
		} else {
			ignorecaseBtn.classList.remove("show");
		}
		reset_search();
		search();
	}
	function reset_search() {
		var el = document.querySelectorAll("#frames rect");
		for (var i = 0; i < el.length; i++) {
			orig_load(el[i], "fill")
		}
		var params = get_params();
		delete params.s;
		history.replaceState(null, null, parse_params(params));
	}
	function search_prompt() {
		if (!searching) {
			var term = prompt("Enter a search term (regexp " +
			    "allowed, eg: ^ext4_)"
			    + (ignorecase ? ", ignoring case" : "")
			    + "\nPress Ctrl-i to toggle case sensitivity", "");
			if (term != null) search(term);
		} else {
			reset_search();
			searching = 0;
			currentSearchTerm = null;
			searchbtn.classList.remove("show");
			searchbtn.firstChild.nodeValue = "Search"
			matchedtxt.classList.add("hide");
			matchedtxt.firstChild.nodeValue = ""
		}
	}
	function search(term) {
		if (term) currentSearchTerm = term;

		var re = new RegExp(currentSearchTerm, ignorecase ? 'i' : '');
		var el = document.getElementById("frames").children;
		var matches = new Object();
		var maxwidth = 0;
		for (var i = 0; i < el.length; i++) {
			var e = el[i];
			var func = g_to_func(e);
			var rect = find_child(e, "rect");
			if (func == null || rect == null)
				continue;

			// Save max width. Only works as we have a root frame
			var w = parseFloat(rect.attributes.width.value);
			if (w > maxwidth)
				maxwidth = w;

			if (func.match(re)) {
				// highlight
				var x = parseFloat(rect.attributes.x.value);
				orig_save(rect, "fill");
				rect.attributes.fill.value = "rgb(230,0,230)";

				// remember matches
				if (matches[x] == undefined) {
					matches[x] = w;
				} else {
					if (w > matches[x]) {
						// overwrite with parent
						matches[x] = w;
					}
				}
				searching = 1;
			}
		}
		if (!searching)
			return;
		var params = get_params();
		params.s = currentSearchTerm;
		history.replaceState(null, null, parse_params(params));

		searchbtn.classList.add("show");
		searchbtn.firstChild.nodeValue = "Reset Search";

		// calculate percent matched, excluding vertical overlap
		var count = 0;
		var lastx = -1;
		var lastw = 0;
		var keys = Array();
		for (k in matches) {
			if (matches.hasOwnProperty(k))
				keys.push(k);
		}
		// sort the matched frames by their x location
		// ascending, then width descending
		keys.sort(function(a, b){
			return a - b;
		});
		// Step through frames saving only the biggest bottom-up frames
		// thanks to the sort order. This relies on the tree property
		// where children are always smaller than their parents.
		var fudge = 0.0001;	// JavaScript floating point
		for (var k in keys) {
			var x = parseFloat(keys[k]);
			var w = matches[keys[k]];
			if (x >= lastx + lastw - fudge) {
				count += w;
				lastx = x;
				lastw = w;
			}
		}
		// display matched percent
		matchedtxt.classList.remove("hide");
		var pct = 100 * count / maxwidth;
		if (pct != 100) pct = pct.toFixed(1)
		matchedtxt.firstChild.nodeValue = "Matched: " + pct + "%";
	}
]]>
</script>
<rect x="0.0" y="0" width="1200.0" height="582.0" fill="url(#background)"  />
<text id="title" x="600.00" y="24" >Share Watchdog Profile (2024-05-20T05:37:37.671925)</text>
<text id="details" x="10.00" y="565" > </text>
<text id="unzoom" x="10.00" y="24" class="hide">Reset Zoom</text>
<text id="search" x="1090.00" y="24" >Search</text>
<text id="ignorecase" x="1174.00" y="24" >ic</text>
<text id="matched" x="1090.00" y="565" > </text>
<g id="frames">
<g >
<title>SpellCheckerDispatcher::isValid_Impl (1 samples, 5.56%)</title><rect x="731.1" y="229" width="65.6" height="15.0" fill="rgb(223,6,7)" rx="2" ry="2" />
<text  x="734.11" y="239.5" >SpellCh..</text>
</g>
<g >
<title>SwLayIdle::SwLayIdle (1 samples, 5.56%)</title><rect x="1124.4" y="309" width="65.6" height="15.0" fill="rgb(206,71,51)" rx="2" ry="2" />
<text  x="1127.44" y="319.5" >SwLayId..</text>
</g>
<g >
<title>syscall (1 samples, 5.56%)</title><rect x="731.1" y="37" width="65.6" height="15.0" fill="rgb(208,89,52)" rx="2" ry="2" />
<text  x="734.11" y="47.5" >syscall</text>
</g>
<g >
<title>linguistic::GetIgnoreAllList (1 samples, 5.56%)</title><rect x="731.1" y="197" width="65.6" height="15.0" fill="rgb(246,36,45)" rx="2" ry="2" />
<text  x="734.11" y="207.5" >linguis..</text>
</g>
<g >
<title>SpellCheckerDispatcher::isValid_Impl (1 samples, 5.56%)</title><rect x="1124.4" y="213" width="65.6" height="15.0" fill="rgb(247,178,52)" rx="2" ry="2" />
<text  x="1127.44" y="223.5" >SpellCh..</text>
</g>
<g >
<title>[libc.so.6] (1 samples, 5.56%)</title><rect x="796.7" y="309" width="65.5" height="15.0" fill="rgb(223,64,2)" rx="2" ry="2" />
<text  x="799.67" y="319.5" >[libc.s..</text>
</g>
<g >
<title>SpellCheckerDispatcher::isValid_Impl (1 samples, 5.56%)</title><rect x="862.2" y="181" width="65.6" height="15.0" fill="rgb(219,189,22)" rx="2" ry="2" />
<text  x="865.22" y="191.5" >SpellCh..</text>
</g>
<g >
<title>ImplYield (4 samples, 22.22%)</title><rect x="862.2" y="389" width="262.2" height="15.0" fill="rgb(208,88,6)" rx="2" ry="2" />
<text  x="865.22" y="399.5" >ImplYield</text>
</g>
<g >
<title>syscall (1 samples, 5.56%)</title><rect x="796.7" y="277" width="65.5" height="15.0" fill="rgb(214,224,41)" rx="2" ry="2" />
<text  x="799.67" y="287.5" >syscall</text>
</g>
<g >
<title>[libc.so.6] (3 samples, 16.67%)</title><rect x="927.8" y="165" width="196.6" height="15.0" fill="rgb(226,223,10)" rx="2" ry="2" />
<text  x="930.78" y="175.5" >[libc.so.6]</text>
</g>
<g >
<title>[unknown] (10 samples, 55.56%)</title><rect x="534.4" y="501" width="655.6" height="15.0" fill="rgb(240,166,31)" rx="2" ry="2" />
<text  x="537.44" y="511.5" >[unknown]</text>
</g>
<g >
<title>SwLayIdle::DoIdleJob (1 samples, 5.56%)</title><rect x="731.1" y="309" width="65.6" height="15.0" fill="rgb(223,173,28)" rx="2" ry="2" />
<text  x="734.11" y="319.5" >SwLayId..</text>
</g>
<g >
<title>SpellChecker::GetSpellFailure (1 samples, 5.56%)</title><rect x="862.2" y="149" width="65.6" height="15.0" fill="rgb(209,178,2)" rx="2" ry="2" />
<text  x="865.22" y="159.5" >SpellCh..</text>
</g>
<g >
<title>Application::Execute (1 samples, 5.56%)</title><rect x="731.1" y="453" width="65.6" height="15.0" fill="rgb(207,57,10)" rx="2" ry="2" />
<text  x="734.11" y="463.5" >Applica..</text>
</g>
<g >
<title>SocketPoll::poll (8 samples, 44.44%)</title><rect x="10.0" y="437" width="524.4" height="15.0" fill="rgb(210,105,6)" rx="2" ry="2" />
<text  x="13.00" y="447.5" >SocketPoll::poll</text>
</g>
<g >
<title>handleUserProfileSignal (1 samples, 5.56%)</title><rect x="796.7" y="293" width="65.5" height="15.0" fill="rgb(212,171,46)" rx="2" ry="2" />
<text  x="799.67" y="303.5" >handleU..</text>
</g>
<g >
<title>SwLayIdle::DoIdleJob (4 samples, 22.22%)</title><rect x="862.2" y="261" width="262.2" height="15.0" fill="rgb(215,9,44)" rx="2" ry="2" />
<text  x="865.22" y="271.5" >SwLayIdle::DoIdleJob</text>
</g>
<g >
<title>SvpSalInstance::CheckTimeout (1 samples, 5.56%)</title><rect x="1124.4" y="373" width="65.6" height="15.0" fill="rgb(220,143,27)" rx="2" ry="2" />
<text  x="1127.44" y="383.5" >SvpSalI..</text>
</g>
<g >
<title>handleUserProfileSignal (1 samples, 5.56%)</title><rect x="862.2" y="117" width="65.6" height="15.0" fill="rgb(240,118,10)" rx="2" ry="2" />
<text  x="865.22" y="127.5" >handleU..</text>
</g>
<g >
<title>[libc.so.6] (3 samples, 16.67%)</title><rect x="534.4" y="373" width="196.7" height="15.0" fill="rgb(236,44,28)" rx="2" ry="2" />
<text  x="537.44" y="383.5" >[libc.so.6]</text>
</g>
<g >
<title>FT_New_Face (1 samples, 5.56%)</title><rect x="796.7" y="405" width="65.5" height="15.0" fill="rgb(211,173,18)" rx="2" ry="2" />
<text  x="799.67" y="415.5" >FT_New_..</text>
</g>
<g >
<title>LanguageTag::getImpl (1 samples, 5.56%)</title><rect x="731.1" y="133" width="65.6" height="15.0" fill="rgb(251,118,4)" rx="2" ry="2" />
<text  x="734.11" y="143.5" >Languag..</text>
</g>
<g >
<title>SwScanner::NextWord (3 samples, 16.67%)</title><rect x="927.8" y="213" width="196.6" height="15.0" fill="rgb(215,216,46)" rx="2" ry="2" />
<text  x="930.78" y="223.5" >SwScanner::NextWord</text>
</g>
<g >
<title>handleUserProfileSignal (8 samples, 44.44%)</title><rect x="10.0" y="389" width="524.4" height="15.0" fill="rgb(241,113,47)" rx="2" ry="2" />
<text  x="13.00" y="399.5" >handleUserProfileSignal</text>
</g>
<g >
<title>LanguageTag::getGlibcLocaleString (1 samples, 5.56%)</title><rect x="731.1" y="165" width="65.6" height="15.0" fill="rgb(205,31,32)" rx="2" ry="2" />
<text  x="734.11" y="175.5" >Languag..</text>
</g>
<g >
<title>soffice_main (4 samples, 22.22%)</title><rect x="862.2" y="453" width="262.2" height="15.0" fill="rgb(233,77,14)" rx="2" ry="2" />
<text  x="865.22" y="463.5" >soffice_main</text>
</g>
<g >
<title>syscall (1 samples, 5.56%)</title><rect x="1124.4" y="37" width="65.6" height="15.0" fill="rgb(213,38,50)" rx="2" ry="2" />
<text  x="1127.44" y="47.5" >syscall</text>
</g>
<g >
<title>SwTextFrame::AutoSpell_ (4 samples, 22.22%)</title><rect x="862.2" y="229" width="262.2" height="15.0" fill="rgb(238,165,4)" rx="2" ry="2" />
<text  x="865.22" y="239.5" >SwTextFrame::AutoSpell_</text>
</g>
<g >
<title>handleUserProfileSignal (3 samples, 16.67%)</title><rect x="534.4" y="357" width="196.7" height="15.0" fill="rgb(252,84,7)" rx="2" ry="2" />
<text  x="537.44" y="367.5" >handleUserProfileSignal</text>
</g>
<g >
<title>LanguageTag::convertToLanguageType (1 samples, 5.56%)</title><rect x="1124.4" y="165" width="65.6" height="15.0" fill="rgb(212,7,51)" rx="2" ry="2" />
<text  x="1127.44" y="175.5" >Languag..</text>
</g>
<g >
<title>SwViewShell::LayoutIdle (4 samples, 22.22%)</title><rect x="862.2" y="293" width="262.2" height="15.0" fill="rgb(238,6,26)" rx="2" ry="2" />
<text  x="865.22" y="303.5" >SwViewShell::LayoutIdle</text>
</g>
<g >
<title>SwLayIdle::DoIdleJob_ (4 samples, 22.22%)</title><rect x="862.2" y="245" width="262.2" height="15.0" fill="rgb(221,85,26)" rx="2" ry="2" />
<text  x="865.22" y="255.5" >SwLayIdle::DoIdleJob_</text>
</g>
<g >
<title>lo_runLoop (4 samples, 22.22%)</title><rect x="862.2" y="469" width="262.2" height="15.0" fill="rgb(233,32,17)" rx="2" ry="2" />
<text  x="865.22" y="479.5" >lo_runLoop</text>
</g>
<g >
<title>syscall (8 samples, 44.44%)</title><rect x="10.0" y="373" width="524.4" height="15.0" fill="rgb(228,119,2)" rx="2" ry="2" />
<text  x="13.00" y="383.5" >syscall</text>
</g>
<g >
<title>all (18 samples, 100%)</title><rect x="10.0" y="533" width="1180.0" height="15.0" fill="rgb(233,100,25)" rx="2" ry="2" />
<text  x="13.00" y="543.5" ></text>
</g>
<g >
<title>docbroker (8 samples, 44.44%)</title><rect x="10.0" y="517" width="524.4" height="15.0" fill="rgb(214,194,38)" rx="2" ry="2" />
<text  x="13.00" y="527.5" >docbroker</text>
</g>
<g >
<title>lcl_GetRulingDictionaryEntry (1 samples, 5.56%)</title><rect x="731.1" y="213" width="65.6" height="15.0" fill="rgb(253,227,7)" rx="2" ry="2" />
<text  x="734.11" y="223.5" >lcl_Get..</text>
</g>
<g >
<title>LanguageTag::getImpl (1 samples, 5.56%)</title><rect x="1124.4" y="133" width="65.6" height="15.0" fill="rgb(235,211,28)" rx="2" ry="2" />
<text  x="1127.44" y="143.5" >Languag..</text>
</g>
<g >
<title>Scheduler::CallbackTaskScheduling (1 samples, 5.56%)</title><rect x="1124.4" y="357" width="65.6" height="15.0" fill="rgb(219,66,47)" rx="2" ry="2" />
<text  x="1127.44" y="367.5" >Schedul..</text>
</g>
<g >
<title>ImplSVMain (1 samples, 5.56%)</title><rect x="1124.4" y="469" width="65.6" height="15.0" fill="rgb(225,144,31)" rx="2" ry="2" />
<text  x="1127.44" y="479.5" >ImplSVM..</text>
</g>
<g >
<title>syscall (3 samples, 16.67%)</title><rect x="534.4" y="341" width="196.7" height="15.0" fill="rgb(226,59,1)" rx="2" ry="2" />
<text  x="537.44" y="351.5" >syscall</text>
</g>
<g >
<title>LanguageTag::getLanguageType (1 samples, 5.56%)</title><rect x="1124.4" y="149" width="65.6" height="15.0" fill="rgb(213,54,45)" rx="2" ry="2" />
<text  x="1127.44" y="159.5" >Languag..</text>
</g>
<g >
<title>desktop::Desktop::Main (4 samples, 22.22%)</title><rect x="862.2" y="421" width="262.2" height="15.0" fill="rgb(224,109,54)" rx="2" ry="2" />
<text  x="865.22" y="431.5" >desktop::Desktop::Main</text>
</g>
<g >
<title>SwLayIdle::SwLayIdle (4 samples, 22.22%)</title><rect x="862.2" y="277" width="262.2" height="15.0" fill="rgb(227,1,32)" rx="2" ry="2" />
<text  x="865.22" y="287.5" >SwLayIdle::SwLayIdle</text>
</g>
<g >
<title>SvpSalInstance::DoYield (1 samples, 5.56%)</title><rect x="1124.4" y="405" width="65.6" height="15.0" fill="rgb(214,95,46)" rx="2" ry="2" />
<text  x="1127.44" y="415.5" >SvpSalI..</text>
</g>
<g >
<title>WopiStorage::downloadStorageFileToLocal (8 samples, 44.44%)</title><rect x="10.0" y="485" width="524.4" height="15.0" fill="rgb(205,159,33)" rx="2" ry="2" />
<text  x="13.00" y="495.5" >WopiStorage::downloadStorageFileToLocal</text>
</g>
<g >
<title>SvpSalInstance::CheckTimeout (4 samples, 22.22%)</title><rect x="862.2" y="341" width="262.2" height="15.0" fill="rgb(227,106,39)" rx="2" ry="2" />
<text  x="865.22" y="351.5" >SvpSalInstance::CheckTimeout</text>
</g>
<g >
<title>handleUserProfileSignal (3 samples, 16.67%)</title><rect x="927.8" y="149" width="196.6" height="15.0" fill="rgb(244,56,25)" rx="2" ry="2" />
<text  x="930.78" y="159.5" >handleUserProfileSignal</text>
</g>
<g >
<title>SvpSalInstance::DoYield (1 samples, 5.56%)</title><rect x="731.1" y="421" width="65.6" height="15.0" fill="rgb(245,132,15)" rx="2" ry="2" />
<text  x="734.11" y="431.5" >SvpSalI..</text>
</g>
<g >
<title>rtl_uString_iterateCodePoints (3 samples, 16.67%)</title><rect x="927.8" y="181" width="196.6" height="15.0" fill="rgb(235,137,37)" rx="2" ry="2" />
<text  x="930.78" y="191.5" >rtl_uString_iterateCodePo..</text>
</g>
<g >
<title>ImplYield (1 samples, 5.56%)</title><rect x="1124.4" y="421" width="65.6" height="15.0" fill="rgb(211,19,34)" rx="2" ry="2" />
<text  x="1127.44" y="431.5" >ImplYield</text>
</g>
<g >
<title>SpellChecker::isValid (1 samples, 5.56%)</title><rect x="862.2" y="165" width="65.6" height="15.0" fill="rgb(231,183,47)" rx="2" ry="2" />
<text  x="865.22" y="175.5" >SpellCh..</text>
</g>
<g >
<title>WopiStorage::downloadDocument (8 samples, 44.44%)</title><rect x="10.0" y="469" width="524.4" height="15.0" fill="rgb(226,84,21)" rx="2" ry="2" />
<text  x="13.00" y="479.5" >WopiStorage::downloadDocument</text>
</g>
<g >
<title>handleUserProfileSignal (1 samples, 5.56%)</title><rect x="1124.4" y="53" width="65.6" height="15.0" fill="rgb(231,135,38)" rx="2" ry="2" />
<text  x="1127.44" y="63.5" >handleU..</text>
</g>
<g >
<title>soffice_main (1 samples, 5.56%)</title><rect x="1124.4" y="485" width="65.6" height="15.0" fill="rgb(249,3,54)" rx="2" ry="2" />
<text  x="1127.44" y="495.5" >soffice..</text>
</g>
<g >
<title>SpellCheckerDispatcher::isValid (1 samples, 5.56%)</title><rect x="731.1" y="245" width="65.6" height="15.0" fill="rgb(232,121,37)" rx="2" ry="2" />
<text  x="734.11" y="255.5" >SpellCh..</text>
</g>
<g >
<title>lcl_GetRulingDictionaryEntry (1 samples, 5.56%)</title><rect x="1124.4" y="197" width="65.6" height="15.0" fill="rgb(221,95,35)" rx="2" ry="2" />
<text  x="1127.44" y="207.5" >lcl_Get..</text>
</g>
<g >
<title>linguistic::SearchDicList (1 samples, 5.56%)</title><rect x="1124.4" y="181" width="65.6" height="15.0" fill="rgb(233,192,53)" rx="2" ry="2" />
<text  x="1127.44" y="191.5" >linguis..</text>
</g>
<g >
<title>lokit_main (4 samples, 22.22%)</title><rect x="862.2" y="485" width="262.2" height="15.0" fill="rgb(248,97,44)" rx="2" ry="2" />
<text  x="865.22" y="495.5" >lokit_main</text>
</g>
<g >
<title>handleUserProfileSignal (1 samples, 5.56%)</title><rect x="731.1" y="53" width="65.6" height="15.0" fill="rgb(208,57,22)" rx="2" ry="2" />
<text  x="734.11" y="63.5" >handleU..</text>
</g>
<g >
<title>__memmove_avx_unaligned_erms (3 samples, 16.67%)</title><rect x="534.4" y="389" width="196.7" height="15.0" fill="rgb(214,75,13)" rx="2" ry="2" />
<text  x="537.44" y="399.5" >__memmove_avx_unaligned_e..</text>
</g>
<g >
<title>SpellCheckerDispatcher::isValid (1 samples, 5.56%)</title><rect x="1124.4" y="245" width="65.6" height="15.0" fill="rgb(218,128,40)" rx="2" ry="2" />
<text  x="1127.44" y="255.5" >SpellCh..</text>
</g>
<g >
<title>sw::DocumentTimerManager::DoIdleJobs (4 samples, 22.22%)</title><rect x="862.2" y="309" width="262.2" height="15.0" fill="rgb(229,111,7)" rx="2" ry="2" />
<text  x="865.22" y="319.5" >sw::DocumentTimerManager::DoIdleJobs</text>
</g>
<g >
<title>RenderTiles::doRender (3 samples, 16.67%)</title><rect x="534.4" y="469" width="196.7" height="15.0" fill="rgb(216,10,52)" rx="2" ry="2" />
<text  x="537.44" y="479.5" >RenderTiles::doRender</text>
</g>
<g >
<title>i18npool::BreakIteratorImpl::endOfScript (3 samples, 16.67%)</title><rect x="927.8" y="197" width="196.6" height="15.0" fill="rgb(210,221,1)" rx="2" ry="2" />
<text  x="930.78" y="207.5" >i18npool::BreakIteratorIm..</text>
</g>
<g >
<title>_cairo_gstate_ensure_scaled_font (1 samples, 5.56%)</title><rect x="796.7" y="469" width="65.5" height="15.0" fill="rgb(246,3,37)" rx="2" ry="2" />
<text  x="799.67" y="479.5" >_cairo_..</text>
</g>
<g >
<title>tt_face_init (1 samples, 5.56%)</title><rect x="796.7" y="357" width="65.5" height="15.0" fill="rgb(206,193,38)" rx="2" ry="2" />
<text  x="799.67" y="367.5" >tt_face..</text>
</g>
<g >
<title>[libc.so.6] (8 samples, 44.44%)</title><rect x="10.0" y="405" width="524.4" height="15.0" fill="rgb(219,182,5)" rx="2" ry="2" />
<text  x="13.00" y="415.5" >[libc.so.6]</text>
</g>
<g >
<title>SvpSalInstance::CheckTimeout (1 samples, 5.56%)</title><rect x="731.1" y="389" width="65.6" height="15.0" fill="rgb(248,135,35)" rx="2" ry="2" />
<text  x="734.11" y="399.5" >SvpSalI..</text>
</g>
<g >
<title>SvpSalInstance::ImplYield (1 samples, 5.56%)</title><rect x="1124.4" y="389" width="65.6" height="15.0" fill="rgb(229,90,20)" rx="2" ry="2" />
<text  x="1127.44" y="399.5" >SvpSalI..</text>
</g>
<g >
<title>[libc.so.6] (1 samples, 5.56%)</title><rect x="731.1" y="69" width="65.6" height="15.0" fill="rgb(208,76,18)" rx="2" ry="2" />
<text  x="734.11" y="79.5" >[libc.s..</text>
</g>
<g >
<title>_cairo_gstate_show_text_glyphs (1 samples, 5.56%)</title><rect x="796.7" y="485" width="65.5" height="15.0" fill="rgb(249,103,2)" rx="2" ry="2" />
<text  x="799.67" y="495.5" >_cairo_..</text>
</g>
<g >
<title>Application::Execute (1 samples, 5.56%)</title><rect x="1124.4" y="437" width="65.6" height="15.0" fill="rgb(251,135,21)" rx="2" ry="2" />
<text  x="1127.44" y="447.5" >Applica..</text>
</g>
<g >
<title>http::Session::syncDownload (8 samples, 44.44%)</title><rect x="10.0" y="453" width="524.4" height="15.0" fill="rgb(212,195,13)" rx="2" ry="2" />
<text  x="13.00" y="463.5" >http::Session::syncDownload</text>
</g>
<g >
<title>ZSTD_compressStream2 (3 samples, 16.67%)</title><rect x="534.4" y="405" width="196.7" height="15.0" fill="rgb(212,64,2)" rx="2" ry="2" />
<text  x="537.44" y="415.5" >ZSTD_compressStream2</text>
</g>
<g >
<title>SvpSalInstance::ImplYield (1 samples, 5.56%)</title><rect x="731.1" y="405" width="65.6" height="15.0" fill="rgb(211,121,1)" rx="2" ry="2" />
<text  x="734.11" y="415.5" >SvpSalI..</text>
</g>
<g >
<title>ImplSVMain (1 samples, 5.56%)</title><rect x="731.1" y="485" width="65.6" height="15.0" fill="rgb(216,88,5)" rx="2" ry="2" />
<text  x="734.11" y="495.5" >ImplSVM..</text>
</g>
<g >
<title>[unknown] (8 samples, 44.44%)</title><rect x="10.0" y="501" width="524.4" height="15.0" fill="rgb(242,65,10)" rx="2" ry="2" />
<text  x="13.00" y="511.5" >[unknown]</text>
</g>
<g >
<title>ThreadPool::run (3 samples, 16.67%)</title><rect x="534.4" y="453" width="196.7" height="15.0" fill="rgb(238,217,27)" rx="2" ry="2" />
<text  x="537.44" y="463.5" >ThreadPool::run</text>
</g>
<g >
<title>Scheduler::CallbackTaskScheduling (1 samples, 5.56%)</title><rect x="731.1" y="373" width="65.6" height="15.0" fill="rgb(249,102,27)" rx="2" ry="2" />
<text  x="734.11" y="383.5" >Schedul..</text>
</g>
<g >
<title>sw::DocumentTimerManager::DoIdleJobs (1 samples, 5.56%)</title><rect x="731.1" y="357" width="65.6" height="15.0" fill="rgb(235,140,36)" rx="2" ry="2" />
<text  x="734.11" y="367.5" >sw::Doc..</text>
</g>
<g >
<title>SpellCheckerDispatcher::isValid (1 samples, 5.56%)</title><rect x="862.2" y="197" width="65.6" height="15.0" fill="rgb(252,104,14)" rx="2" ry="2" />
<text  x="865.22" y="207.5" >SpellCh..</text>
</g>
<g >
<title>[libc.so.6] (1 samples, 5.56%)</title><rect x="862.2" y="133" width="65.6" height="15.0" fill="rgb(212,2,51)" rx="2" ry="2" />
<text  x="865.22" y="143.5" >[libc.s..</text>
</g>
<g >
<title>[libc.so.6] (1 samples, 5.56%)</title><rect x="1124.4" y="69" width="65.6" height="15.0" fill="rgb(225,97,46)" rx="2" ry="2" />
<text  x="1127.44" y="79.5" >[libc.s..</text>
</g>
<g >
<title>int rtl::str::compare&lt;rtl::str::with_length&lt;char16_t const&gt;, rtl::str::with_length&lt;char16_t const&gt;, rtl::str::CompareIgnoreAsciiCase, rtl::str::NoShortening&gt; (1 samples, 5.56%)</title><rect x="731.1" y="85" width="65.6" height="15.0" fill="rgb(228,156,15)" rx="2" ry="2" />
<text  x="734.11" y="95.5" >int rtl..</text>
</g>
<g >
<title>SwTextFrame::AutoSpell_ (1 samples, 5.56%)</title><rect x="731.1" y="277" width="65.6" height="15.0" fill="rgb(222,19,54)" rx="2" ry="2" />
<text  x="734.11" y="287.5" >SwTextF..</text>
</g>
<g >
<title>[coolforkit] (3 samples, 16.67%)</title><rect x="534.4" y="421" width="196.7" height="15.0" fill="rgb(247,75,53)" rx="2" ry="2" />
<text  x="537.44" y="431.5" >[coolforkit]</text>
</g>
<g >
<title>cairo_scaled_font_create (1 samples, 5.56%)</title><rect x="796.7" y="453" width="65.5" height="15.0" fill="rgb(245,83,47)" rx="2" ry="2" />
<text  x="799.67" y="463.5" >cairo_s..</text>
</g>
<g >
<title>Application::Execute (4 samples, 22.22%)</title><rect x="862.2" y="405" width="262.2" height="15.0" fill="rgb(233,135,42)" rx="2" ry="2" />
<text  x="865.22" y="415.5" >Application::Execute</text>
</g>
<g >
<title>SvpSalInstance::ImplYield (4 samples, 22.22%)</title><rect x="862.2" y="357" width="262.2" height="15.0" fill="rgb(248,193,18)" rx="2" ry="2" />
<text  x="865.22" y="367.5" >SvpSalInstance::ImplYield</text>
</g>
<g >
<title>Translate::Create (1 samples, 5.56%)</title><rect x="731.1" y="181" width="65.6" height="15.0" fill="rgb(239,84,27)" rx="2" ry="2" />
<text  x="734.11" y="191.5" >Transla..</text>
</g>
<g >
<title>std::_Rb_tree&lt;rtl::OUString, std::pair&lt;rtl::OUString const, std::shared_ptr&lt;LanguageTagImpl&gt; &gt;, std::_Select1st&lt;std::pair&lt;rtl::OUString const, std::shared_ptr&lt;LanguageTagImpl&gt; &gt; &gt;, (anonymous namespace)::compareIgnoreAsciiCaseLess, std::allocator&lt;std::pair&lt;rtl::OUString const, std::shared_ptr&lt;LanguageTagImpl&gt; &gt; &gt; &gt;::find (1 samples, 5.56%)</title><rect x="731.1" y="101" width="65.6" height="15.0" fill="rgb(217,128,18)" rx="2" ry="2" />
<text  x="734.11" y="111.5" >std::_R..</text>
</g>
<g >
<title>ImplSVMain (4 samples, 22.22%)</title><rect x="862.2" y="437" width="262.2" height="15.0" fill="rgb(218,149,37)" rx="2" ry="2" />
<text  x="865.22" y="447.5" >ImplSVMain</text>
</g>
<g >
<title>SwLayIdle::SwLayIdle (1 samples, 5.56%)</title><rect x="731.1" y="325" width="65.6" height="15.0" fill="rgb(220,144,10)" rx="2" ry="2" />
<text  x="734.11" y="335.5" >SwLayId..</text>
</g>
<g >
<title>ppoll (8 samples, 44.44%)</title><rect x="10.0" y="421" width="524.4" height="15.0" fill="rgb(211,6,13)" rx="2" ry="2" />
<text  x="13.00" y="431.5" >ppoll</text>
</g>
<g >
<title>desktop::Desktop::Main (1 samples, 5.56%)</title><rect x="731.1" y="469" width="65.6" height="15.0" fill="rgb(220,73,7)" rx="2" ry="2" />
<text  x="734.11" y="479.5" >desktop..</text>
</g>
<g >
<title>FT_Stream_ReadULong (1 samples, 5.56%)</title><rect x="796.7" y="325" width="65.5" height="15.0" fill="rgb(240,11,38)" rx="2" ry="2" />
<text  x="799.67" y="335.5" >FT_Stre..</text>
</g>
<g >
<title>SpellCheckerDispatcher::isValid (1 samples, 5.56%)</title><rect x="731.1" y="261" width="65.6" height="15.0" fill="rgb(228,75,33)" rx="2" ry="2" />
<text  x="734.11" y="271.5" >SpellCh..</text>
</g>
<g >
<title>syscall (1 samples, 5.56%)</title><rect x="862.2" y="101" width="65.6" height="15.0" fill="rgb(249,63,11)" rx="2" ry="2" />
<text  x="865.22" y="111.5" >syscall</text>
</g>
<g >
<title>ImplYield (1 samples, 5.56%)</title><rect x="731.1" y="437" width="65.6" height="15.0" fill="rgb(246,56,6)" rx="2" ry="2" />
<text  x="734.11" y="447.5" >ImplYield</text>
</g>
<g >
<title>SwLayIdle::DoIdleJob_ (1 samples, 5.56%)</title><rect x="731.1" y="293" width="65.6" height="15.0" fill="rgb(220,8,53)" rx="2" ry="2" />
<text  x="734.11" y="303.5" >SwLayId..</text>
</g>
<g >
<title>desktop::Desktop::Main (1 samples, 5.56%)</title><rect x="1124.4" y="453" width="65.6" height="15.0" fill="rgb(209,144,50)" rx="2" ry="2" />
<text  x="1127.44" y="463.5" >desktop..</text>
</g>
<g >
<title>_cairo_ft_unscaled_font_lock_face (1 samples, 5.56%)</title><rect x="796.7" y="421" width="65.5" height="15.0" fill="rgb(254,133,2)" rx="2" ry="2" />
<text  x="799.67" y="431.5" >_cairo_..</text>
</g>
<g >
<title>sw::DocumentTimerManager::DoIdleJobs (1 samples, 5.56%)</title><rect x="1124.4" y="341" width="65.6" height="15.0" fill="rgb(253,166,44)" rx="2" ry="2" />
<text  x="1127.44" y="351.5" >sw::Doc..</text>
</g>
<g >
<title>open_face (1 samples, 5.56%)</title><rect x="796.7" y="373" width="65.5" height="15.0" fill="rgb(252,73,47)" rx="2" ry="2" />
<text  x="799.67" y="383.5" >open_face</text>
</g>
<g >
<title>SpellCheckerDispatcher::isValid (1 samples, 5.56%)</title><rect x="862.2" y="213" width="65.6" height="15.0" fill="rgb(209,53,45)" rx="2" ry="2" />
<text  x="865.22" y="223.5" >SpellCh..</text>
</g>
<g >
<title>ft_open_face_internal (1 samples, 5.56%)</title><rect x="796.7" y="389" width="65.5" height="15.0" fill="rgb(224,48,18)" rx="2" ry="2" />
<text  x="799.67" y="399.5" >ft_open..</text>
</g>
<g >
<title>ThreadPool::runOne (3 samples, 16.67%)</title><rect x="534.4" y="437" width="196.7" height="15.0" fill="rgb(239,47,34)" rx="2" ry="2" />
<text  x="537.44" y="447.5" >ThreadPool::runOne</text>
</g>
<g >
<title>_cairo_ft_font_face_scaled_font_create (1 samples, 5.56%)</title><rect x="796.7" y="437" width="65.5" height="15.0" fill="rgb(211,108,5)" rx="2" ry="2" />
<text  x="799.67" y="447.5" >_cairo_..</text>
</g>
<g >
<title>SwLayIdle::DoIdleJob_ (1 samples, 5.56%)</title><rect x="1124.4" y="277" width="65.6" height="15.0" fill="rgb(250,221,13)" rx="2" ry="2" />
<text  x="1127.44" y="287.5" >SwLayId..</text>
</g>
<g >
<title>LanguageTag::registerImpl (1 samples, 5.56%)</title><rect x="1124.4" y="117" width="65.6" height="15.0" fill="rgb(249,159,39)" rx="2" ry="2" />
<text  x="1127.44" y="127.5" >Languag..</text>
</g>
<g >
<title>SpellCheckerDispatcher::isValid (1 samples, 5.56%)</title><rect x="1124.4" y="229" width="65.6" height="15.0" fill="rgb(210,39,31)" rx="2" ry="2" />
<text  x="1127.44" y="239.5" >SpellCh..</text>
</g>
<g >
<title>syscall (3 samples, 16.67%)</title><rect x="927.8" y="133" width="196.6" height="15.0" fill="rgb(217,81,29)" rx="2" ry="2" />
<text  x="930.78" y="143.5" >syscall</text>
</g>
<g >
<title>SwViewShell::LayoutIdle (1 samples, 5.56%)</title><rect x="731.1" y="341" width="65.6" height="15.0" fill="rgb(229,196,4)" rx="2" ry="2" />
<text  x="734.11" y="351.5" >SwViewS..</text>
</g>
<g >
<title>LanguageTag::isIsoLocale (1 samples, 5.56%)</title><rect x="731.1" y="149" width="65.6" height="15.0" fill="rgb(205,75,38)" rx="2" ry="2" />
<text  x="734.11" y="159.5" >Languag..</text>
</g>
<g >
<title>SvpSalInstance::DoYield (4 samples, 22.22%)</title><rect x="862.2" y="373" width="262.2" height="15.0" fill="rgb(215,33,39)" rx="2" ry="2" />
<text  x="865.22" y="383.5" >SvpSalInstance::DoYield</text>
</g>
<g >
<title>sfnt_init_face (1 samples, 5.56%)</title><rect x="796.7" y="341" width="65.5" height="15.0" fill="rgb(209,91,17)" rx="2" ry="2" />
<text  x="799.67" y="351.5" >sfnt_in..</text>
</g>
<g >
<title>LanguageTag::registerImpl (1 samples, 5.56%)</title><rect x="731.1" y="117" width="65.6" height="15.0" fill="rgb(248,94,42)" rx="2" ry="2" />
<text  x="734.11" y="127.5" >Languag..</text>
</g>
<g >
<title>kitbroker (10 samples, 55.56%)</title><rect x="534.4" y="517" width="655.6" height="15.0" fill="rgb(229,40,19)" rx="2" ry="2" />
<text  x="537.44" y="527.5" >kitbroker</text>
</g>
<g >
<title>Document::renderTiles (3 samples, 16.67%)</title><rect x="534.4" y="485" width="196.7" height="15.0" fill="rgb(223,48,47)" rx="2" ry="2" />
<text  x="537.44" y="495.5" >Document::renderTiles</text>
</g>
<g >
<title>int rtl::str::compare&lt;rtl::str::with_length&lt;char16_t const&gt;, rtl::str::with_length&lt;char16_t const&gt;, rtl::str::CompareIgnoreAsciiCase, rtl::str::NoShortening&gt; (1 samples, 5.56%)</title><rect x="1124.4" y="85" width="65.6" height="15.0" fill="rgb(235,160,35)" rx="2" ry="2" />
<text  x="1127.44" y="95.5" >int rtl..</text>
</g>
<g >
<title>SwViewShell::LayoutIdle (1 samples, 5.56%)</title><rect x="1124.4" y="325" width="65.6" height="15.0" fill="rgb(205,221,9)" rx="2" ry="2" />
<text  x="1127.44" y="335.5" >SwViewS..</text>
</g>
<g >
<title>SwTextFrame::AutoSpell_ (1 samples, 5.56%)</title><rect x="1124.4" y="261" width="65.6" height="15.0" fill="rgb(253,56,1)" rx="2" ry="2" />
<text  x="1127.44" y="271.5" >SwTextF..</text>
</g>
<g >
<title>std::_Rb_tree&lt;rtl::OUString, std::pair&lt;rtl::OUString const, std::shared_ptr&lt;LanguageTagImpl&gt; &gt;, std::_Select1st&lt;std::pair&lt;rtl::OUString const, std::shared_ptr&lt;LanguageTagImpl&gt; &gt; &gt;, (anonymous namespace)::compareIgnoreAsciiCaseLess, std::allocator&lt;std::pair&lt;rtl::OUString const, std::shared_ptr&lt;LanguageTagImpl&gt; &gt; &gt; &gt;::find (1 samples, 5.56%)</title><rect x="1124.4" y="101" width="65.6" height="15.0" fill="rgb(244,60,33)" rx="2" ry="2" />
<text  x="1127.44" y="111.5" >std::_R..</text>
</g>
<g >
<title>SwLayIdle::DoIdleJob (1 samples, 5.56%)</title><rect x="1124.4" y="293" width="65.6" height="15.0" fill="rgb(222,146,36)" rx="2" ry="2" />
<text  x="1127.44" y="303.5" >SwLayId..</text>
</g>
<g >
<title>Scheduler::CallbackTaskScheduling (4 samples, 22.22%)</title><rect x="862.2" y="325" width="262.2" height="15.0" fill="rgb(237,114,50)" rx="2" ry="2" />
<text  x="865.22" y="335.5" >Scheduler::CallbackTaskScheduling</text>
</g>
</g>
</svg>
