<?xml version="1.0" standalone="no"?>
<!DOCTYPE svg PUBLIC "-//W3C//DTD SVG 1.1//EN" "http://www.w3.org/Graphics/SVG/1.1/DTD/svg11.dtd">
<svg version="1.1" width="1200" height="566" onload="init(evt)" viewBox="0 0 1200 566" xmlns="http://www.w3.org/2000/svg" xmlns:xlink="http://www.w3.org/1999/xlink">
<!-- Flame graph stack visualization. See https://github.com/brendangregg/FlameGraph for latest version, and http://www.brendangregg.com/flamegraphs.html for examples. -->
<!-- NOTES:  -->
<defs>
	<linearGradient id="background" y1="0" y2="1" x1="0" x2="0" >
		<stop stop-color="#eeeeee" offset="5%" />
		<stop stop-color="#eeeeb0" offset="95%" />
	</linearGradient>
</defs>
<style type="text/css">
	text { font-family:Verdana; font-size:12px; fill:rgb(0,0,0); }
	#search, #ignorecase { opacity:0.1; cursor:pointer; }
	#search:hover, #search.show, #ignorecase:hover, #ignorecase.show { opacity:1; }
	#subtitle { text-anchor:middle; font-color:rgb(160,160,160); }
	#title { text-anchor:middle; font-size:17px}
	#unzoom { cursor:pointer; }
	#frames > *:hover { stroke:black; stroke-width:0.5; cursor:pointer; }
	.hide { display:none; }
	.parent { opacity:0.5; }
</style>
<script type="text/ecmascript">
<![CDATA[
	"use strict";
	var details, searchbtn, unzoombtn, matchedtxt, svg, searching, currentSearchTerm, ignorecase, ignorecaseBtn;
	function init(evt) {
		details = document.getElementById("details").firstChild;
		searchbtn = document.getElementById("search");
		ignorecaseBtn = document.getElementById("ignorecase");
		unzoombtn = document.getElementById("unzoom");
		matchedtxt = document.getElementById("matched");
		svg = document.getElementsByTagName("svg")[0];
		searching = 0;
		currentSearchTerm = null;

		// use GET parameters to restore a flamegraphs state.
		var params = get_params();
		if (params.x && params.y)
			zoom(find_group(document.querySelector('[x="' + params.x + '"][y="' + params.y + '"]')));
                if (params.s) search(params.s);
	}

	// event listeners
	window.addEventListener("click", function(e) {
		var target = find_group(e.target);
		if (target) {
			if (target.nodeName == "a") {
				if (e.ctrlKey === false) return;
				e.preventDefault();
			}
			if (target.classList.contains("parent")) unzoom(true);
			zoom(target);
			if (!document.querySelector('.parent')) {
				// we have basically done a clearzoom so clear the url
				var params = get_params();
				if (params.x) delete params.x;
				if (params.y) delete params.y;
				history.replaceState(null, null, parse_params(params));
				unzoombtn.classList.add("hide");
				return;
			}

			// set parameters for zoom state
			var el = target.querySelector("rect");
			if (el && el.attributes && el.attributes.y && el.attributes._orig_x) {
				var params = get_params()
				params.x = el.attributes._orig_x.value;
				params.y = el.attributes.y.value;
				history.replaceState(null, null, parse_params(params));
			}
		}
		else if (e.target.id == "unzoom") clearzoom();
		else if (e.target.id == "search") search_prompt();
		else if (e.target.id == "ignorecase") toggle_ignorecase();
	}, false)

	// mouse-over for info
	// show
	window.addEventListener("mouseover", function(e) {
		var target = find_group(e.target);
		if (target) details.nodeValue = "Function: " + g_to_text(target);
	}, false)

	// clear
	window.addEventListener("mouseout", function(e) {
		var target = find_group(e.target);
		if (target) details.nodeValue = ' ';
	}, false)

	// ctrl-F for search
	// ctrl-I to toggle case-sensitive search
	window.addEventListener("keydown",function (e) {
		if (e.keyCode === 114 || (e.ctrlKey && e.keyCode === 70)) {
			e.preventDefault();
			search_prompt();
		}
		else if (e.ctrlKey && e.keyCode === 73) {
			e.preventDefault();
			toggle_ignorecase();
		}
	}, false)

	// functions
	function get_params() {
		var params = {};
		var paramsarr = window.location.search.substr(1).split('&');
		for (var i = 0; i < paramsarr.length; ++i) {
			var tmp = paramsarr[i].split("=");
			if (!tmp[0] || !tmp[1]) continue;
			params[tmp[0]]  = decodeURIComponent(tmp[1]);
		}
		return params;
	}
	function parse_params(params) {
		var uri = "?";
		for (var key in params) {
			uri += key + '=' + encodeURIComponent(params[key]) + '&';
		}
		if (uri.slice(-1) == "&")
			uri = uri.substring(0, uri.length - 1);
		if (uri == '?')
			uri = window.location.href.split('?')[0];
		return uri;
	}
	function find_child(node, selector) {
		var children = node.querySelectorAll(selector);
		if (children.length) return children[0];
	}
	function find_group(node) {
		var parent = node.parentElement;
		if (!parent) return;
		if (parent.id == "frames") return node;
		return find_group(parent);
	}
	function orig_save(e, attr, val) {
		if (e.attributes["_orig_" + attr] != undefined) return;
		if (e.attributes[attr] == undefined) return;
		if (val == undefined) val = e.attributes[attr].value;
		e.setAttribute("_orig_" + attr, val);
	}
	function orig_load(e, attr) {
		if (e.attributes["_orig_"+attr] == undefined) return;
		e.attributes[attr].value = e.attributes["_orig_" + attr].value;
		e.removeAttribute("_orig_"+attr);
	}
	function g_to_text(e) {
		var text = find_child(e, "title").firstChild.nodeValue;
		return (text)
	}
	function g_to_func(e) {
		var func = g_to_text(e);
		// if there's any manipulation we want to do to the function
		// name before it's searched, do it here before returning.
		return (func);
	}
	function update_text(e) {
		var r = find_child(e, "rect");
		var t = find_child(e, "text");
		var w = parseFloat(r.attributes.width.value) -3;
		var txt = find_child(e, "title").textContent.replace(/\([^(]*\)$/,"");
		t.attributes.x.value = parseFloat(r.attributes.x.value) + 3;

		// Smaller than this size won't fit anything
		if (w < 2 * 12 * 0.59) {
			t.textContent = "";
			return;
		}

		t.textContent = txt;
		var sl = t.getSubStringLength(0, txt.length);
		// check if only whitespace or if we can fit the entire string into width w
		if (/^ *$/.test(txt) || sl < w)
			return;

		// this isn't perfect, but gives a good starting point
		// and avoids calling getSubStringLength too often
		var start = Math.floor((w/sl) * txt.length);
		for (var x = start; x > 0; x = x-2) {
			if (t.getSubStringLength(0, x + 2) <= w) {
				t.textContent = txt.substring(0, x) + "..";
				return;
			}
		}
		t.textContent = "";
	}

	// zoom
	function zoom_reset(e) {
		if (e.attributes != undefined) {
			orig_load(e, "x");
			orig_load(e, "width");
		}
		if (e.childNodes == undefined) return;
		for (var i = 0, c = e.childNodes; i < c.length; i++) {
			zoom_reset(c[i]);
		}
	}
	function zoom_child(e, x, ratio) {
		if (e.attributes != undefined) {
			if (e.attributes.x != undefined) {
				orig_save(e, "x");
				e.attributes.x.value = (parseFloat(e.attributes.x.value) - x - 10) * ratio + 10;
				if (e.tagName == "text")
					e.attributes.x.value = find_child(e.parentNode, "rect[x]").attributes.x.value + 3;
			}
			if (e.attributes.width != undefined) {
				orig_save(e, "width");
				e.attributes.width.value = parseFloat(e.attributes.width.value) * ratio;
			}
		}

		if (e.childNodes == undefined) return;
		for (var i = 0, c = e.childNodes; i < c.length; i++) {
			zoom_child(c[i], x - 10, ratio);
		}
	}
	function zoom_parent(e) {
		if (e.attributes) {
			if (e.attributes.x != undefined) {
				orig_save(e, "x");
				e.attributes.x.value = 10;
			}
			if (e.attributes.width != undefined) {
				orig_save(e, "width");
				e.attributes.width.value = parseInt(svg.width.baseVal.value) - (10 * 2);
			}
		}
		if (e.childNodes == undefined) return;
		for (var i = 0, c = e.childNodes; i < c.length; i++) {
			zoom_parent(c[i]);
		}
	}
	function zoom(node) {
		var attr = find_child(node, "rect").attributes;
		var width = parseFloat(attr.width.value);
		var xmin = parseFloat(attr.x.value);
		var xmax = parseFloat(xmin + width);
		var ymin = parseFloat(attr.y.value);
		var ratio = (svg.width.baseVal.value - 2 * 10) / width;

		// XXX: Workaround for JavaScript float issues (fix me)
		var fudge = 0.0001;

		unzoombtn.classList.remove("hide");

		var el = document.getElementById("frames").children;
		for (var i = 0; i < el.length; i++) {
			var e = el[i];
			var a = find_child(e, "rect").attributes;
			var ex = parseFloat(a.x.value);
			var ew = parseFloat(a.width.value);
			var upstack;
			// Is it an ancestor
			if (0 == 0) {
				upstack = parseFloat(a.y.value) > ymin;
			} else {
				upstack = parseFloat(a.y.value) < ymin;
			}
			if (upstack) {
				// Direct ancestor
				if (ex <= xmin && (ex+ew+fudge) >= xmax) {
					e.classList.add("parent");
					zoom_parent(e);
					update_text(e);
				}
				// not in current path
				else
					e.classList.add("hide");
			}
			// Children maybe
			else {
				// no common path
				if (ex < xmin || ex + fudge >= xmax) {
					e.classList.add("hide");
				}
				else {
					zoom_child(e, xmin, ratio);
					update_text(e);
				}
			}
		}
		search();
	}
	function unzoom(dont_update_text) {
		unzoombtn.classList.add("hide");
		var el = document.getElementById("frames").children;
		for(var i = 0; i < el.length; i++) {
			el[i].classList.remove("parent");
			el[i].classList.remove("hide");
			zoom_reset(el[i]);
			if(!dont_update_text) update_text(el[i]);
		}
		search();
	}
	function clearzoom() {
		unzoom();

		// remove zoom state
		var params = get_params();
		if (params.x) delete params.x;
		if (params.y) delete params.y;
		history.replaceState(null, null, parse_params(params));
	}

	// search
	function toggle_ignorecase() {
		ignorecase = !ignorecase;
		if (ignorecase) {
			ignorecaseBtn.classList.add("show");
		} else {
			ignorecaseBtn.classList.remove("show");
		}
		reset_search();
		search();
	}
	function reset_search() {
		var el = document.querySelectorAll("#frames rect");
		for (var i = 0; i < el.length; i++) {
			orig_load(el[i], "fill")
		}
		var params = get_params();
		delete params.s;
		history.replaceState(null, null, parse_params(params));
	}
	function search_prompt() {
		if (!searching) {
			var term = prompt("Enter a search term (regexp " +
			    "allowed, eg: ^ext4_)"
			    + (ignorecase ? ", ignoring case" : "")
			    + "\nPress Ctrl-i to toggle case sensitivity", "");
			if (term != null) search(term);
		} else {
			reset_search();
			searching = 0;
			currentSearchTerm = null;
			searchbtn.classList.remove("show");
			searchbtn.firstChild.nodeValue = "Search"
			matchedtxt.classList.add("hide");
			matchedtxt.firstChild.nodeValue = ""
		}
	}
	function search(term) {
		if (term) currentSearchTerm = term;

		var re = new RegExp(currentSearchTerm, ignorecase ? 'i' : '');
		var el = document.getElementById("frames").children;
		var matches = new Object();
		var maxwidth = 0;
		for (var i = 0; i < el.length; i++) {
			var e = el[i];
			var func = g_to_func(e);
			var rect = find_child(e, "rect");
			if (func == null || rect == null)
				continue;

			// Save max width. Only works as we have a root frame
			var w = parseFloat(rect.attributes.width.value);
			if (w > maxwidth)
				maxwidth = w;

			if (func.match(re)) {
				// highlight
				var x = parseFloat(rect.attributes.x.value);
				orig_save(rect, "fill");
				rect.attributes.fill.value = "rgb(230,0,230)";

				// remember matches
				if (matches[x] == undefined) {
					matches[x] = w;
				} else {
					if (w > matches[x]) {
						// overwrite with parent
						matches[x] = w;
					}
				}
				searching = 1;
			}
		}
		if (!searching)
			return;
		var params = get_params();
		params.s = currentSearchTerm;
		history.replaceState(null, null, parse_params(params));

		searchbtn.classList.add("show");
		searchbtn.firstChild.nodeValue = "Reset Search";

		// calculate percent matched, excluding vertical overlap
		var count = 0;
		var lastx = -1;
		var lastw = 0;
		var keys = Array();
		for (k in matches) {
			if (matches.hasOwnProperty(k))
				keys.push(k);
		}
		// sort the matched frames by their x location
		// ascending, then width descending
		keys.sort(function(a, b){
			return a - b;
		});
		// Step through frames saving only the biggest bottom-up frames
		// thanks to the sort order. This relies on the tree property
		// where children are always smaller than their parents.
		var fudge = 0.0001;	// JavaScript floating point
		for (var k in keys) {
			var x = parseFloat(keys[k]);
			var w = matches[keys[k]];
			if (x >= lastx + lastw - fudge) {
				count += w;
				lastx = x;
				lastw = w;
			}
		}
		// display matched percent
		matchedtxt.classList.remove("hide");
		var pct = 100 * count / maxwidth;
		if (pct != 100) pct = pct.toFixed(1)
		matchedtxt.firstChild.nodeValue = "Matched: " + pct + "%";
	}
]]>
</script>
<rect x="0.0" y="0" width="1200.0" height="566.0" fill="url(#background)"  />
<text id="title" x="600.00" y="24" >Share Watchdog Profile (2024-06-30T04:36:05.697582)</text>
<text id="details" x="10.00" y="549" > </text>
<text id="unzoom" x="10.00" y="24" class="hide">Reset Zoom</text>
<text id="search" x="1090.00" y="24" >Search</text>
<text id="ignorecase" x="1174.00" y="24" >ic</text>
<text id="matched" x="1090.00" y="549" > </text>
<g id="frames">
<g >
<title>png_read_row (1 samples, 5.00%)</title><rect x="1131.0" y="213" width="59.0" height="15.0" fill="rgb(248,168,12)" rx="2" ry="2" />
<text  x="1134.00" y="223.5" >png_re..</text>
</g>
<g >
<title>LanguageTag::convertToLocale (1 samples, 5.00%)</title><rect x="600.0" y="101" width="59.0" height="15.0" fill="rgb(234,70,32)" rx="2" ry="2" />
<text  x="603.00" y="111.5" >Langua..</text>
</g>
<g >
<title>handleUserProfileSignal (3 samples, 15.00%)</title><rect x="246.0" y="245" width="177.0" height="15.0" fill="rgb(252,27,35)" rx="2" ry="2" />
<text  x="249.00" y="255.5" >handleUserProfileSignal</text>
</g>
<g >
<title>soffice_main (8 samples, 40.00%)</title><rect x="482.0" y="437" width="472.0" height="15.0" fill="rgb(237,205,34)" rx="2" ry="2" />
<text  x="485.00" y="447.5" >soffice_main</text>
</g>
<g >
<title>sdr::contact::ViewObjectContact::getPrimitive2DSequenceSubHierarchy (4 samples, 20.00%)</title><rect x="954.0" y="453" width="236.0" height="15.0" fill="rgb(243,39,7)" rx="2" ry="2" />
<text  x="957.00" y="463.5" >sdr::contact::ViewObjectContact..</text>
</g>
<g >
<title>GfxLink::LoadNative (1 samples, 5.00%)</title><rect x="423.0" y="373" width="59.0" height="15.0" fill="rgb(213,192,41)" rx="2" ry="2" />
<text  x="426.00" y="383.5" >GfxLin..</text>
</g>
<g >
<title>drawinglayer::primitive2d::BufferedDecompositionPrimitive2D::get2DDecomposition (1 samples, 5.00%)</title><rect x="423.0" y="453" width="59.0" height="15.0" fill="rgb(215,46,45)" rx="2" ry="2" />
<text  x="426.00" y="463.5" >drawin..</text>
</g>
<g >
<title>GraphicFilter::readPNG (4 samples, 20.00%)</title><rect x="954.0" y="229" width="236.0" height="15.0" fill="rgb(233,25,28)" rx="2" ry="2" />
<text  x="957.00" y="239.5" >GraphicFilter::readPNG</text>
</g>
<g >
<title>SwTextFrame::AutoSpell_ (7 samples, 35.00%)</title><rect x="541.0" y="213" width="413.0" height="15.0" fill="rgb(248,184,49)" rx="2" ry="2" />
<text  x="544.00" y="223.5" >SwTextFrame::AutoSpell_</text>
</g>
<g >
<title>SpellCheckerDispatcher::isValid (4 samples, 20.00%)</title><rect x="541.0" y="181" width="236.0" height="15.0" fill="rgb(245,196,46)" rx="2" ry="2" />
<text  x="544.00" y="191.5" >SpellCheckerDispatcher::isValid</text>
</g>
<g >
<title>LanguageTag::getLanguageType (1 samples, 5.00%)</title><rect x="659.0" y="101" width="59.0" height="15.0" fill="rgb(239,193,4)" rx="2" ry="2" />
<text  x="662.00" y="111.5" >Langua..</text>
</g>
<g >
<title>LanguageTag::~LanguageTag (1 samples, 5.00%)</title><rect x="600.0" y="85" width="59.0" height="15.0" fill="rgb(237,94,11)" rx="2" ry="2" />
<text  x="603.00" y="95.5" >Langua..</text>
</g>
<g >
<title>linguistic::SearchDicList (3 samples, 15.00%)</title><rect x="600.0" y="133" width="177.0" height="15.0" fill="rgb(208,98,48)" rx="2" ry="2" />
<text  x="603.00" y="143.5" >linguistic::SearchDicList</text>
</g>
<g >
<title>[libc.so.6] (1 samples, 5.00%)</title><rect x="718.0" y="117" width="59.0" height="15.0" fill="rgb(208,163,41)" rx="2" ry="2" />
<text  x="721.00" y="127.5" >[libc...</text>
</g>
<g >
<title>Application::Execute (8 samples, 40.00%)</title><rect x="482.0" y="389" width="472.0" height="15.0" fill="rgb(235,113,8)" rx="2" ry="2" />
<text  x="485.00" y="399.5" >Application::Execute</text>
</g>
<g >
<title>utl::ConfigurationBroadcaster::~ConfigurationBroadcaster (3 samples, 15.00%)</title><rect x="246.0" y="277" width="177.0" height="15.0" fill="rgb(233,112,12)" rx="2" ry="2" />
<text  x="249.00" y="287.5" >utl::ConfigurationBroad..</text>
</g>
<g >
<title>[unknown] (20 samples, 100.00%)</title><rect x="10.0" y="485" width="1180.0" height="15.0" fill="rgb(205,54,48)" rx="2" ry="2" />
<text  x="13.00" y="495.5" >[unknown]</text>
</g>
<g >
<title>kitbroker (20 samples, 100.00%)</title><rect x="10.0" y="501" width="1180.0" height="15.0" fill="rgb(225,137,35)" rx="2" ry="2" />
<text  x="13.00" y="511.5" >kitbroker</text>
</g>
<g >
<title>ImpGraphic::swapIn (4 samples, 20.00%)</title><rect x="954.0" y="277" width="236.0" height="15.0" fill="rgb(224,206,45)" rx="2" ry="2" />
<text  x="957.00" y="287.5" >ImpGraphic::swapIn</text>
</g>
<g >
<title>SwViewShell::Paint (3 samples, 15.00%)</title><rect x="246.0" y="405" width="177.0" height="15.0" fill="rgb(249,63,31)" rx="2" ry="2" />
<text  x="249.00" y="415.5" >SwViewShell::Paint</text>
</g>
<g >
<title>SwTextPortion::Paint (3 samples, 15.00%)</title><rect x="246.0" y="309" width="177.0" height="15.0" fill="rgb(242,30,31)" rx="2" ry="2" />
<text  x="249.00" y="319.5" >SwTextPortion::Paint</text>
</g>
<g >
<title>Application::Execute (4 samples, 20.00%)</title><rect x="10.0" y="373" width="236.0" height="15.0" fill="rgb(230,159,5)" rx="2" ry="2" />
<text  x="13.00" y="383.5" >Application::Execute</text>
</g>
<g >
<title>syscall (1 samples, 5.00%)</title><rect x="423.0" y="245" width="59.0" height="15.0" fill="rgb(225,68,45)" rx="2" ry="2" />
<text  x="426.00" y="255.5" >syscall</text>
</g>
<g >
<title>SfxBindings::NextJob (1 samples, 5.00%)</title><rect x="482.0" y="293" width="59.0" height="15.0" fill="rgb(222,38,52)" rx="2" ry="2" />
<text  x="485.00" y="303.5" >SfxBin..</text>
</g>
<g >
<title>SwXParagraph::Impl::~Impl (3 samples, 15.00%)</title><rect x="10.0" y="133" width="177.0" height="15.0" fill="rgb(239,38,38)" rx="2" ry="2" />
<text  x="13.00" y="143.5" >SwXParagraph::Impl::~Impl</text>
</g>
<g >
<title>sw::(anonymous namespace)::HyperlinkCheck::check (1 samples, 5.00%)</title><rect x="482.0" y="197" width="59.0" height="15.0" fill="rgb(217,208,54)" rx="2" ry="2" />
<text  x="485.00" y="207.5" >sw::(a..</text>
</g>
<g >
<title>syscall (3 samples, 15.00%)</title><rect x="10.0" y="37" width="177.0" height="15.0" fill="rgb(250,171,1)" rx="2" ry="2" />
<text  x="13.00" y="47.5" >syscall</text>
</g>
<g >
<title>SwXTextPortion::GetPropertyValues_Impl (1 samples, 5.00%)</title><rect x="187.0" y="149" width="59.0" height="15.0" fill="rgb(228,63,19)" rx="2" ry="2" />
<text  x="190.00" y="159.5" >SwXTex..</text>
</g>
<g >
<title>SwLayIdle::SwLayIdle (7 samples, 35.00%)</title><rect x="541.0" y="261" width="413.0" height="15.0" fill="rgb(247,97,37)" rx="2" ry="2" />
<text  x="544.00" y="271.5" >SwLayIdle::SwLayIdle</text>
</g>
<g >
<title>[libc.so.6] (1 samples, 5.00%)</title><rect x="482.0" y="85" width="59.0" height="15.0" fill="rgb(235,113,25)" rx="2" ry="2" />
<text  x="485.00" y="95.5" >[libc...</text>
</g>
<g >
<title>SwXTextPortion::GetPropertyValues_Impl (1 samples, 5.00%)</title><rect x="482.0" y="165" width="59.0" height="15.0" fill="rgb(224,85,12)" rx="2" ry="2" />
<text  x="485.00" y="175.5" >SwXTex..</text>
</g>
<g >
<title>linguistic::GetDictionaryList (1 samples, 5.00%)</title><rect x="541.0" y="133" width="59.0" height="15.0" fill="rgb(212,221,16)" rx="2" ry="2" />
<text  x="544.00" y="143.5" >lingui..</text>
</g>
<g >
<title>ImpGraphic::getVectorGraphicData (4 samples, 20.00%)</title><rect x="954.0" y="309" width="236.0" height="15.0" fill="rgb(247,46,10)" rx="2" ry="2" />
<text  x="957.00" y="319.5" >ImpGraphic::getVectorGraphicData</text>
</g>
<g >
<title>sw::(anonymous namespace)::HyperlinkCheck::check (3 samples, 15.00%)</title><rect x="10.0" y="181" width="177.0" height="15.0" fill="rgb(234,215,2)" rx="2" ry="2" />
<text  x="13.00" y="191.5" >sw::(anonymous namespac..</text>
</g>
<g >
<title>[libc.so.6] (1 samples, 5.00%)</title><rect x="600.0" y="69" width="59.0" height="15.0" fill="rgb(227,40,36)" rx="2" ry="2" />
<text  x="603.00" y="79.5" >[libc...</text>
</g>
<g >
<title>SwLayIdle::DoIdleJob (7 samples, 35.00%)</title><rect x="541.0" y="245" width="413.0" height="15.0" fill="rgb(218,194,25)" rx="2" ry="2" />
<text  x="544.00" y="255.5" >SwLayIdle::DoIdleJob</text>
</g>
<g >
<title>SvpSalInstance::DoYield (8 samples, 40.00%)</title><rect x="482.0" y="357" width="472.0" height="15.0" fill="rgb(216,223,51)" rx="2" ry="2" />
<text  x="485.00" y="367.5" >SvpSalInstance::DoYield</text>
</g>
<g >
<title>drawinglayer::primitive2d::BufferedDecompositionPrimitive2D::get2DDecomposition (4 samples, 20.00%)</title><rect x="954.0" y="341" width="236.0" height="15.0" fill="rgb(222,162,20)" rx="2" ry="2" />
<text  x="957.00" y="351.5" >drawinglayer::primitive2d::Buff..</text>
</g>
<g >
<title>syscall (1 samples, 5.00%)</title><rect x="187.0" y="53" width="59.0" height="15.0" fill="rgb(230,2,12)" rx="2" ry="2" />
<text  x="190.00" y="63.5" >syscall</text>
</g>
<g >
<title>SfxItemSet::~SfxItemSet (1 samples, 5.00%)</title><rect x="187.0" y="117" width="59.0" height="15.0" fill="rgb(214,164,48)" rx="2" ry="2" />
<text  x="190.00" y="127.5" >SfxIte..</text>
</g>
<g >
<title>i18npool::CharacterClassificationImpl::~CharacterClassificationImpl (3 samples, 15.00%)</title><rect x="777.0" y="149" width="177.0" height="15.0" fill="rgb(212,134,41)" rx="2" ry="2" />
<text  x="780.00" y="159.5" >i18npool::CharacterClas..</text>
</g>
<g >
<title>lokit_main (4 samples, 20.00%)</title><rect x="10.0" y="453" width="236.0" height="15.0" fill="rgb(226,96,12)" rx="2" ry="2" />
<text  x="13.00" y="463.5" >lokit_main</text>
</g>
<g >
<title>GraphicFilter::ImportGraphic (4 samples, 20.00%)</title><rect x="954.0" y="245" width="236.0" height="15.0" fill="rgb(222,132,14)" rx="2" ry="2" />
<text  x="957.00" y="255.5" >GraphicFilter::ImportGraphic</text>
</g>
<g >
<title>inflate (1 samples, 5.00%)</title><rect x="423.0" y="293" width="59.0" height="15.0" fill="rgb(241,97,53)" rx="2" ry="2" />
<text  x="426.00" y="303.5" >inflate</text>
</g>
<g >
<title>SwViewShell::LayoutIdle (7 samples, 35.00%)</title><rect x="541.0" y="277" width="413.0" height="15.0" fill="rgb(208,205,53)" rx="2" ry="2" />
<text  x="544.00" y="287.5" >SwViewShell::LayoutIdle</text>
</g>
<g >
<title>SwTextPaintInfo::DrawText_ (3 samples, 15.00%)</title><rect x="246.0" y="293" width="177.0" height="15.0" fill="rgb(236,88,0)" rx="2" ry="2" />
<text  x="249.00" y="303.5" >SwTextPaintInfo::DrawTe..</text>
</g>
<g >
<title>CharClass::~CharClass (3 samples, 15.00%)</title><rect x="777.0" y="181" width="177.0" height="15.0" fill="rgb(217,16,20)" rx="2" ry="2" />
<text  x="780.00" y="191.5" >CharClass::~CharClass</text>
</g>
<g >
<title>SwXParagraph::~SwXParagraph (3 samples, 15.00%)</title><rect x="10.0" y="149" width="177.0" height="15.0" fill="rgb(244,10,48)" rx="2" ry="2" />
<text  x="13.00" y="159.5" >SwXParagraph::~SwXParag..</text>
</g>
<g >
<title>[libc.so.6] (1 samples, 5.00%)</title><rect x="541.0" y="85" width="59.0" height="15.0" fill="rgb(254,81,15)" rx="2" ry="2" />
<text  x="544.00" y="95.5" >[libc...</text>
</g>
<g >
<title>[libc.so.6] (1 samples, 5.00%)</title><rect x="1131.0" y="181" width="59.0" height="15.0" fill="rgb(220,61,30)" rx="2" ry="2" />
<text  x="1134.00" y="191.5" >[libc...</text>
</g>
<g >
<title>[libc.so.6] (3 samples, 15.00%)</title><rect x="10.0" y="69" width="177.0" height="15.0" fill="rgb(246,43,22)" rx="2" ry="2" />
<text  x="13.00" y="79.5" >[libc.so.6]</text>
</g>
<g >
<title>SwXTextPortion::getPropertyValue (1 samples, 5.00%)</title><rect x="482.0" y="181" width="59.0" height="15.0" fill="rgb(225,19,19)" rx="2" ry="2" />
<text  x="485.00" y="191.5" >SwXTex..</text>
</g>
<g >
<title>drawinglayer::primitive2d::GraphicPrimitive2D::create2DDecomposition (1 samples, 5.00%)</title><rect x="423.0" y="437" width="59.0" height="15.0" fill="rgb(227,42,15)" rx="2" ry="2" />
<text  x="426.00" y="447.5" >drawin..</text>
</g>
<g >
<title>handleUserProfileSignal (1 samples, 5.00%)</title><rect x="1131.0" y="165" width="59.0" height="15.0" fill="rgb(237,106,51)" rx="2" ry="2" />
<text  x="1134.00" y="175.5" >handle..</text>
</g>
<g >
<title>[libc.so.6] (1 samples, 5.00%)</title><rect x="659.0" y="69" width="59.0" height="15.0" fill="rgb(233,202,39)" rx="2" ry="2" />
<text  x="662.00" y="79.5" >[libc...</text>
</g>
<g >
<title>SfxBindings::NextJob_Impl (4 samples, 20.00%)</title><rect x="10.0" y="261" width="236.0" height="15.0" fill="rgb(231,51,17)" rx="2" ry="2" />
<text  x="13.00" y="271.5" >SfxBindings::NextJob_Impl</text>
</g>
<g >
<title>handleUserProfileSignal (1 samples, 5.00%)</title><rect x="482.0" y="69" width="59.0" height="15.0" fill="rgb(252,228,25)" rx="2" ry="2" />
<text  x="485.00" y="79.5" >handle..</text>
</g>
<g >
<title>handleUserProfileSignal (1 samples, 5.00%)</title><rect x="423.0" y="261" width="59.0" height="15.0" fill="rgb(250,148,24)" rx="2" ry="2" />
<text  x="426.00" y="271.5" >handle..</text>
</g>
<g >
<title>ImpGraphic::ensureAvailable (1 samples, 5.00%)</title><rect x="423.0" y="405" width="59.0" height="15.0" fill="rgb(217,140,32)" rx="2" ry="2" />
<text  x="426.00" y="415.5" >ImpGra..</text>
</g>
<g >
<title>doc_paintTile (3 samples, 15.00%)</title><rect x="246.0" y="469" width="177.0" height="15.0" fill="rgb(211,222,15)" rx="2" ry="2" />
<text  x="249.00" y="479.5" >doc_paintTile</text>
</g>
<g >
<title>handleUserProfileSignal (1 samples, 5.00%)</title><rect x="718.0" y="101" width="59.0" height="15.0" fill="rgb(214,62,29)" rx="2" ry="2" />
<text  x="721.00" y="111.5" >handle..</text>
</g>
<g >
<title>SfxBindings::NextJob_Impl (1 samples, 5.00%)</title><rect x="482.0" y="277" width="59.0" height="15.0" fill="rgb(240,140,38)" rx="2" ry="2" />
<text  x="485.00" y="287.5" >SfxBin..</text>
</g>
<g >
<title>drawinglayer::primitive2d::GraphicPrimitive2D::create2DDecomposition (4 samples, 20.00%)</title><rect x="954.0" y="325" width="236.0" height="15.0" fill="rgb(233,166,41)" rx="2" ry="2" />
<text  x="957.00" y="335.5" >drawinglayer::primitive2d::Grap..</text>
</g>
<g >
<title>png_read_IDAT_data (1 samples, 5.00%)</title><rect x="423.0" y="309" width="59.0" height="15.0" fill="rgb(232,41,16)" rx="2" ry="2" />
<text  x="426.00" y="319.5" >png_re..</text>
</g>
<g >
<title>Scheduler::CallbackTaskScheduling (4 samples, 20.00%)</title><rect x="10.0" y="293" width="236.0" height="15.0" fill="rgb(211,32,44)" rx="2" ry="2" />
<text  x="13.00" y="303.5" >Scheduler::CallbackTaskScheduling</text>
</g>
<g >
<title>soffice_main (4 samples, 20.00%)</title><rect x="10.0" y="421" width="236.0" height="15.0" fill="rgb(227,93,3)" rx="2" ry="2" />
<text  x="13.00" y="431.5" >soffice_main</text>
</g>
<g >
<title>png_read_row (1 samples, 5.00%)</title><rect x="423.0" y="325" width="59.0" height="15.0" fill="rgb(209,25,4)" rx="2" ry="2" />
<text  x="426.00" y="335.5" >png_re..</text>
</g>
<g >
<title>SfxItemSetFixed&lt; (1 samples, 5.00%)</title><rect x="187.0" y="133" width="59.0" height="15.0" fill="rgb(245,37,27)" rx="2" ry="2" />
<text  x="190.00" y="143.5" >SfxIte..</text>
</g>
<g >
<title>SwUnoCursorHelper::GetCursorAttr (1 samples, 5.00%)</title><rect x="482.0" y="133" width="59.0" height="15.0" fill="rgb(244,112,38)" rx="2" ry="2" />
<text  x="485.00" y="143.5" >SwUnoC..</text>
</g>
<g >
<title>SfxBindings::NextJob (4 samples, 20.00%)</title><rect x="10.0" y="277" width="236.0" height="15.0" fill="rgb(236,222,35)" rx="2" ry="2" />
<text  x="13.00" y="287.5" >SfxBindings::NextJob</text>
</g>
<g >
<title>drawinglayer::processor2d::BaseProcessor2D::process (4 samples, 20.00%)</title><rect x="954.0" y="373" width="236.0" height="15.0" fill="rgb(209,134,38)" rx="2" ry="2" />
<text  x="957.00" y="383.5" >drawinglayer::processor2d::Base..</text>
</g>
<g >
<title>SwXTextPortion::GetPropertyValue (1 samples, 5.00%)</title><rect x="482.0" y="149" width="59.0" height="15.0" fill="rgb(233,21,50)" rx="2" ry="2" />
<text  x="485.00" y="159.5" >SwXTex..</text>
</g>
<g >
<title>SwTextFrame::PaintSwFrame (3 samples, 15.00%)</title><rect x="246.0" y="341" width="177.0" height="15.0" fill="rgb(235,168,47)" rx="2" ry="2" />
<text  x="249.00" y="351.5" >SwTextFrame::PaintSwFrame</text>
</g>
<g >
<title>handleUserProfileSignal (3 samples, 15.00%)</title><rect x="10.0" y="53" width="177.0" height="15.0" fill="rgb(240,84,10)" rx="2" ry="2" />
<text  x="13.00" y="63.5" >handleUserProfileSignal</text>
</g>
<g >
<title>ImpGraphic::getVectorGraphicData (1 samples, 5.00%)</title><rect x="423.0" y="421" width="59.0" height="15.0" fill="rgb(247,64,46)" rx="2" ry="2" />
<text  x="426.00" y="431.5" >ImpGra..</text>
</g>
<g >
<title>sw::AccessibilityCheck::check (4 samples, 20.00%)</title><rect x="10.0" y="197" width="236.0" height="15.0" fill="rgb(226,153,23)" rx="2" ry="2" />
<text  x="13.00" y="207.5" >sw::AccessibilityCheck::check</text>
</g>
<g >
<title>SvpSalInstance::ImplYield (4 samples, 20.00%)</title><rect x="10.0" y="325" width="236.0" height="15.0" fill="rgb(229,95,45)" rx="2" ry="2" />
<text  x="13.00" y="335.5" >SvpSalInstance::ImplYield</text>
</g>
<g >
<title>GraphicFilter::readPNG (1 samples, 5.00%)</title><rect x="423.0" y="341" width="59.0" height="15.0" fill="rgb(244,5,23)" rx="2" ry="2" />
<text  x="426.00" y="351.5" >Graphi..</text>
</g>
<g >
<title>SwScanner::NextWord (3 samples, 15.00%)</title><rect x="777.0" y="197" width="177.0" height="15.0" fill="rgb(224,176,36)" rx="2" ry="2" />
<text  x="780.00" y="207.5" >SwScanner::NextWord</text>
</g>
<g >
<title>[libc.so.6] (1 samples, 5.00%)</title><rect x="187.0" y="85" width="59.0" height="15.0" fill="rgb(212,204,35)" rx="2" ry="2" />
<text  x="190.00" y="95.5" >[libc...</text>
</g>
<g >
<title>syscall (1 samples, 5.00%)</title><rect x="718.0" y="85" width="59.0" height="15.0" fill="rgb(231,72,8)" rx="2" ry="2" />
<text  x="721.00" y="95.5" >syscall</text>
</g>
<g >
<title>SfxStateCache::SetState_Impl (4 samples, 20.00%)</title><rect x="10.0" y="229" width="236.0" height="15.0" fill="rgb(230,70,37)" rx="2" ry="2" />
<text  x="13.00" y="239.5" >SfxStateCache::SetState_Impl</text>
</g>
<g >
<title>syscall (3 samples, 15.00%)</title><rect x="246.0" y="229" width="177.0" height="15.0" fill="rgb(208,185,6)" rx="2" ry="2" />
<text  x="249.00" y="239.5" >syscall</text>
</g>
<g >
<title>i18npool::cclass_Unicode::~cclass_Unicode (3 samples, 15.00%)</title><rect x="777.0" y="133" width="177.0" height="15.0" fill="rgb(237,223,29)" rx="2" ry="2" />
<text  x="780.00" y="143.5" >i18npool::cclass_Unicod..</text>
</g>
<g >
<title>SwXTextDocument::paintTile (3 samples, 15.00%)</title><rect x="246.0" y="453" width="177.0" height="15.0" fill="rgb(233,139,51)" rx="2" ry="2" />
<text  x="249.00" y="463.5" >SwXTextDocument::paintT..</text>
</g>
<g >
<title>sdr::contact::ViewObjectContact::getPrimitive2DSequence (4 samples, 20.00%)</title><rect x="954.0" y="405" width="236.0" height="15.0" fill="rgb(217,3,22)" rx="2" ry="2" />
<text  x="957.00" y="415.5" >sdr::contact::ViewObjectContact..</text>
</g>
<g >
<title>sdr::contact::ViewObjectContactOfMasterPageDescriptor::getPrimitive2DSequenceHierarchy (4 samples, 20.00%)</title><rect x="954.0" y="469" width="236.0" height="15.0" fill="rgb(236,229,47)" rx="2" ry="2" />
<text  x="957.00" y="479.5" >sdr::contact::ViewObjectContact..</text>
</g>
<g >
<title>lcl_GetRulingDictionaryEntry (4 samples, 20.00%)</title><rect x="541.0" y="149" width="236.0" height="15.0" fill="rgb(206,30,9)" rx="2" ry="2" />
<text  x="544.00" y="159.5" >lcl_GetRulingDictionaryEntry</text>
</g>
<g >
<title>png_read_filter_row_paeth4_sse2 (1 samples, 5.00%)</title><rect x="1131.0" y="197" width="59.0" height="15.0" fill="rgb(226,158,12)" rx="2" ry="2" />
<text  x="1134.00" y="207.5" >png_re..</text>
</g>
<g >
<title>syscall (1 samples, 5.00%)</title><rect x="659.0" y="37" width="59.0" height="15.0" fill="rgb(247,96,32)" rx="2" ry="2" />
<text  x="662.00" y="47.5" >syscall</text>
</g>
<g >
<title>drawinglayer::processor2d::BaseProcessor2D::process (4 samples, 20.00%)</title><rect x="954.0" y="357" width="236.0" height="15.0" fill="rgb(222,215,39)" rx="2" ry="2" />
<text  x="957.00" y="367.5" >drawinglayer::processor2d::Base..</text>
</g>
<g >
<title>com::sun::star::linguistic2::DictionaryList::create (1 samples, 5.00%)</title><rect x="541.0" y="117" width="59.0" height="15.0" fill="rgb(227,105,0)" rx="2" ry="2" />
<text  x="544.00" y="127.5" >com::s..</text>
</g>
<g >
<title>SvpSalInstance::CheckTimeout (8 samples, 40.00%)</title><rect x="482.0" y="325" width="472.0" height="15.0" fill="rgb(220,174,23)" rx="2" ry="2" />
<text  x="485.00" y="335.5" >SvpSalInstance::CheckTimeout</text>
</g>
<g >
<title>i18npool::cclass_Unicode::destroyParserTable (3 samples, 15.00%)</title><rect x="777.0" y="101" width="177.0" height="15.0" fill="rgb(211,18,48)" rx="2" ry="2" />
<text  x="780.00" y="111.5" >i18npool::cclass_Unicod..</text>
</g>
<g >
<title>SwLayIdle::DoIdleJob_ (7 samples, 35.00%)</title><rect x="541.0" y="229" width="413.0" height="15.0" fill="rgb(219,102,2)" rx="2" ry="2" />
<text  x="544.00" y="239.5" >SwLayIdle::DoIdleJob_</text>
</g>
<g >
<title>SfxBindings::Update_Impl (4 samples, 20.00%)</title><rect x="10.0" y="245" width="236.0" height="15.0" fill="rgb(207,44,5)" rx="2" ry="2" />
<text  x="13.00" y="255.5" >SfxBindings::Update_Impl</text>
</g>
<g >
<title>SfxItemSet::ClearAllItemsImpl (1 samples, 5.00%)</title><rect x="187.0" y="101" width="59.0" height="15.0" fill="rgb(228,158,18)" rx="2" ry="2" />
<text  x="190.00" y="111.5" >SfxIte..</text>
</g>
<g >
<title>desktop::Desktop::Main (8 samples, 40.00%)</title><rect x="482.0" y="405" width="472.0" height="15.0" fill="rgb(248,108,4)" rx="2" ry="2" />
<text  x="485.00" y="415.5" >desktop::Desktop::Main</text>
</g>
<g >
<title>sw::sidebar::A11yCheckIssuesPanel::populateIssues (1 samples, 5.00%)</title><rect x="482.0" y="229" width="59.0" height="15.0" fill="rgb(219,122,39)" rx="2" ry="2" />
<text  x="485.00" y="239.5" >sw::si..</text>
</g>
<g >
<title>syscall (1 samples, 5.00%)</title><rect x="541.0" y="53" width="59.0" height="15.0" fill="rgb(249,111,45)" rx="2" ry="2" />
<text  x="544.00" y="63.5" >syscall</text>
</g>
<g >
<title>sw::(anonymous namespace)::TextContrastCheck::check (1 samples, 5.00%)</title><rect x="187.0" y="181" width="59.0" height="15.0" fill="rgb(225,123,4)" rx="2" ry="2" />
<text  x="190.00" y="191.5" >sw::(a..</text>
</g>
<g >
<title>syscall (3 samples, 15.00%)</title><rect x="777.0" y="53" width="177.0" height="15.0" fill="rgb(234,176,38)" rx="2" ry="2" />
<text  x="780.00" y="63.5" >syscall</text>
</g>
<g >
<title>SfxBindings::Update_Impl (1 samples, 5.00%)</title><rect x="482.0" y="261" width="59.0" height="15.0" fill="rgb(243,16,32)" rx="2" ry="2" />
<text  x="485.00" y="271.5" >SfxBin..</text>
</g>
<g >
<title>SvpSalInstance::CheckTimeout (4 samples, 20.00%)</title><rect x="10.0" y="309" width="236.0" height="15.0" fill="rgb(248,130,48)" rx="2" ry="2" />
<text  x="13.00" y="319.5" >SvpSalInstance::CheckTimeout</text>
</g>
<g >
<title>syscall (3 samples, 15.00%)</title><rect x="954.0" y="181" width="177.0" height="15.0" fill="rgb(208,193,13)" rx="2" ry="2" />
<text  x="957.00" y="191.5" >syscall</text>
</g>
<g >
<title>SwLayoutFrame::PaintSwFrame (3 samples, 15.00%)</title><rect x="246.0" y="373" width="177.0" height="15.0" fill="rgb(238,221,15)" rx="2" ry="2" />
<text  x="249.00" y="383.5" >SwLayoutFrame::PaintSwF..</text>
</g>
<g >
<title>GfxLink::LoadNative (4 samples, 20.00%)</title><rect x="954.0" y="261" width="236.0" height="15.0" fill="rgb(243,64,2)" rx="2" ry="2" />
<text  x="957.00" y="271.5" >GfxLink::LoadNative</text>
</g>
<g >
<title>sdr::contact::ViewObjectContact::getPrimitive2DSequenceSubHierarchy (4 samples, 20.00%)</title><rect x="954.0" y="437" width="236.0" height="15.0" fill="rgb(207,35,20)" rx="2" ry="2" />
<text  x="957.00" y="447.5" >sdr::contact::ViewObjectContact..</text>
</g>
<g >
<title>SpellCheckerDispatcher::isValid (4 samples, 20.00%)</title><rect x="541.0" y="197" width="236.0" height="15.0" fill="rgb(218,13,18)" rx="2" ry="2" />
<text  x="544.00" y="207.5" >SpellCheckerDispatcher::isValid</text>
</g>
<g >
<title>handleUserProfileSignal (3 samples, 15.00%)</title><rect x="954.0" y="197" width="177.0" height="15.0" fill="rgb(247,149,45)" rx="2" ry="2" />
<text  x="957.00" y="207.5" >handleUserProfileSignal</text>
</g>
<g >
<title>ImplYield (4 samples, 20.00%)</title><rect x="10.0" y="357" width="236.0" height="15.0" fill="rgb(206,103,54)" rx="2" ry="2" />
<text  x="13.00" y="367.5" >ImplYield</text>
</g>
<g >
<title>syscall (1 samples, 5.00%)</title><rect x="1131.0" y="149" width="59.0" height="15.0" fill="rgb(223,68,23)" rx="2" ry="2" />
<text  x="1134.00" y="159.5" >syscall</text>
</g>
<g >
<title>drawinglayer::processor2d::BaseProcessor2D::process (1 samples, 5.00%)</title><rect x="423.0" y="469" width="59.0" height="15.0" fill="rgb(246,172,44)" rx="2" ry="2" />
<text  x="426.00" y="479.5" >drawin..</text>
</g>
<g >
<title>SwTextPainter::DrawTextLine (3 samples, 15.00%)</title><rect x="246.0" y="325" width="177.0" height="15.0" fill="rgb(251,73,48)" rx="2" ry="2" />
<text  x="249.00" y="335.5" >SwTextPainter::DrawText..</text>
</g>
<g >
<title>SpellCheckerDispatcher::isValid_Impl (4 samples, 20.00%)</title><rect x="541.0" y="165" width="236.0" height="15.0" fill="rgb(213,188,0)" rx="2" ry="2" />
<text  x="544.00" y="175.5" >SpellCheckerDispatcher::isValid..</text>
</g>
<g >
<title>SvpSalInstance::DoYield (4 samples, 20.00%)</title><rect x="10.0" y="341" width="236.0" height="15.0" fill="rgb(212,86,54)" rx="2" ry="2" />
<text  x="13.00" y="351.5" >SvpSalInstance::DoYield</text>
</g>
<g >
<title>SfxStateCache::SetState_Impl (1 samples, 5.00%)</title><rect x="482.0" y="245" width="59.0" height="15.0" fill="rgb(215,183,23)" rx="2" ry="2" />
<text  x="485.00" y="255.5" >SfxSta..</text>
</g>
<g >
<title>lo_runLoop (8 samples, 40.00%)</title><rect x="482.0" y="453" width="472.0" height="15.0" fill="rgb(214,46,1)" rx="2" ry="2" />
<text  x="485.00" y="463.5" >lo_runLoop</text>
</g>
<g >
<title>lo_runLoop (4 samples, 20.00%)</title><rect x="10.0" y="437" width="236.0" height="15.0" fill="rgb(247,18,39)" rx="2" ry="2" />
<text  x="13.00" y="447.5" >lo_runLoop</text>
</g>
<g >
<title>DictionaryNeo::getLocale (1 samples, 5.00%)</title><rect x="600.0" y="117" width="59.0" height="15.0" fill="rgb(238,6,3)" rx="2" ry="2" />
<text  x="603.00" y="127.5" >Dictio..</text>
</g>
<g >
<title>syscall (1 samples, 5.00%)</title><rect x="482.0" y="53" width="59.0" height="15.0" fill="rgb(213,90,37)" rx="2" ry="2" />
<text  x="485.00" y="63.5" >syscall</text>
</g>
<g >
<title>handleUserProfileSignal (1 samples, 5.00%)</title><rect x="541.0" y="69" width="59.0" height="15.0" fill="rgb(222,89,40)" rx="2" ry="2" />
<text  x="544.00" y="79.5" >handle..</text>
</g>
<g >
<title>[libc.so.6] (1 samples, 5.00%)</title><rect x="423.0" y="277" width="59.0" height="15.0" fill="rgb(230,70,14)" rx="2" ry="2" />
<text  x="426.00" y="287.5" >[libc...</text>
</g>
<g >
<title>handleUserProfileSignal (1 samples, 5.00%)</title><rect x="600.0" y="53" width="59.0" height="15.0" fill="rgb(242,111,49)" rx="2" ry="2" />
<text  x="603.00" y="63.5" >handle..</text>
</g>
<g >
<title>ImplSVMain (8 samples, 40.00%)</title><rect x="482.0" y="421" width="472.0" height="15.0" fill="rgb(230,186,37)" rx="2" ry="2" />
<text  x="485.00" y="431.5" >ImplSVMain</text>
</g>
<g >
<title>ImplSVMain (4 samples, 20.00%)</title><rect x="10.0" y="405" width="236.0" height="15.0" fill="rgb(252,104,54)" rx="2" ry="2" />
<text  x="13.00" y="415.5" >ImplSVMain</text>
</g>
<g >
<title>SfxItemSet::SfxItemSet (1 samples, 5.00%)</title><rect x="482.0" y="117" width="59.0" height="15.0" fill="rgb(218,220,23)" rx="2" ry="2" />
<text  x="485.00" y="127.5" >SfxIte..</text>
</g>
<g >
<title>i18npool::cclass_Unicode::~cclass_Unicode (3 samples, 15.00%)</title><rect x="777.0" y="117" width="177.0" height="15.0" fill="rgb(228,22,47)" rx="2" ry="2" />
<text  x="780.00" y="127.5" >i18npool::cclass_Unicod..</text>
</g>
<g >
<title>handleUserProfileSignal (3 samples, 15.00%)</title><rect x="777.0" y="69" width="177.0" height="15.0" fill="rgb(227,6,3)" rx="2" ry="2" />
<text  x="780.00" y="79.5" >handleUserProfileSignal</text>
</g>
<g >
<title>LanguageTag::getImpl (1 samples, 5.00%)</title><rect x="659.0" y="85" width="59.0" height="15.0" fill="rgb(211,92,51)" rx="2" ry="2" />
<text  x="662.00" y="95.5" >Langua..</text>
</g>
<g >
<title>SwRootFrame::PaintSwFrame (3 samples, 15.00%)</title><rect x="246.0" y="389" width="177.0" height="15.0" fill="rgb(229,218,6)" rx="2" ry="2" />
<text  x="249.00" y="399.5" >SwRootFrame::PaintSwFrame</text>
</g>
<g >
<title>SwCursorShell::Paint (3 samples, 15.00%)</title><rect x="246.0" y="421" width="177.0" height="15.0" fill="rgb(218,4,6)" rx="2" ry="2" />
<text  x="249.00" y="431.5" >SwCursorShell::Paint</text>
</g>
<g >
<title>ImplYield (8 samples, 40.00%)</title><rect x="482.0" y="373" width="472.0" height="15.0" fill="rgb(207,84,54)" rx="2" ry="2" />
<text  x="485.00" y="383.5" >ImplYield</text>
</g>
<g >
<title>sdr::contact::ViewObjectContact::checkForPrimitive2DAnimations (4 samples, 20.00%)</title><rect x="954.0" y="389" width="236.0" height="15.0" fill="rgb(252,143,39)" rx="2" ry="2" />
<text  x="957.00" y="399.5" >sdr::contact::ViewObjectContact..</text>
</g>
<g >
<title>syscall (1 samples, 5.00%)</title><rect x="600.0" y="37" width="59.0" height="15.0" fill="rgb(205,224,19)" rx="2" ry="2" />
<text  x="603.00" y="47.5" >syscall</text>
</g>
<g >
<title>sdr::contact::ViewObjectContact::getPrimitive2DSequenceHierarchy (4 samples, 20.00%)</title><rect x="954.0" y="421" width="236.0" height="15.0" fill="rgb(247,63,25)" rx="2" ry="2" />
<text  x="957.00" y="431.5" >sdr::contact::ViewObjectContact..</text>
</g>
<g >
<title>pthread_mutex_lock@@GLIBC_2.2.5 (3 samples, 15.00%)</title><rect x="10.0" y="85" width="177.0" height="15.0" fill="rgb(241,49,10)" rx="2" ry="2" />
<text  x="13.00" y="95.5" >pthread_mutex_lock@@GLI..</text>
</g>
<g >
<title>handleUserProfileSignal (1 samples, 5.00%)</title><rect x="659.0" y="53" width="59.0" height="15.0" fill="rgb(253,221,18)" rx="2" ry="2" />
<text  x="662.00" y="63.5" >handle..</text>
</g>
<g >
<title>ImpGraphic::ensureAvailable (4 samples, 20.00%)</title><rect x="954.0" y="293" width="236.0" height="15.0" fill="rgb(229,176,29)" rx="2" ry="2" />
<text  x="957.00" y="303.5" >ImpGraphic::ensureAvailable</text>
</g>
<g >
<title>SwViewShell::PaintTile (3 samples, 15.00%)</title><rect x="246.0" y="437" width="177.0" height="15.0" fill="rgb(213,151,47)" rx="2" ry="2" />
<text  x="249.00" y="447.5" >SwViewShell::PaintTile</text>
</g>
<g >
<title>void rtl::str::newFromStr_WithLength&lt;_rtl_uString, char&gt; (1 samples, 5.00%)</title><rect x="541.0" y="101" width="59.0" height="15.0" fill="rgb(243,167,17)" rx="2" ry="2" />
<text  x="544.00" y="111.5" >void r..</text>
</g>
<g >
<title>SwXTextPortion::getPropertyValue (1 samples, 5.00%)</title><rect x="187.0" y="165" width="59.0" height="15.0" fill="rgb(251,92,32)" rx="2" ry="2" />
<text  x="190.00" y="175.5" >SwXTex..</text>
</g>
<g >
<title>ImpGraphic::swapIn (1 samples, 5.00%)</title><rect x="423.0" y="389" width="59.0" height="15.0" fill="rgb(212,76,12)" rx="2" ry="2" />
<text  x="426.00" y="399.5" >ImpGra..</text>
</g>
<g >
<title>handleUserProfileSignal (1 samples, 5.00%)</title><rect x="187.0" y="69" width="59.0" height="15.0" fill="rgb(218,76,34)" rx="2" ry="2" />
<text  x="190.00" y="79.5" >handle..</text>
</g>
<g >
<title>SwXParagraph::~SwXParagraph (3 samples, 15.00%)</title><rect x="10.0" y="165" width="177.0" height="15.0" fill="rgb(248,110,3)" rx="2" ry="2" />
<text  x="13.00" y="175.5" >SwXParagraph::~SwXParag..</text>
</g>
<g >
<title>__memset_avx2_unaligned_erms (1 samples, 5.00%)</title><rect x="482.0" y="101" width="59.0" height="15.0" fill="rgb(211,181,35)" rx="2" ry="2" />
<text  x="485.00" y="111.5" >__mems..</text>
</g>
<g >
<title>[libc.so.6] (3 samples, 15.00%)</title><rect x="246.0" y="261" width="177.0" height="15.0" fill="rgb(232,183,24)" rx="2" ry="2" />
<text  x="249.00" y="271.5" >[libc.so.6]</text>
</g>
<g >
<title>SvpSalInstance::ImplYield (8 samples, 40.00%)</title><rect x="482.0" y="341" width="472.0" height="15.0" fill="rgb(241,53,12)" rx="2" ry="2" />
<text  x="485.00" y="351.5" >SvpSalInstance::ImplYield</text>
</g>
<g >
<title>sw::DocumentTimerManager::DoIdleJobs (7 samples, 35.00%)</title><rect x="541.0" y="293" width="413.0" height="15.0" fill="rgb(240,77,48)" rx="2" ry="2" />
<text  x="544.00" y="303.5" >sw::DocumentTimerManager::DoIdleJobs</text>
</g>
<g >
<title>LanguageTag::convertToLanguageType (1 samples, 5.00%)</title><rect x="659.0" y="117" width="59.0" height="15.0" fill="rgb(214,95,12)" rx="2" ry="2" />
<text  x="662.00" y="127.5" >Langua..</text>
</g>
<g >
<title>sw::sidebar::A11yCheckIssuesPanel::populateIssues (4 samples, 20.00%)</title><rect x="10.0" y="213" width="236.0" height="15.0" fill="rgb(228,211,42)" rx="2" ry="2" />
<text  x="13.00" y="223.5" >sw::sidebar::A11yCheckIssuesPan..</text>
</g>
<g >
<title>i18npool::CharacterClassificationImpl::~CharacterClassificationImpl (3 samples, 15.00%)</title><rect x="777.0" y="165" width="177.0" height="15.0" fill="rgb(225,125,12)" rx="2" ry="2" />
<text  x="780.00" y="175.5" >i18npool::CharacterClas..</text>
</g>
<g >
<title>GraphicFilter::ImportGraphic (1 samples, 5.00%)</title><rect x="423.0" y="357" width="59.0" height="15.0" fill="rgb(248,56,36)" rx="2" ry="2" />
<text  x="426.00" y="367.5" >Graphi..</text>
</g>
<g >
<title>sw::AccessibilityCheck::check (1 samples, 5.00%)</title><rect x="482.0" y="213" width="59.0" height="15.0" fill="rgb(220,116,51)" rx="2" ry="2" />
<text  x="485.00" y="223.5" >sw::Ac..</text>
</g>
<g >
<title>[coolforkit] (4 samples, 20.00%)</title><rect x="10.0" y="469" width="236.0" height="15.0" fill="rgb(253,143,47)" rx="2" ry="2" />
<text  x="13.00" y="479.5" >[coolforkit]</text>
</g>
<g >
<title>lokit_main (8 samples, 40.00%)</title><rect x="482.0" y="469" width="472.0" height="15.0" fill="rgb(221,220,34)" rx="2" ry="2" />
<text  x="485.00" y="479.5" >lokit_main</text>
</g>
<g >
<title>all (20 samples, 100%)</title><rect x="10.0" y="517" width="1180.0" height="15.0" fill="rgb(231,203,33)" rx="2" ry="2" />
<text  x="13.00" y="527.5" ></text>
</g>
<g >
<title>desktop::Desktop::Main (4 samples, 20.00%)</title><rect x="10.0" y="389" width="236.0" height="15.0" fill="rgb(232,38,14)" rx="2" ry="2" />
<text  x="13.00" y="399.5" >desktop::Desktop::Main</text>
</g>
<g >
<title>com::sun::star::uno::WeakReferenceHelper::clear (3 samples, 15.00%)</title><rect x="10.0" y="117" width="177.0" height="15.0" fill="rgb(243,62,35)" rx="2" ry="2" />
<text  x="13.00" y="127.5" >com::sun::star::uno::We..</text>
</g>
<g >
<title>[libc.so.6] (3 samples, 15.00%)</title><rect x="777.0" y="85" width="177.0" height="15.0" fill="rgb(222,100,47)" rx="2" ry="2" />
<text  x="780.00" y="95.5" >[libc.so.6]</text>
</g>
<g >
<title>[libc.so.6] (3 samples, 15.00%)</title><rect x="954.0" y="213" width="177.0" height="15.0" fill="rgb(236,51,36)" rx="2" ry="2" />
<text  x="957.00" y="223.5" >[libc.so.6]</text>
</g>
<g >
<title>com::sun::star::uno::OWeakRefListener::dispose (3 samples, 15.00%)</title><rect x="10.0" y="101" width="177.0" height="15.0" fill="rgb(222,1,35)" rx="2" ry="2" />
<text  x="13.00" y="111.5" >com::sun::star::uno::OW..</text>
</g>
<g >
<title>SwLayoutFrame::PaintSwFrame (3 samples, 15.00%)</title><rect x="246.0" y="357" width="177.0" height="15.0" fill="rgb(206,0,11)" rx="2" ry="2" />
<text  x="249.00" y="367.5" >SwLayoutFrame::PaintSwF..</text>
</g>
<g >
<title>Scheduler::CallbackTaskScheduling (8 samples, 40.00%)</title><rect x="482.0" y="309" width="472.0" height="15.0" fill="rgb(212,102,50)" rx="2" ry="2" />
<text  x="485.00" y="319.5" >Scheduler::CallbackTaskScheduling</text>
</g>
</g>
</svg>
