<?xml version="1.0" standalone="no"?>
<!DOCTYPE svg PUBLIC "-//W3C//DTD SVG 1.1//EN" "http://www.w3.org/Graphics/SVG/1.1/DTD/svg11.dtd">
<svg version="1.1" width="1200" height="582" onload="init(evt)" viewBox="0 0 1200 582" xmlns="http://www.w3.org/2000/svg" xmlns:xlink="http://www.w3.org/1999/xlink">
<!-- Flame graph stack visualization. See https://github.com/brendangregg/FlameGraph for latest version, and http://www.brendangregg.com/flamegraphs.html for examples. -->
<!-- NOTES:  -->
<defs>
	<linearGradient id="background" y1="0" y2="1" x1="0" x2="0" >
		<stop stop-color="#eeeeee" offset="5%" />
		<stop stop-color="#eeeeb0" offset="95%" />
	</linearGradient>
</defs>
<style type="text/css">
	text { font-family:Verdana; font-size:12px; fill:rgb(0,0,0); }
	#search, #ignorecase { opacity:0.1; cursor:pointer; }
	#search:hover, #search.show, #ignorecase:hover, #ignorecase.show { opacity:1; }
	#subtitle { text-anchor:middle; font-color:rgb(160,160,160); }
	#title { text-anchor:middle; font-size:17px}
	#unzoom { cursor:pointer; }
	#frames > *:hover { stroke:black; stroke-width:0.5; cursor:pointer; }
	.hide { display:none; }
	.parent { opacity:0.5; }
</style>
<script type="text/ecmascript">
<![CDATA[
	"use strict";
	var details, searchbtn, unzoombtn, matchedtxt, svg, searching, currentSearchTerm, ignorecase, ignorecaseBtn;
	function init(evt) {
		details = document.getElementById("details").firstChild;
		searchbtn = document.getElementById("search");
		ignorecaseBtn = document.getElementById("ignorecase");
		unzoombtn = document.getElementById("unzoom");
		matchedtxt = document.getElementById("matched");
		svg = document.getElementsByTagName("svg")[0];
		searching = 0;
		currentSearchTerm = null;

		// use GET parameters to restore a flamegraphs state.
		var params = get_params();
		if (params.x && params.y)
			zoom(find_group(document.querySelector('[x="' + params.x + '"][y="' + params.y + '"]')));
                if (params.s) search(params.s);
	}

	// event listeners
	window.addEventListener("click", function(e) {
		var target = find_group(e.target);
		if (target) {
			if (target.nodeName == "a") {
				if (e.ctrlKey === false) return;
				e.preventDefault();
			}
			if (target.classList.contains("parent")) unzoom(true);
			zoom(target);
			if (!document.querySelector('.parent')) {
				// we have basically done a clearzoom so clear the url
				var params = get_params();
				if (params.x) delete params.x;
				if (params.y) delete params.y;
				history.replaceState(null, null, parse_params(params));
				unzoombtn.classList.add("hide");
				return;
			}

			// set parameters for zoom state
			var el = target.querySelector("rect");
			if (el && el.attributes && el.attributes.y && el.attributes._orig_x) {
				var params = get_params()
				params.x = el.attributes._orig_x.value;
				params.y = el.attributes.y.value;
				history.replaceState(null, null, parse_params(params));
			}
		}
		else if (e.target.id == "unzoom") clearzoom();
		else if (e.target.id == "search") search_prompt();
		else if (e.target.id == "ignorecase") toggle_ignorecase();
	}, false)

	// mouse-over for info
	// show
	window.addEventListener("mouseover", function(e) {
		var target = find_group(e.target);
		if (target) details.nodeValue = "Function: " + g_to_text(target);
	}, false)

	// clear
	window.addEventListener("mouseout", function(e) {
		var target = find_group(e.target);
		if (target) details.nodeValue = ' ';
	}, false)

	// ctrl-F for search
	// ctrl-I to toggle case-sensitive search
	window.addEventListener("keydown",function (e) {
		if (e.keyCode === 114 || (e.ctrlKey && e.keyCode === 70)) {
			e.preventDefault();
			search_prompt();
		}
		else if (e.ctrlKey && e.keyCode === 73) {
			e.preventDefault();
			toggle_ignorecase();
		}
	}, false)

	// functions
	function get_params() {
		var params = {};
		var paramsarr = window.location.search.substr(1).split('&');
		for (var i = 0; i < paramsarr.length; ++i) {
			var tmp = paramsarr[i].split("=");
			if (!tmp[0] || !tmp[1]) continue;
			params[tmp[0]]  = decodeURIComponent(tmp[1]);
		}
		return params;
	}
	function parse_params(params) {
		var uri = "?";
		for (var key in params) {
			uri += key + '=' + encodeURIComponent(params[key]) + '&';
		}
		if (uri.slice(-1) == "&")
			uri = uri.substring(0, uri.length - 1);
		if (uri == '?')
			uri = window.location.href.split('?')[0];
		return uri;
	}
	function find_child(node, selector) {
		var children = node.querySelectorAll(selector);
		if (children.length) return children[0];
	}
	function find_group(node) {
		var parent = node.parentElement;
		if (!parent) return;
		if (parent.id == "frames") return node;
		return find_group(parent);
	}
	function orig_save(e, attr, val) {
		if (e.attributes["_orig_" + attr] != undefined) return;
		if (e.attributes[attr] == undefined) return;
		if (val == undefined) val = e.attributes[attr].value;
		e.setAttribute("_orig_" + attr, val);
	}
	function orig_load(e, attr) {
		if (e.attributes["_orig_"+attr] == undefined) return;
		e.attributes[attr].value = e.attributes["_orig_" + attr].value;
		e.removeAttribute("_orig_"+attr);
	}
	function g_to_text(e) {
		var text = find_child(e, "title").firstChild.nodeValue;
		return (text)
	}
	function g_to_func(e) {
		var func = g_to_text(e);
		// if there's any manipulation we want to do to the function
		// name before it's searched, do it here before returning.
		return (func);
	}
	function update_text(e) {
		var r = find_child(e, "rect");
		var t = find_child(e, "text");
		var w = parseFloat(r.attributes.width.value) -3;
		var txt = find_child(e, "title").textContent.replace(/\([^(]*\)$/,"");
		t.attributes.x.value = parseFloat(r.attributes.x.value) + 3;

		// Smaller than this size won't fit anything
		if (w < 2 * 12 * 0.59) {
			t.textContent = "";
			return;
		}

		t.textContent = txt;
		var sl = t.getSubStringLength(0, txt.length);
		// check if only whitespace or if we can fit the entire string into width w
		if (/^ *$/.test(txt) || sl < w)
			return;

		// this isn't perfect, but gives a good starting point
		// and avoids calling getSubStringLength too often
		var start = Math.floor((w/sl) * txt.length);
		for (var x = start; x > 0; x = x-2) {
			if (t.getSubStringLength(0, x + 2) <= w) {
				t.textContent = txt.substring(0, x) + "..";
				return;
			}
		}
		t.textContent = "";
	}

	// zoom
	function zoom_reset(e) {
		if (e.attributes != undefined) {
			orig_load(e, "x");
			orig_load(e, "width");
		}
		if (e.childNodes == undefined) return;
		for (var i = 0, c = e.childNodes; i < c.length; i++) {
			zoom_reset(c[i]);
		}
	}
	function zoom_child(e, x, ratio) {
		if (e.attributes != undefined) {
			if (e.attributes.x != undefined) {
				orig_save(e, "x");
				e.attributes.x.value = (parseFloat(e.attributes.x.value) - x - 10) * ratio + 10;
				if (e.tagName == "text")
					e.attributes.x.value = find_child(e.parentNode, "rect[x]").attributes.x.value + 3;
			}
			if (e.attributes.width != undefined) {
				orig_save(e, "width");
				e.attributes.width.value = parseFloat(e.attributes.width.value) * ratio;
			}
		}

		if (e.childNodes == undefined) return;
		for (var i = 0, c = e.childNodes; i < c.length; i++) {
			zoom_child(c[i], x - 10, ratio);
		}
	}
	function zoom_parent(e) {
		if (e.attributes) {
			if (e.attributes.x != undefined) {
				orig_save(e, "x");
				e.attributes.x.value = 10;
			}
			if (e.attributes.width != undefined) {
				orig_save(e, "width");
				e.attributes.width.value = parseInt(svg.width.baseVal.value) - (10 * 2);
			}
		}
		if (e.childNodes == undefined) return;
		for (var i = 0, c = e.childNodes; i < c.length; i++) {
			zoom_parent(c[i]);
		}
	}
	function zoom(node) {
		var attr = find_child(node, "rect").attributes;
		var width = parseFloat(attr.width.value);
		var xmin = parseFloat(attr.x.value);
		var xmax = parseFloat(xmin + width);
		var ymin = parseFloat(attr.y.value);
		var ratio = (svg.width.baseVal.value - 2 * 10) / width;

		// XXX: Workaround for JavaScript float issues (fix me)
		var fudge = 0.0001;

		unzoombtn.classList.remove("hide");

		var el = document.getElementById("frames").children;
		for (var i = 0; i < el.length; i++) {
			var e = el[i];
			var a = find_child(e, "rect").attributes;
			var ex = parseFloat(a.x.value);
			var ew = parseFloat(a.width.value);
			var upstack;
			// Is it an ancestor
			if (0 == 0) {
				upstack = parseFloat(a.y.value) > ymin;
			} else {
				upstack = parseFloat(a.y.value) < ymin;
			}
			if (upstack) {
				// Direct ancestor
				if (ex <= xmin && (ex+ew+fudge) >= xmax) {
					e.classList.add("parent");
					zoom_parent(e);
					update_text(e);
				}
				// not in current path
				else
					e.classList.add("hide");
			}
			// Children maybe
			else {
				// no common path
				if (ex < xmin || ex + fudge >= xmax) {
					e.classList.add("hide");
				}
				else {
					zoom_child(e, xmin, ratio);
					update_text(e);
				}
			}
		}
		search();
	}
	function unzoom(dont_update_text) {
		unzoombtn.classList.add("hide");
		var el = document.getElementById("frames").children;
		for(var i = 0; i < el.length; i++) {
			el[i].classList.remove("parent");
			el[i].classList.remove("hide");
			zoom_reset(el[i]);
			if(!dont_update_text) update_text(el[i]);
		}
		search();
	}
	function clearzoom() {
		unzoom();

		// remove zoom state
		var params = get_params();
		if (params.x) delete params.x;
		if (params.y) delete params.y;
		history.replaceState(null, null, parse_params(params));
	}

	// search
	function toggle_ignorecase() {
		ignorecase = !ignorecase;
		if (ignorecase) {
			ignorecaseBtn.classList.add("show");
		} else {
			ignorecaseBtn.classList.remove("show");
		}
		reset_search();
		search();
	}
	function reset_search() {
		var el = document.querySelectorAll("#frames rect");
		for (var i = 0; i < el.length; i++) {
			orig_load(el[i], "fill")
		}
		var params = get_params();
		delete params.s;
		history.replaceState(null, null, parse_params(params));
	}
	function search_prompt() {
		if (!searching) {
			var term = prompt("Enter a search term (regexp " +
			    "allowed, eg: ^ext4_)"
			    + (ignorecase ? ", ignoring case" : "")
			    + "\nPress Ctrl-i to toggle case sensitivity", "");
			if (term != null) search(term);
		} else {
			reset_search();
			searching = 0;
			currentSearchTerm = null;
			searchbtn.classList.remove("show");
			searchbtn.firstChild.nodeValue = "Search"
			matchedtxt.classList.add("hide");
			matchedtxt.firstChild.nodeValue = ""
		}
	}
	function search(term) {
		if (term) currentSearchTerm = term;

		var re = new RegExp(currentSearchTerm, ignorecase ? 'i' : '');
		var el = document.getElementById("frames").children;
		var matches = new Object();
		var maxwidth = 0;
		for (var i = 0; i < el.length; i++) {
			var e = el[i];
			var func = g_to_func(e);
			var rect = find_child(e, "rect");
			if (func == null || rect == null)
				continue;

			// Save max width. Only works as we have a root frame
			var w = parseFloat(rect.attributes.width.value);
			if (w > maxwidth)
				maxwidth = w;

			if (func.match(re)) {
				// highlight
				var x = parseFloat(rect.attributes.x.value);
				orig_save(rect, "fill");
				rect.attributes.fill.value = "rgb(230,0,230)";

				// remember matches
				if (matches[x] == undefined) {
					matches[x] = w;
				} else {
					if (w > matches[x]) {
						// overwrite with parent
						matches[x] = w;
					}
				}
				searching = 1;
			}
		}
		if (!searching)
			return;
		var params = get_params();
		params.s = currentSearchTerm;
		history.replaceState(null, null, parse_params(params));

		searchbtn.classList.add("show");
		searchbtn.firstChild.nodeValue = "Reset Search";

		// calculate percent matched, excluding vertical overlap
		var count = 0;
		var lastx = -1;
		var lastw = 0;
		var keys = Array();
		for (k in matches) {
			if (matches.hasOwnProperty(k))
				keys.push(k);
		}
		// sort the matched frames by their x location
		// ascending, then width descending
		keys.sort(function(a, b){
			return a - b;
		});
		// Step through frames saving only the biggest bottom-up frames
		// thanks to the sort order. This relies on the tree property
		// where children are always smaller than their parents.
		var fudge = 0.0001;	// JavaScript floating point
		for (var k in keys) {
			var x = parseFloat(keys[k]);
			var w = matches[keys[k]];
			if (x >= lastx + lastw - fudge) {
				count += w;
				lastx = x;
				lastw = w;
			}
		}
		// display matched percent
		matchedtxt.classList.remove("hide");
		var pct = 100 * count / maxwidth;
		if (pct != 100) pct = pct.toFixed(1)
		matchedtxt.firstChild.nodeValue = "Matched: " + pct + "%";
	}
]]>
</script>
<rect x="0.0" y="0" width="1200.0" height="582.0" fill="url(#background)"  />
<text id="title" x="600.00" y="24" >Share Watchdog Profile (2024-10-14T04:36:04.913065)</text>
<text id="details" x="10.00" y="565" > </text>
<text id="unzoom" x="10.00" y="24" class="hide">Reset Zoom</text>
<text id="search" x="1090.00" y="24" >Search</text>
<text id="ignorecase" x="1174.00" y="24" >ic</text>
<text id="matched" x="1090.00" y="565" > </text>
<g id="frames">
<g >
<title>syscall (3 samples, 15.00%)</title><rect x="423.0" y="117" width="177.0" height="15.0" fill="rgb(253,93,6)" rx="2" ry="2" />
<text  x="426.00" y="127.5" >syscall</text>
</g>
<g >
<title>ucbhelper::Content::openStream (2 samples, 10.00%)</title><rect x="836.0" y="469" width="118.0" height="15.0" fill="rgb(232,187,18)" rx="2" ry="2" />
<text  x="839.00" y="479.5" >ucbhelper::Con..</text>
</g>
<g >
<title>fileaccess::BaseContent::execute (1 samples, 5.00%)</title><rect x="1131.0" y="213" width="59.0" height="15.0" fill="rgb(205,3,37)" rx="2" ry="2" />
<text  x="1134.00" y="223.5" >fileac..</text>
</g>
<g >
<title>ucbhelper::Content::getPropertyValuesInterface (1 samples, 5.00%)</title><rect x="1131.0" y="245" width="59.0" height="15.0" fill="rgb(218,109,5)" rx="2" ry="2" />
<text  x="1134.00" y="255.5" >ucbhel..</text>
</g>
<g >
<title>fileaccess::TaskManager::getv (1 samples, 5.00%)</title><rect x="1131.0" y="181" width="59.0" height="15.0" fill="rgb(225,118,10)" rx="2" ry="2" />
<text  x="1134.00" y="191.5" >fileac..</text>
</g>
<g >
<title>lokit_main (4 samples, 20.00%)</title><rect x="954.0" y="485" width="236.0" height="15.0" fill="rgb(209,39,47)" rx="2" ry="2" />
<text  x="957.00" y="495.5" >lokit_main</text>
</g>
<g >
<title>http::Session::syncDownload (1 samples, 5.00%)</title><rect x="10.0" y="469" width="59.0" height="15.0" fill="rgb(242,94,33)" rx="2" ry="2" />
<text  x="13.00" y="479.5" >http::..</text>
</g>
<g >
<title>xmlFreePropList (1 samples, 5.00%)</title><rect x="364.0" y="181" width="59.0" height="15.0" fill="rgb(239,83,41)" rx="2" ry="2" />
<text  x="367.00" y="191.5" >xmlFre..</text>
</g>
<g >
<title>_cairo_gstate_fill (1 samples, 5.00%)</title><rect x="777.0" y="277" width="59.0" height="15.0" fill="rgb(247,120,40)" rx="2" ry="2" />
<text  x="780.00" y="287.5" >_cairo..</text>
</g>
<g >
<title>dp_misc::getDescriptionInfoset (6 samples, 30.00%)</title><rect x="423.0" y="293" width="354.0" height="15.0" fill="rgb(251,47,48)" rx="2" ry="2" />
<text  x="426.00" y="303.5" >dp_misc::getDescriptionInfoset</text>
</g>
<g >
<title>xmlFreeDoc (1 samples, 5.00%)</title><rect x="364.0" y="213" width="59.0" height="15.0" fill="rgb(215,39,54)" rx="2" ry="2" />
<text  x="367.00" y="223.5" >xmlFre..</text>
</g>
<g >
<title>fileaccess::BaseContent::execute (2 samples, 10.00%)</title><rect x="836.0" y="437" width="118.0" height="15.0" fill="rgb(231,7,5)" rx="2" ry="2" />
<text  x="839.00" y="447.5" >fileaccess::Ba..</text>
</g>
<g >
<title>syscall (1 samples, 5.00%)</title><rect x="777.0" y="85" width="59.0" height="15.0" fill="rgb(236,71,31)" rx="2" ry="2" />
<text  x="780.00" y="95.5" >syscall</text>
</g>
<g >
<title>SwRootFrame::PaintSwFrame (1 samples, 5.00%)</title><rect x="777.0" y="405" width="59.0" height="15.0" fill="rgb(211,171,37)" rx="2" ry="2" />
<text  x="780.00" y="415.5" >SwRoot..</text>
</g>
<g >
<title>xmlHashFree (1 samples, 5.00%)</title><rect x="69.0" y="213" width="59.0" height="15.0" fill="rgb(241,215,13)" rx="2" ry="2" />
<text  x="72.00" y="223.5" >xmlHas..</text>
</g>
<g >
<title>clip_and_composite_boxes.part.0 (1 samples, 5.00%)</title><rect x="777.0" y="197" width="59.0" height="15.0" fill="rgb(240,182,6)" rx="2" ry="2" />
<text  x="780.00" y="207.5" >clip_a..</text>
</g>
<g >
<title>[libc.so.6] (1 samples, 5.00%)</title><rect x="364.0" y="149" width="59.0" height="15.0" fill="rgb(214,110,31)" rx="2" ry="2" />
<text  x="367.00" y="159.5" >[libc...</text>
</g>
<g >
<title>DOM::CElement::~CElement (1 samples, 5.00%)</title><rect x="364.0" y="277" width="59.0" height="15.0" fill="rgb(239,109,2)" rx="2" ry="2" />
<text  x="367.00" y="287.5" >DOM::C..</text>
</g>
<g >
<title>ucbhelper::Content::isDocument (1 samples, 5.00%)</title><rect x="1131.0" y="293" width="59.0" height="15.0" fill="rgb(215,199,21)" rx="2" ry="2" />
<text  x="1134.00" y="303.5" >ucbhel..</text>
</g>
<g >
<title>ppoll (1 samples, 5.00%)</title><rect x="10.0" y="421" width="59.0" height="15.0" fill="rgb(211,74,16)" rx="2" ry="2" />
<text  x="13.00" y="431.5" >ppoll</text>
</g>
<g >
<title>xmlParseContentInternal (3 samples, 15.00%)</title><rect x="187.0" y="229" width="177.0" height="15.0" fill="rgb(218,148,11)" rx="2" ry="2" />
<text  x="190.00" y="239.5" >xmlParseContentInternal</text>
</g>
<g >
<title>SwCursorShell::Paint (1 samples, 5.00%)</title><rect x="777.0" y="437" width="59.0" height="15.0" fill="rgb(220,155,8)" rx="2" ry="2" />
<text  x="780.00" y="447.5" >SwCurs..</text>
</g>
<g >
<title>_cairo_image_surface_fill (1 samples, 5.00%)</title><rect x="777.0" y="245" width="59.0" height="15.0" fill="rgb(224,169,5)" rx="2" ry="2" />
<text  x="780.00" y="255.5" >_cairo..</text>
</g>
<g >
<title>handleUserProfileSignal (3 samples, 15.00%)</title><rect x="423.0" y="133" width="177.0" height="15.0" fill="rgb(254,224,30)" rx="2" ry="2" />
<text  x="426.00" y="143.5" >handleUserProfileSignal</text>
</g>
<g >
<title>openFilePath (2 samples, 10.00%)</title><rect x="836.0" y="341" width="118.0" height="15.0" fill="rgb(210,162,42)" rx="2" ry="2" />
<text  x="839.00" y="351.5" >openFilePath</text>
</g>
<g >
<title>cfree@GLIBC_2.2.5 (1 samples, 5.00%)</title><rect x="69.0" y="197" width="59.0" height="15.0" fill="rgb(235,222,39)" rx="2" ry="2" />
<text  x="72.00" y="207.5" >cfree@..</text>
</g>
<g >
<title>fileaccess::ReconnectingFile::open (2 samples, 10.00%)</title><rect x="836.0" y="373" width="118.0" height="15.0" fill="rgb(207,175,3)" rx="2" ry="2" />
<text  x="839.00" y="383.5" >fileaccess::Re..</text>
</g>
<g >
<title>__GI___libc_open (2 samples, 10.00%)</title><rect x="836.0" y="309" width="118.0" height="15.0" fill="rgb(219,195,35)" rx="2" ry="2" />
<text  x="839.00" y="319.5" >__GI___libc_open</text>
</g>
<g >
<title>dp_registry::backend::bundle::(anonymous namespace)::BackendImpl::PackageImpl::getDisplayName (7 samples, 35.00%)</title><rect x="364.0" y="309" width="413.0" height="15.0" fill="rgb(229,4,22)" rx="2" ry="2" />
<text  x="367.00" y="319.5" >dp_registry::backend::bundle::(anonymous namespace)::Bac..</text>
</g>
<g >
<title>dp_misc::DescriptionInfoset::getLocalizedDisplayName (1 samples, 5.00%)</title><rect x="69.0" y="309" width="59.0" height="15.0" fill="rgb(230,167,30)" rx="2" ry="2" />
<text  x="72.00" y="319.5" >dp_mis..</text>
</g>
<g >
<title>kitbroker (19 samples, 95.00%)</title><rect x="69.0" y="517" width="1121.0" height="15.0" fill="rgb(224,78,50)" rx="2" ry="2" />
<text  x="72.00" y="527.5" >kitbroker</text>
</g>
<g >
<title>comphelper::BackupFileHelper::tryPush_extensionInfo (1 samples, 5.00%)</title><rect x="1131.0" y="373" width="59.0" height="15.0" fill="rgb(234,204,0)" rx="2" ry="2" />
<text  x="1134.00" y="383.5" >comphe..</text>
</g>
<g >
<title>void std::__insertion_sort&lt;__gnu_cxx::__normal_iterator&lt;std::vector&lt;com::sun::star::uno::Reference&lt;com::sun::star::deployment::XPackage&gt;, std::allocator&lt;com::sun::star::uno::Reference&lt;com::sun::star::deployment::XPackage&gt; &gt; &gt;*, std::vector&lt;std::vector&lt;com::sun::star::uno::Reference&lt;com::sun::star::deployment::XPackage&gt;, std::allocator&lt;com::sun::star::uno::Reference&lt;com::sun::star::deployment::XPackage&gt; &gt; &gt;, std::allocator&lt;std::vector&lt;com::sun::star::uno::Reference&lt;com::sun::star::deployment::XPackage&gt;, std::allocator&lt;com::sun::star::uno::Reference&lt;com::sun::star::deployment::XPackage&gt; &gt; &gt; &gt; &gt; &gt;, __gnu_cxx::__ops::_Iter_comp_iter&lt;(anonymous namespace)::CompIdentifiers&gt; &gt; (7 samples, 35.00%)</title><rect x="364.0" y="325" width="413.0" height="15.0" fill="rgb(230,69,45)" rx="2" ry="2" />
<text  x="367.00" y="335.5" >void std::__insertion_sort&lt;__gnu_cxx::__normal_iterator&lt;..</text>
</g>
<g >
<title>ucbhelper::Content::getPropertyValues (1 samples, 5.00%)</title><rect x="1131.0" y="261" width="59.0" height="15.0" fill="rgb(247,160,27)" rx="2" ry="2" />
<text  x="1134.00" y="271.5" >ucbhel..</text>
</g>
<g >
<title>xmlParseDocument (3 samples, 15.00%)</title><rect x="423.0" y="245" width="177.0" height="15.0" fill="rgb(248,109,7)" rx="2" ry="2" />
<text  x="426.00" y="255.5" >xmlParseDocument</text>
</g>
<g >
<title>SwXTextDocument::paintTile (1 samples, 5.00%)</title><rect x="777.0" y="469" width="59.0" height="15.0" fill="rgb(223,137,1)" rx="2" ry="2" />
<text  x="780.00" y="479.5" >SwXTex..</text>
</g>
<g >
<title>DOM::CDocumentBuilder::parse (3 samples, 15.00%)</title><rect x="187.0" y="293" width="177.0" height="15.0" fill="rgb(241,42,54)" rx="2" ry="2" />
<text  x="190.00" y="303.5" >DOM::CDocumentBuilder::..</text>
</g>
<g >
<title>XPath::CXPathAPI::selectSingleNode (1 samples, 5.00%)</title><rect x="69.0" y="293" width="59.0" height="15.0" fill="rgb(253,174,19)" rx="2" ry="2" />
<text  x="72.00" y="303.5" >XPath:..</text>
</g>
<g >
<title>XPath::CXPathAPI::eval (1 samples, 5.00%)</title><rect x="69.0" y="261" width="59.0" height="15.0" fill="rgb(224,184,46)" rx="2" ry="2" />
<text  x="72.00" y="271.5" >XPath:..</text>
</g>
<g >
<title>DOM::CDocumentBuilder::parse (6 samples, 30.00%)</title><rect x="423.0" y="277" width="354.0" height="15.0" fill="rgb(242,16,41)" rx="2" ry="2" />
<text  x="426.00" y="287.5" >DOM::CDocumentBuilder::parse</text>
</g>
<g >
<title>xmlDoRead (3 samples, 15.00%)</title><rect x="423.0" y="261" width="177.0" height="15.0" fill="rgb(222,0,7)" rx="2" ry="2" />
<text  x="426.00" y="271.5" >xmlDoRead</text>
</g>
<g >
<title>xmlParseCharDataComplex (3 samples, 15.00%)</title><rect x="187.0" y="213" width="177.0" height="15.0" fill="rgb(210,126,9)" rx="2" ry="2" />
<text  x="190.00" y="223.5" >xmlParseCharDataComplex</text>
</g>
<g >
<title>soffice_main (12 samples, 60.00%)</title><rect x="69.0" y="437" width="708.0" height="15.0" fill="rgb(233,79,27)" rx="2" ry="2" />
<text  x="72.00" y="447.5" >soffice_main</text>
</g>
<g >
<title>doc_paintTile (1 samples, 5.00%)</title><rect x="777.0" y="485" width="59.0" height="15.0" fill="rgb(205,121,11)" rx="2" ry="2" />
<text  x="780.00" y="495.5" >doc_pa..</text>
</g>
<g >
<title>fileaccess::BaseContent::getPropertyValues (1 samples, 5.00%)</title><rect x="1131.0" y="197" width="59.0" height="15.0" fill="rgb(242,76,37)" rx="2" ry="2" />
<text  x="1134.00" y="207.5" >fileac..</text>
</g>
<g >
<title>xmlParseStartTag2.constprop.0 (3 samples, 15.00%)</title><rect x="423.0" y="181" width="177.0" height="15.0" fill="rgb(236,48,47)" rx="2" ry="2" />
<text  x="426.00" y="191.5" >xmlParseStartTag2.const..</text>
</g>
<g >
<title>comphelper::BackupFileHelper::tryPush_extensionInfo (12 samples, 60.00%)</title><rect x="69.0" y="357" width="708.0" height="15.0" fill="rgb(240,178,47)" rx="2" ry="2" />
<text  x="72.00" y="367.5" >comphelper::BackupFileHelper::tryPush_extensionInfo</text>
</g>
<g >
<title>[unknown] (19 samples, 95.00%)</title><rect x="69.0" y="501" width="1121.0" height="15.0" fill="rgb(243,8,21)" rx="2" ry="2" />
<text  x="72.00" y="511.5" >[unknown]</text>
</g>
<g >
<title>openFile (2 samples, 10.00%)</title><rect x="836.0" y="357" width="118.0" height="15.0" fill="rgb(242,16,52)" rx="2" ry="2" />
<text  x="839.00" y="367.5" >openFile</text>
</g>
<g >
<title>soffice_main (4 samples, 20.00%)</title><rect x="954.0" y="453" width="236.0" height="15.0" fill="rgb(206,62,20)" rx="2" ry="2" />
<text  x="957.00" y="463.5" >soffice_main</text>
</g>
<g >
<title>dp_registry::backend::bundle::(anonymous namespace)::BackendImpl::PackageImpl::getDisplayName (1 samples, 5.00%)</title><rect x="1131.0" y="341" width="59.0" height="15.0" fill="rgb(217,59,7)" rx="2" ry="2" />
<text  x="1134.00" y="351.5" >dp_reg..</text>
</g>
<g >
<title>DOM::CDocument::~CDocument (1 samples, 5.00%)</title><rect x="364.0" y="245" width="59.0" height="15.0" fill="rgb(213,86,0)" rx="2" ry="2" />
<text  x="367.00" y="255.5" >DOM::C..</text>
</g>
<g >
<title>comphelper::BackupFileHelper::tryPushExtensionInfo (12 samples, 60.00%)</title><rect x="69.0" y="373" width="708.0" height="15.0" fill="rgb(240,186,37)" rx="2" ry="2" />
<text  x="72.00" y="383.5" >comphelper::BackupFileHelper::tryPushExtensionInfo</text>
</g>
<g >
<title>ucbhelper::Content_Impl::executeCommand (2 samples, 10.00%)</title><rect x="836.0" y="453" width="118.0" height="15.0" fill="rgb(231,96,37)" rx="2" ry="2" />
<text  x="839.00" y="463.5" >ucbhelper::Con..</text>
</g>
<g >
<title>syscall (3 samples, 15.00%)</title><rect x="187.0" y="165" width="177.0" height="15.0" fill="rgb(227,102,7)" rx="2" ry="2" />
<text  x="190.00" y="175.5" >syscall</text>
</g>
<g >
<title>docbroker (1 samples, 5.00%)</title><rect x="10.0" y="517" width="59.0" height="15.0" fill="rgb(222,181,43)" rx="2" ry="2" />
<text  x="13.00" y="527.5" >docbro..</text>
</g>
<g >
<title>[unknown] (1 samples, 5.00%)</title><rect x="10.0" y="501" width="59.0" height="15.0" fill="rgb(225,179,49)" rx="2" ry="2" />
<text  x="13.00" y="511.5" >[unkno..</text>
</g>
<g >
<title>SalGraphics::DrawRect (1 samples, 5.00%)</title><rect x="777.0" y="341" width="59.0" height="15.0" fill="rgb(228,224,26)" rx="2" ry="2" />
<text  x="780.00" y="351.5" >SalGra..</text>
</g>
<g >
<title>osl::detail::convertUrlToPathname (1 samples, 5.00%)</title><rect x="1131.0" y="149" width="59.0" height="15.0" fill="rgb(219,149,52)" rx="2" ry="2" />
<text  x="1134.00" y="159.5" >osl::d..</text>
</g>
<g >
<title>dp_misc::getDescriptionInfoset (3 samples, 15.00%)</title><rect x="187.0" y="309" width="177.0" height="15.0" fill="rgb(236,56,16)" rx="2" ry="2" />
<text  x="190.00" y="319.5" >dp_misc::getDescription..</text>
</g>
<g >
<title>handleUserProfileSignal (1 samples, 5.00%)</title><rect x="777.0" y="101" width="59.0" height="15.0" fill="rgb(233,217,35)" rx="2" ry="2" />
<text  x="780.00" y="111.5" >handle..</text>
</g>
<g >
<title>handleUserProfileSignal (3 samples, 15.00%)</title><rect x="954.0" y="277" width="177.0" height="15.0" fill="rgb(247,88,10)" rx="2" ry="2" />
<text  x="957.00" y="287.5" >handleUserProfileSignal</text>
</g>
<g >
<title>WopiStorage::downloadDocument (1 samples, 5.00%)</title><rect x="10.0" y="485" width="59.0" height="15.0" fill="rgb(232,12,13)" rx="2" ry="2" />
<text  x="13.00" y="495.5" >WopiSt..</text>
</g>
<g >
<title>xmlDoRead (3 samples, 15.00%)</title><rect x="187.0" y="277" width="177.0" height="15.0" fill="rgb(234,111,43)" rx="2" ry="2" />
<text  x="190.00" y="287.5" >xmlDoRead</text>
</g>
<g >
<title>Application::Execute (3 samples, 15.00%)</title><rect x="954.0" y="405" width="177.0" height="15.0" fill="rgb(254,200,11)" rx="2" ry="2" />
<text  x="957.00" y="415.5" >Application::Execute</text>
</g>
<g >
<title>handleUserProfileSignal (1 samples, 5.00%)</title><rect x="69.0" y="165" width="59.0" height="15.0" fill="rgb(228,221,26)" rx="2" ry="2" />
<text  x="72.00" y="175.5" >handle..</text>
</g>
<g >
<title>xmlParseContentInternal (3 samples, 15.00%)</title><rect x="423.0" y="213" width="177.0" height="15.0" fill="rgb(210,86,22)" rx="2" ry="2" />
<text  x="426.00" y="223.5" >xmlParseContentInternal</text>
</g>
<g >
<title>SvpSalInstance::DoYield (3 samples, 15.00%)</title><rect x="954.0" y="373" width="177.0" height="15.0" fill="rgb(215,148,40)" rx="2" ry="2" />
<text  x="957.00" y="383.5" >SvpSalInstance::DoYield</text>
</g>
<g >
<title>lo_runLoop (12 samples, 60.00%)</title><rect x="69.0" y="453" width="708.0" height="15.0" fill="rgb(233,189,28)" rx="2" ry="2" />
<text  x="72.00" y="463.5" >lo_runLoop</text>
</g>
<g >
<title>rtl_string_new_WithLength (1 samples, 5.00%)</title><rect x="1131.0" y="117" width="59.0" height="15.0" fill="rgb(226,94,1)" rx="2" ry="2" />
<text  x="1134.00" y="127.5" >rtl_st..</text>
</g>
<g >
<title>oslFileError (anonymous namespace)::getSystemPathFromFileUrl&lt;rtl::OString&gt; (1 samples, 5.00%)</title><rect x="1131.0" y="133" width="59.0" height="15.0" fill="rgb(234,156,1)" rx="2" ry="2" />
<text  x="1134.00" y="143.5" >oslFil..</text>
</g>
<g >
<title>syscall (2 samples, 10.00%)</title><rect x="836.0" y="261" width="118.0" height="15.0" fill="rgb(251,158,33)" rx="2" ry="2" />
<text  x="839.00" y="271.5" >syscall</text>
</g>
<g >
<title>[libc.so.6] (2 samples, 10.00%)</title><rect x="836.0" y="293" width="118.0" height="15.0" fill="rgb(233,112,0)" rx="2" ry="2" />
<text  x="839.00" y="303.5" >[libc.so.6]</text>
</g>
<g >
<title>ucbhelper::Content::openStream (1 samples, 5.00%)</title><rect x="1131.0" y="309" width="59.0" height="15.0" fill="rgb(210,95,50)" rx="2" ry="2" />
<text  x="1134.00" y="319.5" >ucbhel..</text>
</g>
<g >
<title>xmlParseElement (3 samples, 15.00%)</title><rect x="423.0" y="229" width="177.0" height="15.0" fill="rgb(247,201,26)" rx="2" ry="2" />
<text  x="426.00" y="239.5" >xmlParseElement</text>
</g>
<g >
<title>ucbhelper::Content_Impl::executeCommand (1 samples, 5.00%)</title><rect x="1131.0" y="229" width="59.0" height="15.0" fill="rgb(217,135,25)" rx="2" ry="2" />
<text  x="1134.00" y="239.5" >ucbhel..</text>
</g>
<g >
<title>open_c (2 samples, 10.00%)</title><rect x="836.0" y="325" width="118.0" height="15.0" fill="rgb(244,204,44)" rx="2" ry="2" />
<text  x="839.00" y="335.5" >open_c</text>
</g>
<g >
<title>_cairo_default_context_fill (1 samples, 5.00%)</title><rect x="777.0" y="293" width="59.0" height="15.0" fill="rgb(206,209,25)" rx="2" ry="2" />
<text  x="780.00" y="303.5" >_cairo..</text>
</g>
<g >
<title>[libc.so.6] (1 samples, 5.00%)</title><rect x="69.0" y="181" width="59.0" height="15.0" fill="rgb(245,199,51)" rx="2" ry="2" />
<text  x="72.00" y="191.5" >[libc...</text>
</g>
<g >
<title>xmlFreeParserCtxt (3 samples, 15.00%)</title><rect x="600.0" y="261" width="177.0" height="15.0" fill="rgb(226,121,45)" rx="2" ry="2" />
<text  x="603.00" y="271.5" >xmlFreeParserCtxt</text>
</g>
<g >
<title>SwFrame::PaintBaBo (1 samples, 5.00%)</title><rect x="777.0" y="389" width="59.0" height="15.0" fill="rgb(246,64,23)" rx="2" ry="2" />
<text  x="780.00" y="399.5" >SwFram..</text>
</g>
<g >
<title>handleUserProfileSignal (1 samples, 5.00%)</title><rect x="1131.0" y="53" width="59.0" height="15.0" fill="rgb(228,181,41)" rx="2" ry="2" />
<text  x="1134.00" y="63.5" >handle..</text>
</g>
<g >
<title>_int_malloc (1 samples, 5.00%)</title><rect x="1131.0" y="85" width="59.0" height="15.0" fill="rgb(213,111,5)" rx="2" ry="2" />
<text  x="1134.00" y="95.5" >_int_m..</text>
</g>
<g >
<title>ImplSVMain (12 samples, 60.00%)</title><rect x="69.0" y="421" width="708.0" height="15.0" fill="rgb(229,80,31)" rx="2" ry="2" />
<text  x="72.00" y="431.5" >ImplSVMain</text>
</g>
<g >
<title>xmlSkipBlankChars (3 samples, 15.00%)</title><rect x="423.0" y="165" width="177.0" height="15.0" fill="rgb(252,222,17)" rx="2" ry="2" />
<text  x="426.00" y="175.5" >xmlSkipBlankChars</text>
</g>
<g >
<title>xmlXPathFreeContext (1 samples, 5.00%)</title><rect x="69.0" y="245" width="59.0" height="15.0" fill="rgb(234,153,29)" rx="2" ry="2" />
<text  x="72.00" y="255.5" >xmlXPa..</text>
</g>
<g >
<title>[libc.so.6] (3 samples, 15.00%)</title><rect x="600.0" y="213" width="177.0" height="15.0" fill="rgb(246,178,52)" rx="2" ry="2" />
<text  x="603.00" y="223.5" >[libc.so.6]</text>
</g>
<g >
<title>[libc.so.6] (1 samples, 5.00%)</title><rect x="10.0" y="405" width="59.0" height="15.0" fill="rgb(249,52,40)" rx="2" ry="2" />
<text  x="13.00" y="415.5" >[libc...</text>
</g>
<g >
<title>[libc.so.6] (1 samples, 5.00%)</title><rect x="1131.0" y="69" width="59.0" height="15.0" fill="rgb(223,184,47)" rx="2" ry="2" />
<text  x="1134.00" y="79.5" >[libc...</text>
</g>
<g >
<title>desktop::Desktop::Main (4 samples, 20.00%)</title><rect x="954.0" y="421" width="236.0" height="15.0" fill="rgb(230,160,41)" rx="2" ry="2" />
<text  x="957.00" y="431.5" >desktop::Desktop::Main</text>
</g>
<g >
<title>syscall (3 samples, 15.00%)</title><rect x="600.0" y="181" width="177.0" height="15.0" fill="rgb(207,98,19)" rx="2" ry="2" />
<text  x="603.00" y="191.5" >syscall</text>
</g>
<g >
<title>createLibreOfficeKit (12 samples, 60.00%)</title><rect x="69.0" y="485" width="708.0" height="15.0" fill="rgb(215,6,37)" rx="2" ry="2" />
<text  x="72.00" y="495.5" >createLibreOfficeKit</text>
</g>
<g >
<title>DOM::events::CEventDispatcher::~CEventDispatcher (1 samples, 5.00%)</title><rect x="128.0" y="229" width="59.0" height="15.0" fill="rgb(205,162,8)" rx="2" ry="2" />
<text  x="131.00" y="239.5" >DOM::e..</text>
</g>
<g >
<title>cfree@GLIBC_2.2.5 (3 samples, 15.00%)</title><rect x="600.0" y="229" width="177.0" height="15.0" fill="rgb(240,214,2)" rx="2" ry="2" />
<text  x="603.00" y="239.5" >cfree@GLIBC_2.2.5</text>
</g>
<g >
<title>CairoCommon::drawRect (1 samples, 5.00%)</title><rect x="777.0" y="325" width="59.0" height="15.0" fill="rgb(224,53,5)" rx="2" ry="2" />
<text  x="780.00" y="335.5" >CairoC..</text>
</g>
<g >
<title>[libc.so.6] (3 samples, 15.00%)</title><rect x="187.0" y="197" width="177.0" height="15.0" fill="rgb(244,218,29)" rx="2" ry="2" />
<text  x="190.00" y="207.5" >[libc.so.6]</text>
</g>
<g >
<title>fileaccess::XInputStream_impl::XInputStream_impl (2 samples, 10.00%)</title><rect x="836.0" y="389" width="118.0" height="15.0" fill="rgb(253,22,39)" rx="2" ry="2" />
<text  x="839.00" y="399.5" >fileaccess::XI..</text>
</g>
<g >
<title>SwPageFrame::PaintMarginArea (1 samples, 5.00%)</title><rect x="777.0" y="373" width="59.0" height="15.0" fill="rgb(239,99,33)" rx="2" ry="2" />
<text  x="780.00" y="383.5" >SwPage..</text>
</g>
<g >
<title>handleUserProfileSignal (3 samples, 15.00%)</title><rect x="187.0" y="181" width="177.0" height="15.0" fill="rgb(231,95,4)" rx="2" ry="2" />
<text  x="190.00" y="191.5" >handleUserProfileSignal</text>
</g>
<g >
<title>lokit_main (12 samples, 60.00%)</title><rect x="69.0" y="469" width="708.0" height="15.0" fill="rgb(221,172,10)" rx="2" ry="2" />
<text  x="72.00" y="479.5" >lokit_main</text>
</g>
<g >
<title>all (20 samples, 100%)</title><rect x="10.0" y="533" width="1180.0" height="15.0" fill="rgb(207,156,15)" rx="2" ry="2" />
<text  x="13.00" y="543.5" ></text>
</g>
<g >
<title>lo_runLoop (4 samples, 20.00%)</title><rect x="954.0" y="469" width="236.0" height="15.0" fill="rgb(245,188,0)" rx="2" ry="2" />
<text  x="957.00" y="479.5" >lo_runLoop</text>
</g>
<g >
<title>handleUserProfileSignal (2 samples, 10.00%)</title><rect x="836.0" y="277" width="118.0" height="15.0" fill="rgb(213,26,9)" rx="2" ry="2" />
<text  x="839.00" y="287.5" >handleUserProf..</text>
</g>
<g >
<title>SocketPoll::poll (1 samples, 5.00%)</title><rect x="10.0" y="437" width="59.0" height="15.0" fill="rgb(244,173,44)" rx="2" ry="2" />
<text  x="13.00" y="447.5" >Socket..</text>
</g>
<g >
<title>dp_manager::ExtensionManager::getAllExtensions (1 samples, 5.00%)</title><rect x="1131.0" y="357" width="59.0" height="15.0" fill="rgb(219,30,27)" rx="2" ry="2" />
<text  x="1134.00" y="367.5" >dp_man..</text>
</g>
<g >
<title>dp_misc::getDescriptionInfoset (1 samples, 5.00%)</title><rect x="1131.0" y="325" width="59.0" height="15.0" fill="rgb(226,134,10)" rx="2" ry="2" />
<text  x="1134.00" y="335.5" >dp_mis..</text>
</g>
<g >
<title>[libc.so.6] (1 samples, 5.00%)</title><rect x="777.0" y="117" width="59.0" height="15.0" fill="rgb(239,84,19)" rx="2" ry="2" />
<text  x="780.00" y="127.5" >[libc...</text>
</g>
<g >
<title>handleUserProfileSignal (1 samples, 5.00%)</title><rect x="128.0" y="197" width="59.0" height="15.0" fill="rgb(249,150,42)" rx="2" ry="2" />
<text  x="131.00" y="207.5" >handle..</text>
</g>
<g >
<title>desktop::Desktop::Main (12 samples, 60.00%)</title><rect x="69.0" y="405" width="708.0" height="15.0" fill="rgb(205,39,35)" rx="2" ry="2" />
<text  x="72.00" y="415.5" >desktop::Desktop::Main</text>
</g>
<g >
<title>cfree@GLIBC_2.2.5 (1 samples, 5.00%)</title><rect x="364.0" y="165" width="59.0" height="15.0" fill="rgb(225,194,54)" rx="2" ry="2" />
<text  x="367.00" y="175.5" >cfree@..</text>
</g>
<g >
<title>desktop::Desktop::doShutdown (1 samples, 5.00%)</title><rect x="1131.0" y="405" width="59.0" height="15.0" fill="rgb(243,43,32)" rx="2" ry="2" />
<text  x="1134.00" y="415.5" >deskto..</text>
</g>
<g >
<title>syscall (1 samples, 5.00%)</title><rect x="10.0" y="373" width="59.0" height="15.0" fill="rgb(213,159,40)" rx="2" ry="2" />
<text  x="13.00" y="383.5" >syscall</text>
</g>
<g >
<title>OutputDevice::DrawRect (1 samples, 5.00%)</title><rect x="777.0" y="357" width="59.0" height="15.0" fill="rgb(243,221,22)" rx="2" ry="2" />
<text  x="780.00" y="367.5" >Output..</text>
</g>
<g >
<title>dp_misc::DescriptionInfoset::~DescriptionInfoset (1 samples, 5.00%)</title><rect x="364.0" y="293" width="59.0" height="15.0" fill="rgb(222,135,18)" rx="2" ry="2" />
<text  x="367.00" y="303.5" >dp_mis..</text>
</g>
<g >
<title>ImplYield (3 samples, 15.00%)</title><rect x="954.0" y="389" width="177.0" height="15.0" fill="rgb(245,18,51)" rx="2" ry="2" />
<text  x="957.00" y="399.5" >ImplYield</text>
</g>
<g >
<title>ppoll (3 samples, 15.00%)</title><rect x="954.0" y="309" width="177.0" height="15.0" fill="rgb(224,10,3)" rx="2" ry="2" />
<text  x="957.00" y="319.5" >ppoll</text>
</g>
<g >
<title>fill_boxes (1 samples, 5.00%)</title><rect x="777.0" y="181" width="59.0" height="15.0" fill="rgb(236,77,43)" rx="2" ry="2" />
<text  x="780.00" y="191.5" >fill_b..</text>
</g>
<g >
<title>dp_manager::ExtensionManager::getAllExtensions (12 samples, 60.00%)</title><rect x="69.0" y="341" width="708.0" height="15.0" fill="rgb(209,158,30)" rx="2" ry="2" />
<text  x="72.00" y="351.5" >dp_manager::ExtensionManager::getAllExtensions</text>
</g>
<g >
<title>DOM::CDocument::~CDocument (1 samples, 5.00%)</title><rect x="364.0" y="229" width="59.0" height="15.0" fill="rgb(215,105,29)" rx="2" ry="2" />
<text  x="367.00" y="239.5" >DOM::C..</text>
</g>
<g >
<title>sse2_fill (1 samples, 5.00%)</title><rect x="777.0" y="133" width="59.0" height="15.0" fill="rgb(236,118,27)" rx="2" ry="2" />
<text  x="780.00" y="143.5" >sse2_f..</text>
</g>
<g >
<title>_cairo_compositor_fill (1 samples, 5.00%)</title><rect x="777.0" y="229" width="59.0" height="15.0" fill="rgb(223,187,16)" rx="2" ry="2" />
<text  x="780.00" y="239.5" >_cairo..</text>
</g>
<g >
<title>[libc.so.6] (3 samples, 15.00%)</title><rect x="423.0" y="149" width="177.0" height="15.0" fill="rgb(227,156,40)" rx="2" ry="2" />
<text  x="426.00" y="159.5" >[libc.so.6]</text>
</g>
<g >
<title>KitSocketPoll::kitPoll (3 samples, 15.00%)</title><rect x="954.0" y="341" width="177.0" height="15.0" fill="rgb(211,74,9)" rx="2" ry="2" />
<text  x="957.00" y="351.5" >KitSocketPoll::kitPoll</text>
</g>
<g >
<title>syscall (1 samples, 5.00%)</title><rect x="128.0" y="181" width="59.0" height="15.0" fill="rgb(232,51,32)" rx="2" ry="2" />
<text  x="131.00" y="191.5" >syscall</text>
</g>
<g >
<title>handleUserProfileSignal (3 samples, 15.00%)</title><rect x="600.0" y="197" width="177.0" height="15.0" fill="rgb(246,168,49)" rx="2" ry="2" />
<text  x="603.00" y="207.5" >handleUserProfileSignal</text>
</g>
<g >
<title>xmlFreeInputStream (3 samples, 15.00%)</title><rect x="600.0" y="245" width="177.0" height="15.0" fill="rgb(245,178,5)" rx="2" ry="2" />
<text  x="603.00" y="255.5" >xmlFreeInputStream</text>
</g>
<g >
<title>SocketPoll::poll (3 samples, 15.00%)</title><rect x="954.0" y="325" width="177.0" height="15.0" fill="rgb(240,180,42)" rx="2" ry="2" />
<text  x="957.00" y="335.5" >SocketPoll::poll</text>
</g>
<g >
<title>xmlParseElement (3 samples, 15.00%)</title><rect x="187.0" y="245" width="177.0" height="15.0" fill="rgb(239,91,7)" rx="2" ry="2" />
<text  x="190.00" y="255.5" >xmlParseElement</text>
</g>
<g >
<title>syscall (1 samples, 5.00%)</title><rect x="1131.0" y="37" width="59.0" height="15.0" fill="rgb(234,172,31)" rx="2" ry="2" />
<text  x="1134.00" y="47.5" >syscall</text>
</g>
<g >
<title>_cairo_spans_compositor_fill (1 samples, 5.00%)</title><rect x="777.0" y="213" width="59.0" height="15.0" fill="rgb(212,47,19)" rx="2" ry="2" />
<text  x="780.00" y="223.5" >_cairo..</text>
</g>
<g >
<title>desktop::Desktop::doShutdown (12 samples, 60.00%)</title><rect x="69.0" y="389" width="708.0" height="15.0" fill="rgb(241,212,8)" rx="2" ry="2" />
<text  x="72.00" y="399.5" >desktop::Desktop::doShutdown</text>
</g>
<g >
<title>handleUserProfileSignal (1 samples, 5.00%)</title><rect x="364.0" y="133" width="59.0" height="15.0" fill="rgb(210,84,37)" rx="2" ry="2" />
<text  x="367.00" y="143.5" >handle..</text>
</g>
<g >
<title>dp_misc::getDescriptionInfoset (2 samples, 10.00%)</title><rect x="836.0" y="485" width="118.0" height="15.0" fill="rgb(254,45,49)" rx="2" ry="2" />
<text  x="839.00" y="495.5" >dp_misc::getDe..</text>
</g>
<g >
<title>[libc.so.6] (1 samples, 5.00%)</title><rect x="128.0" y="213" width="59.0" height="15.0" fill="rgb(226,180,10)" rx="2" ry="2" />
<text  x="131.00" y="223.5" >[libc...</text>
</g>
<g >
<title>xmlFreeNodeList (1 samples, 5.00%)</title><rect x="364.0" y="197" width="59.0" height="15.0" fill="rgb(221,67,13)" rx="2" ry="2" />
<text  x="367.00" y="207.5" >xmlFre..</text>
</g>
<g >
<title>http::Session::syncRequestImpl (1 samples, 5.00%)</title><rect x="10.0" y="453" width="59.0" height="15.0" fill="rgb(213,83,53)" rx="2" ry="2" />
<text  x="13.00" y="463.5" >http::..</text>
</g>
<g >
<title>[libc.so.6] (3 samples, 15.00%)</title><rect x="954.0" y="293" width="177.0" height="15.0" fill="rgb(228,117,41)" rx="2" ry="2" />
<text  x="957.00" y="303.5" >[libc.so.6]</text>
</g>
<g >
<title>dp_misc::DescriptionInfoset::~DescriptionInfoset (1 samples, 5.00%)</title><rect x="128.0" y="309" width="59.0" height="15.0" fill="rgb(206,15,9)" rx="2" ry="2" />
<text  x="131.00" y="319.5" >dp_mis..</text>
</g>
<g >
<title>fileaccess::TaskManager::open (2 samples, 10.00%)</title><rect x="836.0" y="405" width="118.0" height="15.0" fill="rgb(223,3,36)" rx="2" ry="2" />
<text  x="839.00" y="415.5" >fileaccess::Ta..</text>
</g>
<g >
<title>cairo_fill (1 samples, 5.00%)</title><rect x="777.0" y="309" width="59.0" height="15.0" fill="rgb(233,157,52)" rx="2" ry="2" />
<text  x="780.00" y="319.5" >cairo_..</text>
</g>
<g >
<title>xmlParseElementStart (3 samples, 15.00%)</title><rect x="423.0" y="197" width="177.0" height="15.0" fill="rgb(250,220,34)" rx="2" ry="2" />
<text  x="426.00" y="207.5" >xmlParseElementStart</text>
</g>
<g >
<title>syscall (1 samples, 5.00%)</title><rect x="364.0" y="117" width="59.0" height="15.0" fill="rgb(221,202,12)" rx="2" ry="2" />
<text  x="367.00" y="127.5" >syscall</text>
</g>
<g >
<title>dp_registry::backend::bundle::(anonymous namespace)::BackendImpl::PackageImpl::getDisplayName (5 samples, 25.00%)</title><rect x="69.0" y="325" width="295.0" height="15.0" fill="rgb(252,188,29)" rx="2" ry="2" />
<text  x="72.00" y="335.5" >dp_registry::backend::bundle::(anonymou..</text>
</g>
<g >
<title>_cairo_surface_fill (1 samples, 5.00%)</title><rect x="777.0" y="261" width="59.0" height="15.0" fill="rgb(222,115,36)" rx="2" ry="2" />
<text  x="780.00" y="271.5" >_cairo..</text>
</g>
<g >
<title>ImplSVMain (4 samples, 20.00%)</title><rect x="954.0" y="437" width="236.0" height="15.0" fill="rgb(230,210,26)" rx="2" ry="2" />
<text  x="957.00" y="447.5" >ImplSVMain</text>
</g>
<g >
<title>DOM::CDocument::~CDocument (1 samples, 5.00%)</title><rect x="128.0" y="261" width="59.0" height="15.0" fill="rgb(229,195,32)" rx="2" ry="2" />
<text  x="131.00" y="271.5" >DOM::C..</text>
</g>
<g >
<title>comphelper::BackupFileHelper::tryPushExtensionInfo (1 samples, 5.00%)</title><rect x="1131.0" y="389" width="59.0" height="15.0" fill="rgb(212,185,19)" rx="2" ry="2" />
<text  x="1134.00" y="399.5" >comphe..</text>
</g>
<g >
<title>osl_getDirectoryItem (1 samples, 5.00%)</title><rect x="1131.0" y="165" width="59.0" height="15.0" fill="rgb(215,121,54)" rx="2" ry="2" />
<text  x="1134.00" y="175.5" >osl_ge..</text>
</g>
<g >
<title>SvpSalInstance::ImplYield (3 samples, 15.00%)</title><rect x="954.0" y="357" width="177.0" height="15.0" fill="rgb(223,13,40)" rx="2" ry="2" />
<text  x="957.00" y="367.5" >SvpSalInstance::ImplYield</text>
</g>
<g >
<title>malloc (1 samples, 5.00%)</title><rect x="1131.0" y="101" width="59.0" height="15.0" fill="rgb(210,11,14)" rx="2" ry="2" />
<text  x="1134.00" y="111.5" >malloc</text>
</g>
<g >
<title>DOM::CNode::~CNode (1 samples, 5.00%)</title><rect x="128.0" y="277" width="59.0" height="15.0" fill="rgb(250,79,40)" rx="2" ry="2" />
<text  x="131.00" y="287.5" >DOM::C..</text>
</g>
<g >
<title>xmlXPathRegisteredFuncsCleanup (1 samples, 5.00%)</title><rect x="69.0" y="229" width="59.0" height="15.0" fill="rgb(232,27,35)" rx="2" ry="2" />
<text  x="72.00" y="239.5" >xmlXPa..</text>
</g>
<g >
<title>handleUserProfileSignal (1 samples, 5.00%)</title><rect x="10.0" y="389" width="59.0" height="15.0" fill="rgb(214,141,44)" rx="2" ry="2" />
<text  x="13.00" y="399.5" >handle..</text>
</g>
<g >
<title>SwViewShell::PaintTile (1 samples, 5.00%)</title><rect x="777.0" y="453" width="59.0" height="15.0" fill="rgb(221,2,11)" rx="2" ry="2" />
<text  x="780.00" y="463.5" >SwView..</text>
</g>
<g >
<title>ucbhelper::Content::getPropertyValue (1 samples, 5.00%)</title><rect x="1131.0" y="277" width="59.0" height="15.0" fill="rgb(252,146,45)" rx="2" ry="2" />
<text  x="1134.00" y="287.5" >ucbhel..</text>
</g>
<g >
<title>DOM::CElement::~CElement (1 samples, 5.00%)</title><rect x="128.0" y="293" width="59.0" height="15.0" fill="rgb(250,185,46)" rx="2" ry="2" />
<text  x="131.00" y="303.5" >DOM::C..</text>
</g>
<g >
<title>DOM::CDocument::~CDocument (1 samples, 5.00%)</title><rect x="128.0" y="245" width="59.0" height="15.0" fill="rgb(215,166,37)" rx="2" ry="2" />
<text  x="131.00" y="255.5" >DOM::C..</text>
</g>
<g >
<title>XPath::CXPathAPI::selectNodeList (1 samples, 5.00%)</title><rect x="69.0" y="277" width="59.0" height="15.0" fill="rgb(249,219,21)" rx="2" ry="2" />
<text  x="72.00" y="287.5" >XPath:..</text>
</g>
<g >
<title>syscall (3 samples, 15.00%)</title><rect x="954.0" y="261" width="177.0" height="15.0" fill="rgb(233,221,42)" rx="2" ry="2" />
<text  x="957.00" y="271.5" >syscall</text>
</g>
<g >
<title>DOM::CNode::~CNode (1 samples, 5.00%)</title><rect x="364.0" y="261" width="59.0" height="15.0" fill="rgb(216,34,24)" rx="2" ry="2" />
<text  x="367.00" y="271.5" >DOM::C..</text>
</g>
<g >
<title>pixman_fill (1 samples, 5.00%)</title><rect x="777.0" y="165" width="59.0" height="15.0" fill="rgb(239,57,4)" rx="2" ry="2" />
<text  x="780.00" y="175.5" >pixman..</text>
</g>
<g >
<title>SwViewShell::Paint (1 samples, 5.00%)</title><rect x="777.0" y="421" width="59.0" height="15.0" fill="rgb(207,151,5)" rx="2" ry="2" />
<text  x="780.00" y="431.5" >SwView..</text>
</g>
<g >
<title>fileaccess::BaseContent::open (2 samples, 10.00%)</title><rect x="836.0" y="421" width="118.0" height="15.0" fill="rgb(253,30,45)" rx="2" ry="2" />
<text  x="839.00" y="431.5" >fileaccess::Ba..</text>
</g>
<g >
<title>xmlParseDocument (3 samples, 15.00%)</title><rect x="187.0" y="261" width="177.0" height="15.0" fill="rgb(211,38,6)" rx="2" ry="2" />
<text  x="190.00" y="271.5" >xmlParseDocument</text>
</g>
<g >
<title>syscall (1 samples, 5.00%)</title><rect x="69.0" y="149" width="59.0" height="15.0" fill="rgb(250,201,1)" rx="2" ry="2" />
<text  x="72.00" y="159.5" >syscall</text>
</g>
<g >
<title>_pixman_implementation_fill (1 samples, 5.00%)</title><rect x="777.0" y="149" width="59.0" height="15.0" fill="rgb(212,101,51)" rx="2" ry="2" />
<text  x="780.00" y="159.5" >_pixma..</text>
</g>
</g>
</svg>
