<?xml version="1.0" standalone="no"?>
<!DOCTYPE svg PUBLIC "-//W3C//DTD SVG 1.1//EN" "http://www.w3.org/Graphics/SVG/1.1/DTD/svg11.dtd">
<svg version="1.1" width="1200" height="550" onload="init(evt)" viewBox="0 0 1200 550" xmlns="http://www.w3.org/2000/svg" xmlns:xlink="http://www.w3.org/1999/xlink">
<!-- Flame graph stack visualization. See https://github.com/brendangregg/FlameGraph for latest version, and http://www.brendangregg.com/flamegraphs.html for examples. -->
<!-- NOTES:  -->
<defs>
	<linearGradient id="background" y1="0" y2="1" x1="0" x2="0" >
		<stop stop-color="#eeeeee" offset="5%" />
		<stop stop-color="#eeeeb0" offset="95%" />
	</linearGradient>
</defs>
<style type="text/css">
	text { font-family:Verdana; font-size:12px; fill:rgb(0,0,0); }
	#search, #ignorecase { opacity:0.1; cursor:pointer; }
	#search:hover, #search.show, #ignorecase:hover, #ignorecase.show { opacity:1; }
	#subtitle { text-anchor:middle; font-color:rgb(160,160,160); }
	#title { text-anchor:middle; font-size:17px}
	#unzoom { cursor:pointer; }
	#frames > *:hover { stroke:black; stroke-width:0.5; cursor:pointer; }
	.hide { display:none; }
	.parent { opacity:0.5; }
</style>
<script type="text/ecmascript">
<![CDATA[
	"use strict";
	var details, searchbtn, unzoombtn, matchedtxt, svg, searching, currentSearchTerm, ignorecase, ignorecaseBtn;
	function init(evt) {
		details = document.getElementById("details").firstChild;
		searchbtn = document.getElementById("search");
		ignorecaseBtn = document.getElementById("ignorecase");
		unzoombtn = document.getElementById("unzoom");
		matchedtxt = document.getElementById("matched");
		svg = document.getElementsByTagName("svg")[0];
		searching = 0;
		currentSearchTerm = null;

		// use GET parameters to restore a flamegraphs state.
		var params = get_params();
		if (params.x && params.y)
			zoom(find_group(document.querySelector('[x="' + params.x + '"][y="' + params.y + '"]')));
                if (params.s) search(params.s);
	}

	// event listeners
	window.addEventListener("click", function(e) {
		var target = find_group(e.target);
		if (target) {
			if (target.nodeName == "a") {
				if (e.ctrlKey === false) return;
				e.preventDefault();
			}
			if (target.classList.contains("parent")) unzoom(true);
			zoom(target);
			if (!document.querySelector('.parent')) {
				// we have basically done a clearzoom so clear the url
				var params = get_params();
				if (params.x) delete params.x;
				if (params.y) delete params.y;
				history.replaceState(null, null, parse_params(params));
				unzoombtn.classList.add("hide");
				return;
			}

			// set parameters for zoom state
			var el = target.querySelector("rect");
			if (el && el.attributes && el.attributes.y && el.attributes._orig_x) {
				var params = get_params()
				params.x = el.attributes._orig_x.value;
				params.y = el.attributes.y.value;
				history.replaceState(null, null, parse_params(params));
			}
		}
		else if (e.target.id == "unzoom") clearzoom();
		else if (e.target.id == "search") search_prompt();
		else if (e.target.id == "ignorecase") toggle_ignorecase();
	}, false)

	// mouse-over for info
	// show
	window.addEventListener("mouseover", function(e) {
		var target = find_group(e.target);
		if (target) details.nodeValue = "Function: " + g_to_text(target);
	}, false)

	// clear
	window.addEventListener("mouseout", function(e) {
		var target = find_group(e.target);
		if (target) details.nodeValue = ' ';
	}, false)

	// ctrl-F for search
	// ctrl-I to toggle case-sensitive search
	window.addEventListener("keydown",function (e) {
		if (e.keyCode === 114 || (e.ctrlKey && e.keyCode === 70)) {
			e.preventDefault();
			search_prompt();
		}
		else if (e.ctrlKey && e.keyCode === 73) {
			e.preventDefault();
			toggle_ignorecase();
		}
	}, false)

	// functions
	function get_params() {
		var params = {};
		var paramsarr = window.location.search.substr(1).split('&');
		for (var i = 0; i < paramsarr.length; ++i) {
			var tmp = paramsarr[i].split("=");
			if (!tmp[0] || !tmp[1]) continue;
			params[tmp[0]]  = decodeURIComponent(tmp[1]);
		}
		return params;
	}
	function parse_params(params) {
		var uri = "?";
		for (var key in params) {
			uri += key + '=' + encodeURIComponent(params[key]) + '&';
		}
		if (uri.slice(-1) == "&")
			uri = uri.substring(0, uri.length - 1);
		if (uri == '?')
			uri = window.location.href.split('?')[0];
		return uri;
	}
	function find_child(node, selector) {
		var children = node.querySelectorAll(selector);
		if (children.length) return children[0];
	}
	function find_group(node) {
		var parent = node.parentElement;
		if (!parent) return;
		if (parent.id == "frames") return node;
		return find_group(parent);
	}
	function orig_save(e, attr, val) {
		if (e.attributes["_orig_" + attr] != undefined) return;
		if (e.attributes[attr] == undefined) return;
		if (val == undefined) val = e.attributes[attr].value;
		e.setAttribute("_orig_" + attr, val);
	}
	function orig_load(e, attr) {
		if (e.attributes["_orig_"+attr] == undefined) return;
		e.attributes[attr].value = e.attributes["_orig_" + attr].value;
		e.removeAttribute("_orig_"+attr);
	}
	function g_to_text(e) {
		var text = find_child(e, "title").firstChild.nodeValue;
		return (text)
	}
	function g_to_func(e) {
		var func = g_to_text(e);
		// if there's any manipulation we want to do to the function
		// name before it's searched, do it here before returning.
		return (func);
	}
	function update_text(e) {
		var r = find_child(e, "rect");
		var t = find_child(e, "text");
		var w = parseFloat(r.attributes.width.value) -3;
		var txt = find_child(e, "title").textContent.replace(/\([^(]*\)$/,"");
		t.attributes.x.value = parseFloat(r.attributes.x.value) + 3;

		// Smaller than this size won't fit anything
		if (w < 2 * 12 * 0.59) {
			t.textContent = "";
			return;
		}

		t.textContent = txt;
		var sl = t.getSubStringLength(0, txt.length);
		// check if only whitespace or if we can fit the entire string into width w
		if (/^ *$/.test(txt) || sl < w)
			return;

		// this isn't perfect, but gives a good starting point
		// and avoids calling getSubStringLength too often
		var start = Math.floor((w/sl) * txt.length);
		for (var x = start; x > 0; x = x-2) {
			if (t.getSubStringLength(0, x + 2) <= w) {
				t.textContent = txt.substring(0, x) + "..";
				return;
			}
		}
		t.textContent = "";
	}

	// zoom
	function zoom_reset(e) {
		if (e.attributes != undefined) {
			orig_load(e, "x");
			orig_load(e, "width");
		}
		if (e.childNodes == undefined) return;
		for (var i = 0, c = e.childNodes; i < c.length; i++) {
			zoom_reset(c[i]);
		}
	}
	function zoom_child(e, x, ratio) {
		if (e.attributes != undefined) {
			if (e.attributes.x != undefined) {
				orig_save(e, "x");
				e.attributes.x.value = (parseFloat(e.attributes.x.value) - x - 10) * ratio + 10;
				if (e.tagName == "text")
					e.attributes.x.value = find_child(e.parentNode, "rect[x]").attributes.x.value + 3;
			}
			if (e.attributes.width != undefined) {
				orig_save(e, "width");
				e.attributes.width.value = parseFloat(e.attributes.width.value) * ratio;
			}
		}

		if (e.childNodes == undefined) return;
		for (var i = 0, c = e.childNodes; i < c.length; i++) {
			zoom_child(c[i], x - 10, ratio);
		}
	}
	function zoom_parent(e) {
		if (e.attributes) {
			if (e.attributes.x != undefined) {
				orig_save(e, "x");
				e.attributes.x.value = 10;
			}
			if (e.attributes.width != undefined) {
				orig_save(e, "width");
				e.attributes.width.value = parseInt(svg.width.baseVal.value) - (10 * 2);
			}
		}
		if (e.childNodes == undefined) return;
		for (var i = 0, c = e.childNodes; i < c.length; i++) {
			zoom_parent(c[i]);
		}
	}
	function zoom(node) {
		var attr = find_child(node, "rect").attributes;
		var width = parseFloat(attr.width.value);
		var xmin = parseFloat(attr.x.value);
		var xmax = parseFloat(xmin + width);
		var ymin = parseFloat(attr.y.value);
		var ratio = (svg.width.baseVal.value - 2 * 10) / width;

		// XXX: Workaround for JavaScript float issues (fix me)
		var fudge = 0.0001;

		unzoombtn.classList.remove("hide");

		var el = document.getElementById("frames").children;
		for (var i = 0; i < el.length; i++) {
			var e = el[i];
			var a = find_child(e, "rect").attributes;
			var ex = parseFloat(a.x.value);
			var ew = parseFloat(a.width.value);
			var upstack;
			// Is it an ancestor
			if (0 == 0) {
				upstack = parseFloat(a.y.value) > ymin;
			} else {
				upstack = parseFloat(a.y.value) < ymin;
			}
			if (upstack) {
				// Direct ancestor
				if (ex <= xmin && (ex+ew+fudge) >= xmax) {
					e.classList.add("parent");
					zoom_parent(e);
					update_text(e);
				}
				// not in current path
				else
					e.classList.add("hide");
			}
			// Children maybe
			else {
				// no common path
				if (ex < xmin || ex + fudge >= xmax) {
					e.classList.add("hide");
				}
				else {
					zoom_child(e, xmin, ratio);
					update_text(e);
				}
			}
		}
		search();
	}
	function unzoom(dont_update_text) {
		unzoombtn.classList.add("hide");
		var el = document.getElementById("frames").children;
		for(var i = 0; i < el.length; i++) {
			el[i].classList.remove("parent");
			el[i].classList.remove("hide");
			zoom_reset(el[i]);
			if(!dont_update_text) update_text(el[i]);
		}
		search();
	}
	function clearzoom() {
		unzoom();

		// remove zoom state
		var params = get_params();
		if (params.x) delete params.x;
		if (params.y) delete params.y;
		history.replaceState(null, null, parse_params(params));
	}

	// search
	function toggle_ignorecase() {
		ignorecase = !ignorecase;
		if (ignorecase) {
			ignorecaseBtn.classList.add("show");
		} else {
			ignorecaseBtn.classList.remove("show");
		}
		reset_search();
		search();
	}
	function reset_search() {
		var el = document.querySelectorAll("#frames rect");
		for (var i = 0; i < el.length; i++) {
			orig_load(el[i], "fill")
		}
		var params = get_params();
		delete params.s;
		history.replaceState(null, null, parse_params(params));
	}
	function search_prompt() {
		if (!searching) {
			var term = prompt("Enter a search term (regexp " +
			    "allowed, eg: ^ext4_)"
			    + (ignorecase ? ", ignoring case" : "")
			    + "\nPress Ctrl-i to toggle case sensitivity", "");
			if (term != null) search(term);
		} else {
			reset_search();
			searching = 0;
			currentSearchTerm = null;
			searchbtn.classList.remove("show");
			searchbtn.firstChild.nodeValue = "Search"
			matchedtxt.classList.add("hide");
			matchedtxt.firstChild.nodeValue = ""
		}
	}
	function search(term) {
		if (term) currentSearchTerm = term;

		var re = new RegExp(currentSearchTerm, ignorecase ? 'i' : '');
		var el = document.getElementById("frames").children;
		var matches = new Object();
		var maxwidth = 0;
		for (var i = 0; i < el.length; i++) {
			var e = el[i];
			var func = g_to_func(e);
			var rect = find_child(e, "rect");
			if (func == null || rect == null)
				continue;

			// Save max width. Only works as we have a root frame
			var w = parseFloat(rect.attributes.width.value);
			if (w > maxwidth)
				maxwidth = w;

			if (func.match(re)) {
				// highlight
				var x = parseFloat(rect.attributes.x.value);
				orig_save(rect, "fill");
				rect.attributes.fill.value = "rgb(230,0,230)";

				// remember matches
				if (matches[x] == undefined) {
					matches[x] = w;
				} else {
					if (w > matches[x]) {
						// overwrite with parent
						matches[x] = w;
					}
				}
				searching = 1;
			}
		}
		if (!searching)
			return;
		var params = get_params();
		params.s = currentSearchTerm;
		history.replaceState(null, null, parse_params(params));

		searchbtn.classList.add("show");
		searchbtn.firstChild.nodeValue = "Reset Search";

		// calculate percent matched, excluding vertical overlap
		var count = 0;
		var lastx = -1;
		var lastw = 0;
		var keys = Array();
		for (k in matches) {
			if (matches.hasOwnProperty(k))
				keys.push(k);
		}
		// sort the matched frames by their x location
		// ascending, then width descending
		keys.sort(function(a, b){
			return a - b;
		});
		// Step through frames saving only the biggest bottom-up frames
		// thanks to the sort order. This relies on the tree property
		// where children are always smaller than their parents.
		var fudge = 0.0001;	// JavaScript floating point
		for (var k in keys) {
			var x = parseFloat(keys[k]);
			var w = matches[keys[k]];
			if (x >= lastx + lastw - fudge) {
				count += w;
				lastx = x;
				lastw = w;
			}
		}
		// display matched percent
		matchedtxt.classList.remove("hide");
		var pct = 100 * count / maxwidth;
		if (pct != 100) pct = pct.toFixed(1)
		matchedtxt.firstChild.nodeValue = "Matched: " + pct + "%";
	}
]]>
</script>
<rect x="0.0" y="0" width="1200.0" height="550.0" fill="url(#background)"  />
<text id="title" x="600.00" y="24" >StagingPerf.eu Watchdog Profile (2024-06-01T08:36:04.290402)</text>
<text id="details" x="10.00" y="533" > </text>
<text id="unzoom" x="10.00" y="24" class="hide">Reset Zoom</text>
<text id="search" x="1090.00" y="24" >Search</text>
<text id="ignorecase" x="1174.00" y="24" >ic</text>
<text id="matched" x="1090.00" y="533" > </text>
<g id="frames">
<g >
<title>JSDialogNotifyIdle::generateFullUpdate (3 samples, 16.67%)</title><rect x="468.9" y="245" width="196.7" height="15.0" fill="rgb(229,4,22)" rx="2" ry="2" />
<text  x="471.89" y="255.5" >JSDialogNotifyIdle::gener..</text>
</g>
<g >
<title>remotefontconfi (6 samples, 33.33%)</title><rect x="796.7" y="485" width="393.3" height="15.0" fill="rgb(240,84,2)" rx="2" ry="2" />
<text  x="799.67" y="495.5" >remotefontconfi</text>
</g>
<g >
<title>SvpSalInstance::ImplYield (1 samples, 5.56%)</title><rect x="206.7" y="373" width="65.5" height="15.0" fill="rgb(241,197,21)" rx="2" ry="2" />
<text  x="209.67" y="383.5" >SvpSalI..</text>
</g>
<g >
<title>vcl::Window::DumpAsPropertyTree (3 samples, 16.67%)</title><rect x="468.9" y="149" width="196.7" height="15.0" fill="rgb(231,213,39)" rx="2" ry="2" />
<text  x="471.89" y="159.5" >vcl::Window::DumpAsProper..</text>
</g>
<g >
<title>psp::PrintFontManager::Substitute (3 samples, 16.67%)</title><rect x="272.2" y="181" width="196.7" height="15.0" fill="rgb(216,61,11)" rx="2" ry="2" />
<text  x="275.22" y="191.5" >psp::PrintFontManager::Su..</text>
</g>
<g >
<title>http::Session::syncRequest (6 samples, 33.33%)</title><rect x="796.7" y="405" width="393.3" height="15.0" fill="rgb(244,116,39)" rx="2" ry="2" />
<text  x="799.67" y="415.5" >http::Session::syncRequest</text>
</g>
<g >
<title>ImplYield (1 samples, 5.56%)</title><rect x="206.7" y="405" width="65.5" height="15.0" fill="rgb(240,215,34)" rx="2" ry="2" />
<text  x="209.67" y="415.5" >ImplYield</text>
</g>
<g >
<title>lokit_main (1 samples, 5.56%)</title><rect x="665.6" y="453" width="65.5" height="15.0" fill="rgb(246,138,46)" rx="2" ry="2" />
<text  x="668.56" y="463.5" >lokit_m..</text>
</g>
<g >
<title>deflate (1 samples, 5.56%)</title><rect x="206.7" y="149" width="65.5" height="15.0" fill="rgb(238,224,13)" rx="2" ry="2" />
<text  x="209.67" y="159.5" >deflate</text>
</g>
<g >
<title>IconView::DumpAsPropertyTree (3 samples, 16.67%)</title><rect x="272.2" y="421" width="196.7" height="15.0" fill="rgb(240,229,20)" rx="2" ry="2" />
<text  x="275.22" y="431.5" >IconView::DumpAsPropertyT..</text>
</g>
<g >
<title>ImplYield (3 samples, 16.67%)</title><rect x="468.9" y="341" width="196.7" height="15.0" fill="rgb(246,131,50)" rx="2" ry="2" />
<text  x="471.89" y="351.5" >ImplYield</text>
</g>
<g >
<title>inflateCodesUsed (1 samples, 5.56%)</title><rect x="206.7" y="85" width="65.5" height="15.0" fill="rgb(248,20,25)" rx="2" ry="2" />
<text  x="209.67" y="95.5" >inflate..</text>
</g>
<g >
<title>SvpSalInstance::CheckTimeout (3 samples, 16.67%)</title><rect x="468.9" y="293" width="196.7" height="15.0" fill="rgb(249,36,43)" rx="2" ry="2" />
<text  x="471.89" y="303.5" >SvpSalInstance::CheckTime..</text>
</g>
<g >
<title>FcConfigSubstituteWithPat (3 samples, 16.67%)</title><rect x="272.2" y="133" width="196.7" height="15.0" fill="rgb(206,41,26)" rx="2" ry="2" />
<text  x="275.22" y="143.5" >FcConfigSubstituteWithPat</text>
</g>
<g >
<title>soffice_main (3 samples, 16.67%)</title><rect x="468.9" y="405" width="196.7" height="15.0" fill="rgb(249,122,25)" rx="2" ry="2" />
<text  x="471.89" y="415.5" >soffice_main</text>
</g>
<g >
<title>vcl::Window::DumpAsPropertyTree (3 samples, 16.67%)</title><rect x="468.9" y="117" width="196.7" height="15.0" fill="rgb(235,204,12)" rx="2" ry="2" />
<text  x="471.89" y="127.5" >vcl::Window::DumpAsProper..</text>
</g>
<g >
<title>syscall (1 samples, 5.56%)</title><rect x="665.6" y="117" width="65.5" height="15.0" fill="rgb(246,57,35)" rx="2" ry="2" />
<text  x="668.56" y="127.5" >syscall</text>
</g>
<g >
<title>http::Session::syncRequest (6 samples, 33.33%)</title><rect x="796.7" y="421" width="393.3" height="15.0" fill="rgb(228,164,0)" rx="2" ry="2" />
<text  x="799.67" y="431.5" >http::Session::syncRequest</text>
</g>
<g >
<title>handleUserProfileSignal (3 samples, 16.67%)</title><rect x="10.0" y="341" width="196.7" height="15.0" fill="rgb(224,206,46)" rx="2" ry="2" />
<text  x="13.00" y="351.5" >handleUserProfileSignal</text>
</g>
<g >
<title>kitbroker (9 samples, 50.00%)</title><rect x="206.7" y="485" width="590.0" height="15.0" fill="rgb(236,202,46)" rx="2" ry="2" />
<text  x="209.67" y="495.5" >kitbroker</text>
</g>
<g >
<title>desktop::Desktop::Main (3 samples, 16.67%)</title><rect x="468.9" y="373" width="196.7" height="15.0" fill="rgb(211,43,54)" rx="2" ry="2" />
<text  x="471.89" y="383.5" >desktop::Desktop::Main</text>
</g>
<g >
<title>VclBox::DumpAsPropertyTree (3 samples, 16.67%)</title><rect x="468.9" y="197" width="196.7" height="15.0" fill="rgb(252,100,42)" rx="2" ry="2" />
<text  x="471.89" y="207.5" >VclBox::DumpAsPropertyTree</text>
</g>
<g >
<title>SocketPoll::poll (6 samples, 33.33%)</title><rect x="796.7" y="389" width="393.3" height="15.0" fill="rgb(209,24,50)" rx="2" ry="2" />
<text  x="799.67" y="399.5" >SocketPoll::poll</text>
</g>
<g >
<title>ppoll (3 samples, 16.67%)</title><rect x="10.0" y="373" width="196.7" height="15.0" fill="rgb(220,157,24)" rx="2" ry="2" />
<text  x="13.00" y="383.5" >ppoll</text>
</g>
<g >
<title>ImplYield (1 samples, 5.56%)</title><rect x="665.6" y="357" width="65.5" height="15.0" fill="rgb(233,203,4)" rx="2" ry="2" />
<text  x="668.56" y="367.5" >ImplYield</text>
</g>
<g >
<title>Scheduler::CallbackTaskScheduling (1 samples, 5.56%)</title><rect x="206.7" y="341" width="65.5" height="15.0" fill="rgb(211,173,43)" rx="2" ry="2" />
<text  x="209.67" y="351.5" >Schedul..</text>
</g>
<g >
<title>vcl::pngWrite (1 samples, 5.56%)</title><rect x="206.7" y="213" width="65.5" height="15.0" fill="rgb(230,196,12)" rx="2" ry="2" />
<text  x="209.67" y="223.5" >vcl::pn..</text>
</g>
<g >
<title>JSDialogNotifyIdle::generateWidgetUpdate (3 samples, 16.67%)</title><rect x="272.2" y="437" width="196.7" height="15.0" fill="rgb(227,81,7)" rx="2" ry="2" />
<text  x="275.22" y="447.5" >JSDialogNotifyIdle::gener..</text>
</g>
<g >
<title>SocketPoll::poll (3 samples, 16.67%)</title><rect x="10.0" y="389" width="196.7" height="15.0" fill="rgb(210,202,46)" rx="2" ry="2" />
<text  x="13.00" y="399.5" >SocketPoll::poll</text>
</g>
<g >
<title>ImplFontCache::GetFontInstance (3 samples, 16.67%)</title><rect x="272.2" y="213" width="196.7" height="15.0" fill="rgb(209,176,38)" rx="2" ry="2" />
<text  x="275.22" y="223.5" >ImplFontCache::GetFontIns..</text>
</g>
<g >
<title>RemoteJSONPoll::pollingThread (6 samples, 33.33%)</title><rect x="796.7" y="437" width="393.3" height="15.0" fill="rgb(235,27,45)" rx="2" ry="2" />
<text  x="799.67" y="447.5" >RemoteJSONPoll::pollingThread</text>
</g>
<g >
<title>IconView::DumpAsPropertyTree (1 samples, 5.56%)</title><rect x="665.6" y="245" width="65.5" height="15.0" fill="rgb(247,51,13)" rx="2" ry="2" />
<text  x="668.56" y="255.5" >IconVie..</text>
</g>
<g >
<title>_IO_funlockfile (3 samples, 16.67%)</title><rect x="10.0" y="357" width="196.7" height="15.0" fill="rgb(244,76,21)" rx="2" ry="2" />
<text  x="13.00" y="367.5" >_IO_funlockfile</text>
</g>
<g >
<title>SalLayoutGlyphsCache::CachedGlyphsKey::CachedGlyphsKey (3 samples, 16.67%)</title><rect x="272.2" y="277" width="196.7" height="15.0" fill="rgb(222,95,27)" rx="2" ry="2" />
<text  x="275.22" y="287.5" >SalLayoutGlyphsCache::Cac..</text>
</g>
<g >
<title>_IO_funlockfile (1 samples, 5.56%)</title><rect x="206.7" y="69" width="65.5" height="15.0" fill="rgb(228,46,53)" rx="2" ry="2" />
<text  x="209.67" y="79.5" >_IO_fun..</text>
</g>
<g >
<title>lokit_main (3 samples, 16.67%)</title><rect x="468.9" y="437" width="196.7" height="15.0" fill="rgb(217,63,4)" rx="2" ry="2" />
<text  x="471.89" y="447.5" >lokit_main</text>
</g>
<g >
<title>vcl::font::PhysicalFontCollection::FindFontFamily (3 samples, 16.67%)</title><rect x="272.2" y="197" width="196.7" height="15.0" fill="rgb(254,61,6)" rx="2" ry="2" />
<text  x="275.22" y="207.5" >vcl::font::PhysicalFontCo..</text>
</g>
<g >
<title>lo_runLoop (1 samples, 5.56%)</title><rect x="665.6" y="437" width="65.5" height="15.0" fill="rgb(227,12,22)" rx="2" ry="2" />
<text  x="668.56" y="447.5" >lo_runL..</text>
</g>
<g >
<title>handleUserProfileSignal (3 samples, 16.67%)</title><rect x="468.9" y="85" width="196.7" height="15.0" fill="rgb(229,189,41)" rx="2" ry="2" />
<text  x="471.89" y="95.5" >handleUserProfileSignal</text>
</g>
<g >
<title>_IO_funlockfile (3 samples, 16.67%)</title><rect x="272.2" y="101" width="196.7" height="15.0" fill="rgb(232,30,40)" rx="2" ry="2" />
<text  x="275.22" y="111.5" >_IO_funlockfile</text>
</g>
<g >
<title>soffice_main (1 samples, 5.56%)</title><rect x="665.6" y="421" width="65.5" height="15.0" fill="rgb(249,189,33)" rx="2" ry="2" />
<text  x="668.56" y="431.5" >soffice..</text>
</g>
<g >
<title>syscall (6 samples, 33.33%)</title><rect x="796.7" y="325" width="393.3" height="15.0" fill="rgb(219,221,54)" rx="2" ry="2" />
<text  x="799.67" y="335.5" >syscall</text>
</g>
<g >
<title>syscall (3 samples, 16.67%)</title><rect x="272.2" y="69" width="196.7" height="15.0" fill="rgb(217,123,29)" rx="2" ry="2" />
<text  x="275.22" y="79.5" >syscall</text>
</g>
<g >
<title>JSDialogNotifyIdle::Invoke (1 samples, 5.56%)</title><rect x="206.7" y="325" width="65.5" height="15.0" fill="rgb(235,164,25)" rx="2" ry="2" />
<text  x="209.67" y="335.5" >JSDialo..</text>
</g>
<g >
<title>Application::Execute (1 samples, 5.56%)</title><rect x="665.6" y="373" width="65.5" height="15.0" fill="rgb(241,47,2)" rx="2" ry="2" />
<text  x="668.56" y="383.5" >Applica..</text>
</g>
<g >
<title>_IO_funlockfile (1 samples, 5.56%)</title><rect x="665.6" y="149" width="65.5" height="15.0" fill="rgb(227,120,5)" rx="2" ry="2" />
<text  x="668.56" y="159.5" >_IO_fun..</text>
</g>
<g >
<title>coolwsd (3 samples, 16.67%)</title><rect x="10.0" y="485" width="196.7" height="15.0" fill="rgb(247,84,11)" rx="2" ry="2" />
<text  x="13.00" y="495.5" >coolwsd</text>
</g>
<g >
<title>all (18 samples, 100%)</title><rect x="10.0" y="501" width="1180.0" height="15.0" fill="rgb(211,158,50)" rx="2" ry="2" />
<text  x="13.00" y="511.5" ></text>
</g>
<g >
<title>ImplSVMain (1 samples, 5.56%)</title><rect x="206.7" y="453" width="65.5" height="15.0" fill="rgb(220,28,14)" rx="2" ry="2" />
<text  x="209.67" y="463.5" >ImplSVM..</text>
</g>
<g >
<title>handleUserProfileSignal (1 samples, 5.56%)</title><rect x="206.7" y="53" width="65.5" height="15.0" fill="rgb(221,190,45)" rx="2" ry="2" />
<text  x="209.67" y="63.5" >handleU..</text>
</g>
<g >
<title>[unknown] (8 samples, 44.44%)</title><rect x="206.7" y="469" width="524.4" height="15.0" fill="rgb(220,195,36)" rx="2" ry="2" />
<text  x="209.67" y="479.5" >[unknown]</text>
</g>
<g >
<title>SvpSalInstance::ImplYield (3 samples, 16.67%)</title><rect x="468.9" y="309" width="196.7" height="15.0" fill="rgb(225,94,13)" rx="2" ry="2" />
<text  x="471.89" y="319.5" >SvpSalInstance::ImplYield</text>
</g>
<g >
<title>JSDialogNotifyIdle::Invoke (3 samples, 16.67%)</title><rect x="272.2" y="453" width="196.7" height="15.0" fill="rgb(231,170,38)" rx="2" ry="2" />
<text  x="275.22" y="463.5" >JSDialogNotifyIdle::Invoke</text>
</g>
<g >
<title>StylesPreviewWindow_Base::GetCachedPreview (3 samples, 16.67%)</title><rect x="272.2" y="341" width="196.7" height="15.0" fill="rgb(220,3,24)" rx="2" ry="2" />
<text  x="275.22" y="351.5" >StylesPreviewWindow_Base:..</text>
</g>
<g >
<title>SvpSalInstance::CheckTimeout (1 samples, 5.56%)</title><rect x="206.7" y="357" width="65.5" height="15.0" fill="rgb(216,48,5)" rx="2" ry="2" />
<text  x="209.67" y="367.5" >SvpSalI..</text>
</g>
<g >
<title>handleUserProfileSignal (1 samples, 5.56%)</title><rect x="731.1" y="421" width="65.6" height="15.0" fill="rgb(219,151,10)" rx="2" ry="2" />
<text  x="734.11" y="431.5" >handleU..</text>
</g>
<g >
<title>[unknown] (3 samples, 16.67%)</title><rect x="10.0" y="469" width="196.7" height="15.0" fill="rgb(208,98,20)" rx="2" ry="2" />
<text  x="13.00" y="479.5" >[unknown]</text>
</g>
<g >
<title>createLibreOfficeKit (3 samples, 16.67%)</title><rect x="468.9" y="453" width="196.7" height="15.0" fill="rgb(210,187,4)" rx="2" ry="2" />
<text  x="471.89" y="463.5" >createLibreOfficeKit</text>
</g>
<g >
<title>_IO_funlockfile (1 samples, 5.56%)</title><rect x="731.1" y="437" width="65.6" height="15.0" fill="rgb(236,182,10)" rx="2" ry="2" />
<text  x="734.11" y="447.5" >_IO_fun..</text>
</g>
<g >
<title>COOLWSD::processFetchUpdate (3 samples, 16.67%)</title><rect x="10.0" y="437" width="196.7" height="15.0" fill="rgb(235,103,2)" rx="2" ry="2" />
<text  x="13.00" y="447.5" >COOLWSD::processFetchUpdate</text>
</g>
<g >
<title>inflateCodesUsed (1 samples, 5.56%)</title><rect x="206.7" y="101" width="65.5" height="15.0" fill="rgb(247,16,19)" rx="2" ry="2" />
<text  x="209.67" y="111.5" >inflate..</text>
</g>
<g >
<title>cppu::WeakImplHelper&lt;&gt;::queryInterface (1 samples, 5.56%)</title><rect x="731.1" y="469" width="65.6" height="15.0" fill="rgb(243,47,16)" rx="2" ry="2" />
<text  x="734.11" y="479.5" >cppu::W..</text>
</g>
<g >
<title>OutputDevice::ImplNewFont (3 samples, 16.67%)</title><rect x="272.2" y="245" width="196.7" height="15.0" fill="rgb(213,162,43)" rx="2" ry="2" />
<text  x="275.22" y="255.5" >OutputDevice::ImplNewFont</text>
</g>
<g >
<title>StylesPreviewWindow_Base::DoJsonProperty (3 samples, 16.67%)</title><rect x="272.2" y="373" width="196.7" height="15.0" fill="rgb(248,182,20)" rx="2" ry="2" />
<text  x="275.22" y="383.5" >StylesPreviewWindow_Base:..</text>
</g>
<g >
<title>COOLWSD::innerMain (3 samples, 16.67%)</title><rect x="10.0" y="453" width="196.7" height="15.0" fill="rgb(238,161,37)" rx="2" ry="2" />
<text  x="13.00" y="463.5" >COOLWSD::innerMain</text>
</g>
<g >
<title>SalInstanceIconView::LinkStubDumpElemToPropertyTreeHdl (1 samples, 5.56%)</title><rect x="206.7" y="261" width="65.5" height="15.0" fill="rgb(205,25,4)" rx="2" ry="2" />
<text  x="209.67" y="271.5" >SalInst..</text>
</g>
<g >
<title>inflateCodesUsed (1 samples, 5.56%)</title><rect x="206.7" y="117" width="65.5" height="15.0" fill="rgb(245,74,10)" rx="2" ry="2" />
<text  x="209.67" y="127.5" >inflate..</text>
</g>
<g >
<title>_IO_funlockfile (6 samples, 33.33%)</title><rect x="796.7" y="357" width="393.3" height="15.0" fill="rgb(211,200,51)" rx="2" ry="2" />
<text  x="799.67" y="367.5" >_IO_funlockfile</text>
</g>
<g >
<title>desktop::Desktop::Main (1 samples, 5.56%)</title><rect x="665.6" y="389" width="65.5" height="15.0" fill="rgb(220,219,5)" rx="2" ry="2" />
<text  x="668.56" y="399.5" >desktop..</text>
</g>
<g >
<title>ImplSVMain (1 samples, 5.56%)</title><rect x="665.6" y="405" width="65.5" height="15.0" fill="rgb(236,41,11)" rx="2" ry="2" />
<text  x="668.56" y="415.5" >ImplSVM..</text>
</g>
<g >
<title>IconView::DumpAsPropertyTree (1 samples, 5.56%)</title><rect x="206.7" y="293" width="65.5" height="15.0" fill="rgb(217,79,54)" rx="2" ry="2" />
<text  x="209.67" y="303.5" >IconVie..</text>
</g>
<g >
<title>SvpSalInstance::ImplYield (1 samples, 5.56%)</title><rect x="665.6" y="325" width="65.5" height="15.0" fill="rgb(212,92,50)" rx="2" ry="2" />
<text  x="668.56" y="335.5" >SvpSalI..</text>
</g>
<g >
<title>StylesPreviewWindow_Base::GetCachedPreviewJson (1 samples, 5.56%)</title><rect x="665.6" y="181" width="65.5" height="15.0" fill="rgb(229,229,37)" rx="2" ry="2" />
<text  x="668.56" y="191.5" >StylesP..</text>
</g>
<g >
<title>SalInstanceIconView::LinkStubDumpElemToPropertyTreeHdl (3 samples, 16.67%)</title><rect x="272.2" y="389" width="196.7" height="15.0" fill="rgb(234,160,11)" rx="2" ry="2" />
<text  x="275.22" y="399.5" >SalInstanceIconView::Link..</text>
</g>
<g >
<title>StylesPreviewWindow_Base::GetCachedPreviewJson (3 samples, 16.67%)</title><rect x="272.2" y="357" width="196.7" height="15.0" fill="rgb(238,32,44)" rx="2" ry="2" />
<text  x="275.22" y="367.5" >StylesPreviewWindow_Base:..</text>
</g>
<g >
<title>Application::Execute (1 samples, 5.56%)</title><rect x="206.7" y="421" width="65.5" height="15.0" fill="rgb(234,197,37)" rx="2" ry="2" />
<text  x="209.67" y="431.5" >Applica..</text>
</g>
<g >
<title>SocketPoll::pollingThreadEntry (6 samples, 33.33%)</title><rect x="796.7" y="453" width="393.3" height="15.0" fill="rgb(248,105,28)" rx="2" ry="2" />
<text  x="799.67" y="463.5" >SocketPoll::pollingThreadEntry</text>
</g>
<g >
<title>deflateBound (1 samples, 5.56%)</title><rect x="206.7" y="133" width="65.5" height="15.0" fill="rgb(235,165,9)" rx="2" ry="2" />
<text  x="209.67" y="143.5" >deflate..</text>
</g>
<g >
<title>syscall (3 samples, 16.67%)</title><rect x="468.9" y="69" width="196.7" height="15.0" fill="rgb(237,104,54)" rx="2" ry="2" />
<text  x="471.89" y="79.5" >syscall</text>
</g>
<g >
<title>[unknown] (6 samples, 33.33%)</title><rect x="796.7" y="469" width="393.3" height="15.0" fill="rgb(207,79,8)" rx="2" ry="2" />
<text  x="799.67" y="479.5" >[unknown]</text>
</g>
<g >
<title>non-virtual thunk to cppu::WeakImplHelper&lt;&gt;::queryInterface (1 samples, 5.56%)</title><rect x="731.1" y="453" width="65.6" height="15.0" fill="rgb(233,105,38)" rx="2" ry="2" />
<text  x="734.11" y="463.5" >non-vir..</text>
</g>
<g >
<title>JSDialogNotifyIdle::generateWidgetUpdate (1 samples, 5.56%)</title><rect x="665.6" y="261" width="65.5" height="15.0" fill="rgb(209,219,39)" rx="2" ry="2" />
<text  x="668.56" y="271.5" >JSDialo..</text>
</g>
<g >
<title>IconView::DumpEntryAndSiblings (1 samples, 5.56%)</title><rect x="206.7" y="277" width="65.5" height="15.0" fill="rgb(227,171,10)" rx="2" ry="2" />
<text  x="209.67" y="287.5" >IconVie..</text>
</g>
<g >
<title>_IO_funlockfile (3 samples, 16.67%)</title><rect x="468.9" y="101" width="196.7" height="15.0" fill="rgb(247,14,8)" rx="2" ry="2" />
<text  x="471.89" y="111.5" >_IO_funlockfile</text>
</g>
<g >
<title>Scheduler::CallbackTaskScheduling (1 samples, 5.56%)</title><rect x="665.6" y="293" width="65.5" height="15.0" fill="rgb(207,144,7)" rx="2" ry="2" />
<text  x="668.56" y="303.5" >Schedul..</text>
</g>
<g >
<title>handleUserProfileSignal (1 samples, 5.56%)</title><rect x="665.6" y="133" width="65.5" height="15.0" fill="rgb(237,115,33)" rx="2" ry="2" />
<text  x="668.56" y="143.5" >handleU..</text>
</g>
<g >
<title>png_write_find_filter (1 samples, 5.56%)</title><rect x="206.7" y="181" width="65.5" height="15.0" fill="rgb(211,188,34)" rx="2" ry="2" />
<text  x="209.67" y="191.5" >png_wri..</text>
</g>
<g >
<title>JSDialogNotifyIdle::Invoke (3 samples, 16.67%)</title><rect x="468.9" y="261" width="196.7" height="15.0" fill="rgb(242,204,18)" rx="2" ry="2" />
<text  x="471.89" y="271.5" >JSDialogNotifyIdle::Invoke</text>
</g>
<g >
<title>VclGrid::DumpAsPropertyTree (3 samples, 16.67%)</title><rect x="468.9" y="165" width="196.7" height="15.0" fill="rgb(248,28,39)" rx="2" ry="2" />
<text  x="471.89" y="175.5" >VclGrid::DumpAsPropertyTree</text>
</g>
<g >
<title>StyleItemController::DrawText (3 samples, 16.67%)</title><rect x="272.2" y="309" width="196.7" height="15.0" fill="rgb(207,48,51)" rx="2" ry="2" />
<text  x="275.22" y="319.5" >StyleItemController::Draw..</text>
</g>
<g >
<title>vcl::Window::DumpAsPropertyTree (3 samples, 16.67%)</title><rect x="468.9" y="181" width="196.7" height="15.0" fill="rgb(225,164,35)" rx="2" ry="2" />
<text  x="471.89" y="191.5" >vcl::Window::DumpAsProper..</text>
</g>
<g >
<title>http::Session::syncRequest (3 samples, 16.67%)</title><rect x="10.0" y="405" width="196.7" height="15.0" fill="rgb(220,56,27)" rx="2" ry="2" />
<text  x="13.00" y="415.5" >http::Session::syncRequest</text>
</g>
<g >
<title>SalInstanceIconView::LinkStubDumpElemToPropertyTreeHdl (1 samples, 5.56%)</title><rect x="665.6" y="213" width="65.5" height="15.0" fill="rgb(211,14,42)" rx="2" ry="2" />
<text  x="668.56" y="223.5" >SalInst..</text>
</g>
<g >
<title>handleUserProfileSignal (6 samples, 33.33%)</title><rect x="796.7" y="341" width="393.3" height="15.0" fill="rgb(206,147,42)" rx="2" ry="2" />
<text  x="799.67" y="351.5" >handleUserProfileSignal</text>
</g>
<g >
<title>FcFontSetMatch (3 samples, 16.67%)</title><rect x="272.2" y="165" width="196.7" height="15.0" fill="rgb(219,181,33)" rx="2" ry="2" />
<text  x="275.22" y="175.5" >FcFontSetMatch</text>
</g>
<g >
<title>SvpSalInstance::DoYield (3 samples, 16.67%)</title><rect x="468.9" y="325" width="196.7" height="15.0" fill="rgb(234,86,9)" rx="2" ry="2" />
<text  x="471.89" y="335.5" >SvpSalInstance::DoYield</text>
</g>
<g >
<title>desktop::Desktop::Main (1 samples, 5.56%)</title><rect x="206.7" y="437" width="65.5" height="15.0" fill="rgb(210,84,17)" rx="2" ry="2" />
<text  x="209.67" y="447.5" >desktop..</text>
</g>
<g >
<title>syscall (1 samples, 5.56%)</title><rect x="206.7" y="37" width="65.5" height="15.0" fill="rgb(213,121,21)" rx="2" ry="2" />
<text  x="209.67" y="47.5" >syscall</text>
</g>
<g >
<title>syscall (1 samples, 5.56%)</title><rect x="731.1" y="405" width="65.6" height="15.0" fill="rgb(210,13,36)" rx="2" ry="2" />
<text  x="734.11" y="415.5" >syscall</text>
</g>
<g >
<title>png_compress_IDAT (1 samples, 5.56%)</title><rect x="206.7" y="165" width="65.5" height="15.0" fill="rgb(246,15,14)" rx="2" ry="2" />
<text  x="209.67" y="175.5" >png_com..</text>
</g>
<g >
<title>SvpSalInstance::CheckTimeout (1 samples, 5.56%)</title><rect x="665.6" y="309" width="65.5" height="15.0" fill="rgb(226,150,5)" rx="2" ry="2" />
<text  x="668.56" y="319.5" >SvpSalI..</text>
</g>
<g >
<title>png_write_row (1 samples, 5.56%)</title><rect x="206.7" y="197" width="65.5" height="15.0" fill="rgb(232,14,4)" rx="2" ry="2" />
<text  x="209.67" y="207.5" >png_wri..</text>
</g>
<g >
<title>rtl_ustr_compare_WithLength (1 samples, 5.56%)</title><rect x="665.6" y="165" width="65.5" height="15.0" fill="rgb(238,30,21)" rx="2" ry="2" />
<text  x="668.56" y="175.5" >rtl_ust..</text>
</g>
<g >
<title>http::Session::syncRequest (3 samples, 16.67%)</title><rect x="10.0" y="421" width="196.7" height="15.0" fill="rgb(205,121,3)" rx="2" ry="2" />
<text  x="13.00" y="431.5" >http::Session::syncRequest</text>
</g>
<g >
<title>StylesPreviewWindow_Base::DoJsonProperty (1 samples, 5.56%)</title><rect x="665.6" y="197" width="65.5" height="15.0" fill="rgb(223,171,7)" rx="2" ry="2" />
<text  x="668.56" y="207.5" >StylesP..</text>
</g>
<g >
<title>Application::Execute (3 samples, 16.67%)</title><rect x="468.9" y="357" width="196.7" height="15.0" fill="rgb(244,218,41)" rx="2" ry="2" />
<text  x="471.89" y="367.5" >Application::Execute</text>
</g>
<g >
<title>StylesPreviewWindow_Base::GetCachedPreviewJson (1 samples, 5.56%)</title><rect x="206.7" y="229" width="65.5" height="15.0" fill="rgb(212,47,23)" rx="2" ry="2" />
<text  x="209.67" y="239.5" >StylesP..</text>
</g>
<g >
<title>JSDialogNotifyIdle::generateWidgetUpdate (1 samples, 5.56%)</title><rect x="206.7" y="309" width="65.5" height="15.0" fill="rgb(221,34,34)" rx="2" ry="2" />
<text  x="209.67" y="319.5" >JSDialo..</text>
</g>
<g >
<title>ppoll (6 samples, 33.33%)</title><rect x="796.7" y="373" width="393.3" height="15.0" fill="rgb(244,120,44)" rx="2" ry="2" />
<text  x="799.67" y="383.5" >ppoll</text>
</g>
<g >
<title>StylesPreviewWindow_Base::DoJsonProperty (1 samples, 5.56%)</title><rect x="206.7" y="245" width="65.5" height="15.0" fill="rgb(227,109,47)" rx="2" ry="2" />
<text  x="209.67" y="255.5" >StylesP..</text>
</g>
<g >
<title>ImplSVMain (3 samples, 16.67%)</title><rect x="468.9" y="389" width="196.7" height="15.0" fill="rgb(214,212,38)" rx="2" ry="2" />
<text  x="471.89" y="399.5" >ImplSVMain</text>
</g>
<g >
<title>lo_runLoop (3 samples, 16.67%)</title><rect x="468.9" y="421" width="196.7" height="15.0" fill="rgb(252,76,28)" rx="2" ry="2" />
<text  x="471.89" y="431.5" >lo_runLoop</text>
</g>
<g >
<title>syscall (3 samples, 16.67%)</title><rect x="10.0" y="325" width="196.7" height="15.0" fill="rgb(240,14,44)" rx="2" ry="2" />
<text  x="13.00" y="335.5" >syscall</text>
</g>
<g >
<title>VclGrid::DumpAsPropertyTree (3 samples, 16.67%)</title><rect x="468.9" y="133" width="196.7" height="15.0" fill="rgb(221,75,43)" rx="2" ry="2" />
<text  x="471.89" y="143.5" >VclGrid::DumpAsPropertyTree</text>
</g>
<g >
<title>StyleItemController::DrawEntry (3 samples, 16.67%)</title><rect x="272.2" y="325" width="196.7" height="15.0" fill="rgb(246,101,31)" rx="2" ry="2" />
<text  x="275.22" y="335.5" >StyleItemController::Draw..</text>
</g>
<g >
<title>SvpSalInstance::DoYield (1 samples, 5.56%)</title><rect x="665.6" y="341" width="65.5" height="15.0" fill="rgb(245,181,49)" rx="2" ry="2" />
<text  x="668.56" y="351.5" >SvpSalI..</text>
</g>
<g >
<title>OutputDevice::GetFontMetric (3 samples, 16.67%)</title><rect x="272.2" y="261" width="196.7" height="15.0" fill="rgb(238,187,17)" rx="2" ry="2" />
<text  x="275.22" y="271.5" >OutputDevice::GetFontMetric</text>
</g>
<g >
<title>sfx2::sidebar::Deck::DumpAsPropertyTree (3 samples, 16.67%)</title><rect x="468.9" y="213" width="196.7" height="15.0" fill="rgb(223,18,35)" rx="2" ry="2" />
<text  x="471.89" y="223.5" >sfx2::sidebar::Deck::Dump..</text>
</g>
<g >
<title>IconView::DumpEntryAndSiblings (3 samples, 16.67%)</title><rect x="272.2" y="405" width="196.7" height="15.0" fill="rgb(254,94,54)" rx="2" ry="2" />
<text  x="275.22" y="415.5" >IconView::DumpEntryAndSib..</text>
</g>
<g >
<title>_int_free (3 samples, 16.67%)</title><rect x="272.2" y="117" width="196.7" height="15.0" fill="rgb(207,25,21)" rx="2" ry="2" />
<text  x="275.22" y="127.5" >_int_free</text>
</g>
<g >
<title>Scheduler::CallbackTaskScheduling (3 samples, 16.67%)</title><rect x="468.9" y="277" width="196.7" height="15.0" fill="rgb(239,185,15)" rx="2" ry="2" />
<text  x="471.89" y="287.5" >Scheduler::CallbackTaskSc..</text>
</g>
<g >
<title>FcFontRenderPrepare (3 samples, 16.67%)</title><rect x="272.2" y="149" width="196.7" height="15.0" fill="rgb(218,208,48)" rx="2" ry="2" />
<text  x="275.22" y="159.5" >FcFontRenderPrepare</text>
</g>
<g >
<title>vcl::Window::DumpAsPropertyTree (3 samples, 16.67%)</title><rect x="468.9" y="229" width="196.7" height="15.0" fill="rgb(239,61,11)" rx="2" ry="2" />
<text  x="471.89" y="239.5" >vcl::Window::DumpAsProper..</text>
</g>
<g >
<title>handleUserProfileSignal (3 samples, 16.67%)</title><rect x="272.2" y="85" width="196.7" height="15.0" fill="rgb(225,204,4)" rx="2" ry="2" />
<text  x="275.22" y="95.5" >handleUserProfileSignal</text>
</g>
<g >
<title>ImplFontCache::GetFontInstance (3 samples, 16.67%)</title><rect x="272.2" y="229" width="196.7" height="15.0" fill="rgb(225,84,52)" rx="2" ry="2" />
<text  x="275.22" y="239.5" >ImplFontCache::GetFontIns..</text>
</g>
<g >
<title>IconView::DumpEntryAndSiblings (1 samples, 5.56%)</title><rect x="665.6" y="229" width="65.5" height="15.0" fill="rgb(221,145,28)" rx="2" ry="2" />
<text  x="668.56" y="239.5" >IconVie..</text>
</g>
<g >
<title>SvpSalInstance::DoYield (1 samples, 5.56%)</title><rect x="206.7" y="389" width="65.5" height="15.0" fill="rgb(237,141,45)" rx="2" ry="2" />
<text  x="209.67" y="399.5" >SvpSalI..</text>
</g>
<g >
<title>SalLayoutGlyphsCache::GetLayoutGlyphs (3 samples, 16.67%)</title><rect x="272.2" y="293" width="196.7" height="15.0" fill="rgb(207,17,2)" rx="2" ry="2" />
<text  x="275.22" y="303.5" >SalLayoutGlyphsCache::Get..</text>
</g>
<g >
<title>JSDialogNotifyIdle::Invoke (1 samples, 5.56%)</title><rect x="665.6" y="277" width="65.5" height="15.0" fill="rgb(212,172,49)" rx="2" ry="2" />
<text  x="668.56" y="287.5" >JSDialo..</text>
</g>
</g>
</svg>
