<?xml version="1.0" standalone="no"?>
<!DOCTYPE svg PUBLIC "-//W3C//DTD SVG 1.1//EN" "http://www.w3.org/Graphics/SVG/1.1/DTD/svg11.dtd">
<svg version="1.1" width="1200" height="582" onload="init(evt)" viewBox="0 0 1200 582" xmlns="http://www.w3.org/2000/svg" xmlns:xlink="http://www.w3.org/1999/xlink">
<!-- Flame graph stack visualization. See https://github.com/brendangregg/FlameGraph for latest version, and http://www.brendangregg.com/flamegraphs.html for examples. -->
<!-- NOTES:  -->
<defs>
	<linearGradient id="background" y1="0" y2="1" x1="0" x2="0" >
		<stop stop-color="#eeeeee" offset="5%" />
		<stop stop-color="#eeeeb0" offset="95%" />
	</linearGradient>
</defs>
<style type="text/css">
	text { font-family:Verdana; font-size:12px; fill:rgb(0,0,0); }
	#search, #ignorecase { opacity:0.1; cursor:pointer; }
	#search:hover, #search.show, #ignorecase:hover, #ignorecase.show { opacity:1; }
	#subtitle { text-anchor:middle; font-color:rgb(160,160,160); }
	#title { text-anchor:middle; font-size:17px}
	#unzoom { cursor:pointer; }
	#frames > *:hover { stroke:black; stroke-width:0.5; cursor:pointer; }
	.hide { display:none; }
	.parent { opacity:0.5; }
</style>
<script type="text/ecmascript">
<![CDATA[
	"use strict";
	var details, searchbtn, unzoombtn, matchedtxt, svg, searching, currentSearchTerm, ignorecase, ignorecaseBtn;
	function init(evt) {
		details = document.getElementById("details").firstChild;
		searchbtn = document.getElementById("search");
		ignorecaseBtn = document.getElementById("ignorecase");
		unzoombtn = document.getElementById("unzoom");
		matchedtxt = document.getElementById("matched");
		svg = document.getElementsByTagName("svg")[0];
		searching = 0;
		currentSearchTerm = null;

		// use GET parameters to restore a flamegraphs state.
		var params = get_params();
		if (params.x && params.y)
			zoom(find_group(document.querySelector('[x="' + params.x + '"][y="' + params.y + '"]')));
                if (params.s) search(params.s);
	}

	// event listeners
	window.addEventListener("click", function(e) {
		var target = find_group(e.target);
		if (target) {
			if (target.nodeName == "a") {
				if (e.ctrlKey === false) return;
				e.preventDefault();
			}
			if (target.classList.contains("parent")) unzoom(true);
			zoom(target);
			if (!document.querySelector('.parent')) {
				// we have basically done a clearzoom so clear the url
				var params = get_params();
				if (params.x) delete params.x;
				if (params.y) delete params.y;
				history.replaceState(null, null, parse_params(params));
				unzoombtn.classList.add("hide");
				return;
			}

			// set parameters for zoom state
			var el = target.querySelector("rect");
			if (el && el.attributes && el.attributes.y && el.attributes._orig_x) {
				var params = get_params()
				params.x = el.attributes._orig_x.value;
				params.y = el.attributes.y.value;
				history.replaceState(null, null, parse_params(params));
			}
		}
		else if (e.target.id == "unzoom") clearzoom();
		else if (e.target.id == "search") search_prompt();
		else if (e.target.id == "ignorecase") toggle_ignorecase();
	}, false)

	// mouse-over for info
	// show
	window.addEventListener("mouseover", function(e) {
		var target = find_group(e.target);
		if (target) details.nodeValue = "Function: " + g_to_text(target);
	}, false)

	// clear
	window.addEventListener("mouseout", function(e) {
		var target = find_group(e.target);
		if (target) details.nodeValue = ' ';
	}, false)

	// ctrl-F for search
	// ctrl-I to toggle case-sensitive search
	window.addEventListener("keydown",function (e) {
		if (e.keyCode === 114 || (e.ctrlKey && e.keyCode === 70)) {
			e.preventDefault();
			search_prompt();
		}
		else if (e.ctrlKey && e.keyCode === 73) {
			e.preventDefault();
			toggle_ignorecase();
		}
	}, false)

	// functions
	function get_params() {
		var params = {};
		var paramsarr = window.location.search.substr(1).split('&');
		for (var i = 0; i < paramsarr.length; ++i) {
			var tmp = paramsarr[i].split("=");
			if (!tmp[0] || !tmp[1]) continue;
			params[tmp[0]]  = decodeURIComponent(tmp[1]);
		}
		return params;
	}
	function parse_params(params) {
		var uri = "?";
		for (var key in params) {
			uri += key + '=' + encodeURIComponent(params[key]) + '&';
		}
		if (uri.slice(-1) == "&")
			uri = uri.substring(0, uri.length - 1);
		if (uri == '?')
			uri = window.location.href.split('?')[0];
		return uri;
	}
	function find_child(node, selector) {
		var children = node.querySelectorAll(selector);
		if (children.length) return children[0];
	}
	function find_group(node) {
		var parent = node.parentElement;
		if (!parent) return;
		if (parent.id == "frames") return node;
		return find_group(parent);
	}
	function orig_save(e, attr, val) {
		if (e.attributes["_orig_" + attr] != undefined) return;
		if (e.attributes[attr] == undefined) return;
		if (val == undefined) val = e.attributes[attr].value;
		e.setAttribute("_orig_" + attr, val);
	}
	function orig_load(e, attr) {
		if (e.attributes["_orig_"+attr] == undefined) return;
		e.attributes[attr].value = e.attributes["_orig_" + attr].value;
		e.removeAttribute("_orig_"+attr);
	}
	function g_to_text(e) {
		var text = find_child(e, "title").firstChild.nodeValue;
		return (text)
	}
	function g_to_func(e) {
		var func = g_to_text(e);
		// if there's any manipulation we want to do to the function
		// name before it's searched, do it here before returning.
		return (func);
	}
	function update_text(e) {
		var r = find_child(e, "rect");
		var t = find_child(e, "text");
		var w = parseFloat(r.attributes.width.value) -3;
		var txt = find_child(e, "title").textContent.replace(/\([^(]*\)$/,"");
		t.attributes.x.value = parseFloat(r.attributes.x.value) + 3;

		// Smaller than this size won't fit anything
		if (w < 2 * 12 * 0.59) {
			t.textContent = "";
			return;
		}

		t.textContent = txt;
		var sl = t.getSubStringLength(0, txt.length);
		// check if only whitespace or if we can fit the entire string into width w
		if (/^ *$/.test(txt) || sl < w)
			return;

		// this isn't perfect, but gives a good starting point
		// and avoids calling getSubStringLength too often
		var start = Math.floor((w/sl) * txt.length);
		for (var x = start; x > 0; x = x-2) {
			if (t.getSubStringLength(0, x + 2) <= w) {
				t.textContent = txt.substring(0, x) + "..";
				return;
			}
		}
		t.textContent = "";
	}

	// zoom
	function zoom_reset(e) {
		if (e.attributes != undefined) {
			orig_load(e, "x");
			orig_load(e, "width");
		}
		if (e.childNodes == undefined) return;
		for (var i = 0, c = e.childNodes; i < c.length; i++) {
			zoom_reset(c[i]);
		}
	}
	function zoom_child(e, x, ratio) {
		if (e.attributes != undefined) {
			if (e.attributes.x != undefined) {
				orig_save(e, "x");
				e.attributes.x.value = (parseFloat(e.attributes.x.value) - x - 10) * ratio + 10;
				if (e.tagName == "text")
					e.attributes.x.value = find_child(e.parentNode, "rect[x]").attributes.x.value + 3;
			}
			if (e.attributes.width != undefined) {
				orig_save(e, "width");
				e.attributes.width.value = parseFloat(e.attributes.width.value) * ratio;
			}
		}

		if (e.childNodes == undefined) return;
		for (var i = 0, c = e.childNodes; i < c.length; i++) {
			zoom_child(c[i], x - 10, ratio);
		}
	}
	function zoom_parent(e) {
		if (e.attributes) {
			if (e.attributes.x != undefined) {
				orig_save(e, "x");
				e.attributes.x.value = 10;
			}
			if (e.attributes.width != undefined) {
				orig_save(e, "width");
				e.attributes.width.value = parseInt(svg.width.baseVal.value) - (10 * 2);
			}
		}
		if (e.childNodes == undefined) return;
		for (var i = 0, c = e.childNodes; i < c.length; i++) {
			zoom_parent(c[i]);
		}
	}
	function zoom(node) {
		var attr = find_child(node, "rect").attributes;
		var width = parseFloat(attr.width.value);
		var xmin = parseFloat(attr.x.value);
		var xmax = parseFloat(xmin + width);
		var ymin = parseFloat(attr.y.value);
		var ratio = (svg.width.baseVal.value - 2 * 10) / width;

		// XXX: Workaround for JavaScript float issues (fix me)
		var fudge = 0.0001;

		unzoombtn.classList.remove("hide");

		var el = document.getElementById("frames").children;
		for (var i = 0; i < el.length; i++) {
			var e = el[i];
			var a = find_child(e, "rect").attributes;
			var ex = parseFloat(a.x.value);
			var ew = parseFloat(a.width.value);
			var upstack;
			// Is it an ancestor
			if (0 == 0) {
				upstack = parseFloat(a.y.value) > ymin;
			} else {
				upstack = parseFloat(a.y.value) < ymin;
			}
			if (upstack) {
				// Direct ancestor
				if (ex <= xmin && (ex+ew+fudge) >= xmax) {
					e.classList.add("parent");
					zoom_parent(e);
					update_text(e);
				}
				// not in current path
				else
					e.classList.add("hide");
			}
			// Children maybe
			else {
				// no common path
				if (ex < xmin || ex + fudge >= xmax) {
					e.classList.add("hide");
				}
				else {
					zoom_child(e, xmin, ratio);
					update_text(e);
				}
			}
		}
		search();
	}
	function unzoom(dont_update_text) {
		unzoombtn.classList.add("hide");
		var el = document.getElementById("frames").children;
		for(var i = 0; i < el.length; i++) {
			el[i].classList.remove("parent");
			el[i].classList.remove("hide");
			zoom_reset(el[i]);
			if(!dont_update_text) update_text(el[i]);
		}
		search();
	}
	function clearzoom() {
		unzoom();

		// remove zoom state
		var params = get_params();
		if (params.x) delete params.x;
		if (params.y) delete params.y;
		history.replaceState(null, null, parse_params(params));
	}

	// search
	function toggle_ignorecase() {
		ignorecase = !ignorecase;
		if (ignorecase) {
			ignorecaseBtn.classList.add("show");
		} else {
			ignorecaseBtn.classList.remove("show");
		}
		reset_search();
		search();
	}
	function reset_search() {
		var el = document.querySelectorAll("#frames rect");
		for (var i = 0; i < el.length; i++) {
			orig_load(el[i], "fill")
		}
		var params = get_params();
		delete params.s;
		history.replaceState(null, null, parse_params(params));
	}
	function search_prompt() {
		if (!searching) {
			var term = prompt("Enter a search term (regexp " +
			    "allowed, eg: ^ext4_)"
			    + (ignorecase ? ", ignoring case" : "")
			    + "\nPress Ctrl-i to toggle case sensitivity", "");
			if (term != null) search(term);
		} else {
			reset_search();
			searching = 0;
			currentSearchTerm = null;
			searchbtn.classList.remove("show");
			searchbtn.firstChild.nodeValue = "Search"
			matchedtxt.classList.add("hide");
			matchedtxt.firstChild.nodeValue = ""
		}
	}
	function search(term) {
		if (term) currentSearchTerm = term;

		var re = new RegExp(currentSearchTerm, ignorecase ? 'i' : '');
		var el = document.getElementById("frames").children;
		var matches = new Object();
		var maxwidth = 0;
		for (var i = 0; i < el.length; i++) {
			var e = el[i];
			var func = g_to_func(e);
			var rect = find_child(e, "rect");
			if (func == null || rect == null)
				continue;

			// Save max width. Only works as we have a root frame
			var w = parseFloat(rect.attributes.width.value);
			if (w > maxwidth)
				maxwidth = w;

			if (func.match(re)) {
				// highlight
				var x = parseFloat(rect.attributes.x.value);
				orig_save(rect, "fill");
				rect.attributes.fill.value = "rgb(230,0,230)";

				// remember matches
				if (matches[x] == undefined) {
					matches[x] = w;
				} else {
					if (w > matches[x]) {
						// overwrite with parent
						matches[x] = w;
					}
				}
				searching = 1;
			}
		}
		if (!searching)
			return;
		var params = get_params();
		params.s = currentSearchTerm;
		history.replaceState(null, null, parse_params(params));

		searchbtn.classList.add("show");
		searchbtn.firstChild.nodeValue = "Reset Search";

		// calculate percent matched, excluding vertical overlap
		var count = 0;
		var lastx = -1;
		var lastw = 0;
		var keys = Array();
		for (k in matches) {
			if (matches.hasOwnProperty(k))
				keys.push(k);
		}
		// sort the matched frames by their x location
		// ascending, then width descending
		keys.sort(function(a, b){
			return a - b;
		});
		// Step through frames saving only the biggest bottom-up frames
		// thanks to the sort order. This relies on the tree property
		// where children are always smaller than their parents.
		var fudge = 0.0001;	// JavaScript floating point
		for (var k in keys) {
			var x = parseFloat(keys[k]);
			var w = matches[keys[k]];
			if (x >= lastx + lastw - fudge) {
				count += w;
				lastx = x;
				lastw = w;
			}
		}
		// display matched percent
		matchedtxt.classList.remove("hide");
		var pct = 100 * count / maxwidth;
		if (pct != 100) pct = pct.toFixed(1)
		matchedtxt.firstChild.nodeValue = "Matched: " + pct + "%";
	}
]]>
</script>
<rect x="0.0" y="0" width="1200.0" height="582.0" fill="url(#background)"  />
<text id="title" x="600.00" y="24" >StagingPerf.eu Watchdog Profile (2024-06-08T08:36:08.851466)</text>
<text id="details" x="10.00" y="565" > </text>
<text id="unzoom" x="10.00" y="24" class="hide">Reset Zoom</text>
<text id="search" x="1090.00" y="24" >Search</text>
<text id="ignorecase" x="1174.00" y="24" >ic</text>
<text id="matched" x="1090.00" y="565" > </text>
<g id="frames">
<g >
<title>DrawPreview (3 samples, 15.00%)</title><rect x="187.0" y="341" width="177.0" height="15.0" fill="rgb(254,92,0)" rx="2" ry="2" />
<text  x="190.00" y="351.5" >DrawPreview</text>
</g>
<g >
<title>FcStrHashIgnoreBlanksAndCase (3 samples, 15.00%)</title><rect x="187.0" y="165" width="177.0" height="15.0" fill="rgb(246,11,31)" rx="2" ry="2" />
<text  x="190.00" y="175.5" >FcStrHashIgnoreBlanksAn..</text>
</g>
<g >
<title>StylesPreviewWindow_Base::DoJsonProperty (1 samples, 5.00%)</title><rect x="423.0" y="229" width="59.0" height="15.0" fill="rgb(211,33,36)" rx="2" ry="2" />
<text  x="426.00" y="239.5" >Styles..</text>
</g>
<g >
<title>_IO_funlockfile (1 samples, 5.00%)</title><rect x="364.0" y="245" width="59.0" height="15.0" fill="rgb(243,196,31)" rx="2" ry="2" />
<text  x="367.00" y="255.5" >_IO_fu..</text>
</g>
<g >
<title>syscall (1 samples, 5.00%)</title><rect x="69.0" y="245" width="59.0" height="15.0" fill="rgb(248,209,32)" rx="2" ry="2" />
<text  x="72.00" y="255.5" >syscall</text>
</g>
<g >
<title>png_write_find_filter (1 samples, 5.00%)</title><rect x="364.0" y="325" width="59.0" height="15.0" fill="rgb(216,223,43)" rx="2" ry="2" />
<text  x="367.00" y="335.5" >png_wr..</text>
</g>
<g >
<title>deflate (1 samples, 5.00%)</title><rect x="364.0" y="293" width="59.0" height="15.0" fill="rgb(226,165,14)" rx="2" ry="2" />
<text  x="367.00" y="303.5" >deflate</text>
</g>
<g >
<title>IconView::DumpEntryAndSiblings (1 samples, 5.00%)</title><rect x="423.0" y="261" width="59.0" height="15.0" fill="rgb(206,50,11)" rx="2" ry="2" />
<text  x="426.00" y="271.5" >IconVi..</text>
</g>
<g >
<title>makeCacheId (3 samples, 15.00%)</title><rect x="187.0" y="277" width="177.0" height="15.0" fill="rgb(254,126,3)" rx="2" ry="2" />
<text  x="190.00" y="287.5" >makeCacheId</text>
</g>
<g >
<title>OutputDevice::DrawText (3 samples, 15.00%)</title><rect x="187.0" y="325" width="177.0" height="15.0" fill="rgb(245,72,29)" rx="2" ry="2" />
<text  x="190.00" y="335.5" >OutputDevice::DrawText</text>
</g>
<g >
<title>FontNameBox::LinkStubCustomRenderHdl (3 samples, 15.00%)</title><rect x="187.0" y="389" width="177.0" height="15.0" fill="rgb(235,179,9)" rx="2" ry="2" />
<text  x="190.00" y="399.5" >FontNameBox::LinkStubCu..</text>
</g>
<g >
<title>handleUserProfileSignal (3 samples, 15.00%)</title><rect x="541.0" y="85" width="177.0" height="15.0" fill="rgb(243,142,12)" rx="2" ry="2" />
<text  x="544.00" y="95.5" >handleUserProfileSignal</text>
</g>
<g >
<title>ChildSession::_handleInput (3 samples, 15.00%)</title><rect x="187.0" y="469" width="177.0" height="15.0" fill="rgb(229,12,54)" rx="2" ry="2" />
<text  x="190.00" y="479.5" >ChildSession::_handleIn..</text>
</g>
<g >
<title>_IO_funlockfile (8 samples, 40.00%)</title><rect x="718.0" y="389" width="472.0" height="15.0" fill="rgb(233,69,53)" rx="2" ry="2" />
<text  x="721.00" y="399.5" >_IO_funlockfile</text>
</g>
<g >
<title>handleUserProfileSignal (1 samples, 5.00%)</title><rect x="69.0" y="261" width="59.0" height="15.0" fill="rgb(233,116,47)" rx="2" ry="2" />
<text  x="72.00" y="271.5" >handle..</text>
</g>
<g >
<title>SpellCheckerDispatcher::isValid (4 samples, 20.00%)</title><rect x="482.0" y="213" width="236.0" height="15.0" fill="rgb(209,10,11)" rx="2" ry="2" />
<text  x="485.00" y="223.5" >SpellCheckerDispatcher::isValid</text>
</g>
<g >
<title>SwLayIdle::DoIdleJob_ (4 samples, 20.00%)</title><rect x="482.0" y="245" width="236.0" height="15.0" fill="rgb(245,25,45)" rx="2" ry="2" />
<text  x="485.00" y="255.5" >SwLayIdle::DoIdleJob_</text>
</g>
<g >
<title>handleUserProfileSignal (1 samples, 5.00%)</title><rect x="10.0" y="229" width="59.0" height="15.0" fill="rgb(244,125,51)" rx="2" ry="2" />
<text  x="13.00" y="239.5" >handle..</text>
</g>
<g >
<title>kitbroker (12 samples, 60.00%)</title><rect x="10.0" y="517" width="708.0" height="15.0" fill="rgb(254,160,47)" rx="2" ry="2" />
<text  x="13.00" y="527.5" >kitbroker</text>
</g>
<g >
<title>DicList::getDictionaries (1 samples, 5.00%)</title><rect x="482.0" y="133" width="59.0" height="15.0" fill="rgb(254,148,6)" rx="2" ry="2" />
<text  x="485.00" y="143.5" >DicLis..</text>
</g>
<g >
<title>DictionaryNeo::seekEntry (3 samples, 15.00%)</title><rect x="541.0" y="117" width="177.0" height="15.0" fill="rgb(209,45,52)" rx="2" ry="2" />
<text  x="544.00" y="127.5" >DictionaryNeo::seekEntry</text>
</g>
<g >
<title>vcl::pngWrite (1 samples, 5.00%)</title><rect x="364.0" y="357" width="59.0" height="15.0" fill="rgb(229,47,14)" rx="2" ry="2" />
<text  x="367.00" y="367.5" >vcl::p..</text>
</g>
<g >
<title>cppu::reallocSeq (1 samples, 5.00%)</title><rect x="482.0" y="85" width="59.0" height="15.0" fill="rgb(215,119,46)" rx="2" ry="2" />
<text  x="485.00" y="95.5" >cppu::..</text>
</g>
<g >
<title>CairoTextRender::DrawTextLayout (3 samples, 15.00%)</title><rect x="187.0" y="293" width="177.0" height="15.0" fill="rgb(226,28,12)" rx="2" ry="2" />
<text  x="190.00" y="303.5" >CairoTextRender::DrawTe..</text>
</g>
<g >
<title>[unknown] (12 samples, 60.00%)</title><rect x="10.0" y="501" width="708.0" height="15.0" fill="rgb(249,86,18)" rx="2" ry="2" />
<text  x="13.00" y="511.5" >[unknown]</text>
</g>
<g >
<title>SfxItemSet::SfxItemSet (1 samples, 5.00%)</title><rect x="10.0" y="293" width="59.0" height="15.0" fill="rgb(215,46,21)" rx="2" ry="2" />
<text  x="13.00" y="303.5" >SfxIte..</text>
</g>
<g >
<title>SwStyleSheetIterator::First (1 samples, 5.00%)</title><rect x="423.0" y="165" width="59.0" height="15.0" fill="rgb(243,64,18)" rx="2" ry="2" />
<text  x="426.00" y="175.5" >SwStyl..</text>
</g>
<g >
<title>implCreateItemEntry (1 samples, 5.00%)</title><rect x="10.0" y="277" width="59.0" height="15.0" fill="rgb(244,98,1)" rx="2" ry="2" />
<text  x="13.00" y="287.5" >implCr..</text>
</g>
<g >
<title>lcl_sendDialogEvent (3 samples, 15.00%)</title><rect x="187.0" y="437" width="177.0" height="15.0" fill="rgb(205,144,13)" rx="2" ry="2" />
<text  x="190.00" y="447.5" >lcl_sendDialogEvent</text>
</g>
<g >
<title>SvpSalInstance::DoYield (5 samples, 25.00%)</title><rect x="423.0" y="373" width="295.0" height="15.0" fill="rgb(222,42,1)" rx="2" ry="2" />
<text  x="426.00" y="383.5" >SvpSalInstance::DoYield</text>
</g>
<g >
<title>ChildSession::getTextSelection (3 samples, 15.00%)</title><rect x="10.0" y="437" width="177.0" height="15.0" fill="rgb(243,107,34)" rx="2" ry="2" />
<text  x="13.00" y="447.5" >ChildSession::getTextSe..</text>
</g>
<g >
<title>IconView::DumpAsPropertyTree (1 samples, 5.00%)</title><rect x="423.0" y="277" width="59.0" height="15.0" fill="rgb(228,11,37)" rx="2" ry="2" />
<text  x="426.00" y="287.5" >IconVi..</text>
</g>
<g >
<title>OutputDevice::ImplDrawTextDirect (3 samples, 15.00%)</title><rect x="187.0" y="309" width="177.0" height="15.0" fill="rgb(232,204,25)" rx="2" ry="2" />
<text  x="190.00" y="319.5" >OutputDevice::ImplDrawT..</text>
</g>
<g >
<title>FcHashTableFind (3 samples, 15.00%)</title><rect x="187.0" y="181" width="177.0" height="15.0" fill="rgb(224,172,4)" rx="2" ry="2" />
<text  x="190.00" y="191.5" >FcHashTableFind</text>
</g>
<g >
<title>http::Session::syncRequest (8 samples, 40.00%)</title><rect x="718.0" y="453" width="472.0" height="15.0" fill="rgb(246,174,8)" rx="2" ry="2" />
<text  x="721.00" y="463.5" >http::Session::syncRequest</text>
</g>
<g >
<title>lokit_main (5 samples, 25.00%)</title><rect x="423.0" y="485" width="295.0" height="15.0" fill="rgb(215,120,22)" rx="2" ry="2" />
<text  x="426.00" y="495.5" >lokit_main</text>
</g>
<g >
<title>SocketPoll::pollingThreadEntry (8 samples, 40.00%)</title><rect x="718.0" y="485" width="472.0" height="15.0" fill="rgb(223,95,42)" rx="2" ry="2" />
<text  x="721.00" y="495.5" >SocketPoll::pollingThreadEntry</text>
</g>
<g >
<title>sw::DocumentStylePoolManager::IsPoolTextCollUsed (1 samples, 5.00%)</title><rect x="423.0" y="133" width="59.0" height="15.0" fill="rgb(234,199,29)" rx="2" ry="2" />
<text  x="426.00" y="143.5" >sw::Do..</text>
</g>
<g >
<title>SocketPoll::poll (8 samples, 40.00%)</title><rect x="718.0" y="421" width="472.0" height="15.0" fill="rgb(246,219,30)" rx="2" ry="2" />
<text  x="721.00" y="431.5" >SocketPoll::poll</text>
</g>
<g >
<title>uno_type_sequence_construct (1 samples, 5.00%)</title><rect x="482.0" y="117" width="59.0" height="15.0" fill="rgb(252,169,24)" rx="2" ry="2" />
<text  x="485.00" y="127.5" >uno_ty..</text>
</g>
<g >
<title>http::Session::syncRequest (8 samples, 40.00%)</title><rect x="718.0" y="437" width="472.0" height="15.0" fill="rgb(214,66,40)" rx="2" ry="2" />
<text  x="721.00" y="447.5" >http::Session::syncRequest</text>
</g>
<g >
<title>_IO_funlockfile (1 samples, 5.00%)</title><rect x="69.0" y="277" width="59.0" height="15.0" fill="rgb(207,56,10)" rx="2" ry="2" />
<text  x="72.00" y="287.5" >_IO_fu..</text>
</g>
<g >
<title>_IO_funlockfile (1 samples, 5.00%)</title><rect x="423.0" y="117" width="59.0" height="15.0" fill="rgb(248,212,46)" rx="2" ry="2" />
<text  x="426.00" y="127.5" >_IO_fu..</text>
</g>
<g >
<title>TransferableHelper::getTransferData2 (3 samples, 15.00%)</title><rect x="10.0" y="373" width="177.0" height="15.0" fill="rgb(223,91,7)" rx="2" ry="2" />
<text  x="13.00" y="383.5" >TransferableHelper::get..</text>
</g>
<g >
<title>FontNameBox::CustomRenderHdl (3 samples, 15.00%)</title><rect x="187.0" y="373" width="177.0" height="15.0" fill="rgb(207,104,19)" rx="2" ry="2" />
<text  x="190.00" y="383.5" >FontNameBox::CustomRend..</text>
</g>
<g >
<title>StylesPreviewWindow_Base::GetCachedPreviewJson (1 samples, 5.00%)</title><rect x="423.0" y="213" width="59.0" height="15.0" fill="rgb(222,200,41)" rx="2" ry="2" />
<text  x="426.00" y="223.5" >Styles..</text>
</g>
<g >
<title>SalInstanceIconView::LinkStubDumpElemToPropertyTreeHdl (1 samples, 5.00%)</title><rect x="423.0" y="245" width="59.0" height="15.0" fill="rgb(234,98,44)" rx="2" ry="2" />
<text  x="426.00" y="255.5" >SalIns..</text>
</g>
<g >
<title>JSComboBox::render_entry (3 samples, 15.00%)</title><rect x="187.0" y="405" width="177.0" height="15.0" fill="rgb(219,41,44)" rx="2" ry="2" />
<text  x="190.00" y="415.5" >JSComboBox::render_entry</text>
</g>
<g >
<title>SfxItemPool::isSfxPoolItemRegisteredAtThisPool (1 samples, 5.00%)</title><rect x="10.0" y="261" width="59.0" height="15.0" fill="rgb(215,18,40)" rx="2" ry="2" />
<text  x="13.00" y="271.5" >SfxIte..</text>
</g>
<g >
<title>syscall (3 samples, 15.00%)</title><rect x="187.0" y="101" width="177.0" height="15.0" fill="rgb(213,165,17)" rx="2" ry="2" />
<text  x="190.00" y="111.5" >syscall</text>
</g>
<g >
<title>syscall (1 samples, 5.00%)</title><rect x="10.0" y="213" width="59.0" height="15.0" fill="rgb(242,176,39)" rx="2" ry="2" />
<text  x="13.00" y="223.5" >syscall</text>
</g>
<g >
<title>handleUserProfileSignal (1 samples, 5.00%)</title><rect x="482.0" y="53" width="59.0" height="15.0" fill="rgb(253,141,42)" rx="2" ry="2" />
<text  x="485.00" y="63.5" >handle..</text>
</g>
<g >
<title>GraphicExportFilter::filterRenderDocument (1 samples, 5.00%)</title><rect x="364.0" y="389" width="59.0" height="15.0" fill="rgb(237,17,33)" rx="2" ry="2" />
<text  x="367.00" y="399.5" >Graphi..</text>
</g>
<g >
<title>desktop::Desktop::Main (5 samples, 25.00%)</title><rect x="423.0" y="421" width="295.0" height="15.0" fill="rgb(223,113,22)" rx="2" ry="2" />
<text  x="426.00" y="431.5" >desktop::Desktop::Main</text>
</g>
<g >
<title>SpellCheckerDispatcher::isValid (4 samples, 20.00%)</title><rect x="482.0" y="197" width="236.0" height="15.0" fill="rgb(254,222,5)" rx="2" ry="2" />
<text  x="485.00" y="207.5" >SpellCheckerDispatcher::isValid</text>
</g>
<g >
<title>handleUserProfileSignal (1 samples, 5.00%)</title><rect x="364.0" y="229" width="59.0" height="15.0" fill="rgb(210,91,13)" rx="2" ry="2" />
<text  x="367.00" y="239.5" >handle..</text>
</g>
<g >
<title>SfxObjectShell::PreDoSaveAs_Impl (1 samples, 5.00%)</title><rect x="364.0" y="437" width="59.0" height="15.0" fill="rgb(220,223,2)" rx="2" ry="2" />
<text  x="367.00" y="447.5" >SfxObj..</text>
</g>
<g >
<title>doc_getSelectionTypeAndText (3 samples, 15.00%)</title><rect x="10.0" y="421" width="177.0" height="15.0" fill="rgb(226,7,24)" rx="2" ry="2" />
<text  x="13.00" y="431.5" >doc_getSelectionTypeAnd..</text>
</g>
<g >
<title>StylesPreviewWindow_Base::GetCachedPreview (1 samples, 5.00%)</title><rect x="423.0" y="197" width="59.0" height="15.0" fill="rgb(227,89,3)" rx="2" ry="2" />
<text  x="426.00" y="207.5" >Styles..</text>
</g>
<g >
<title>ChildSession::dialogEvent (3 samples, 15.00%)</title><rect x="187.0" y="453" width="177.0" height="15.0" fill="rgb(210,184,7)" rx="2" ry="2" />
<text  x="190.00" y="463.5" >ChildSession::dialogEvent</text>
</g>
<g >
<title>SvpSalInstance::CheckTimeout (5 samples, 25.00%)</title><rect x="423.0" y="341" width="295.0" height="15.0" fill="rgb(239,168,24)" rx="2" ry="2" />
<text  x="426.00" y="351.5" >SvpSalInstance::CheckTimeout</text>
</g>
<g >
<title>SwFormat::SetFormatAttr (2 samples, 10.00%)</title><rect x="10.0" y="309" width="118.0" height="15.0" fill="rgb(221,199,28)" rx="2" ry="2" />
<text  x="13.00" y="319.5" >SwFormat::SetF..</text>
</g>
<g >
<title>lo_runLoop (5 samples, 25.00%)</title><rect x="423.0" y="469" width="295.0" height="15.0" fill="rgb(232,164,16)" rx="2" ry="2" />
<text  x="426.00" y="479.5" >lo_runLoop</text>
</g>
<g >
<title>psp::PrintFontManager::getFontOptions (3 samples, 15.00%)</title><rect x="187.0" y="245" width="177.0" height="15.0" fill="rgb(244,96,54)" rx="2" ry="2" />
<text  x="190.00" y="255.5" >psp::PrintFontManager::..</text>
</g>
<g >
<title>FontNameBox::CachePreview (3 samples, 15.00%)</title><rect x="187.0" y="357" width="177.0" height="15.0" fill="rgb(245,51,39)" rx="2" ry="2" />
<text  x="190.00" y="367.5" >FontNameBox::CachePreview</text>
</g>
<g >
<title>SfxBaseModel::impl_store (1 samples, 5.00%)</title><rect x="364.0" y="485" width="59.0" height="15.0" fill="rgb(249,16,22)" rx="2" ry="2" />
<text  x="367.00" y="495.5" >SfxBas..</text>
</g>
<g >
<title>FcFontSetMatch (3 samples, 15.00%)</title><rect x="187.0" y="229" width="177.0" height="15.0" fill="rgb(239,166,4)" rx="2" ry="2" />
<text  x="190.00" y="239.5" >FcFontSetMatch</text>
</g>
<g >
<title>syscall (1 samples, 5.00%)</title><rect x="128.0" y="245" width="59.0" height="15.0" fill="rgb(249,10,8)" rx="2" ry="2" />
<text  x="131.00" y="255.5" >syscall</text>
</g>
<g >
<title>DictionaryNeo::getEntry (3 samples, 15.00%)</title><rect x="541.0" y="133" width="177.0" height="15.0" fill="rgb(209,148,5)" rx="2" ry="2" />
<text  x="544.00" y="143.5" >DictionaryNeo::getEntry</text>
</g>
<g >
<title>JSDialogNotifyIdle::Invoke (1 samples, 5.00%)</title><rect x="423.0" y="309" width="59.0" height="15.0" fill="rgb(243,218,36)" rx="2" ry="2" />
<text  x="426.00" y="319.5" >JSDial..</text>
</g>
<g >
<title>png_write_row (1 samples, 5.00%)</title><rect x="364.0" y="341" width="59.0" height="15.0" fill="rgb(210,112,31)" rx="2" ry="2" />
<text  x="367.00" y="351.5" >png_wr..</text>
</g>
<g >
<title>non-virtual thunk to SwFormatsModifyBase&lt;SwTextFormatColl*&gt;::GetFormatCount (1 samples, 5.00%)</title><rect x="128.0" y="293" width="59.0" height="15.0" fill="rgb(240,216,18)" rx="2" ry="2" />
<text  x="131.00" y="303.5" >non-vi..</text>
</g>
<g >
<title>Session::handleMessage (3 samples, 15.00%)</title><rect x="10.0" y="469" width="177.0" height="15.0" fill="rgb(250,107,3)" rx="2" ry="2" />
<text  x="13.00" y="479.5" >Session::handleMessage</text>
</g>
<g >
<title>[unknown] (8 samples, 40.00%)</title><rect x="718.0" y="501" width="472.0" height="15.0" fill="rgb(248,194,0)" rx="2" ry="2" />
<text  x="721.00" y="511.5" >[unknown]</text>
</g>
<g >
<title>GraphicFilter::ExportGraphic (1 samples, 5.00%)</title><rect x="364.0" y="373" width="59.0" height="15.0" fill="rgb(229,138,18)" rx="2" ry="2" />
<text  x="367.00" y="383.5" >Graphi..</text>
</g>
<g >
<title>SpellCheckerDispatcher::isValid_Impl (4 samples, 20.00%)</title><rect x="482.0" y="181" width="236.0" height="15.0" fill="rgb(219,89,18)" rx="2" ry="2" />
<text  x="485.00" y="191.5" >SpellCheckerDispatcher::isValid..</text>
</g>
<g >
<title>ChildSession::_handleInput (3 samples, 15.00%)</title><rect x="10.0" y="453" width="177.0" height="15.0" fill="rgb(227,69,52)" rx="2" ry="2" />
<text  x="13.00" y="463.5" >ChildSession::_handleIn..</text>
</g>
<g >
<title>SvpSalInstance::ImplYield (5 samples, 25.00%)</title><rect x="423.0" y="357" width="295.0" height="15.0" fill="rgb(240,166,14)" rx="2" ry="2" />
<text  x="426.00" y="367.5" >SvpSalInstance::ImplYield</text>
</g>
<g >
<title>handleUserProfileSignal (1 samples, 5.00%)</title><rect x="423.0" y="101" width="59.0" height="15.0" fill="rgb(237,76,14)" rx="2" ry="2" />
<text  x="426.00" y="111.5" >handle..</text>
</g>
<g >
<title>SfxObjectShell::CommonSaveAs_Impl (1 samples, 5.00%)</title><rect x="364.0" y="453" width="59.0" height="15.0" fill="rgb(248,196,27)" rx="2" ry="2" />
<text  x="367.00" y="463.5" >SfxObj..</text>
</g>
<g >
<title>cppu::icopyConstructFromElements (1 samples, 5.00%)</title><rect x="482.0" y="101" width="59.0" height="15.0" fill="rgb(243,150,2)" rx="2" ry="2" />
<text  x="485.00" y="111.5" >cppu::..</text>
</g>
<g >
<title>JSDialogNotifyIdle::generateWidgetUpdate (1 samples, 5.00%)</title><rect x="423.0" y="293" width="59.0" height="15.0" fill="rgb(231,50,29)" rx="2" ry="2" />
<text  x="426.00" y="303.5" >JSDial..</text>
</g>
<g >
<title>SfxObjectShell::SaveTo_Impl (1 samples, 5.00%)</title><rect x="364.0" y="421" width="59.0" height="15.0" fill="rgb(248,211,24)" rx="2" ry="2" />
<text  x="367.00" y="431.5" >SfxObj..</text>
</g>
<g >
<title>ImplSVMain (5 samples, 25.00%)</title><rect x="423.0" y="437" width="295.0" height="15.0" fill="rgb(227,217,9)" rx="2" ry="2" />
<text  x="426.00" y="447.5" >ImplSVMain</text>
</g>
<g >
<title>remotefontconfi (8 samples, 40.00%)</title><rect x="718.0" y="517" width="472.0" height="15.0" fill="rgb(250,76,30)" rx="2" ry="2" />
<text  x="721.00" y="527.5" >remotefontconfi</text>
</g>
<g >
<title>_IO_funlockfile (3 samples, 15.00%)</title><rect x="187.0" y="133" width="177.0" height="15.0" fill="rgb(217,190,34)" rx="2" ry="2" />
<text  x="190.00" y="143.5" >_IO_funlockfile</text>
</g>
<g >
<title>syscall (1 samples, 5.00%)</title><rect x="423.0" y="85" width="59.0" height="15.0" fill="rgb(250,116,0)" rx="2" ry="2" />
<text  x="426.00" y="95.5" >syscall</text>
</g>
<g >
<title>FcCompare (3 samples, 15.00%)</title><rect x="187.0" y="197" width="177.0" height="15.0" fill="rgb(227,35,45)" rx="2" ry="2" />
<text  x="190.00" y="207.5" >FcCompare</text>
</g>
<g >
<title>SwFormatsBase::FindFormatByName (1 samples, 5.00%)</title><rect x="128.0" y="309" width="59.0" height="15.0" fill="rgb(241,85,1)" rx="2" ry="2" />
<text  x="131.00" y="319.5" >SwForm..</text>
</g>
<g >
<title>Scheduler::CallbackTaskScheduling (5 samples, 25.00%)</title><rect x="423.0" y="325" width="295.0" height="15.0" fill="rgb(205,44,4)" rx="2" ry="2" />
<text  x="426.00" y="335.5" >Scheduler::CallbackTaskScheduling</text>
</g>
<g >
<title>Document::forwardToChild (3 samples, 15.00%)</title><rect x="10.0" y="485" width="177.0" height="15.0" fill="rgb(227,121,43)" rx="2" ry="2" />
<text  x="13.00" y="495.5" >Document::forwardToChild</text>
</g>
<g >
<title>SwLayIdle::SwLayIdle (4 samples, 20.00%)</title><rect x="482.0" y="277" width="236.0" height="15.0" fill="rgb(208,195,25)" rx="2" ry="2" />
<text  x="485.00" y="287.5" >SwLayIdle::SwLayIdle</text>
</g>
<g >
<title>linguistic::SearchDicList (4 samples, 20.00%)</title><rect x="482.0" y="149" width="236.0" height="15.0" fill="rgb(228,191,51)" rx="2" ry="2" />
<text  x="485.00" y="159.5" >linguistic::SearchDicList</text>
</g>
<g >
<title>png_compress_IDAT (1 samples, 5.00%)</title><rect x="364.0" y="309" width="59.0" height="15.0" fill="rgb(232,6,40)" rx="2" ry="2" />
<text  x="367.00" y="319.5" >png_co..</text>
</g>
<g >
<title>SwTransferable::GetData (3 samples, 15.00%)</title><rect x="10.0" y="357" width="177.0" height="15.0" fill="rgb(208,100,41)" rx="2" ry="2" />
<text  x="13.00" y="367.5" >SwTransferable::GetData</text>
</g>
<g >
<title>syscall (1 samples, 5.00%)</title><rect x="364.0" y="213" width="59.0" height="15.0" fill="rgb(207,32,47)" rx="2" ry="2" />
<text  x="367.00" y="223.5" >syscall</text>
</g>
<g >
<title>_IO_funlockfile (1 samples, 5.00%)</title><rect x="482.0" y="69" width="59.0" height="15.0" fill="rgb(224,58,42)" rx="2" ry="2" />
<text  x="485.00" y="79.5" >_IO_fu..</text>
</g>
<g >
<title>Application::Execute (5 samples, 25.00%)</title><rect x="423.0" y="405" width="295.0" height="15.0" fill="rgb(228,185,35)" rx="2" ry="2" />
<text  x="426.00" y="415.5" >Application::Execute</text>
</g>
<g >
<title>Session::handleMessage (3 samples, 15.00%)</title><rect x="187.0" y="485" width="177.0" height="15.0" fill="rgb(212,152,18)" rx="2" ry="2" />
<text  x="190.00" y="495.5" >Session::handleMessage</text>
</g>
<g >
<title>handleUserProfileSignal (3 samples, 15.00%)</title><rect x="187.0" y="117" width="177.0" height="15.0" fill="rgb(206,191,31)" rx="2" ry="2" />
<text  x="190.00" y="127.5" >handleUserProfileSignal</text>
</g>
<g >
<title>SwDoc::CopyFormatArr (3 samples, 15.00%)</title><rect x="10.0" y="325" width="177.0" height="15.0" fill="rgb(244,80,39)" rx="2" ry="2" />
<text  x="13.00" y="335.5" >SwDoc::CopyFormatArr</text>
</g>
<g >
<title>StyleItemController::DrawEntry (1 samples, 5.00%)</title><rect x="423.0" y="181" width="59.0" height="15.0" fill="rgb(215,227,34)" rx="2" ry="2" />
<text  x="426.00" y="191.5" >StyleI..</text>
</g>
<g >
<title>SfxObjectShell::ExportTo (1 samples, 5.00%)</title><rect x="364.0" y="405" width="59.0" height="15.0" fill="rgb(222,219,44)" rx="2" ry="2" />
<text  x="367.00" y="415.5" >SfxObj..</text>
</g>
<g >
<title>getFromTransferable (3 samples, 15.00%)</title><rect x="10.0" y="405" width="177.0" height="15.0" fill="rgb(238,178,41)" rx="2" ry="2" />
<text  x="13.00" y="415.5" >getFromTransferable</text>
</g>
<g >
<title>_IO_funlockfile (1 samples, 5.00%)</title><rect x="10.0" y="245" width="59.0" height="15.0" fill="rgb(217,76,52)" rx="2" ry="2" />
<text  x="13.00" y="255.5" >_IO_fu..</text>
</g>
<g >
<title>soffice_main (5 samples, 25.00%)</title><rect x="423.0" y="453" width="295.0" height="15.0" fill="rgb(248,21,4)" rx="2" ry="2" />
<text  x="426.00" y="463.5" >soffice_main</text>
</g>
<g >
<title>SwLayIdle::DoIdleJob (4 samples, 20.00%)</title><rect x="482.0" y="261" width="236.0" height="15.0" fill="rgb(206,135,34)" rx="2" ry="2" />
<text  x="485.00" y="271.5" >SwLayIdle::DoIdleJob</text>
</g>
<g >
<title>deflateBound (1 samples, 5.00%)</title><rect x="364.0" y="277" width="59.0" height="15.0" fill="rgb(212,130,41)" rx="2" ry="2" />
<text  x="367.00" y="287.5" >deflat..</text>
</g>
<g >
<title>all (20 samples, 100%)</title><rect x="10.0" y="533" width="1180.0" height="15.0" fill="rgb(247,122,22)" rx="2" ry="2" />
<text  x="13.00" y="543.5" ></text>
</g>
<g >
<title>SwDoc::ReplaceStyles (3 samples, 15.00%)</title><rect x="10.0" y="341" width="177.0" height="15.0" fill="rgb(205,44,35)" rx="2" ry="2" />
<text  x="13.00" y="351.5" >SwDoc::ReplaceStyles</text>
</g>
<g >
<title>SwViewShell::LayoutIdle (4 samples, 20.00%)</title><rect x="482.0" y="293" width="236.0" height="15.0" fill="rgb(253,2,3)" rx="2" ry="2" />
<text  x="485.00" y="303.5" >SwViewShell::LayoutIdle</text>
</g>
<g >
<title>jsdialog::ExecuteAction (3 samples, 15.00%)</title><rect x="187.0" y="421" width="177.0" height="15.0" fill="rgb(227,32,12)" rx="2" ry="2" />
<text  x="190.00" y="431.5" >jsdialog::ExecuteAction</text>
</g>
<g >
<title>FreetypeFont::GetFontOptions (3 samples, 15.00%)</title><rect x="187.0" y="261" width="177.0" height="15.0" fill="rgb(226,12,9)" rx="2" ry="2" />
<text  x="190.00" y="271.5" >FreetypeFont::GetFontOp..</text>
</g>
<g >
<title>syscall (8 samples, 40.00%)</title><rect x="718.0" y="357" width="472.0" height="15.0" fill="rgb(237,12,49)" rx="2" ry="2" />
<text  x="721.00" y="367.5" >syscall</text>
</g>
<g >
<title>_IO_funlockfile (1 samples, 5.00%)</title><rect x="128.0" y="277" width="59.0" height="15.0" fill="rgb(218,28,29)" rx="2" ry="2" />
<text  x="131.00" y="287.5" >_IO_fu..</text>
</g>
<g >
<title>SwStyleSheetIterator::AppendStyleList (1 samples, 5.00%)</title><rect x="423.0" y="149" width="59.0" height="15.0" fill="rgb(251,49,39)" rx="2" ry="2" />
<text  x="426.00" y="159.5" >SwStyl..</text>
</g>
<g >
<title>lcl_GetRulingDictionaryEntry (4 samples, 20.00%)</title><rect x="482.0" y="165" width="236.0" height="15.0" fill="rgb(240,39,32)" rx="2" ry="2" />
<text  x="485.00" y="175.5" >lcl_GetRulingDictionaryEntry</text>
</g>
<g >
<title>handleUserProfileSignal (8 samples, 40.00%)</title><rect x="718.0" y="373" width="472.0" height="15.0" fill="rgb(217,13,34)" rx="2" ry="2" />
<text  x="721.00" y="383.5" >handleUserProfileSignal</text>
</g>
<g >
<title>_IO_funlockfile (3 samples, 15.00%)</title><rect x="541.0" y="101" width="177.0" height="15.0" fill="rgb(224,213,28)" rx="2" ry="2" />
<text  x="544.00" y="111.5" >_IO_funlockfile</text>
</g>
<g >
<title>sw::DocumentTimerManager::DoIdleJobs (4 samples, 20.00%)</title><rect x="482.0" y="309" width="236.0" height="15.0" fill="rgb(245,118,54)" rx="2" ry="2" />
<text  x="485.00" y="319.5" >sw::DocumentTimerManager::DoIdl..</text>
</g>
<g >
<title>SfxObjectShell::APISaveAs_Impl (1 samples, 5.00%)</title><rect x="364.0" y="469" width="59.0" height="15.0" fill="rgb(221,54,11)" rx="2" ry="2" />
<text  x="367.00" y="479.5" >SfxObj..</text>
</g>
<g >
<title>FcStrCaseWalkerNextNonBlank (3 samples, 15.00%)</title><rect x="187.0" y="149" width="177.0" height="15.0" fill="rgb(220,218,1)" rx="2" ry="2" />
<text  x="190.00" y="159.5" >FcStrCaseWalkerNextNonB..</text>
</g>
<g >
<title>handleUserProfileSignal (1 samples, 5.00%)</title><rect x="128.0" y="261" width="59.0" height="15.0" fill="rgb(248,138,30)" rx="2" ry="2" />
<text  x="131.00" y="271.5" >handle..</text>
</g>
<g >
<title>TransferableHelper::getTransferData (3 samples, 15.00%)</title><rect x="10.0" y="389" width="177.0" height="15.0" fill="rgb(239,144,21)" rx="2" ry="2" />
<text  x="13.00" y="399.5" >TransferableHelper::get..</text>
</g>
<g >
<title>crc32_combine_op (1 samples, 5.00%)</title><rect x="364.0" y="261" width="59.0" height="15.0" fill="rgb(243,136,7)" rx="2" ry="2" />
<text  x="367.00" y="271.5" >crc32_..</text>
</g>
<g >
<title>FcFontSetMatchInternal (3 samples, 15.00%)</title><rect x="187.0" y="213" width="177.0" height="15.0" fill="rgb(228,209,42)" rx="2" ry="2" />
<text  x="190.00" y="223.5" >FcFontSetMatchInternal</text>
</g>
<g >
<title>syscall (1 samples, 5.00%)</title><rect x="482.0" y="37" width="59.0" height="15.0" fill="rgb(209,196,28)" rx="2" ry="2" />
<text  x="485.00" y="47.5" >syscall</text>
</g>
<g >
<title>SwDoc::CheckForUniqueItemForLineFillNameOrIndex (1 samples, 5.00%)</title><rect x="69.0" y="293" width="59.0" height="15.0" fill="rgb(221,111,22)" rx="2" ry="2" />
<text  x="72.00" y="303.5" >SwDoc:..</text>
</g>
<g >
<title>SwTextFrame::AutoSpell_ (4 samples, 20.00%)</title><rect x="482.0" y="229" width="236.0" height="15.0" fill="rgb(229,143,19)" rx="2" ry="2" />
<text  x="485.00" y="239.5" >SwTextFrame::AutoSpell_</text>
</g>
<g >
<title>ImplYield (5 samples, 25.00%)</title><rect x="423.0" y="389" width="295.0" height="15.0" fill="rgb(238,1,52)" rx="2" ry="2" />
<text  x="426.00" y="399.5" >ImplYield</text>
</g>
<g >
<title>syscall (3 samples, 15.00%)</title><rect x="541.0" y="69" width="177.0" height="15.0" fill="rgb(223,193,15)" rx="2" ry="2" />
<text  x="544.00" y="79.5" >syscall</text>
</g>
<g >
<title>RemoteJSONPoll::pollingThread (8 samples, 40.00%)</title><rect x="718.0" y="469" width="472.0" height="15.0" fill="rgb(242,139,43)" rx="2" ry="2" />
<text  x="721.00" y="479.5" >RemoteJSONPoll::pollingThread</text>
</g>
<g >
<title>ppoll (8 samples, 40.00%)</title><rect x="718.0" y="405" width="472.0" height="15.0" fill="rgb(254,104,48)" rx="2" ry="2" />
<text  x="721.00" y="415.5" >ppoll</text>
</g>
</g>
</svg>
