<?xml version="1.0" standalone="no"?>
<!DOCTYPE svg PUBLIC "-//W3C//DTD SVG 1.1//EN" "http://www.w3.org/Graphics/SVG/1.1/DTD/svg11.dtd">
<svg version="1.1" width="1200" height="550" onload="init(evt)" viewBox="0 0 1200 550" xmlns="http://www.w3.org/2000/svg" xmlns:xlink="http://www.w3.org/1999/xlink">
<!-- Flame graph stack visualization. See https://github.com/brendangregg/FlameGraph for latest version, and http://www.brendangregg.com/flamegraphs.html for examples. -->
<!-- NOTES:  -->
<defs>
	<linearGradient id="background" y1="0" y2="1" x1="0" x2="0" >
		<stop stop-color="#eeeeee" offset="5%" />
		<stop stop-color="#eeeeb0" offset="95%" />
	</linearGradient>
</defs>
<style type="text/css">
	text { font-family:Verdana; font-size:12px; fill:rgb(0,0,0); }
	#search, #ignorecase { opacity:0.1; cursor:pointer; }
	#search:hover, #search.show, #ignorecase:hover, #ignorecase.show { opacity:1; }
	#subtitle { text-anchor:middle; font-color:rgb(160,160,160); }
	#title { text-anchor:middle; font-size:17px}
	#unzoom { cursor:pointer; }
	#frames > *:hover { stroke:black; stroke-width:0.5; cursor:pointer; }
	.hide { display:none; }
	.parent { opacity:0.5; }
</style>
<script type="text/ecmascript">
<![CDATA[
	"use strict";
	var details, searchbtn, unzoombtn, matchedtxt, svg, searching, currentSearchTerm, ignorecase, ignorecaseBtn;
	function init(evt) {
		details = document.getElementById("details").firstChild;
		searchbtn = document.getElementById("search");
		ignorecaseBtn = document.getElementById("ignorecase");
		unzoombtn = document.getElementById("unzoom");
		matchedtxt = document.getElementById("matched");
		svg = document.getElementsByTagName("svg")[0];
		searching = 0;
		currentSearchTerm = null;

		// use GET parameters to restore a flamegraphs state.
		var params = get_params();
		if (params.x && params.y)
			zoom(find_group(document.querySelector('[x="' + params.x + '"][y="' + params.y + '"]')));
                if (params.s) search(params.s);
	}

	// event listeners
	window.addEventListener("click", function(e) {
		var target = find_group(e.target);
		if (target) {
			if (target.nodeName == "a") {
				if (e.ctrlKey === false) return;
				e.preventDefault();
			}
			if (target.classList.contains("parent")) unzoom(true);
			zoom(target);
			if (!document.querySelector('.parent')) {
				// we have basically done a clearzoom so clear the url
				var params = get_params();
				if (params.x) delete params.x;
				if (params.y) delete params.y;
				history.replaceState(null, null, parse_params(params));
				unzoombtn.classList.add("hide");
				return;
			}

			// set parameters for zoom state
			var el = target.querySelector("rect");
			if (el && el.attributes && el.attributes.y && el.attributes._orig_x) {
				var params = get_params()
				params.x = el.attributes._orig_x.value;
				params.y = el.attributes.y.value;
				history.replaceState(null, null, parse_params(params));
			}
		}
		else if (e.target.id == "unzoom") clearzoom();
		else if (e.target.id == "search") search_prompt();
		else if (e.target.id == "ignorecase") toggle_ignorecase();
	}, false)

	// mouse-over for info
	// show
	window.addEventListener("mouseover", function(e) {
		var target = find_group(e.target);
		if (target) details.nodeValue = "Function: " + g_to_text(target);
	}, false)

	// clear
	window.addEventListener("mouseout", function(e) {
		var target = find_group(e.target);
		if (target) details.nodeValue = ' ';
	}, false)

	// ctrl-F for search
	// ctrl-I to toggle case-sensitive search
	window.addEventListener("keydown",function (e) {
		if (e.keyCode === 114 || (e.ctrlKey && e.keyCode === 70)) {
			e.preventDefault();
			search_prompt();
		}
		else if (e.ctrlKey && e.keyCode === 73) {
			e.preventDefault();
			toggle_ignorecase();
		}
	}, false)

	// functions
	function get_params() {
		var params = {};
		var paramsarr = window.location.search.substr(1).split('&');
		for (var i = 0; i < paramsarr.length; ++i) {
			var tmp = paramsarr[i].split("=");
			if (!tmp[0] || !tmp[1]) continue;
			params[tmp[0]]  = decodeURIComponent(tmp[1]);
		}
		return params;
	}
	function parse_params(params) {
		var uri = "?";
		for (var key in params) {
			uri += key + '=' + encodeURIComponent(params[key]) + '&';
		}
		if (uri.slice(-1) == "&")
			uri = uri.substring(0, uri.length - 1);
		if (uri == '?')
			uri = window.location.href.split('?')[0];
		return uri;
	}
	function find_child(node, selector) {
		var children = node.querySelectorAll(selector);
		if (children.length) return children[0];
	}
	function find_group(node) {
		var parent = node.parentElement;
		if (!parent) return;
		if (parent.id == "frames") return node;
		return find_group(parent);
	}
	function orig_save(e, attr, val) {
		if (e.attributes["_orig_" + attr] != undefined) return;
		if (e.attributes[attr] == undefined) return;
		if (val == undefined) val = e.attributes[attr].value;
		e.setAttribute("_orig_" + attr, val);
	}
	function orig_load(e, attr) {
		if (e.attributes["_orig_"+attr] == undefined) return;
		e.attributes[attr].value = e.attributes["_orig_" + attr].value;
		e.removeAttribute("_orig_"+attr);
	}
	function g_to_text(e) {
		var text = find_child(e, "title").firstChild.nodeValue;
		return (text)
	}
	function g_to_func(e) {
		var func = g_to_text(e);
		// if there's any manipulation we want to do to the function
		// name before it's searched, do it here before returning.
		return (func);
	}
	function update_text(e) {
		var r = find_child(e, "rect");
		var t = find_child(e, "text");
		var w = parseFloat(r.attributes.width.value) -3;
		var txt = find_child(e, "title").textContent.replace(/\([^(]*\)$/,"");
		t.attributes.x.value = parseFloat(r.attributes.x.value) + 3;

		// Smaller than this size won't fit anything
		if (w < 2 * 12 * 0.59) {
			t.textContent = "";
			return;
		}

		t.textContent = txt;
		var sl = t.getSubStringLength(0, txt.length);
		// check if only whitespace or if we can fit the entire string into width w
		if (/^ *$/.test(txt) || sl < w)
			return;

		// this isn't perfect, but gives a good starting point
		// and avoids calling getSubStringLength too often
		var start = Math.floor((w/sl) * txt.length);
		for (var x = start; x > 0; x = x-2) {
			if (t.getSubStringLength(0, x + 2) <= w) {
				t.textContent = txt.substring(0, x) + "..";
				return;
			}
		}
		t.textContent = "";
	}

	// zoom
	function zoom_reset(e) {
		if (e.attributes != undefined) {
			orig_load(e, "x");
			orig_load(e, "width");
		}
		if (e.childNodes == undefined) return;
		for (var i = 0, c = e.childNodes; i < c.length; i++) {
			zoom_reset(c[i]);
		}
	}
	function zoom_child(e, x, ratio) {
		if (e.attributes != undefined) {
			if (e.attributes.x != undefined) {
				orig_save(e, "x");
				e.attributes.x.value = (parseFloat(e.attributes.x.value) - x - 10) * ratio + 10;
				if (e.tagName == "text")
					e.attributes.x.value = find_child(e.parentNode, "rect[x]").attributes.x.value + 3;
			}
			if (e.attributes.width != undefined) {
				orig_save(e, "width");
				e.attributes.width.value = parseFloat(e.attributes.width.value) * ratio;
			}
		}

		if (e.childNodes == undefined) return;
		for (var i = 0, c = e.childNodes; i < c.length; i++) {
			zoom_child(c[i], x - 10, ratio);
		}
	}
	function zoom_parent(e) {
		if (e.attributes) {
			if (e.attributes.x != undefined) {
				orig_save(e, "x");
				e.attributes.x.value = 10;
			}
			if (e.attributes.width != undefined) {
				orig_save(e, "width");
				e.attributes.width.value = parseInt(svg.width.baseVal.value) - (10 * 2);
			}
		}
		if (e.childNodes == undefined) return;
		for (var i = 0, c = e.childNodes; i < c.length; i++) {
			zoom_parent(c[i]);
		}
	}
	function zoom(node) {
		var attr = find_child(node, "rect").attributes;
		var width = parseFloat(attr.width.value);
		var xmin = parseFloat(attr.x.value);
		var xmax = parseFloat(xmin + width);
		var ymin = parseFloat(attr.y.value);
		var ratio = (svg.width.baseVal.value - 2 * 10) / width;

		// XXX: Workaround for JavaScript float issues (fix me)
		var fudge = 0.0001;

		unzoombtn.classList.remove("hide");

		var el = document.getElementById("frames").children;
		for (var i = 0; i < el.length; i++) {
			var e = el[i];
			var a = find_child(e, "rect").attributes;
			var ex = parseFloat(a.x.value);
			var ew = parseFloat(a.width.value);
			var upstack;
			// Is it an ancestor
			if (0 == 0) {
				upstack = parseFloat(a.y.value) > ymin;
			} else {
				upstack = parseFloat(a.y.value) < ymin;
			}
			if (upstack) {
				// Direct ancestor
				if (ex <= xmin && (ex+ew+fudge) >= xmax) {
					e.classList.add("parent");
					zoom_parent(e);
					update_text(e);
				}
				// not in current path
				else
					e.classList.add("hide");
			}
			// Children maybe
			else {
				// no common path
				if (ex < xmin || ex + fudge >= xmax) {
					e.classList.add("hide");
				}
				else {
					zoom_child(e, xmin, ratio);
					update_text(e);
				}
			}
		}
		search();
	}
	function unzoom(dont_update_text) {
		unzoombtn.classList.add("hide");
		var el = document.getElementById("frames").children;
		for(var i = 0; i < el.length; i++) {
			el[i].classList.remove("parent");
			el[i].classList.remove("hide");
			zoom_reset(el[i]);
			if(!dont_update_text) update_text(el[i]);
		}
		search();
	}
	function clearzoom() {
		unzoom();

		// remove zoom state
		var params = get_params();
		if (params.x) delete params.x;
		if (params.y) delete params.y;
		history.replaceState(null, null, parse_params(params));
	}

	// search
	function toggle_ignorecase() {
		ignorecase = !ignorecase;
		if (ignorecase) {
			ignorecaseBtn.classList.add("show");
		} else {
			ignorecaseBtn.classList.remove("show");
		}
		reset_search();
		search();
	}
	function reset_search() {
		var el = document.querySelectorAll("#frames rect");
		for (var i = 0; i < el.length; i++) {
			orig_load(el[i], "fill")
		}
		var params = get_params();
		delete params.s;
		history.replaceState(null, null, parse_params(params));
	}
	function search_prompt() {
		if (!searching) {
			var term = prompt("Enter a search term (regexp " +
			    "allowed, eg: ^ext4_)"
			    + (ignorecase ? ", ignoring case" : "")
			    + "\nPress Ctrl-i to toggle case sensitivity", "");
			if (term != null) search(term);
		} else {
			reset_search();
			searching = 0;
			currentSearchTerm = null;
			searchbtn.classList.remove("show");
			searchbtn.firstChild.nodeValue = "Search"
			matchedtxt.classList.add("hide");
			matchedtxt.firstChild.nodeValue = ""
		}
	}
	function search(term) {
		if (term) currentSearchTerm = term;

		var re = new RegExp(currentSearchTerm, ignorecase ? 'i' : '');
		var el = document.getElementById("frames").children;
		var matches = new Object();
		var maxwidth = 0;
		for (var i = 0; i < el.length; i++) {
			var e = el[i];
			var func = g_to_func(e);
			var rect = find_child(e, "rect");
			if (func == null || rect == null)
				continue;

			// Save max width. Only works as we have a root frame
			var w = parseFloat(rect.attributes.width.value);
			if (w > maxwidth)
				maxwidth = w;

			if (func.match(re)) {
				// highlight
				var x = parseFloat(rect.attributes.x.value);
				orig_save(rect, "fill");
				rect.attributes.fill.value = "rgb(230,0,230)";

				// remember matches
				if (matches[x] == undefined) {
					matches[x] = w;
				} else {
					if (w > matches[x]) {
						// overwrite with parent
						matches[x] = w;
					}
				}
				searching = 1;
			}
		}
		if (!searching)
			return;
		var params = get_params();
		params.s = currentSearchTerm;
		history.replaceState(null, null, parse_params(params));

		searchbtn.classList.add("show");
		searchbtn.firstChild.nodeValue = "Reset Search";

		// calculate percent matched, excluding vertical overlap
		var count = 0;
		var lastx = -1;
		var lastw = 0;
		var keys = Array();
		for (k in matches) {
			if (matches.hasOwnProperty(k))
				keys.push(k);
		}
		// sort the matched frames by their x location
		// ascending, then width descending
		keys.sort(function(a, b){
			return a - b;
		});
		// Step through frames saving only the biggest bottom-up frames
		// thanks to the sort order. This relies on the tree property
		// where children are always smaller than their parents.
		var fudge = 0.0001;	// JavaScript floating point
		for (var k in keys) {
			var x = parseFloat(keys[k]);
			var w = matches[keys[k]];
			if (x >= lastx + lastw - fudge) {
				count += w;
				lastx = x;
				lastw = w;
			}
		}
		// display matched percent
		matchedtxt.classList.remove("hide");
		var pct = 100 * count / maxwidth;
		if (pct != 100) pct = pct.toFixed(1)
		matchedtxt.firstChild.nodeValue = "Matched: " + pct + "%";
	}
]]>
</script>
<rect x="0.0" y="0" width="1200.0" height="550.0" fill="url(#background)"  />
<text id="title" x="600.00" y="24" >StagingPerf.eu Watchdog Profile (2024-06-18T08:36:03.744844)</text>
<text id="details" x="10.00" y="533" > </text>
<text id="unzoom" x="10.00" y="24" class="hide">Reset Zoom</text>
<text id="search" x="1090.00" y="24" >Search</text>
<text id="ignorecase" x="1174.00" y="24" >ic</text>
<text id="matched" x="1090.00" y="533" > </text>
<g id="frames">
<g >
<title>SocketPoll::poll (1 samples, 5.00%)</title><rect x="10.0" y="389" width="59.0" height="15.0" fill="rgb(226,228,0)" rx="2" ry="2" />
<text  x="13.00" y="399.5" >Socket..</text>
</g>
<g >
<title>ScPrintFunc::Construct (1 samples, 5.00%)</title><rect x="128.0" y="309" width="59.0" height="15.0" fill="rgb(232,188,10)" rx="2" ry="2" />
<text  x="131.00" y="319.5" >ScPrin..</text>
</g>
<g >
<title>ScDocument::IsPrintEmpty (1 samples, 5.00%)</title><rect x="128.0" y="213" width="59.0" height="15.0" fill="rgb(212,191,15)" rx="2" ry="2" />
<text  x="131.00" y="223.5" >ScDocu..</text>
</g>
<g >
<title>SfxObjectShell::SaveTo_Impl (1 samples, 5.00%)</title><rect x="128.0" y="421" width="59.0" height="15.0" fill="rgb(213,125,54)" rx="2" ry="2" />
<text  x="131.00" y="431.5" >SfxObj..</text>
</g>
<g >
<title>JSDialogNotifyIdle::generateWidgetUpdate (2 samples, 10.00%)</title><rect x="246.0" y="261" width="118.0" height="15.0" fill="rgb(235,99,8)" rx="2" ry="2" />
<text  x="249.00" y="271.5" >JSDialogNotify..</text>
</g>
<g >
<title>RemoteJSONPoll::pollingThread (14 samples, 70.00%)</title><rect x="364.0" y="437" width="826.0" height="15.0" fill="rgb(238,41,43)" rx="2" ry="2" />
<text  x="367.00" y="447.5" >RemoteJSONPoll::pollingThread</text>
</g>
<g >
<title>SfxObjectShell::APISaveAs_Impl (1 samples, 5.00%)</title><rect x="69.0" y="453" width="59.0" height="15.0" fill="rgb(235,197,0)" rx="2" ry="2" />
<text  x="72.00" y="463.5" >SfxObj..</text>
</g>
<g >
<title>ScColumn::GetNextDataPos (1 samples, 5.00%)</title><rect x="128.0" y="165" width="59.0" height="15.0" fill="rgb(230,3,34)" rx="2" ry="2" />
<text  x="131.00" y="175.5" >ScColu..</text>
</g>
<g >
<title>handleUserProfileSignal (1 samples, 5.00%)</title><rect x="187.0" y="277" width="59.0" height="15.0" fill="rgb(247,33,52)" rx="2" ry="2" />
<text  x="190.00" y="287.5" >handle..</text>
</g>
<g >
<title>mdds::flat_segment_tree&lt;int, unsigned short&gt;::search_impl (1 samples, 5.00%)</title><rect x="69.0" y="101" width="59.0" height="15.0" fill="rgb(229,146,34)" rx="2" ry="2" />
<text  x="72.00" y="111.5" >mdds::..</text>
</g>
<g >
<title>ppoll (14 samples, 70.00%)</title><rect x="364.0" y="373" width="826.0" height="15.0" fill="rgb(233,189,48)" rx="2" ry="2" />
<text  x="367.00" y="383.5" >ppoll</text>
</g>
<g >
<title>SocketPoll::pollingThreadEntry (14 samples, 70.00%)</title><rect x="364.0" y="453" width="826.0" height="15.0" fill="rgb(212,184,19)" rx="2" ry="2" />
<text  x="367.00" y="463.5" >SocketPoll::pollingThreadEntry</text>
</g>
<g >
<title>ScTable::GetRowHeight (1 samples, 5.00%)</title><rect x="69.0" y="149" width="59.0" height="15.0" fill="rgb(212,79,21)" rx="2" ry="2" />
<text  x="72.00" y="159.5" >ScTabl..</text>
</g>
<g >
<title>ScPrintFunc::CalcPages (1 samples, 5.00%)</title><rect x="69.0" y="229" width="59.0" height="15.0" fill="rgb(221,147,10)" rx="2" ry="2" />
<text  x="72.00" y="239.5" >ScPrin..</text>
</g>
<g >
<title>ImplSVMain (2 samples, 10.00%)</title><rect x="246.0" y="405" width="118.0" height="15.0" fill="rgb(249,71,34)" rx="2" ry="2" />
<text  x="249.00" y="415.5" >ImplSVMain</text>
</g>
<g >
<title>ScTable::ExtendPrintArea (1 samples, 5.00%)</title><rect x="128.0" y="197" width="59.0" height="15.0" fill="rgb(205,9,18)" rx="2" ry="2" />
<text  x="131.00" y="207.5" >ScTabl..</text>
</g>
<g >
<title>DocumentToGraphicRenderer::getDocumentSizeInPixels (1 samples, 5.00%)</title><rect x="69.0" y="357" width="59.0" height="15.0" fill="rgb(243,167,19)" rx="2" ry="2" />
<text  x="72.00" y="367.5" >Docume..</text>
</g>
<g >
<title>[unknown] (1 samples, 5.00%)</title><rect x="10.0" y="469" width="59.0" height="15.0" fill="rgb(217,126,10)" rx="2" ry="2" />
<text  x="13.00" y="479.5" >[unkno..</text>
</g>
<g >
<title>ScPrintFuncCache::ScPrintFuncCache (1 samples, 5.00%)</title><rect x="69.0" y="309" width="59.0" height="15.0" fill="rgb(222,176,2)" rx="2" ry="2" />
<text  x="72.00" y="319.5" >ScPrin..</text>
</g>
<g >
<title>ScPrintFunc::CalcPages (1 samples, 5.00%)</title><rect x="128.0" y="261" width="59.0" height="15.0" fill="rgb(219,105,7)" rx="2" ry="2" />
<text  x="131.00" y="271.5" >ScPrin..</text>
</g>
<g >
<title>StyleItemController::DrawEntry (2 samples, 10.00%)</title><rect x="246.0" y="149" width="118.0" height="15.0" fill="rgb(253,212,32)" rx="2" ry="2" />
<text  x="249.00" y="159.5" >StyleItemContr..</text>
</g>
<g >
<title>ScPrintFunc::CountPages (1 samples, 5.00%)</title><rect x="69.0" y="245" width="59.0" height="15.0" fill="rgb(244,53,54)" rx="2" ry="2" />
<text  x="72.00" y="255.5" >ScPrin..</text>
</g>
<g >
<title>mdds::flat_segment_tree&lt;int, unsigned short&gt;::search (1 samples, 5.00%)</title><rect x="69.0" y="117" width="59.0" height="15.0" fill="rgb(210,29,19)" rx="2" ry="2" />
<text  x="72.00" y="127.5" >mdds::..</text>
</g>
<g >
<title>coolwsd (1 samples, 5.00%)</title><rect x="10.0" y="485" width="59.0" height="15.0" fill="rgb(251,111,53)" rx="2" ry="2" />
<text  x="13.00" y="495.5" >coolwsd</text>
</g>
<g >
<title>lo_runLoop (2 samples, 10.00%)</title><rect x="246.0" y="437" width="118.0" height="15.0" fill="rgb(235,78,23)" rx="2" ry="2" />
<text  x="249.00" y="447.5" >lo_runLoop</text>
</g>
<g >
<title>pixman_composite_glyphs (1 samples, 5.00%)</title><rect x="187.0" y="341" width="59.0" height="15.0" fill="rgb(230,65,44)" rx="2" ry="2" />
<text  x="190.00" y="351.5" >pixman..</text>
</g>
<g >
<title>ScDocument::IsPrintEmpty (1 samples, 5.00%)</title><rect x="69.0" y="181" width="59.0" height="15.0" fill="rgb(215,214,6)" rx="2" ry="2" />
<text  x="72.00" y="191.5" >ScDocu..</text>
</g>
<g >
<title>_IO_funlockfile (1 samples, 5.00%)</title><rect x="69.0" y="85" width="59.0" height="15.0" fill="rgb(254,37,34)" rx="2" ry="2" />
<text  x="72.00" y="95.5" >_IO_fu..</text>
</g>
<g >
<title>syscall (1 samples, 5.00%)</title><rect x="187.0" y="261" width="59.0" height="15.0" fill="rgb(222,34,16)" rx="2" ry="2" />
<text  x="190.00" y="271.5" >syscall</text>
</g>
<g >
<title>http::Session::syncRequest (14 samples, 70.00%)</title><rect x="364.0" y="405" width="826.0" height="15.0" fill="rgb(230,98,27)" rx="2" ry="2" />
<text  x="367.00" y="415.5" >http::Session::syncRequest</text>
</g>
<g >
<title>_IO_funlockfile (1 samples, 5.00%)</title><rect x="246.0" y="85" width="59.0" height="15.0" fill="rgb(240,44,17)" rx="2" ry="2" />
<text  x="249.00" y="95.5" >_IO_fu..</text>
</g>
<g >
<title>handleUserProfileSignal (1 samples, 5.00%)</title><rect x="246.0" y="69" width="59.0" height="15.0" fill="rgb(248,39,2)" rx="2" ry="2" />
<text  x="249.00" y="79.5" >handle..</text>
</g>
<g >
<title>COOLWSD::processFetchUpdate (1 samples, 5.00%)</title><rect x="10.0" y="437" width="59.0" height="15.0" fill="rgb(228,81,6)" rx="2" ry="2" />
<text  x="13.00" y="447.5" >COOLWS..</text>
</g>
<g >
<title>StylesPreviewWindow_Base::GetCachedPreview (2 samples, 10.00%)</title><rect x="246.0" y="165" width="118.0" height="15.0" fill="rgb(220,167,3)" rx="2" ry="2" />
<text  x="249.00" y="175.5" >StylesPreviewW..</text>
</g>
<g >
<title>http::Session::syncRequest (14 samples, 70.00%)</title><rect x="364.0" y="421" width="826.0" height="15.0" fill="rgb(237,172,3)" rx="2" ry="2" />
<text  x="367.00" y="431.5" >http::Session::syncRequest</text>
</g>
<g >
<title>SfxObjectShell::SaveTo_Impl (1 samples, 5.00%)</title><rect x="69.0" y="405" width="59.0" height="15.0" fill="rgb(225,121,36)" rx="2" ry="2" />
<text  x="72.00" y="415.5" >SfxObj..</text>
</g>
<g >
<title>SvpSalInstance::CheckTimeout (2 samples, 10.00%)</title><rect x="246.0" y="309" width="118.0" height="15.0" fill="rgb(241,186,30)" rx="2" ry="2" />
<text  x="249.00" y="319.5" >SvpSalInstance..</text>
</g>
<g >
<title>syscall (1 samples, 5.00%)</title><rect x="69.0" y="53" width="59.0" height="15.0" fill="rgb(251,108,30)" rx="2" ry="2" />
<text  x="72.00" y="63.5" >syscall</text>
</g>
<g >
<title>ScDocument::GetMMRect (1 samples, 5.00%)</title><rect x="69.0" y="165" width="59.0" height="15.0" fill="rgb(224,12,39)" rx="2" ry="2" />
<text  x="72.00" y="175.5" >ScDocu..</text>
</g>
<g >
<title>_IO_funlockfile (1 samples, 5.00%)</title><rect x="305.0" y="69" width="59.0" height="15.0" fill="rgb(225,147,42)" rx="2" ry="2" />
<text  x="308.00" y="79.5" >_IO_fu..</text>
</g>
<g >
<title>ScTable::VisibleDataCellIterator::next (1 samples, 5.00%)</title><rect x="128.0" y="181" width="59.0" height="15.0" fill="rgb(218,177,51)" rx="2" ry="2" />
<text  x="131.00" y="191.5" >ScTabl..</text>
</g>
<g >
<title>ScModelObj::getRenderer (1 samples, 5.00%)</title><rect x="128.0" y="341" width="59.0" height="15.0" fill="rgb(229,118,28)" rx="2" ry="2" />
<text  x="131.00" y="351.5" >ScMode..</text>
</g>
<g >
<title>ScPrintFunc::ScPrintFunc (1 samples, 5.00%)</title><rect x="69.0" y="293" width="59.0" height="15.0" fill="rgb(236,106,26)" rx="2" ry="2" />
<text  x="72.00" y="303.5" >ScPrin..</text>
</g>
<g >
<title>_IO_funlockfile (1 samples, 5.00%)</title><rect x="10.0" y="357" width="59.0" height="15.0" fill="rgb(254,224,15)" rx="2" ry="2" />
<text  x="13.00" y="367.5" >_IO_fu..</text>
</g>
<g >
<title>SwStyleSheetIterator::AppendStyleList (2 samples, 10.00%)</title><rect x="246.0" y="117" width="118.0" height="15.0" fill="rgb(230,127,41)" rx="2" ry="2" />
<text  x="249.00" y="127.5" >SwStyleSheetIt..</text>
</g>
<g >
<title>syscall (1 samples, 5.00%)</title><rect x="128.0" y="117" width="59.0" height="15.0" fill="rgb(212,61,6)" rx="2" ry="2" />
<text  x="131.00" y="127.5" >syscall</text>
</g>
<g >
<title>ScFlatUInt16RowSegments::getSumValue (1 samples, 5.00%)</title><rect x="69.0" y="133" width="59.0" height="15.0" fill="rgb(224,203,41)" rx="2" ry="2" />
<text  x="72.00" y="143.5" >ScFlat..</text>
</g>
<g >
<title>syscall (1 samples, 5.00%)</title><rect x="305.0" y="37" width="59.0" height="15.0" fill="rgb(229,213,5)" rx="2" ry="2" />
<text  x="308.00" y="47.5" >syscall</text>
</g>
<g >
<title>[unknown] (5 samples, 25.00%)</title><rect x="69.0" y="469" width="295.0" height="15.0" fill="rgb(242,225,22)" rx="2" ry="2" />
<text  x="72.00" y="479.5" >[unknown]</text>
</g>
<g >
<title>remotefontconfi (14 samples, 70.00%)</title><rect x="364.0" y="485" width="826.0" height="15.0" fill="rgb(229,93,13)" rx="2" ry="2" />
<text  x="367.00" y="495.5" >remotefontconfi</text>
</g>
<g >
<title>handleUserProfileSignal (1 samples, 5.00%)</title><rect x="305.0" y="53" width="59.0" height="15.0" fill="rgb(239,185,21)" rx="2" ry="2" />
<text  x="308.00" y="63.5" >handle..</text>
</g>
<g >
<title>StylesPreviewWindow_Base::GetCachedPreviewJson (2 samples, 10.00%)</title><rect x="246.0" y="181" width="118.0" height="15.0" fill="rgb(247,215,50)" rx="2" ry="2" />
<text  x="249.00" y="191.5" >StylesPreviewW..</text>
</g>
<g >
<title>lcl_SetHidden (1 samples, 5.00%)</title><rect x="69.0" y="197" width="59.0" height="15.0" fill="rgb(211,114,27)" rx="2" ry="2" />
<text  x="72.00" y="207.5" >lcl_Se..</text>
</g>
<g >
<title>DocumentToGraphicRenderer::getDocumentSizeInPixels (1 samples, 5.00%)</title><rect x="128.0" y="373" width="59.0" height="15.0" fill="rgb(242,10,30)" rx="2" ry="2" />
<text  x="131.00" y="383.5" >Docume..</text>
</g>
<g >
<title>sse2_composite_over_n_8_8888 (1 samples, 5.00%)</title><rect x="187.0" y="309" width="59.0" height="15.0" fill="rgb(246,65,17)" rx="2" ry="2" />
<text  x="190.00" y="319.5" >sse2_c..</text>
</g>
<g >
<title>StylesPreviewWindow_Base::DoJsonProperty (2 samples, 10.00%)</title><rect x="246.0" y="197" width="118.0" height="15.0" fill="rgb(248,114,24)" rx="2" ry="2" />
<text  x="249.00" y="207.5" >StylesPreviewW..</text>
</g>
<g >
<title>GraphicExportFilter::filterRenderDocument (1 samples, 5.00%)</title><rect x="69.0" y="373" width="59.0" height="15.0" fill="rgb(240,28,46)" rx="2" ry="2" />
<text  x="72.00" y="383.5" >Graphi..</text>
</g>
<g >
<title>SfxObjectShell::ExportTo (1 samples, 5.00%)</title><rect x="128.0" y="405" width="59.0" height="15.0" fill="rgb(252,34,36)" rx="2" ry="2" />
<text  x="131.00" y="415.5" >SfxObj..</text>
</g>
<g >
<title>ScPrintFunc::Construct (1 samples, 5.00%)</title><rect x="69.0" y="277" width="59.0" height="15.0" fill="rgb(211,210,25)" rx="2" ry="2" />
<text  x="72.00" y="287.5" >ScPrin..</text>
</g>
<g >
<title>handleUserProfileSignal (1 samples, 5.00%)</title><rect x="69.0" y="69" width="59.0" height="15.0" fill="rgb(239,186,5)" rx="2" ry="2" />
<text  x="72.00" y="79.5" >handle..</text>
</g>
<g >
<title>sc::PrintPageRanges::calculate (1 samples, 5.00%)</title><rect x="128.0" y="245" width="59.0" height="15.0" fill="rgb(218,208,4)" rx="2" ry="2" />
<text  x="131.00" y="255.5" >sc::Pr..</text>
</g>
<g >
<title>all (20 samples, 100%)</title><rect x="10.0" y="501" width="1180.0" height="15.0" fill="rgb(211,122,52)" rx="2" ry="2" />
<text  x="13.00" y="511.5" ></text>
</g>
<g >
<title>clip_and_composite (1 samples, 5.00%)</title><rect x="187.0" y="373" width="59.0" height="15.0" fill="rgb(222,155,32)" rx="2" ry="2" />
<text  x="190.00" y="383.5" >clip_a..</text>
</g>
<g >
<title>Application::Execute (2 samples, 10.00%)</title><rect x="246.0" y="373" width="118.0" height="15.0" fill="rgb(242,52,14)" rx="2" ry="2" />
<text  x="249.00" y="383.5" >Application::E..</text>
</g>
<g >
<title>ScPrintFunc::InitParam (1 samples, 5.00%)</title><rect x="69.0" y="261" width="59.0" height="15.0" fill="rgb(222,97,4)" rx="2" ry="2" />
<text  x="72.00" y="271.5" >ScPrin..</text>
</g>
<g >
<title>composite_glyphs (1 samples, 5.00%)</title><rect x="187.0" y="357" width="59.0" height="15.0" fill="rgb(216,158,9)" rx="2" ry="2" />
<text  x="190.00" y="367.5" >compos..</text>
</g>
<g >
<title>GraphicExportFilter::filterRenderDocument (1 samples, 5.00%)</title><rect x="128.0" y="389" width="59.0" height="15.0" fill="rgb(227,5,50)" rx="2" ry="2" />
<text  x="131.00" y="399.5" >Graphi..</text>
</g>
<g >
<title>SwFormatsBase::FindFormatByName (2 samples, 10.00%)</title><rect x="246.0" y="101" width="118.0" height="15.0" fill="rgb(225,84,14)" rx="2" ry="2" />
<text  x="249.00" y="111.5" >SwFormatsBase:..</text>
</g>
<g >
<title>syscall (1 samples, 5.00%)</title><rect x="246.0" y="53" width="59.0" height="15.0" fill="rgb(215,196,28)" rx="2" ry="2" />
<text  x="249.00" y="63.5" >syscall</text>
</g>
<g >
<title>lokit_main (2 samples, 10.00%)</title><rect x="246.0" y="453" width="118.0" height="15.0" fill="rgb(228,215,30)" rx="2" ry="2" />
<text  x="249.00" y="463.5" >lokit_main</text>
</g>
<g >
<title>ImplYield (2 samples, 10.00%)</title><rect x="246.0" y="357" width="118.0" height="15.0" fill="rgb(254,220,13)" rx="2" ry="2" />
<text  x="249.00" y="367.5" >ImplYield</text>
</g>
<g >
<title>handleUserProfileSignal (1 samples, 5.00%)</title><rect x="10.0" y="341" width="59.0" height="15.0" fill="rgb(254,16,18)" rx="2" ry="2" />
<text  x="13.00" y="351.5" >handle..</text>
</g>
<g >
<title>SfxObjectShell::PreDoSaveAs_Impl (1 samples, 5.00%)</title><rect x="69.0" y="421" width="59.0" height="15.0" fill="rgb(230,226,54)" rx="2" ry="2" />
<text  x="72.00" y="431.5" >SfxObj..</text>
</g>
<g >
<title>JSDialogNotifyIdle::Invoke (2 samples, 10.00%)</title><rect x="246.0" y="277" width="118.0" height="15.0" fill="rgb(223,50,1)" rx="2" ry="2" />
<text  x="249.00" y="287.5" >JSDialogNotify..</text>
</g>
<g >
<title>ScModelObj::getRendererCount (1 samples, 5.00%)</title><rect x="69.0" y="325" width="59.0" height="15.0" fill="rgb(253,128,1)" rx="2" ry="2" />
<text  x="72.00" y="335.5" >ScMode..</text>
</g>
<g >
<title>SalInstanceIconView::LinkStubDumpElemToPropertyTreeHdl (2 samples, 10.00%)</title><rect x="246.0" y="213" width="118.0" height="15.0" fill="rgb(250,52,8)" rx="2" ry="2" />
<text  x="249.00" y="223.5" >SalInstanceIco..</text>
</g>
<g >
<title>ScPrintFunc::CountPages (1 samples, 5.00%)</title><rect x="128.0" y="277" width="59.0" height="15.0" fill="rgb(218,160,21)" rx="2" ry="2" />
<text  x="131.00" y="287.5" >ScPrin..</text>
</g>
<g >
<title>_cairo_compositor_glyphs (1 samples, 5.00%)</title><rect x="187.0" y="405" width="59.0" height="15.0" fill="rgb(223,32,53)" rx="2" ry="2" />
<text  x="190.00" y="415.5" >_cairo..</text>
</g>
<g >
<title>lcl_SetHidden (1 samples, 5.00%)</title><rect x="128.0" y="229" width="59.0" height="15.0" fill="rgb(252,6,13)" rx="2" ry="2" />
<text  x="131.00" y="239.5" >lcl_Se..</text>
</g>
<g >
<title>http::Session::syncRequest (1 samples, 5.00%)</title><rect x="10.0" y="405" width="59.0" height="15.0" fill="rgb(238,135,35)" rx="2" ry="2" />
<text  x="13.00" y="415.5" >http::..</text>
</g>
<g >
<title>SfxObjectShell::PreDoSaveAs_Impl (1 samples, 5.00%)</title><rect x="128.0" y="437" width="59.0" height="15.0" fill="rgb(247,180,5)" rx="2" ry="2" />
<text  x="131.00" y="447.5" >SfxObj..</text>
</g>
<g >
<title>[unknown] (14 samples, 70.00%)</title><rect x="364.0" y="469" width="826.0" height="15.0" fill="rgb(238,225,7)" rx="2" ry="2" />
<text  x="367.00" y="479.5" >[unknown]</text>
</g>
<g >
<title>non-virtual thunk to SwFormatsModifyBase&lt;SwTextFormatColl*&gt;::GetFormatCount (1 samples, 5.00%)</title><rect x="305.0" y="85" width="59.0" height="15.0" fill="rgb(235,65,40)" rx="2" ry="2" />
<text  x="308.00" y="95.5" >non-vi..</text>
</g>
<g >
<title>COOLWSD::innerMain (1 samples, 5.00%)</title><rect x="10.0" y="453" width="59.0" height="15.0" fill="rgb(222,229,16)" rx="2" ry="2" />
<text  x="13.00" y="463.5" >COOLWS..</text>
</g>
<g >
<title>Scheduler::CallbackTaskScheduling (2 samples, 10.00%)</title><rect x="246.0" y="293" width="118.0" height="15.0" fill="rgb(230,225,45)" rx="2" ry="2" />
<text  x="249.00" y="303.5" >Scheduler::Cal..</text>
</g>
<g >
<title>syscall (14 samples, 70.00%)</title><rect x="364.0" y="325" width="826.0" height="15.0" fill="rgb(224,81,9)" rx="2" ry="2" />
<text  x="367.00" y="335.5" >syscall</text>
</g>
<g >
<title>ppoll (1 samples, 5.00%)</title><rect x="10.0" y="373" width="59.0" height="15.0" fill="rgb(217,179,0)" rx="2" ry="2" />
<text  x="13.00" y="383.5" >ppoll</text>
</g>
<g >
<title>_IO_funlockfile (1 samples, 5.00%)</title><rect x="187.0" y="293" width="59.0" height="15.0" fill="rgb(243,191,33)" rx="2" ry="2" />
<text  x="190.00" y="303.5" >_IO_fu..</text>
</g>
<g >
<title>kitbroker (5 samples, 25.00%)</title><rect x="69.0" y="485" width="295.0" height="15.0" fill="rgb(250,220,9)" rx="2" ry="2" />
<text  x="72.00" y="495.5" >kitbroker</text>
</g>
<g >
<title>IconView::DumpEntryAndSiblings (2 samples, 10.00%)</title><rect x="246.0" y="229" width="118.0" height="15.0" fill="rgb(245,110,10)" rx="2" ry="2" />
<text  x="249.00" y="239.5" >IconView::Dump..</text>
</g>
<g >
<title>http::Session::syncRequest (1 samples, 5.00%)</title><rect x="10.0" y="421" width="59.0" height="15.0" fill="rgb(223,45,22)" rx="2" ry="2" />
<text  x="13.00" y="431.5" >http::..</text>
</g>
<g >
<title>soffice_main (2 samples, 10.00%)</title><rect x="246.0" y="421" width="118.0" height="15.0" fill="rgb(241,49,19)" rx="2" ry="2" />
<text  x="249.00" y="431.5" >soffice_main</text>
</g>
<g >
<title>_cairo_gstate_show_text_glyphs (1 samples, 5.00%)</title><rect x="187.0" y="453" width="59.0" height="15.0" fill="rgb(215,170,49)" rx="2" ry="2" />
<text  x="190.00" y="463.5" >_cairo..</text>
</g>
<g >
<title>SocketPoll::poll (14 samples, 70.00%)</title><rect x="364.0" y="389" width="826.0" height="15.0" fill="rgb(205,127,22)" rx="2" ry="2" />
<text  x="367.00" y="399.5" >SocketPoll::poll</text>
</g>
<g >
<title>sc::PrintPageRanges::calculate (1 samples, 5.00%)</title><rect x="69.0" y="213" width="59.0" height="15.0" fill="rgb(220,12,25)" rx="2" ry="2" />
<text  x="72.00" y="223.5" >sc::Pr..</text>
</g>
<g >
<title>_IO_funlockfile (14 samples, 70.00%)</title><rect x="364.0" y="357" width="826.0" height="15.0" fill="rgb(222,134,6)" rx="2" ry="2" />
<text  x="367.00" y="367.5" >_IO_funlockfile</text>
</g>
<g >
<title>ScPrintFunc::ScPrintFunc (1 samples, 5.00%)</title><rect x="128.0" y="325" width="59.0" height="15.0" fill="rgb(221,52,17)" rx="2" ry="2" />
<text  x="131.00" y="335.5" >ScPrin..</text>
</g>
<g >
<title>IconView::DumpAsPropertyTree (2 samples, 10.00%)</title><rect x="246.0" y="245" width="118.0" height="15.0" fill="rgb(248,97,42)" rx="2" ry="2" />
<text  x="249.00" y="255.5" >IconView::Dump..</text>
</g>
<g >
<title>desktop::Desktop::Main (2 samples, 10.00%)</title><rect x="246.0" y="389" width="118.0" height="15.0" fill="rgb(210,223,38)" rx="2" ry="2" />
<text  x="249.00" y="399.5" >desktop::Deskt..</text>
</g>
<g >
<title>DocumentToGraphicRenderer::getDocumentSizeIn100mm (1 samples, 5.00%)</title><rect x="128.0" y="357" width="59.0" height="15.0" fill="rgb(220,208,13)" rx="2" ry="2" />
<text  x="131.00" y="367.5" >Docume..</text>
</g>
<g >
<title>SvpSalInstance::ImplYield (2 samples, 10.00%)</title><rect x="246.0" y="325" width="118.0" height="15.0" fill="rgb(230,114,34)" rx="2" ry="2" />
<text  x="249.00" y="335.5" >SvpSalInstance..</text>
</g>
<g >
<title>handleUserProfileSignal (1 samples, 5.00%)</title><rect x="128.0" y="133" width="59.0" height="15.0" fill="rgb(213,64,27)" rx="2" ry="2" />
<text  x="131.00" y="143.5" >handle..</text>
</g>
<g >
<title>DocumentToGraphicRenderer::getDocumentSizeIn100mm (1 samples, 5.00%)</title><rect x="69.0" y="341" width="59.0" height="15.0" fill="rgb(240,203,0)" rx="2" ry="2" />
<text  x="72.00" y="351.5" >Docume..</text>
</g>
<g >
<title>SfxObjectShell::ExportTo (1 samples, 5.00%)</title><rect x="69.0" y="389" width="59.0" height="15.0" fill="rgb(229,159,50)" rx="2" ry="2" />
<text  x="72.00" y="399.5" >SfxObj..</text>
</g>
<g >
<title>syscall (1 samples, 5.00%)</title><rect x="10.0" y="325" width="59.0" height="15.0" fill="rgb(222,52,25)" rx="2" ry="2" />
<text  x="13.00" y="335.5" >syscall</text>
</g>
<g >
<title>ScPrintFunc::InitParam (1 samples, 5.00%)</title><rect x="128.0" y="293" width="59.0" height="15.0" fill="rgb(214,155,25)" rx="2" ry="2" />
<text  x="131.00" y="303.5" >ScPrin..</text>
</g>
<g >
<title>_cairo_image_surface_glyphs (1 samples, 5.00%)</title><rect x="187.0" y="421" width="59.0" height="15.0" fill="rgb(221,134,24)" rx="2" ry="2" />
<text  x="190.00" y="431.5" >_cairo..</text>
</g>
<g >
<title>SvpSalInstance::DoYield (2 samples, 10.00%)</title><rect x="246.0" y="341" width="118.0" height="15.0" fill="rgb(225,220,34)" rx="2" ry="2" />
<text  x="249.00" y="351.5" >SvpSalInstance..</text>
</g>
<g >
<title>SfxObjectShell::CommonSaveAs_Impl (1 samples, 5.00%)</title><rect x="128.0" y="453" width="59.0" height="15.0" fill="rgb(218,206,18)" rx="2" ry="2" />
<text  x="131.00" y="463.5" >SfxObj..</text>
</g>
<g >
<title>pixman_image_composite32 (1 samples, 5.00%)</title><rect x="187.0" y="325" width="59.0" height="15.0" fill="rgb(243,124,2)" rx="2" ry="2" />
<text  x="190.00" y="335.5" >pixman..</text>
</g>
<g >
<title>_cairo_traps_compositor_glyphs (1 samples, 5.00%)</title><rect x="187.0" y="389" width="59.0" height="15.0" fill="rgb(253,46,44)" rx="2" ry="2" />
<text  x="190.00" y="399.5" >_cairo..</text>
</g>
<g >
<title>_IO_funlockfile (1 samples, 5.00%)</title><rect x="128.0" y="149" width="59.0" height="15.0" fill="rgb(207,120,35)" rx="2" ry="2" />
<text  x="131.00" y="159.5" >_IO_fu..</text>
</g>
<g >
<title>_cairo_surface_show_text_glyphs (1 samples, 5.00%)</title><rect x="187.0" y="437" width="59.0" height="15.0" fill="rgb(241,127,17)" rx="2" ry="2" />
<text  x="190.00" y="447.5" >_cairo..</text>
</g>
<g >
<title>handleUserProfileSignal (14 samples, 70.00%)</title><rect x="364.0" y="341" width="826.0" height="15.0" fill="rgb(253,52,22)" rx="2" ry="2" />
<text  x="367.00" y="351.5" >handleUserProfileSignal</text>
</g>
<g >
<title>SfxObjectShell::CommonSaveAs_Impl (1 samples, 5.00%)</title><rect x="69.0" y="437" width="59.0" height="15.0" fill="rgb(215,195,26)" rx="2" ry="2" />
<text  x="72.00" y="447.5" >SfxObj..</text>
</g>
<g >
<title>SwStyleSheetIterator::First (2 samples, 10.00%)</title><rect x="246.0" y="133" width="118.0" height="15.0" fill="rgb(219,151,21)" rx="2" ry="2" />
<text  x="249.00" y="143.5" >SwStyleSheetIt..</text>
</g>
</g>
</svg>
