<?xml version="1.0" standalone="no"?>
<!DOCTYPE svg PUBLIC "-//W3C//DTD SVG 1.1//EN" "http://www.w3.org/Graphics/SVG/1.1/DTD/svg11.dtd">
<svg version="1.1" width="1200" height="710" onload="init(evt)" viewBox="0 0 1200 710" xmlns="http://www.w3.org/2000/svg" xmlns:xlink="http://www.w3.org/1999/xlink">
<!-- Flame graph stack visualization. See https://github.com/brendangregg/FlameGraph for latest version, and http://www.brendangregg.com/flamegraphs.html for examples. -->
<!-- NOTES:  -->
<defs>
	<linearGradient id="background" y1="0" y2="1" x1="0" x2="0" >
		<stop stop-color="#eeeeee" offset="5%" />
		<stop stop-color="#eeeeb0" offset="95%" />
	</linearGradient>
</defs>
<style type="text/css">
	text { font-family:Verdana; font-size:12px; fill:rgb(0,0,0); }
	#search, #ignorecase { opacity:0.1; cursor:pointer; }
	#search:hover, #search.show, #ignorecase:hover, #ignorecase.show { opacity:1; }
	#subtitle { text-anchor:middle; font-color:rgb(160,160,160); }
	#title { text-anchor:middle; font-size:17px}
	#unzoom { cursor:pointer; }
	#frames > *:hover { stroke:black; stroke-width:0.5; cursor:pointer; }
	.hide { display:none; }
	.parent { opacity:0.5; }
</style>
<script type="text/ecmascript">
<![CDATA[
	"use strict";
	var details, searchbtn, unzoombtn, matchedtxt, svg, searching, currentSearchTerm, ignorecase, ignorecaseBtn;
	function init(evt) {
		details = document.getElementById("details").firstChild;
		searchbtn = document.getElementById("search");
		ignorecaseBtn = document.getElementById("ignorecase");
		unzoombtn = document.getElementById("unzoom");
		matchedtxt = document.getElementById("matched");
		svg = document.getElementsByTagName("svg")[0];
		searching = 0;
		currentSearchTerm = null;

		// use GET parameters to restore a flamegraphs state.
		var params = get_params();
		if (params.x && params.y)
			zoom(find_group(document.querySelector('[x="' + params.x + '"][y="' + params.y + '"]')));
                if (params.s) search(params.s);
	}

	// event listeners
	window.addEventListener("click", function(e) {
		var target = find_group(e.target);
		if (target) {
			if (target.nodeName == "a") {
				if (e.ctrlKey === false) return;
				e.preventDefault();
			}
			if (target.classList.contains("parent")) unzoom(true);
			zoom(target);
			if (!document.querySelector('.parent')) {
				// we have basically done a clearzoom so clear the url
				var params = get_params();
				if (params.x) delete params.x;
				if (params.y) delete params.y;
				history.replaceState(null, null, parse_params(params));
				unzoombtn.classList.add("hide");
				return;
			}

			// set parameters for zoom state
			var el = target.querySelector("rect");
			if (el && el.attributes && el.attributes.y && el.attributes._orig_x) {
				var params = get_params()
				params.x = el.attributes._orig_x.value;
				params.y = el.attributes.y.value;
				history.replaceState(null, null, parse_params(params));
			}
		}
		else if (e.target.id == "unzoom") clearzoom();
		else if (e.target.id == "search") search_prompt();
		else if (e.target.id == "ignorecase") toggle_ignorecase();
	}, false)

	// mouse-over for info
	// show
	window.addEventListener("mouseover", function(e) {
		var target = find_group(e.target);
		if (target) details.nodeValue = "Function: " + g_to_text(target);
	}, false)

	// clear
	window.addEventListener("mouseout", function(e) {
		var target = find_group(e.target);
		if (target) details.nodeValue = ' ';
	}, false)

	// ctrl-F for search
	// ctrl-I to toggle case-sensitive search
	window.addEventListener("keydown",function (e) {
		if (e.keyCode === 114 || (e.ctrlKey && e.keyCode === 70)) {
			e.preventDefault();
			search_prompt();
		}
		else if (e.ctrlKey && e.keyCode === 73) {
			e.preventDefault();
			toggle_ignorecase();
		}
	}, false)

	// functions
	function get_params() {
		var params = {};
		var paramsarr = window.location.search.substr(1).split('&');
		for (var i = 0; i < paramsarr.length; ++i) {
			var tmp = paramsarr[i].split("=");
			if (!tmp[0] || !tmp[1]) continue;
			params[tmp[0]]  = decodeURIComponent(tmp[1]);
		}
		return params;
	}
	function parse_params(params) {
		var uri = "?";
		for (var key in params) {
			uri += key + '=' + encodeURIComponent(params[key]) + '&';
		}
		if (uri.slice(-1) == "&")
			uri = uri.substring(0, uri.length - 1);
		if (uri == '?')
			uri = window.location.href.split('?')[0];
		return uri;
	}
	function find_child(node, selector) {
		var children = node.querySelectorAll(selector);
		if (children.length) return children[0];
	}
	function find_group(node) {
		var parent = node.parentElement;
		if (!parent) return;
		if (parent.id == "frames") return node;
		return find_group(parent);
	}
	function orig_save(e, attr, val) {
		if (e.attributes["_orig_" + attr] != undefined) return;
		if (e.attributes[attr] == undefined) return;
		if (val == undefined) val = e.attributes[attr].value;
		e.setAttribute("_orig_" + attr, val);
	}
	function orig_load(e, attr) {
		if (e.attributes["_orig_"+attr] == undefined) return;
		e.attributes[attr].value = e.attributes["_orig_" + attr].value;
		e.removeAttribute("_orig_"+attr);
	}
	function g_to_text(e) {
		var text = find_child(e, "title").firstChild.nodeValue;
		return (text)
	}
	function g_to_func(e) {
		var func = g_to_text(e);
		// if there's any manipulation we want to do to the function
		// name before it's searched, do it here before returning.
		return (func);
	}
	function update_text(e) {
		var r = find_child(e, "rect");
		var t = find_child(e, "text");
		var w = parseFloat(r.attributes.width.value) -3;
		var txt = find_child(e, "title").textContent.replace(/\([^(]*\)$/,"");
		t.attributes.x.value = parseFloat(r.attributes.x.value) + 3;

		// Smaller than this size won't fit anything
		if (w < 2 * 12 * 0.59) {
			t.textContent = "";
			return;
		}

		t.textContent = txt;
		var sl = t.getSubStringLength(0, txt.length);
		// check if only whitespace or if we can fit the entire string into width w
		if (/^ *$/.test(txt) || sl < w)
			return;

		// this isn't perfect, but gives a good starting point
		// and avoids calling getSubStringLength too often
		var start = Math.floor((w/sl) * txt.length);
		for (var x = start; x > 0; x = x-2) {
			if (t.getSubStringLength(0, x + 2) <= w) {
				t.textContent = txt.substring(0, x) + "..";
				return;
			}
		}
		t.textContent = "";
	}

	// zoom
	function zoom_reset(e) {
		if (e.attributes != undefined) {
			orig_load(e, "x");
			orig_load(e, "width");
		}
		if (e.childNodes == undefined) return;
		for (var i = 0, c = e.childNodes; i < c.length; i++) {
			zoom_reset(c[i]);
		}
	}
	function zoom_child(e, x, ratio) {
		if (e.attributes != undefined) {
			if (e.attributes.x != undefined) {
				orig_save(e, "x");
				e.attributes.x.value = (parseFloat(e.attributes.x.value) - x - 10) * ratio + 10;
				if (e.tagName == "text")
					e.attributes.x.value = find_child(e.parentNode, "rect[x]").attributes.x.value + 3;
			}
			if (e.attributes.width != undefined) {
				orig_save(e, "width");
				e.attributes.width.value = parseFloat(e.attributes.width.value) * ratio;
			}
		}

		if (e.childNodes == undefined) return;
		for (var i = 0, c = e.childNodes; i < c.length; i++) {
			zoom_child(c[i], x - 10, ratio);
		}
	}
	function zoom_parent(e) {
		if (e.attributes) {
			if (e.attributes.x != undefined) {
				orig_save(e, "x");
				e.attributes.x.value = 10;
			}
			if (e.attributes.width != undefined) {
				orig_save(e, "width");
				e.attributes.width.value = parseInt(svg.width.baseVal.value) - (10 * 2);
			}
		}
		if (e.childNodes == undefined) return;
		for (var i = 0, c = e.childNodes; i < c.length; i++) {
			zoom_parent(c[i]);
		}
	}
	function zoom(node) {
		var attr = find_child(node, "rect").attributes;
		var width = parseFloat(attr.width.value);
		var xmin = parseFloat(attr.x.value);
		var xmax = parseFloat(xmin + width);
		var ymin = parseFloat(attr.y.value);
		var ratio = (svg.width.baseVal.value - 2 * 10) / width;

		// XXX: Workaround for JavaScript float issues (fix me)
		var fudge = 0.0001;

		unzoombtn.classList.remove("hide");

		var el = document.getElementById("frames").children;
		for (var i = 0; i < el.length; i++) {
			var e = el[i];
			var a = find_child(e, "rect").attributes;
			var ex = parseFloat(a.x.value);
			var ew = parseFloat(a.width.value);
			var upstack;
			// Is it an ancestor
			if (0 == 0) {
				upstack = parseFloat(a.y.value) > ymin;
			} else {
				upstack = parseFloat(a.y.value) < ymin;
			}
			if (upstack) {
				// Direct ancestor
				if (ex <= xmin && (ex+ew+fudge) >= xmax) {
					e.classList.add("parent");
					zoom_parent(e);
					update_text(e);
				}
				// not in current path
				else
					e.classList.add("hide");
			}
			// Children maybe
			else {
				// no common path
				if (ex < xmin || ex + fudge >= xmax) {
					e.classList.add("hide");
				}
				else {
					zoom_child(e, xmin, ratio);
					update_text(e);
				}
			}
		}
		search();
	}
	function unzoom(dont_update_text) {
		unzoombtn.classList.add("hide");
		var el = document.getElementById("frames").children;
		for(var i = 0; i < el.length; i++) {
			el[i].classList.remove("parent");
			el[i].classList.remove("hide");
			zoom_reset(el[i]);
			if(!dont_update_text) update_text(el[i]);
		}
		search();
	}
	function clearzoom() {
		unzoom();

		// remove zoom state
		var params = get_params();
		if (params.x) delete params.x;
		if (params.y) delete params.y;
		history.replaceState(null, null, parse_params(params));
	}

	// search
	function toggle_ignorecase() {
		ignorecase = !ignorecase;
		if (ignorecase) {
			ignorecaseBtn.classList.add("show");
		} else {
			ignorecaseBtn.classList.remove("show");
		}
		reset_search();
		search();
	}
	function reset_search() {
		var el = document.querySelectorAll("#frames rect");
		for (var i = 0; i < el.length; i++) {
			orig_load(el[i], "fill")
		}
		var params = get_params();
		delete params.s;
		history.replaceState(null, null, parse_params(params));
	}
	function search_prompt() {
		if (!searching) {
			var term = prompt("Enter a search term (regexp " +
			    "allowed, eg: ^ext4_)"
			    + (ignorecase ? ", ignoring case" : "")
			    + "\nPress Ctrl-i to toggle case sensitivity", "");
			if (term != null) search(term);
		} else {
			reset_search();
			searching = 0;
			currentSearchTerm = null;
			searchbtn.classList.remove("show");
			searchbtn.firstChild.nodeValue = "Search"
			matchedtxt.classList.add("hide");
			matchedtxt.firstChild.nodeValue = ""
		}
	}
	function search(term) {
		if (term) currentSearchTerm = term;

		var re = new RegExp(currentSearchTerm, ignorecase ? 'i' : '');
		var el = document.getElementById("frames").children;
		var matches = new Object();
		var maxwidth = 0;
		for (var i = 0; i < el.length; i++) {
			var e = el[i];
			var func = g_to_func(e);
			var rect = find_child(e, "rect");
			if (func == null || rect == null)
				continue;

			// Save max width. Only works as we have a root frame
			var w = parseFloat(rect.attributes.width.value);
			if (w > maxwidth)
				maxwidth = w;

			if (func.match(re)) {
				// highlight
				var x = parseFloat(rect.attributes.x.value);
				orig_save(rect, "fill");
				rect.attributes.fill.value = "rgb(230,0,230)";

				// remember matches
				if (matches[x] == undefined) {
					matches[x] = w;
				} else {
					if (w > matches[x]) {
						// overwrite with parent
						matches[x] = w;
					}
				}
				searching = 1;
			}
		}
		if (!searching)
			return;
		var params = get_params();
		params.s = currentSearchTerm;
		history.replaceState(null, null, parse_params(params));

		searchbtn.classList.add("show");
		searchbtn.firstChild.nodeValue = "Reset Search";

		// calculate percent matched, excluding vertical overlap
		var count = 0;
		var lastx = -1;
		var lastw = 0;
		var keys = Array();
		for (k in matches) {
			if (matches.hasOwnProperty(k))
				keys.push(k);
		}
		// sort the matched frames by their x location
		// ascending, then width descending
		keys.sort(function(a, b){
			return a - b;
		});
		// Step through frames saving only the biggest bottom-up frames
		// thanks to the sort order. This relies on the tree property
		// where children are always smaller than their parents.
		var fudge = 0.0001;	// JavaScript floating point
		for (var k in keys) {
			var x = parseFloat(keys[k]);
			var w = matches[keys[k]];
			if (x >= lastx + lastw - fudge) {
				count += w;
				lastx = x;
				lastw = w;
			}
		}
		// display matched percent
		matchedtxt.classList.remove("hide");
		var pct = 100 * count / maxwidth;
		if (pct != 100) pct = pct.toFixed(1)
		matchedtxt.firstChild.nodeValue = "Matched: " + pct + "%";
	}
]]>
</script>
<rect x="0.0" y="0" width="1200.0" height="710.0" fill="url(#background)"  />
<text id="title" x="600.00" y="24" >StagingPerf.eu Watchdog Profile (2025-12-29T11:00:01.590112)</text>
<text id="details" x="10.00" y="693" > </text>
<text id="unzoom" x="10.00" y="24" class="hide">Reset Zoom</text>
<text id="search" x="1090.00" y="24" >Search</text>
<text id="ignorecase" x="1174.00" y="24" >ic</text>
<text id="matched" x="1090.00" y="693" > </text>
<g id="frames">
<g >
<title>sax_fastparser::FastSaxParserImpl::parseStream (1 samples, 4.76%)</title><rect x="1021.4" y="149" width="56.2" height="15.0" fill="rgb(233,219,52)" rx="2" ry="2" />
<text  x="1024.43" y="159.5" >sax_f..</text>
</g>
<g >
<title>ImpGraphic::ensureAvailable (1 samples, 4.76%)</title><rect x="1077.6" y="501" width="56.2" height="15.0" fill="rgb(220,38,30)" rx="2" ry="2" />
<text  x="1080.62" y="511.5" >ImpGr..</text>
</g>
<g >
<title>framework::LoadEnv::startLoading (1 samples, 4.76%)</title><rect x="965.2" y="581" width="56.2" height="15.0" fill="rgb(208,2,20)" rx="2" ry="2" />
<text  x="968.24" y="591.5" >frame..</text>
</g>
<g >
<title>GraphicFilter::ImportGraphic (1 samples, 4.76%)</title><rect x="1077.6" y="453" width="56.2" height="15.0" fill="rgb(234,202,18)" rx="2" ry="2" />
<text  x="1080.62" y="463.5" >Graph..</text>
</g>
<g >
<title>_IO_funlockfile (3 samples, 14.29%)</title><rect x="740.5" y="421" width="168.5" height="15.0" fill="rgb(206,143,22)" rx="2" ry="2" />
<text  x="743.48" y="431.5" >_IO_funlockfile</text>
</g>
<g >
<title>soffice_main (1 samples, 4.76%)</title><rect x="1133.8" y="565" width="56.2" height="15.0" fill="rgb(243,133,11)" rx="2" ry="2" />
<text  x="1136.81" y="575.5" >soffi..</text>
</g>
<g >
<title>oox::core::FastParser::parseStream (1 samples, 4.76%)</title><rect x="965.2" y="405" width="56.2" height="15.0" fill="rgb(216,220,30)" rx="2" ry="2" />
<text  x="968.24" y="415.5" >oox::..</text>
</g>
<g >
<title>lcl_GetRulingDictionaryEntry (1 samples, 4.76%)</title><rect x="1133.8" y="277" width="56.2" height="15.0" fill="rgb(239,90,33)" rx="2" ry="2" />
<text  x="1136.81" y="287.5" >lcl_G..</text>
</g>
<g >
<title>EVP_DecryptUpdate (3 samples, 14.29%)</title><rect x="740.5" y="501" width="168.5" height="15.0" fill="rgb(244,45,43)" rx="2" ry="2" />
<text  x="743.48" y="511.5" >EVP_DecryptUpdate</text>
</g>
<g >
<title>Application::Execute (1 samples, 4.76%)</title><rect x="1133.8" y="517" width="56.2" height="15.0" fill="rgb(212,105,28)" rx="2" ry="2" />
<text  x="1136.81" y="527.5" >Appli..</text>
</g>
<g >
<title>framework::LoadEnv::loadComponentFromURL (1 samples, 4.76%)</title><rect x="965.2" y="597" width="56.2" height="15.0" fill="rgb(223,92,20)" rx="2" ry="2" />
<text  x="968.24" y="607.5" >frame..</text>
</g>
<g >
<title>SwBaseShell::ExecDlg (1 samples, 4.76%)</title><rect x="1021.4" y="373" width="56.2" height="15.0" fill="rgb(250,98,52)" rx="2" ry="2" />
<text  x="1024.43" y="383.5" >SwBas..</text>
</g>
<g >
<title>Poco::SHA1Engine::updateImpl (1 samples, 4.76%)</title><rect x="10.0" y="485" width="56.2" height="15.0" fill="rgb(249,10,3)" rx="2" ry="2" />
<text  x="13.00" y="495.5" >Poco:..</text>
</g>
<g >
<title>handleUserProfileSignal (1 samples, 4.76%)</title><rect x="965.2" y="133" width="56.2" height="15.0" fill="rgb(214,189,20)" rx="2" ry="2" />
<text  x="968.24" y="143.5" >handl..</text>
</g>
<g >
<title>SfxTabDialogController::Start_Impl (1 samples, 4.76%)</title><rect x="1021.4" y="309" width="56.2" height="15.0" fill="rgb(254,71,26)" rx="2" ry="2" />
<text  x="1024.43" y="319.5" >SfxTa..</text>
</g>
<g >
<title>syscall (1 samples, 4.76%)</title><rect x="1077.6" y="325" width="56.2" height="15.0" fill="rgb(206,87,31)" rx="2" ry="2" />
<text  x="1080.62" y="335.5" >syscall</text>
</g>
<g >
<title>oox::xls::FillContext::onCreateContext (1 samples, 4.76%)</title><rect x="965.2" y="229" width="56.2" height="15.0" fill="rgb(254,23,23)" rx="2" ry="2" />
<text  x="968.24" y="239.5" >oox::..</text>
</g>
<g >
<title>_IO_funlockfile (1 samples, 4.76%)</title><rect x="1077.6" y="357" width="56.2" height="15.0" fill="rgb(229,166,15)" rx="2" ry="2" />
<text  x="1080.62" y="367.5" >_IO_f..</text>
</g>
<g >
<title>_IO_funlockfile (1 samples, 4.76%)</title><rect x="1021.4" y="69" width="56.2" height="15.0" fill="rgb(252,100,44)" rx="2" ry="2" />
<text  x="1024.43" y="79.5" >_IO_f..</text>
</g>
<g >
<title>ImpGraphic::swapIn (1 samples, 4.76%)</title><rect x="1077.6" y="485" width="56.2" height="15.0" fill="rgb(215,52,30)" rx="2" ry="2" />
<text  x="1080.62" y="495.5" >ImpGr..</text>
</g>
<g >
<title>DocumentBroker::sendHttpSyncRequest (12 samples, 57.14%)</title><rect x="66.2" y="597" width="674.3" height="15.0" fill="rgb(245,63,34)" rx="2" ry="2" />
<text  x="69.19" y="607.5" >DocumentBroker::sendHttpSyncRequest</text>
</g>
<g >
<title>oox::core::XmlFilterBase::importFragment (1 samples, 4.76%)</title><rect x="965.2" y="437" width="56.2" height="15.0" fill="rgb(208,110,11)" rx="2" ry="2" />
<text  x="968.24" y="447.5" >oox::..</text>
</g>
<g >
<title>SvxXMLXTableImport::load (1 samples, 4.76%)</title><rect x="1021.4" y="181" width="56.2" height="15.0" fill="rgb(211,11,25)" rx="2" ry="2" />
<text  x="1024.43" y="191.5" >SvxXM..</text>
</g>
<g >
<title>ImplWindowFrameProc (1 samples, 4.76%)</title><rect x="1021.4" y="437" width="56.2" height="15.0" fill="rgb(226,43,11)" rx="2" ry="2" />
<text  x="1024.43" y="447.5" >ImplW..</text>
</g>
<g >
<title>docbroker (16 samples, 76.19%)</title><rect x="10.0" y="645" width="899.0" height="15.0" fill="rgb(235,94,3)" rx="2" ry="2" />
<text  x="13.00" y="655.5" >docbroker</text>
</g>
<g >
<title>xmlParseStartTag2.constprop.0 (1 samples, 4.76%)</title><rect x="1021.4" y="101" width="56.2" height="15.0" fill="rgb(230,80,10)" rx="2" ry="2" />
<text  x="1024.43" y="111.5" >xmlPa..</text>
</g>
<g >
<title>xmlParseAttValueInternal (1 samples, 4.76%)</title><rect x="1021.4" y="85" width="56.2" height="15.0" fill="rgb(241,95,53)" rx="2" ry="2" />
<text  x="1024.43" y="95.5" >xmlPa..</text>
</g>
<g >
<title>oox::xls::ExcelFilter::importDocument (1 samples, 4.76%)</title><rect x="965.2" y="453" width="56.2" height="15.0" fill="rgb(209,127,35)" rx="2" ry="2" />
<text  x="968.24" y="463.5" >oox::..</text>
</g>
<g >
<title>soffice_main (1 samples, 4.76%)</title><rect x="1021.4" y="581" width="56.2" height="15.0" fill="rgb(217,155,2)" rx="2" ry="2" />
<text  x="1024.43" y="591.5" >soffi..</text>
</g>
<g >
<title>cppu::OWeakObject::release (1 samples, 4.76%)</title><rect x="1133.8" y="245" width="56.2" height="15.0" fill="rgb(251,91,19)" rx="2" ry="2" />
<text  x="1136.81" y="255.5" >cppu:..</text>
</g>
<g >
<title>framework::LoadEnv::start (1 samples, 4.76%)</title><rect x="965.2" y="565" width="56.2" height="15.0" fill="rgb(249,121,17)" rx="2" ry="2" />
<text  x="968.24" y="575.5" >frame..</text>
</g>
<g >
<title>WebSocketHandler::buildFrame (1 samples, 4.76%)</title><rect x="909.0" y="613" width="56.2" height="15.0" fill="rgb(247,68,48)" rx="2" ry="2" />
<text  x="912.05" y="623.5" >WebSo..</text>
</g>
<g >
<title>xmlParseChunk (1 samples, 4.76%)</title><rect x="1021.4" y="117" width="56.2" height="15.0" fill="rgb(239,172,52)" rx="2" ry="2" />
<text  x="1024.43" y="127.5" >xmlPa..</text>
</g>
<g >
<title>std::vector&lt;char, std::allocator&lt;char&gt; &gt;::_M_range_insert&lt;char const*&gt; (1 samples, 4.76%)</title><rect x="909.0" y="597" width="56.2" height="15.0" fill="rgb(225,117,18)" rx="2" ry="2" />
<text  x="912.05" y="607.5" >std::..</text>
</g>
<g >
<title>png_read_IDAT_data (1 samples, 4.76%)</title><rect x="1077.6" y="405" width="56.2" height="15.0" fill="rgb(224,7,35)" rx="2" ry="2" />
<text  x="1080.62" y="415.5" >png_r..</text>
</g>
<g >
<title>SvpSalInstance::DoYield (1 samples, 4.76%)</title><rect x="1133.8" y="485" width="56.2" height="15.0" fill="rgb(232,72,31)" rx="2" ry="2" />
<text  x="1136.81" y="495.5" >SvpSa..</text>
</g>
<g >
<title>desktop::Desktop::Main (1 samples, 4.76%)</title><rect x="1021.4" y="549" width="56.2" height="15.0" fill="rgb(251,163,16)" rx="2" ry="2" />
<text  x="1024.43" y="559.5" >deskt..</text>
</g>
<g >
<title>oox::core::XmlFilterBase::importFragment (1 samples, 4.76%)</title><rect x="965.2" y="341" width="56.2" height="15.0" fill="rgb(218,137,27)" rx="2" ry="2" />
<text  x="968.24" y="351.5" >oox::..</text>
</g>
<g >
<title>Poco::StreamCopier::copyStream (1 samples, 4.76%)</title><rect x="10.0" y="565" width="56.2" height="15.0" fill="rgb(211,134,43)" rx="2" ry="2" />
<text  x="13.00" y="575.5" >Poco:..</text>
</g>
<g >
<title>ColorListBox::CalcBestWidthRequest (1 samples, 4.76%)</title><rect x="1021.4" y="229" width="56.2" height="15.0" fill="rgb(211,42,48)" rx="2" ry="2" />
<text  x="1024.43" y="239.5" >Color..</text>
</g>
<g >
<title>Poco::BasicBufferedStreamBuf&lt;char, std::char_traits&lt;char&gt;, Poco::BufferAllocator&lt;char&gt; &gt;::overflow (1 samples, 4.76%)</title><rect x="10.0" y="517" width="56.2" height="15.0" fill="rgb(222,148,11)" rx="2" ry="2" />
<text  x="13.00" y="527.5" >Poco:..</text>
</g>
<g >
<title>syscall (1 samples, 4.76%)</title><rect x="1021.4" y="37" width="56.2" height="15.0" fill="rgb(219,9,30)" rx="2" ry="2" />
<text  x="1024.43" y="47.5" >syscall</text>
</g>
<g >
<title>ossl_gcm_stream_update (3 samples, 14.29%)</title><rect x="740.5" y="485" width="168.5" height="15.0" fill="rgb(249,217,40)" rx="2" ry="2" />
<text  x="743.48" y="495.5" >ossl_gcm_stream_update</text>
</g>
<g >
<title>oox::core::XmlFilterBase::importFragment (1 samples, 4.76%)</title><rect x="965.2" y="421" width="56.2" height="15.0" fill="rgb(252,212,35)" rx="2" ry="2" />
<text  x="968.24" y="431.5" >oox::..</text>
</g>
<g >
<title>SSL_read (3 samples, 14.29%)</title><rect x="740.5" y="581" width="168.5" height="15.0" fill="rgb(242,156,36)" rx="2" ry="2" />
<text  x="743.48" y="591.5" >SSL_read</text>
</g>
<g >
<title>syscall (1 samples, 4.76%)</title><rect x="909.0" y="533" width="56.2" height="15.0" fill="rgb(221,207,8)" rx="2" ry="2" />
<text  x="912.05" y="543.5" >syscall</text>
</g>
<g >
<title>oox::core::FastParser::parseStream (1 samples, 4.76%)</title><rect x="965.2" y="293" width="56.2" height="15.0" fill="rgb(237,210,37)" rx="2" ry="2" />
<text  x="968.24" y="303.5" >oox::..</text>
</g>
<g >
<title>DocumentBroker::getBrowserSettingSync (12 samples, 57.14%)</title><rect x="66.2" y="613" width="674.3" height="15.0" fill="rgb(216,154,15)" rx="2" ry="2" />
<text  x="69.19" y="623.5" >DocumentBroker::getBrowserSettingSync</text>
</g>
<g >
<title>SwLayIdle::DoIdleJob_ (1 samples, 4.76%)</title><rect x="1133.8" y="357" width="56.2" height="15.0" fill="rgb(216,99,21)" rx="2" ry="2" />
<text  x="1136.81" y="367.5" >SwLay..</text>
</g>
<g >
<title>lokit_main (1 samples, 4.76%)</title><rect x="1133.8" y="597" width="56.2" height="15.0" fill="rgb(230,15,30)" rx="2" ry="2" />
<text  x="1136.81" y="607.5" >lokit..</text>
</g>
<g >
<title>syscall (1 samples, 4.76%)</title><rect x="965.2" y="117" width="56.2" height="15.0" fill="rgb(209,85,54)" rx="2" ry="2" />
<text  x="968.24" y="127.5" >syscall</text>
</g>
<g >
<title>http::Session::syncRequest (12 samples, 57.14%)</title><rect x="66.2" y="565" width="674.3" height="15.0" fill="rgb(233,116,41)" rx="2" ry="2" />
<text  x="69.19" y="575.5" >http::Session::syncRequest</text>
</g>
<g >
<title>sax_fastparser::FastSaxParserImpl::parse (1 samples, 4.76%)</title><rect x="1021.4" y="133" width="56.2" height="15.0" fill="rgb(233,224,6)" rx="2" ry="2" />
<text  x="1024.43" y="143.5" >sax_f..</text>
</g>
<g >
<title>std::_Function_handler&lt;void  (1 samples, 4.76%)</title><rect x="1133.8" y="613" width="56.2" height="15.0" fill="rgb(245,101,5)" rx="2" ry="2" />
<text  x="1136.81" y="623.5" >std::..</text>
</g>
<g >
<title>SwTextFrame::AutoSpell_ (1 samples, 4.76%)</title><rect x="1133.8" y="341" width="56.2" height="15.0" fill="rgb(245,60,47)" rx="2" ry="2" />
<text  x="1136.81" y="351.5" >SwTex..</text>
</g>
<g >
<title>SvpSalInstance::DoYield (1 samples, 4.76%)</title><rect x="1021.4" y="501" width="56.2" height="15.0" fill="rgb(233,80,33)" rx="2" ry="2" />
<text  x="1024.43" y="511.5" >SvpSa..</text>
</g>
<g >
<title>GfxLink::LoadNative (1 samples, 4.76%)</title><rect x="1077.6" y="469" width="56.2" height="15.0" fill="rgb(211,176,12)" rx="2" ry="2" />
<text  x="1080.62" y="479.5" >GfxLi..</text>
</g>
<g >
<title>framework::Desktop::loadComponentFromURL (1 samples, 4.76%)</title><rect x="965.2" y="613" width="56.2" height="15.0" fill="rgb(250,41,27)" rx="2" ry="2" />
<text  x="968.24" y="623.5" >frame..</text>
</g>
<g >
<title>ssl3_get_record (3 samples, 14.29%)</title><rect x="740.5" y="533" width="168.5" height="15.0" fill="rgb(242,197,48)" rx="2" ry="2" />
<text  x="743.48" y="543.5" >ssl3_get_record</text>
</g>
<g >
<title>oox::core::ContextHandler2::createFastChildContext (1 samples, 4.76%)</title><rect x="965.2" y="261" width="56.2" height="15.0" fill="rgb(247,211,25)" rx="2" ry="2" />
<text  x="968.24" y="271.5" >oox::..</text>
</g>
<g >
<title>SfxDispatcher::PostMsgHandler (1 samples, 4.76%)</title><rect x="1021.4" y="405" width="56.2" height="15.0" fill="rgb(228,94,23)" rx="2" ry="2" />
<text  x="1024.43" y="415.5" >SfxDi..</text>
</g>
<g >
<title>Scheduler::CallbackTaskScheduling (1 samples, 4.76%)</title><rect x="1133.8" y="437" width="56.2" height="15.0" fill="rgb(226,125,49)" rx="2" ry="2" />
<text  x="1136.81" y="447.5" >Sched..</text>
</g>
<g >
<title>framework::LoadEnv::impl_loadContent (1 samples, 4.76%)</title><rect x="965.2" y="549" width="56.2" height="15.0" fill="rgb(207,56,9)" rx="2" ry="2" />
<text  x="968.24" y="559.5" >frame..</text>
</g>
<g >
<title>sdr::contact::ViewObjectContact::getPrimitive2DSequence (1 samples, 4.76%)</title><rect x="1077.6" y="613" width="56.2" height="15.0" fill="rgb(216,32,18)" rx="2" ry="2" />
<text  x="1080.62" y="623.5" >sdr::..</text>
</g>
<g >
<title>GraphicFilter::readPNG (1 samples, 4.76%)</title><rect x="1077.6" y="437" width="56.2" height="15.0" fill="rgb(244,26,23)" rx="2" ry="2" />
<text  x="1080.62" y="447.5" >Graph..</text>
</g>
<g >
<title>XPropertyList::Load (1 samples, 4.76%)</title><rect x="1021.4" y="197" width="56.2" height="15.0" fill="rgb(241,206,9)" rx="2" ry="2" />
<text  x="1024.43" y="207.5" >XProp..</text>
</g>
<g >
<title>drawinglayer::primitive2d::BufferedDecompositionPrimitive2D::get2DDecomposition (1 samples, 4.76%)</title><rect x="1077.6" y="565" width="56.2" height="15.0" fill="rgb(223,218,23)" rx="2" ry="2" />
<text  x="1080.62" y="575.5" >drawi..</text>
</g>
<g >
<title>AES_encrypt (3 samples, 14.29%)</title><rect x="740.5" y="437" width="168.5" height="15.0" fill="rgb(215,40,9)" rx="2" ry="2" />
<text  x="743.48" y="447.5" >AES_encrypt</text>
</g>
<g >
<title>ssl3_read_bytes (3 samples, 14.29%)</title><rect x="740.5" y="549" width="168.5" height="15.0" fill="rgb(253,126,34)" rx="2" ry="2" />
<text  x="743.48" y="559.5" >ssl3_read_bytes</text>
</g>
<g >
<title>SwLayIdle::SwLayIdle (1 samples, 4.76%)</title><rect x="1133.8" y="389" width="56.2" height="15.0" fill="rgb(242,124,18)" rx="2" ry="2" />
<text  x="1136.81" y="399.5" >SwLay..</text>
</g>
<g >
<title>drawinglayer::primitive2d::GraphicPrimitive2D::create2DDecomposition (1 samples, 4.76%)</title><rect x="1077.6" y="549" width="56.2" height="15.0" fill="rgb(223,89,45)" rx="2" ry="2" />
<text  x="1080.62" y="559.5" >drawi..</text>
</g>
<g >
<title>oox::core::FilterBase::filter (1 samples, 4.76%)</title><rect x="965.2" y="469" width="56.2" height="15.0" fill="rgb(208,103,3)" rx="2" ry="2" />
<text  x="968.24" y="479.5" >oox::..</text>
</g>
<g >
<title>handleUserProfileSignal (1 samples, 4.76%)</title><rect x="909.0" y="549" width="56.2" height="15.0" fill="rgb(228,170,10)" rx="2" ry="2" />
<text  x="912.05" y="559.5" >handl..</text>
</g>
<g >
<title>SfxObjectShell::DoLoad (1 samples, 4.76%)</title><rect x="965.2" y="517" width="56.2" height="15.0" fill="rgb(212,5,39)" rx="2" ry="2" />
<text  x="968.24" y="527.5" >SfxOb..</text>
</g>
<g >
<title>inflateBackEnd (1 samples, 4.76%)</title><rect x="1077.6" y="373" width="56.2" height="15.0" fill="rgb(248,30,17)" rx="2" ry="2" />
<text  x="1080.62" y="383.5" >infla..</text>
</g>
<g >
<title>InnerYield (1 samples, 4.76%)</title><rect x="1021.4" y="517" width="56.2" height="15.0" fill="rgb(217,219,1)" rx="2" ry="2" />
<text  x="1024.43" y="527.5" >Inner..</text>
</g>
<g >
<title>handleUserProfileSignal (3 samples, 14.29%)</title><rect x="740.5" y="405" width="168.5" height="15.0" fill="rgb(223,193,26)" rx="2" ry="2" />
<text  x="743.48" y="415.5" >handleUserProfileSignal</text>
</g>
<g >
<title>sw::DocumentTimerManager::DoIdleJobs (1 samples, 4.76%)</title><rect x="1133.8" y="421" width="56.2" height="15.0" fill="rgb(251,167,0)" rx="2" ry="2" />
<text  x="1136.81" y="431.5" >sw::D..</text>
</g>
<g >
<title>handleUserProfileSignal (1 samples, 4.76%)</title><rect x="1021.4" y="53" width="56.2" height="15.0" fill="rgb(239,15,32)" rx="2" ry="2" />
<text  x="1024.43" y="63.5" >handl..</text>
</g>
<g >
<title>malloc (1 samples, 4.76%)</title><rect x="965.2" y="181" width="56.2" height="15.0" fill="rgb(212,58,17)" rx="2" ry="2" />
<text  x="968.24" y="191.5" >malloc</text>
</g>
<g >
<title>_IO_funlockfile (1 samples, 4.76%)</title><rect x="965.2" y="149" width="56.2" height="15.0" fill="rgb(231,184,49)" rx="2" ry="2" />
<text  x="968.24" y="159.5" >_IO_f..</text>
</g>
<g >
<title>SfxTabDialogController::runAsync (1 samples, 4.76%)</title><rect x="1021.4" y="325" width="56.2" height="15.0" fill="rgb(227,165,45)" rx="2" ry="2" />
<text  x="1024.43" y="335.5" >SfxTa..</text>
</g>
<g >
<title>tls13_enc (3 samples, 14.29%)</title><rect x="740.5" y="517" width="168.5" height="15.0" fill="rgb(229,211,25)" rx="2" ry="2" />
<text  x="743.48" y="527.5" >tls13_enc</text>
</g>
<g >
<title>all (21 samples, 100%)</title><rect x="10.0" y="661" width="1180.0" height="15.0" fill="rgb(216,176,38)" rx="2" ry="2" />
<text  x="13.00" y="671.5" ></text>
</g>
<g >
<title>handleUserProfileSignal (1 samples, 4.76%)</title><rect x="10.0" y="437" width="56.2" height="15.0" fill="rgb(222,34,49)" rx="2" ry="2" />
<text  x="13.00" y="447.5" >handl..</text>
</g>
<g >
<title>_IO_funlockfile (1 samples, 4.76%)</title><rect x="10.0" y="453" width="56.2" height="15.0" fill="rgb(218,184,15)" rx="2" ry="2" />
<text  x="13.00" y="463.5" >_IO_f..</text>
</g>
<g >
<title>lokit_main (1 samples, 4.76%)</title><rect x="1021.4" y="613" width="56.2" height="15.0" fill="rgb(219,211,8)" rx="2" ry="2" />
<text  x="1024.43" y="623.5" >lokit..</text>
</g>
<g >
<title>StreamSocket::readIncomingData (3 samples, 14.29%)</title><rect x="740.5" y="613" width="168.5" height="15.0" fill="rgb(252,116,35)" rx="2" ry="2" />
<text  x="743.48" y="623.5" >StreamSocket::readInc..</text>
</g>
<g >
<title>std::basic_streambuf&lt;char, std::char_traits&lt;char&gt; &gt;::xsputn (1 samples, 4.76%)</title><rect x="10.0" y="533" width="56.2" height="15.0" fill="rgb(207,189,37)" rx="2" ry="2" />
<text  x="13.00" y="543.5" >std::..</text>
</g>
<g >
<title>sax_fastparser::FastSaxParserImpl::parseStream (1 samples, 4.76%)</title><rect x="965.2" y="277" width="56.2" height="15.0" fill="rgb(235,227,39)" rx="2" ry="2" />
<text  x="968.24" y="287.5" >sax_f..</text>
</g>
<g >
<title>SwFootNotePage::Create (1 samples, 4.76%)</title><rect x="1021.4" y="277" width="56.2" height="15.0" fill="rgb(230,147,21)" rx="2" ry="2" />
<text  x="1024.43" y="287.5" >SwFoo..</text>
</g>
<g >
<title>_IO_funlockfile (12 samples, 57.14%)</title><rect x="66.2" y="517" width="674.3" height="15.0" fill="rgb(249,213,12)" rx="2" ry="2" />
<text  x="69.19" y="527.5" >_IO_funlockfile</text>
</g>
<g >
<title>oox::xls::Fill::importPatternFill (1 samples, 4.76%)</title><rect x="965.2" y="213" width="56.2" height="15.0" fill="rgb(221,174,48)" rx="2" ry="2" />
<text  x="968.24" y="223.5" >oox::..</text>
</g>
<g >
<title>std::ostream::write (1 samples, 4.76%)</title><rect x="10.0" y="549" width="56.2" height="15.0" fill="rgb(218,19,26)" rx="2" ry="2" />
<text  x="13.00" y="559.5" >std::..</text>
</g>
<g >
<title>SpellCheckerDispatcher::isValid_Impl (1 samples, 4.76%)</title><rect x="1133.8" y="293" width="56.2" height="15.0" fill="rgb(252,44,26)" rx="2" ry="2" />
<text  x="1136.81" y="303.5" >Spell..</text>
</g>
<g >
<title>lo_runLoop (1 samples, 4.76%)</title><rect x="1133.8" y="581" width="56.2" height="15.0" fill="rgb(233,208,34)" rx="2" ry="2" />
<text  x="1136.81" y="591.5" >lo_ru..</text>
</g>
<g >
<title>XPropertyList::Count (1 samples, 4.76%)</title><rect x="1021.4" y="213" width="56.2" height="15.0" fill="rgb(215,62,32)" rx="2" ry="2" />
<text  x="1024.43" y="223.5" >XProp..</text>
</g>
<g >
<title>png_read_row (1 samples, 4.76%)</title><rect x="1077.6" y="421" width="56.2" height="15.0" fill="rgb(248,211,50)" rx="2" ry="2" />
<text  x="1080.62" y="431.5" >png_r..</text>
</g>
<g >
<title>SalUserEventList::DispatchUserEvents (1 samples, 4.76%)</title><rect x="1021.4" y="469" width="56.2" height="15.0" fill="rgb(212,184,54)" rx="2" ry="2" />
<text  x="1024.43" y="479.5" >SalUs..</text>
</g>
<g >
<title>[unknown] (16 samples, 76.19%)</title><rect x="10.0" y="629" width="899.0" height="15.0" fill="rgb(214,37,26)" rx="2" ry="2" />
<text  x="13.00" y="639.5" >[unknown]</text>
</g>
<g >
<title>desktop::Desktop::Main (1 samples, 4.76%)</title><rect x="1133.8" y="533" width="56.2" height="15.0" fill="rgb(212,225,7)" rx="2" ry="2" />
<text  x="1136.81" y="543.5" >deskt..</text>
</g>
<g >
<title>SfxObjectShell::ImportFrom (1 samples, 4.76%)</title><rect x="965.2" y="501" width="56.2" height="15.0" fill="rgb(254,21,13)" rx="2" ry="2" />
<text  x="968.24" y="511.5" >SfxOb..</text>
</g>
<g >
<title>SfxDispatcher::Call_Impl (1 samples, 4.76%)</title><rect x="1021.4" y="389" width="56.2" height="15.0" fill="rgb(223,87,6)" rx="2" ry="2" />
<text  x="1024.43" y="399.5" >SfxDi..</text>
</g>
<g >
<title>oox::core::ContextHandler2Helper::implCreateChildContext (1 samples, 4.76%)</title><rect x="965.2" y="245" width="56.2" height="15.0" fill="rgb(223,178,5)" rx="2" ry="2" />
<text  x="968.24" y="255.5" >oox::..</text>
</g>
<g >
<title>operator new (1 samples, 4.76%)</title><rect x="965.2" y="197" width="56.2" height="15.0" fill="rgb(226,10,3)" rx="2" ry="2" />
<text  x="968.24" y="207.5" >opera..</text>
</g>
<g >
<title>ColorListBox::ColorListBox (1 samples, 4.76%)</title><rect x="1021.4" y="245" width="56.2" height="15.0" fill="rgb(209,206,43)" rx="2" ry="2" />
<text  x="1024.43" y="255.5" >Color..</text>
</g>
<g >
<title>handleUserProfileSignal (12 samples, 57.14%)</title><rect x="66.2" y="501" width="674.3" height="15.0" fill="rgb(228,135,9)" rx="2" ry="2" />
<text  x="69.19" y="511.5" >handleUserProfileSignal</text>
</g>
<g >
<title>_IO_funlockfile (1 samples, 4.76%)</title><rect x="1133.8" y="229" width="56.2" height="15.0" fill="rgb(229,225,4)" rx="2" ry="2" />
<text  x="1136.81" y="239.5" >_IO_f..</text>
</g>
<g >
<title>SocketPoll::poll (12 samples, 57.14%)</title><rect x="66.2" y="549" width="674.3" height="15.0" fill="rgb(234,111,51)" rx="2" ry="2" />
<text  x="69.19" y="559.5" >SocketPoll::poll</text>
</g>
<g >
<title>_IO_funlockfile (1 samples, 4.76%)</title><rect x="909.0" y="565" width="56.2" height="15.0" fill="rgb(252,52,54)" rx="2" ry="2" />
<text  x="912.05" y="575.5" >_IO_f..</text>
</g>
<g >
<title>SvpSalInstance::ImplYield (1 samples, 4.76%)</title><rect x="1133.8" y="469" width="56.2" height="15.0" fill="rgb(236,84,34)" rx="2" ry="2" />
<text  x="1136.81" y="479.5" >SvpSa..</text>
</g>
<g >
<title>ImpGraphic::getVectorGraphicData (1 samples, 4.76%)</title><rect x="1077.6" y="517" width="56.2" height="15.0" fill="rgb(228,6,7)" rx="2" ry="2" />
<text  x="1080.62" y="527.5" >ImpGr..</text>
</g>
<g >
<title>DocumentBroker::doDownloadDocument (1 samples, 4.76%)</title><rect x="10.0" y="581" width="56.2" height="15.0" fill="rgb(230,156,1)" rx="2" ry="2" />
<text  x="13.00" y="591.5" >Docum..</text>
</g>
<g >
<title>SwDocShell::FormatPage (1 samples, 4.76%)</title><rect x="1021.4" y="357" width="56.2" height="15.0" fill="rgb(253,200,2)" rx="2" ry="2" />
<text  x="1024.43" y="367.5" >SwDoc..</text>
</g>
<g >
<title>SvpSalInstance::CheckTimeout (1 samples, 4.76%)</title><rect x="1133.8" y="453" width="56.2" height="15.0" fill="rgb(236,79,23)" rx="2" ry="2" />
<text  x="1136.81" y="463.5" >SvpSa..</text>
</g>
<g >
<title>oox::core::XmlFilterBase::importFragment (1 samples, 4.76%)</title><rect x="965.2" y="325" width="56.2" height="15.0" fill="rgb(228,62,15)" rx="2" ry="2" />
<text  x="968.24" y="335.5" >oox::..</text>
</g>
<g >
<title>DocumentBroker::download (1 samples, 4.76%)</title><rect x="10.0" y="597" width="56.2" height="15.0" fill="rgb(207,225,39)" rx="2" ry="2" />
<text  x="13.00" y="607.5" >Docum..</text>
</g>
<g >
<title>SvpSalInstance::ProcessEvent (1 samples, 4.76%)</title><rect x="1021.4" y="453" width="56.2" height="15.0" fill="rgb(222,159,18)" rx="2" ry="2" />
<text  x="1024.43" y="463.5" >SvpSa..</text>
</g>
<g >
<title>CRYPTO_gcm128_decrypt (3 samples, 14.29%)</title><rect x="740.5" y="453" width="168.5" height="15.0" fill="rgb(218,14,30)" rx="2" ry="2" />
<text  x="743.48" y="463.5" >CRYPTO_gcm128_decrypt</text>
</g>
<g >
<title>linguistic::GetIgnoreAllList (1 samples, 4.76%)</title><rect x="1133.8" y="261" width="56.2" height="15.0" fill="rgb(243,182,15)" rx="2" ry="2" />
<text  x="1136.81" y="271.5" >lingu..</text>
</g>
<g >
<title>[unknown] (5 samples, 23.81%)</title><rect x="909.0" y="629" width="281.0" height="15.0" fill="rgb(236,97,7)" rx="2" ry="2" />
<text  x="912.05" y="639.5" >[unknown]</text>
</g>
<g >
<title>syscall (1 samples, 4.76%)</title><rect x="10.0" y="421" width="56.2" height="15.0" fill="rgb(207,209,10)" rx="2" ry="2" />
<text  x="13.00" y="431.5" >syscall</text>
</g>
<g >
<title>SvXMLImport::parseStream (1 samples, 4.76%)</title><rect x="1021.4" y="165" width="56.2" height="15.0" fill="rgb(237,95,51)" rx="2" ry="2" />
<text  x="1024.43" y="175.5" >SvXML..</text>
</g>
<g >
<title>generic_aes_gcm_cipher_update (3 samples, 14.29%)</title><rect x="740.5" y="469" width="168.5" height="15.0" fill="rgb(236,116,9)" rx="2" ry="2" />
<text  x="743.48" y="479.5" >generic_aes_gcm_ciphe..</text>
</g>
<g >
<title>SwDocShell::Edit (1 samples, 4.76%)</title><rect x="1021.4" y="341" width="56.2" height="15.0" fill="rgb(244,67,53)" rx="2" ry="2" />
<text  x="1024.43" y="351.5" >SwDoc..</text>
</g>
<g >
<title>SpellCheckerDispatcher::isValid (1 samples, 4.76%)</title><rect x="1133.8" y="325" width="56.2" height="15.0" fill="rgb(246,53,1)" rx="2" ry="2" />
<text  x="1136.81" y="335.5" >Spell..</text>
</g>
<g >
<title>handleUserProfileSignal (1 samples, 4.76%)</title><rect x="1133.8" y="213" width="56.2" height="15.0" fill="rgb(234,64,41)" rx="2" ry="2" />
<text  x="1136.81" y="223.5" >handl..</text>
</g>
<g >
<title>inflate (1 samples, 4.76%)</title><rect x="1077.6" y="389" width="56.2" height="15.0" fill="rgb(230,16,11)" rx="2" ry="2" />
<text  x="1080.62" y="399.5" >inflate</text>
</g>
<g >
<title>SfxHintPoster::DoEvent_Impl (1 samples, 4.76%)</title><rect x="1021.4" y="421" width="56.2" height="15.0" fill="rgb(239,223,8)" rx="2" ry="2" />
<text  x="1024.43" y="431.5" >SfxHi..</text>
</g>
<g >
<title>SfxBaseModel::load (1 samples, 4.76%)</title><rect x="965.2" y="533" width="56.2" height="15.0" fill="rgb(238,45,15)" rx="2" ry="2" />
<text  x="968.24" y="543.5" >SfxBa..</text>
</g>
<g >
<title>sax_fastparser::FastSaxParserImpl::parseStream (1 samples, 4.76%)</title><rect x="965.2" y="373" width="56.2" height="15.0" fill="rgb(222,4,42)" rx="2" ry="2" />
<text  x="968.24" y="383.5" >sax_f..</text>
</g>
<g >
<title>SwViewShell::LayoutIdle (1 samples, 4.76%)</title><rect x="1133.8" y="405" width="56.2" height="15.0" fill="rgb(240,12,50)" rx="2" ry="2" />
<text  x="1136.81" y="415.5" >SwVie..</text>
</g>
<g >
<title>http::Session::syncRequest (12 samples, 57.14%)</title><rect x="66.2" y="581" width="674.3" height="15.0" fill="rgb(252,177,22)" rx="2" ry="2" />
<text  x="69.19" y="591.5" >http::Session::syncRequest</text>
</g>
<g >
<title>Application::Execute (1 samples, 4.76%)</title><rect x="1021.4" y="533" width="56.2" height="15.0" fill="rgb(225,185,10)" rx="2" ry="2" />
<text  x="1024.43" y="543.5" >Appli..</text>
</g>
<g >
<title>ImplSVMain (1 samples, 4.76%)</title><rect x="1021.4" y="565" width="56.2" height="15.0" fill="rgb(243,99,39)" rx="2" ry="2" />
<text  x="1024.43" y="575.5" >ImplS..</text>
</g>
<g >
<title>ImplSVMain (1 samples, 4.76%)</title><rect x="1133.8" y="549" width="56.2" height="15.0" fill="rgb(253,9,45)" rx="2" ry="2" />
<text  x="1136.81" y="559.5" >ImplS..</text>
</g>
<g >
<title>SpellCheckerDispatcher::isValid (1 samples, 4.76%)</title><rect x="1133.8" y="309" width="56.2" height="15.0" fill="rgb(227,73,51)" rx="2" ry="2" />
<text  x="1136.81" y="319.5" >Spell..</text>
</g>
<g >
<title>SvpSalInstance::ImplYield (1 samples, 4.76%)</title><rect x="1021.4" y="485" width="56.2" height="15.0" fill="rgb(238,31,20)" rx="2" ry="2" />
<text  x="1024.43" y="495.5" >SvpSa..</text>
</g>
<g >
<title>oox::core::FastParser::parseStream (1 samples, 4.76%)</title><rect x="965.2" y="309" width="56.2" height="15.0" fill="rgb(213,70,13)" rx="2" ry="2" />
<text  x="968.24" y="319.5" >oox::..</text>
</g>
<g >
<title>DocumentBroker::addSession (1 samples, 4.76%)</title><rect x="10.0" y="613" width="56.2" height="15.0" fill="rgb(207,164,23)" rx="2" ry="2" />
<text  x="13.00" y="623.5" >Docum..</text>
</g>
<g >
<title>InnerYield (1 samples, 4.76%)</title><rect x="1133.8" y="501" width="56.2" height="15.0" fill="rgb(216,207,46)" rx="2" ry="2" />
<text  x="1136.81" y="511.5" >Inner..</text>
</g>
<g >
<title>Poco::DigestBuf::writeToDevice (1 samples, 4.76%)</title><rect x="10.0" y="501" width="56.2" height="15.0" fill="rgb(230,218,10)" rx="2" ry="2" />
<text  x="13.00" y="511.5" >Poco:..</text>
</g>
<g >
<title>handleUserProfileSignal (1 samples, 4.76%)</title><rect x="1077.6" y="341" width="56.2" height="15.0" fill="rgb(227,63,34)" rx="2" ry="2" />
<text  x="1080.62" y="351.5" >handl..</text>
</g>
<g >
<title>drawinglayer::processor2d::BaseProcessor2D::process (1 samples, 4.76%)</title><rect x="1077.6" y="581" width="56.2" height="15.0" fill="rgb(234,42,9)" rx="2" ry="2" />
<text  x="1080.62" y="591.5" >drawi..</text>
</g>
<g >
<title>ssl3_read (3 samples, 14.29%)</title><rect x="740.5" y="565" width="168.5" height="15.0" fill="rgb(205,49,40)" rx="2" ry="2" />
<text  x="743.48" y="575.5" >ssl3_read</text>
</g>
<g >
<title>oox::xls::ExcelFilter::filter (1 samples, 4.76%)</title><rect x="965.2" y="485" width="56.2" height="15.0" fill="rgb(250,26,22)" rx="2" ry="2" />
<text  x="968.24" y="495.5" >oox::..</text>
</g>
<g >
<title>SwFootNotePage::SwFootNotePage (1 samples, 4.76%)</title><rect x="1021.4" y="261" width="56.2" height="15.0" fill="rgb(250,201,51)" rx="2" ry="2" />
<text  x="1024.43" y="271.5" >SwFoo..</text>
</g>
<g >
<title>SwLayIdle::DoIdleJob (1 samples, 4.76%)</title><rect x="1133.8" y="373" width="56.2" height="15.0" fill="rgb(221,60,26)" rx="2" ry="2" />
<text  x="1136.81" y="383.5" >SwLay..</text>
</g>
<g >
<title>syscall (1 samples, 4.76%)</title><rect x="1133.8" y="197" width="56.2" height="15.0" fill="rgb(221,70,4)" rx="2" ry="2" />
<text  x="1136.81" y="207.5" >syscall</text>
</g>
<g >
<title>__memcpy_avx_unaligned_erms (1 samples, 4.76%)</title><rect x="909.0" y="581" width="56.2" height="15.0" fill="rgb(210,68,15)" rx="2" ry="2" />
<text  x="912.05" y="591.5" >__mem..</text>
</g>
<g >
<title>Poco::SHA1Engine::transform (1 samples, 4.76%)</title><rect x="10.0" y="469" width="56.2" height="15.0" fill="rgb(249,139,53)" rx="2" ry="2" />
<text  x="13.00" y="479.5" >Poco:..</text>
</g>
<g >
<title>oox::xls::WorkbookFragment::finalizeImport (1 samples, 4.76%)</title><rect x="965.2" y="357" width="56.2" height="15.0" fill="rgb(252,79,37)" rx="2" ry="2" />
<text  x="968.24" y="367.5" >oox::..</text>
</g>
<g >
<title>sdr::contact::ViewObjectContact::checkForPrimitive2DAnimations (1 samples, 4.76%)</title><rect x="1077.6" y="597" width="56.2" height="15.0" fill="rgb(220,209,2)" rx="2" ry="2" />
<text  x="1080.62" y="607.5" >sdr::..</text>
</g>
<g >
<title>SslStreamSocket::readData (3 samples, 14.29%)</title><rect x="740.5" y="597" width="168.5" height="15.0" fill="rgb(242,83,25)" rx="2" ry="2" />
<text  x="743.48" y="607.5" >SslStreamSocket::read..</text>
</g>
<g >
<title>drawinglayer::primitive2d::create2DDecompositionOfGraphic (1 samples, 4.76%)</title><rect x="1077.6" y="533" width="56.2" height="15.0" fill="rgb(215,143,7)" rx="2" ry="2" />
<text  x="1080.62" y="543.5" >drawi..</text>
</g>
<g >
<title>syscall (12 samples, 57.14%)</title><rect x="66.2" y="485" width="674.3" height="15.0" fill="rgb(254,57,19)" rx="2" ry="2" />
<text  x="69.19" y="495.5" >syscall</text>
</g>
<g >
<title>syscall (3 samples, 14.29%)</title><rect x="740.5" y="389" width="168.5" height="15.0" fill="rgb(245,140,44)" rx="2" ry="2" />
<text  x="743.48" y="399.5" >syscall</text>
</g>
<g >
<title>oox::core::FastParser::parseStream (1 samples, 4.76%)</title><rect x="965.2" y="389" width="56.2" height="15.0" fill="rgb(220,134,13)" rx="2" ry="2" />
<text  x="968.24" y="399.5" >oox::..</text>
</g>
<g >
<title>kitbroker (5 samples, 23.81%)</title><rect x="909.0" y="645" width="281.0" height="15.0" fill="rgb(254,115,26)" rx="2" ry="2" />
<text  x="912.05" y="655.5" >kitbroker</text>
</g>
<g >
<title>ppoll (12 samples, 57.14%)</title><rect x="66.2" y="533" width="674.3" height="15.0" fill="rgb(247,13,10)" rx="2" ry="2" />
<text  x="69.19" y="543.5" >ppoll</text>
</g>
<g >
<title>SfxTabDialogController::CreatePages (1 samples, 4.76%)</title><rect x="1021.4" y="293" width="56.2" height="15.0" fill="rgb(221,85,40)" rx="2" ry="2" />
<text  x="1024.43" y="303.5" >SfxTa..</text>
</g>
<g >
<title>_int_malloc (1 samples, 4.76%)</title><rect x="965.2" y="165" width="56.2" height="15.0" fill="rgb(218,90,37)" rx="2" ry="2" />
<text  x="968.24" y="175.5" >_int_..</text>
</g>
<g >
<title>lo_runLoop (1 samples, 4.76%)</title><rect x="1021.4" y="597" width="56.2" height="15.0" fill="rgb(207,156,8)" rx="2" ry="2" />
<text  x="1024.43" y="607.5" >lo_ru..</text>
</g>
</g>
</svg>
