<?xml version="1.0" standalone="no"?>
<!DOCTYPE svg PUBLIC "-//W3C//DTD SVG 1.1//EN" "http://www.w3.org/Graphics/SVG/1.1/DTD/svg11.dtd">
<svg version="1.1" width="1200" height="646" onload="init(evt)" viewBox="0 0 1200 646" xmlns="http://www.w3.org/2000/svg" xmlns:xlink="http://www.w3.org/1999/xlink">
<!-- Flame graph stack visualization. See https://github.com/brendangregg/FlameGraph for latest version, and http://www.brendangregg.com/flamegraphs.html for examples. -->
<!-- NOTES:  -->
<defs>
	<linearGradient id="background" y1="0" y2="1" x1="0" x2="0" >
		<stop stop-color="#eeeeee" offset="5%" />
		<stop stop-color="#eeeeb0" offset="95%" />
	</linearGradient>
</defs>
<style type="text/css">
	text { font-family:Verdana; font-size:12px; fill:rgb(0,0,0); }
	#search, #ignorecase { opacity:0.1; cursor:pointer; }
	#search:hover, #search.show, #ignorecase:hover, #ignorecase.show { opacity:1; }
	#subtitle { text-anchor:middle; font-color:rgb(160,160,160); }
	#title { text-anchor:middle; font-size:17px}
	#unzoom { cursor:pointer; }
	#frames > *:hover { stroke:black; stroke-width:0.5; cursor:pointer; }
	.hide { display:none; }
	.parent { opacity:0.5; }
</style>
<script type="text/ecmascript">
<![CDATA[
	"use strict";
	var details, searchbtn, unzoombtn, matchedtxt, svg, searching, currentSearchTerm, ignorecase, ignorecaseBtn;
	function init(evt) {
		details = document.getElementById("details").firstChild;
		searchbtn = document.getElementById("search");
		ignorecaseBtn = document.getElementById("ignorecase");
		unzoombtn = document.getElementById("unzoom");
		matchedtxt = document.getElementById("matched");
		svg = document.getElementsByTagName("svg")[0];
		searching = 0;
		currentSearchTerm = null;

		// use GET parameters to restore a flamegraphs state.
		var params = get_params();
		if (params.x && params.y)
			zoom(find_group(document.querySelector('[x="' + params.x + '"][y="' + params.y + '"]')));
                if (params.s) search(params.s);
	}

	// event listeners
	window.addEventListener("click", function(e) {
		var target = find_group(e.target);
		if (target) {
			if (target.nodeName == "a") {
				if (e.ctrlKey === false) return;
				e.preventDefault();
			}
			if (target.classList.contains("parent")) unzoom(true);
			zoom(target);
			if (!document.querySelector('.parent')) {
				// we have basically done a clearzoom so clear the url
				var params = get_params();
				if (params.x) delete params.x;
				if (params.y) delete params.y;
				history.replaceState(null, null, parse_params(params));
				unzoombtn.classList.add("hide");
				return;
			}

			// set parameters for zoom state
			var el = target.querySelector("rect");
			if (el && el.attributes && el.attributes.y && el.attributes._orig_x) {
				var params = get_params()
				params.x = el.attributes._orig_x.value;
				params.y = el.attributes.y.value;
				history.replaceState(null, null, parse_params(params));
			}
		}
		else if (e.target.id == "unzoom") clearzoom();
		else if (e.target.id == "search") search_prompt();
		else if (e.target.id == "ignorecase") toggle_ignorecase();
	}, false)

	// mouse-over for info
	// show
	window.addEventListener("mouseover", function(e) {
		var target = find_group(e.target);
		if (target) details.nodeValue = "Function: " + g_to_text(target);
	}, false)

	// clear
	window.addEventListener("mouseout", function(e) {
		var target = find_group(e.target);
		if (target) details.nodeValue = ' ';
	}, false)

	// ctrl-F for search
	// ctrl-I to toggle case-sensitive search
	window.addEventListener("keydown",function (e) {
		if (e.keyCode === 114 || (e.ctrlKey && e.keyCode === 70)) {
			e.preventDefault();
			search_prompt();
		}
		else if (e.ctrlKey && e.keyCode === 73) {
			e.preventDefault();
			toggle_ignorecase();
		}
	}, false)

	// functions
	function get_params() {
		var params = {};
		var paramsarr = window.location.search.substr(1).split('&');
		for (var i = 0; i < paramsarr.length; ++i) {
			var tmp = paramsarr[i].split("=");
			if (!tmp[0] || !tmp[1]) continue;
			params[tmp[0]]  = decodeURIComponent(tmp[1]);
		}
		return params;
	}
	function parse_params(params) {
		var uri = "?";
		for (var key in params) {
			uri += key + '=' + encodeURIComponent(params[key]) + '&';
		}
		if (uri.slice(-1) == "&")
			uri = uri.substring(0, uri.length - 1);
		if (uri == '?')
			uri = window.location.href.split('?')[0];
		return uri;
	}
	function find_child(node, selector) {
		var children = node.querySelectorAll(selector);
		if (children.length) return children[0];
	}
	function find_group(node) {
		var parent = node.parentElement;
		if (!parent) return;
		if (parent.id == "frames") return node;
		return find_group(parent);
	}
	function orig_save(e, attr, val) {
		if (e.attributes["_orig_" + attr] != undefined) return;
		if (e.attributes[attr] == undefined) return;
		if (val == undefined) val = e.attributes[attr].value;
		e.setAttribute("_orig_" + attr, val);
	}
	function orig_load(e, attr) {
		if (e.attributes["_orig_"+attr] == undefined) return;
		e.attributes[attr].value = e.attributes["_orig_" + attr].value;
		e.removeAttribute("_orig_"+attr);
	}
	function g_to_text(e) {
		var text = find_child(e, "title").firstChild.nodeValue;
		return (text)
	}
	function g_to_func(e) {
		var func = g_to_text(e);
		// if there's any manipulation we want to do to the function
		// name before it's searched, do it here before returning.
		return (func);
	}
	function update_text(e) {
		var r = find_child(e, "rect");
		var t = find_child(e, "text");
		var w = parseFloat(r.attributes.width.value) -3;
		var txt = find_child(e, "title").textContent.replace(/\([^(]*\)$/,"");
		t.attributes.x.value = parseFloat(r.attributes.x.value) + 3;

		// Smaller than this size won't fit anything
		if (w < 2 * 12 * 0.59) {
			t.textContent = "";
			return;
		}

		t.textContent = txt;
		var sl = t.getSubStringLength(0, txt.length);
		// check if only whitespace or if we can fit the entire string into width w
		if (/^ *$/.test(txt) || sl < w)
			return;

		// this isn't perfect, but gives a good starting point
		// and avoids calling getSubStringLength too often
		var start = Math.floor((w/sl) * txt.length);
		for (var x = start; x > 0; x = x-2) {
			if (t.getSubStringLength(0, x + 2) <= w) {
				t.textContent = txt.substring(0, x) + "..";
				return;
			}
		}
		t.textContent = "";
	}

	// zoom
	function zoom_reset(e) {
		if (e.attributes != undefined) {
			orig_load(e, "x");
			orig_load(e, "width");
		}
		if (e.childNodes == undefined) return;
		for (var i = 0, c = e.childNodes; i < c.length; i++) {
			zoom_reset(c[i]);
		}
	}
	function zoom_child(e, x, ratio) {
		if (e.attributes != undefined) {
			if (e.attributes.x != undefined) {
				orig_save(e, "x");
				e.attributes.x.value = (parseFloat(e.attributes.x.value) - x - 10) * ratio + 10;
				if (e.tagName == "text")
					e.attributes.x.value = find_child(e.parentNode, "rect[x]").attributes.x.value + 3;
			}
			if (e.attributes.width != undefined) {
				orig_save(e, "width");
				e.attributes.width.value = parseFloat(e.attributes.width.value) * ratio;
			}
		}

		if (e.childNodes == undefined) return;
		for (var i = 0, c = e.childNodes; i < c.length; i++) {
			zoom_child(c[i], x - 10, ratio);
		}
	}
	function zoom_parent(e) {
		if (e.attributes) {
			if (e.attributes.x != undefined) {
				orig_save(e, "x");
				e.attributes.x.value = 10;
			}
			if (e.attributes.width != undefined) {
				orig_save(e, "width");
				e.attributes.width.value = parseInt(svg.width.baseVal.value) - (10 * 2);
			}
		}
		if (e.childNodes == undefined) return;
		for (var i = 0, c = e.childNodes; i < c.length; i++) {
			zoom_parent(c[i]);
		}
	}
	function zoom(node) {
		var attr = find_child(node, "rect").attributes;
		var width = parseFloat(attr.width.value);
		var xmin = parseFloat(attr.x.value);
		var xmax = parseFloat(xmin + width);
		var ymin = parseFloat(attr.y.value);
		var ratio = (svg.width.baseVal.value - 2 * 10) / width;

		// XXX: Workaround for JavaScript float issues (fix me)
		var fudge = 0.0001;

		unzoombtn.classList.remove("hide");

		var el = document.getElementById("frames").children;
		for (var i = 0; i < el.length; i++) {
			var e = el[i];
			var a = find_child(e, "rect").attributes;
			var ex = parseFloat(a.x.value);
			var ew = parseFloat(a.width.value);
			var upstack;
			// Is it an ancestor
			if (0 == 0) {
				upstack = parseFloat(a.y.value) > ymin;
			} else {
				upstack = parseFloat(a.y.value) < ymin;
			}
			if (upstack) {
				// Direct ancestor
				if (ex <= xmin && (ex+ew+fudge) >= xmax) {
					e.classList.add("parent");
					zoom_parent(e);
					update_text(e);
				}
				// not in current path
				else
					e.classList.add("hide");
			}
			// Children maybe
			else {
				// no common path
				if (ex < xmin || ex + fudge >= xmax) {
					e.classList.add("hide");
				}
				else {
					zoom_child(e, xmin, ratio);
					update_text(e);
				}
			}
		}
		search();
	}
	function unzoom(dont_update_text) {
		unzoombtn.classList.add("hide");
		var el = document.getElementById("frames").children;
		for(var i = 0; i < el.length; i++) {
			el[i].classList.remove("parent");
			el[i].classList.remove("hide");
			zoom_reset(el[i]);
			if(!dont_update_text) update_text(el[i]);
		}
		search();
	}
	function clearzoom() {
		unzoom();

		// remove zoom state
		var params = get_params();
		if (params.x) delete params.x;
		if (params.y) delete params.y;
		history.replaceState(null, null, parse_params(params));
	}

	// search
	function toggle_ignorecase() {
		ignorecase = !ignorecase;
		if (ignorecase) {
			ignorecaseBtn.classList.add("show");
		} else {
			ignorecaseBtn.classList.remove("show");
		}
		reset_search();
		search();
	}
	function reset_search() {
		var el = document.querySelectorAll("#frames rect");
		for (var i = 0; i < el.length; i++) {
			orig_load(el[i], "fill")
		}
		var params = get_params();
		delete params.s;
		history.replaceState(null, null, parse_params(params));
	}
	function search_prompt() {
		if (!searching) {
			var term = prompt("Enter a search term (regexp " +
			    "allowed, eg: ^ext4_)"
			    + (ignorecase ? ", ignoring case" : "")
			    + "\nPress Ctrl-i to toggle case sensitivity", "");
			if (term != null) search(term);
		} else {
			reset_search();
			searching = 0;
			currentSearchTerm = null;
			searchbtn.classList.remove("show");
			searchbtn.firstChild.nodeValue = "Search"
			matchedtxt.classList.add("hide");
			matchedtxt.firstChild.nodeValue = ""
		}
	}
	function search(term) {
		if (term) currentSearchTerm = term;

		var re = new RegExp(currentSearchTerm, ignorecase ? 'i' : '');
		var el = document.getElementById("frames").children;
		var matches = new Object();
		var maxwidth = 0;
		for (var i = 0; i < el.length; i++) {
			var e = el[i];
			var func = g_to_func(e);
			var rect = find_child(e, "rect");
			if (func == null || rect == null)
				continue;

			// Save max width. Only works as we have a root frame
			var w = parseFloat(rect.attributes.width.value);
			if (w > maxwidth)
				maxwidth = w;

			if (func.match(re)) {
				// highlight
				var x = parseFloat(rect.attributes.x.value);
				orig_save(rect, "fill");
				rect.attributes.fill.value = "rgb(230,0,230)";

				// remember matches
				if (matches[x] == undefined) {
					matches[x] = w;
				} else {
					if (w > matches[x]) {
						// overwrite with parent
						matches[x] = w;
					}
				}
				searching = 1;
			}
		}
		if (!searching)
			return;
		var params = get_params();
		params.s = currentSearchTerm;
		history.replaceState(null, null, parse_params(params));

		searchbtn.classList.add("show");
		searchbtn.firstChild.nodeValue = "Reset Search";

		// calculate percent matched, excluding vertical overlap
		var count = 0;
		var lastx = -1;
		var lastw = 0;
		var keys = Array();
		for (k in matches) {
			if (matches.hasOwnProperty(k))
				keys.push(k);
		}
		// sort the matched frames by their x location
		// ascending, then width descending
		keys.sort(function(a, b){
			return a - b;
		});
		// Step through frames saving only the biggest bottom-up frames
		// thanks to the sort order. This relies on the tree property
		// where children are always smaller than their parents.
		var fudge = 0.0001;	// JavaScript floating point
		for (var k in keys) {
			var x = parseFloat(keys[k]);
			var w = matches[keys[k]];
			if (x >= lastx + lastw - fudge) {
				count += w;
				lastx = x;
				lastw = w;
			}
		}
		// display matched percent
		matchedtxt.classList.remove("hide");
		var pct = 100 * count / maxwidth;
		if (pct != 100) pct = pct.toFixed(1)
		matchedtxt.firstChild.nodeValue = "Matched: " + pct + "%";
	}
]]>
</script>
<rect x="0.0" y="0" width="1200.0" height="646.0" fill="url(#background)"  />
<text id="title" x="600.00" y="24" >StagingPerf.eu Watchdog Profile (2024-05-16T11:16:07.476340)</text>
<text id="details" x="10.00" y="629" > </text>
<text id="unzoom" x="10.00" y="24" class="hide">Reset Zoom</text>
<text id="search" x="1090.00" y="24" >Search</text>
<text id="ignorecase" x="1174.00" y="24" >ic</text>
<text id="matched" x="1090.00" y="629" > </text>
<g id="frames">
<g >
<title>SalInstanceIconView::LinkStubDumpElemToPropertyTreeHdl (2 samples, 10.00%)</title><rect x="482.0" y="485" width="118.0" height="15.0" fill="rgb(247,175,20)" rx="2" ry="2" />
<text  x="485.00" y="495.5" >SalInstanceIco..</text>
</g>
<g >
<title>vcl::font::PhysicalFontCollection::FindFontFamily (2 samples, 10.00%)</title><rect x="482.0" y="293" width="118.0" height="15.0" fill="rgb(246,144,15)" rx="2" ry="2" />
<text  x="485.00" y="303.5" >vcl::font::Phy..</text>
</g>
<g >
<title>handleUserProfileSignal (1 samples, 5.00%)</title><rect x="600.0" y="53" width="59.0" height="15.0" fill="rgb(209,15,42)" rx="2" ry="2" />
<text  x="603.00" y="63.5" >handle..</text>
</g>
<g >
<title>syscall (1 samples, 5.00%)</title><rect x="836.0" y="149" width="59.0" height="15.0" fill="rgb(235,27,23)" rx="2" ry="2" />
<text  x="839.00" y="159.5" >syscall</text>
</g>
<g >
<title>ImplSVMain (1 samples, 5.00%)</title><rect x="836.0" y="501" width="59.0" height="15.0" fill="rgb(231,99,24)" rx="2" ry="2" />
<text  x="839.00" y="511.5" >ImplSV..</text>
</g>
<g >
<title>StylesPreviewWindow_Base::GetCachedPreviewJson (3 samples, 15.00%)</title><rect x="659.0" y="341" width="177.0" height="15.0" fill="rgb(242,59,17)" rx="2" ry="2" />
<text  x="662.00" y="351.5" >StylesPreviewWindow_Bas..</text>
</g>
<g >
<title>SdrCaptionObj::NbcSetLogicRect (1 samples, 5.00%)</title><rect x="600.0" y="405" width="59.0" height="15.0" fill="rgb(223,91,4)" rx="2" ry="2" />
<text  x="603.00" y="415.5" >SdrCap..</text>
</g>
<g >
<title>ImplFontCache::GetFontInstance (2 samples, 10.00%)</title><rect x="482.0" y="309" width="118.0" height="15.0" fill="rgb(223,197,2)" rx="2" ry="2" />
<text  x="485.00" y="319.5" >ImplFontCache:..</text>
</g>
<g >
<title>handleUserProfileSignal (3 samples, 15.00%)</title><rect x="659.0" y="117" width="177.0" height="15.0" fill="rgb(251,205,29)" rx="2" ry="2" />
<text  x="662.00" y="127.5" >handleUserProfileSignal</text>
</g>
<g >
<title>ImpEditEngine::FormatAndLayout (1 samples, 5.00%)</title><rect x="600.0" y="197" width="59.0" height="15.0" fill="rgb(215,89,17)" rx="2" ry="2" />
<text  x="603.00" y="207.5" >ImpEdi..</text>
</g>
<g >
<title>ClientSession::handleKitToClientMessage (4 samples, 20.00%)</title><rect x="10.0" y="517" width="236.0" height="15.0" fill="rgb(236,38,34)" rx="2" ry="2" />
<text  x="13.00" y="527.5" >ClientSession::handleKitToClien..</text>
</g>
<g >
<title>syscall (3 samples, 15.00%)</title><rect x="10.0" y="421" width="177.0" height="15.0" fill="rgb(244,37,28)" rx="2" ry="2" />
<text  x="13.00" y="431.5" >syscall</text>
</g>
<g >
<title>StyleItemController::DrawEntry (2 samples, 10.00%)</title><rect x="482.0" y="421" width="118.0" height="15.0" fill="rgb(251,69,15)" rx="2" ry="2" />
<text  x="485.00" y="431.5" >StyleItemContr..</text>
</g>
<g >
<title>[unknown] (5 samples, 25.00%)</title><rect x="895.0" y="565" width="295.0" height="15.0" fill="rgb(245,142,20)" rx="2" ry="2" />
<text  x="898.00" y="575.5" >[unknown]</text>
</g>
<g >
<title>syscall (3 samples, 15.00%)</title><rect x="659.0" y="101" width="177.0" height="15.0" fill="rgb(207,112,28)" rx="2" ry="2" />
<text  x="662.00" y="111.5" >syscall</text>
</g>
<g >
<title>ScColumn::CopyFromClip (1 samples, 5.00%)</title><rect x="600.0" y="517" width="59.0" height="15.0" fill="rgb(248,157,29)" rx="2" ry="2" />
<text  x="603.00" y="527.5" >ScColu..</text>
</g>
<g >
<title>SocketPoll::pollingThreadEntry (5 samples, 25.00%)</title><rect x="895.0" y="549" width="295.0" height="15.0" fill="rgb(205,169,5)" rx="2" ry="2" />
<text  x="898.00" y="559.5" >SocketPoll::pollingThreadEntry</text>
</g>
<g >
<title>ScPostIt::ScPostIt (1 samples, 5.00%)</title><rect x="600.0" y="453" width="59.0" height="15.0" fill="rgb(232,171,42)" rx="2" ry="2" />
<text  x="603.00" y="463.5" >ScPost..</text>
</g>
<g >
<title>FcCompare (3 samples, 15.00%)</title><rect x="659.0" y="149" width="177.0" height="15.0" fill="rgb(237,216,14)" rx="2" ry="2" />
<text  x="662.00" y="159.5" >FcCompare</text>
</g>
<g >
<title>_IO_funlockfile (5 samples, 25.00%)</title><rect x="895.0" y="453" width="295.0" height="15.0" fill="rgb(230,168,16)" rx="2" ry="2" />
<text  x="898.00" y="463.5" >_IO_funlockfile</text>
</g>
<g >
<title>Util::findInVector (3 samples, 15.00%)</title><rect x="10.0" y="469" width="177.0" height="15.0" fill="rgb(248,26,24)" rx="2" ry="2" />
<text  x="13.00" y="479.5" >Util::findInVector</text>
</g>
<g >
<title>kitbroker (11 samples, 55.00%)</title><rect x="246.0" y="581" width="649.0" height="15.0" fill="rgb(249,222,3)" rx="2" ry="2" />
<text  x="249.00" y="591.5" >kitbroker</text>
</g>
<g >
<title>StylesPreviewWindow_Base::DoJsonProperty (3 samples, 15.00%)</title><rect x="659.0" y="357" width="177.0" height="15.0" fill="rgb(231,118,3)" rx="2" ry="2" />
<text  x="662.00" y="367.5" >StylesPreviewWindow_Bas..</text>
</g>
<g >
<title>syscall (2 samples, 10.00%)</title><rect x="482.0" y="165" width="118.0" height="15.0" fill="rgb(242,152,16)" rx="2" ry="2" />
<text  x="485.00" y="175.5" >syscall</text>
</g>
<g >
<title>sdr::properties::TextProperties::ItemSetChanged (1 samples, 5.00%)</title><rect x="600.0" y="309" width="59.0" height="15.0" fill="rgb(210,12,31)" rx="2" ry="2" />
<text  x="603.00" y="319.5" >sdr::p..</text>
</g>
<g >
<title>http::Session::syncRequest (5 samples, 25.00%)</title><rect x="895.0" y="501" width="295.0" height="15.0" fill="rgb(240,148,30)" rx="2" ry="2" />
<text  x="898.00" y="511.5" >http::Session::syncRequest</text>
</g>
<g >
<title>soffice_main (1 samples, 5.00%)</title><rect x="836.0" y="517" width="59.0" height="15.0" fill="rgb(210,15,29)" rx="2" ry="2" />
<text  x="839.00" y="527.5" >soffic..</text>
</g>
<g >
<title>docbroker (4 samples, 20.00%)</title><rect x="10.0" y="581" width="236.0" height="15.0" fill="rgb(224,121,12)" rx="2" ry="2" />
<text  x="13.00" y="591.5" >docbroker</text>
</g>
<g >
<title>_IO_funlockfile (3 samples, 15.00%)</title><rect x="305.0" y="373" width="177.0" height="15.0" fill="rgb(247,2,50)" rx="2" ry="2" />
<text  x="308.00" y="383.5" >_IO_funlockfile</text>
</g>
<g >
<title>CairoTextRender::DrawTextLayout (3 samples, 15.00%)</title><rect x="659.0" y="245" width="177.0" height="15.0" fill="rgb(241,223,44)" rx="2" ry="2" />
<text  x="662.00" y="255.5" >CairoTextRender::DrawTe..</text>
</g>
<g >
<title>StylesPreviewWindow_Base::DoJsonProperty (2 samples, 10.00%)</title><rect x="482.0" y="469" width="118.0" height="15.0" fill="rgb(230,135,16)" rx="2" ry="2" />
<text  x="485.00" y="479.5" >StylesPreviewW..</text>
</g>
<g >
<title>syscall (1 samples, 5.00%)</title><rect x="600.0" y="37" width="59.0" height="15.0" fill="rgb(219,146,28)" rx="2" ry="2" />
<text  x="603.00" y="47.5" >syscall</text>
</g>
<g >
<title>ScTransferObj::GetData (4 samples, 20.00%)</title><rect x="246.0" y="453" width="236.0" height="15.0" fill="rgb(228,50,23)" rx="2" ry="2" />
<text  x="249.00" y="463.5" >ScTransferObj::GetData</text>
</g>
<g >
<title>ScTable::CopyFromClip (1 samples, 5.00%)</title><rect x="600.0" y="533" width="59.0" height="15.0" fill="rgb(243,8,36)" rx="2" ry="2" />
<text  x="603.00" y="543.5" >ScTabl..</text>
</g>
<g >
<title>ClientSession::postProcessCopyPayload (3 samples, 15.00%)</title><rect x="10.0" y="485" width="177.0" height="15.0" fill="rgb(239,4,34)" rx="2" ry="2" />
<text  x="13.00" y="495.5" >ClientSession::postProc..</text>
</g>
<g >
<title>ImpEditEngine::FormatDoc (1 samples, 5.00%)</title><rect x="600.0" y="181" width="59.0" height="15.0" fill="rgb(251,197,14)" rx="2" ry="2" />
<text  x="603.00" y="191.5" >ImpEdi..</text>
</g>
<g >
<title>handleUserProfileSignal (1 samples, 5.00%)</title><rect x="836.0" y="165" width="59.0" height="15.0" fill="rgb(251,189,31)" rx="2" ry="2" />
<text  x="839.00" y="175.5" >handle..</text>
</g>
<g >
<title>handleUserProfileSignal (1 samples, 5.00%)</title><rect x="246.0" y="373" width="59.0" height="15.0" fill="rgb(212,213,11)" rx="2" ry="2" />
<text  x="249.00" y="383.5" >handle..</text>
</g>
<g >
<title>psp::PrintFontManager::getFontOptions (3 samples, 15.00%)</title><rect x="659.0" y="197" width="177.0" height="15.0" fill="rgb(250,161,50)" rx="2" ry="2" />
<text  x="662.00" y="207.5" >psp::PrintFontManager::..</text>
</g>
<g >
<title>ScDocument::HasTable (1 samples, 5.00%)</title><rect x="246.0" y="405" width="59.0" height="15.0" fill="rgb(230,161,6)" rx="2" ry="2" />
<text  x="249.00" y="415.5" >ScDocu..</text>
</g>
<g >
<title>SocketPoll::poll (5 samples, 25.00%)</title><rect x="895.0" y="485" width="295.0" height="15.0" fill="rgb(223,90,34)" rx="2" ry="2" />
<text  x="898.00" y="495.5" >SocketPoll::poll</text>
</g>
<g >
<title>StyleItemController::DrawText (3 samples, 15.00%)</title><rect x="659.0" y="293" width="177.0" height="15.0" fill="rgb(209,100,6)" rx="2" ry="2" />
<text  x="662.00" y="303.5" >StyleItemController::Dr..</text>
</g>
<g >
<title>StylesPreviewWindow_Base::GetCachedPreview (2 samples, 10.00%)</title><rect x="482.0" y="437" width="118.0" height="15.0" fill="rgb(247,120,37)" rx="2" ry="2" />
<text  x="485.00" y="447.5" >StylesPreviewW..</text>
</g>
<g >
<title>http::Session::syncRequest (5 samples, 25.00%)</title><rect x="895.0" y="517" width="295.0" height="15.0" fill="rgb(214,160,24)" rx="2" ry="2" />
<text  x="898.00" y="527.5" >http::Session::syncRequest</text>
</g>
<g >
<title>FcFontSetMatchInternal (2 samples, 10.00%)</title><rect x="482.0" y="245" width="118.0" height="15.0" fill="rgb(240,200,42)" rx="2" ry="2" />
<text  x="485.00" y="255.5" >FcFontSetMatch..</text>
</g>
<g >
<title>handleUserProfileSignal (1 samples, 5.00%)</title><rect x="187.0" y="437" width="59.0" height="15.0" fill="rgb(249,111,25)" rx="2" ry="2" />
<text  x="190.00" y="447.5" >handle..</text>
</g>
<g >
<title>FreetypeFont::GetFontOptions (3 samples, 15.00%)</title><rect x="659.0" y="213" width="177.0" height="15.0" fill="rgb(222,181,12)" rx="2" ry="2" />
<text  x="662.00" y="223.5" >FreetypeFont::GetFontOp..</text>
</g>
<g >
<title>IconView::DumpAsPropertyTree (2 samples, 10.00%)</title><rect x="482.0" y="517" width="118.0" height="15.0" fill="rgb(232,7,5)" rx="2" ry="2" />
<text  x="485.00" y="527.5" >IconView::Dump..</text>
</g>
<g >
<title>Application::Execute (1 samples, 5.00%)</title><rect x="836.0" y="469" width="59.0" height="15.0" fill="rgb(221,80,49)" rx="2" ry="2" />
<text  x="839.00" y="479.5" >Applic..</text>
</g>
<g >
<title>IconView::DumpEntryAndSiblings (2 samples, 10.00%)</title><rect x="482.0" y="501" width="118.0" height="15.0" fill="rgb(224,0,27)" rx="2" ry="2" />
<text  x="485.00" y="511.5" >IconView::Dump..</text>
</g>
<g >
<title>mdds::flat_segment_tree&lt;int, unsigned short&gt;::search_tree_for_leaf_node (3 samples, 15.00%)</title><rect x="305.0" y="389" width="177.0" height="15.0" fill="rgb(228,163,54)" rx="2" ry="2" />
<text  x="308.00" y="399.5" >mdds::flat_segment_tree..</text>
</g>
<g >
<title>ImpEditEngine::FormatParagraphs (1 samples, 5.00%)</title><rect x="600.0" y="165" width="59.0" height="15.0" fill="rgb(216,172,37)" rx="2" ry="2" />
<text  x="603.00" y="175.5" >ImpEdi..</text>
</g>
<g >
<title>SvpSalInstance::CheckTimeout (3 samples, 15.00%)</title><rect x="659.0" y="469" width="177.0" height="15.0" fill="rgb(207,219,41)" rx="2" ry="2" />
<text  x="662.00" y="479.5" >SvpSalInstance::CheckTi..</text>
</g>
<g >
<title>JSDialogNotifyIdle::Invoke (3 samples, 15.00%)</title><rect x="659.0" y="437" width="177.0" height="15.0" fill="rgb(242,216,8)" rx="2" ry="2" />
<text  x="662.00" y="447.5" >JSDialogNotifyIdle::Inv..</text>
</g>
<g >
<title>ImplYield (1 samples, 5.00%)</title><rect x="836.0" y="453" width="59.0" height="15.0" fill="rgb(247,94,49)" rx="2" ry="2" />
<text  x="839.00" y="463.5" >ImplYi..</text>
</g>
<g >
<title>SvpSalInstance::ImplYield (3 samples, 15.00%)</title><rect x="659.0" y="485" width="177.0" height="15.0" fill="rgb(209,126,17)" rx="2" ry="2" />
<text  x="662.00" y="495.5" >SvpSalInstance::ImplYield</text>
</g>
<g >
<title>JSDialogNotifyIdle::generateWidgetUpdate (1 samples, 5.00%)</title><rect x="836.0" y="357" width="59.0" height="15.0" fill="rgb(240,152,45)" rx="2" ry="2" />
<text  x="839.00" y="367.5" >JSDial..</text>
</g>
<g >
<title>SdrTextObj::AdjustTextFrameWidthAndHeight (1 samples, 5.00%)</title><rect x="600.0" y="261" width="59.0" height="15.0" fill="rgb(222,210,48)" rx="2" ry="2" />
<text  x="603.00" y="271.5" >SdrTex..</text>
</g>
<g >
<title>sdr::properties::RectangleProperties::ItemSetChanged (1 samples, 5.00%)</title><rect x="600.0" y="325" width="59.0" height="15.0" fill="rgb(253,64,13)" rx="2" ry="2" />
<text  x="603.00" y="335.5" >sdr::p..</text>
</g>
<g >
<title>SvpSalInstance::CheckTimeout (1 samples, 5.00%)</title><rect x="836.0" y="405" width="59.0" height="15.0" fill="rgb(239,23,51)" rx="2" ry="2" />
<text  x="839.00" y="415.5" >SvpSal..</text>
</g>
<g >
<title>ScFlatUInt16RowSegments::getValue (3 samples, 15.00%)</title><rect x="305.0" y="405" width="177.0" height="15.0" fill="rgb(245,61,20)" rx="2" ry="2" />
<text  x="308.00" y="415.5" >ScFlatUInt16RowSegments..</text>
</g>
<g >
<title>Scheduler::CallbackTaskScheduling (3 samples, 15.00%)</title><rect x="659.0" y="453" width="177.0" height="15.0" fill="rgb(246,168,53)" rx="2" ry="2" />
<text  x="662.00" y="463.5" >Scheduler::CallbackTask..</text>
</g>
<g >
<title>OutputDevice::ImplDrawTextDirect (3 samples, 15.00%)</title><rect x="659.0" y="261" width="177.0" height="15.0" fill="rgb(214,184,41)" rx="2" ry="2" />
<text  x="662.00" y="271.5" >OutputDevice::ImplDrawT..</text>
</g>
<g >
<title>JSDialogNotifyIdle::generateWidgetUpdate (2 samples, 10.00%)</title><rect x="482.0" y="533" width="118.0" height="15.0" fill="rgb(231,118,37)" rx="2" ry="2" />
<text  x="485.00" y="543.5" >JSDialogNotify..</text>
</g>
<g >
<title>desktop::Desktop::Main (1 samples, 5.00%)</title><rect x="836.0" y="485" width="59.0" height="15.0" fill="rgb(242,135,43)" rx="2" ry="2" />
<text  x="839.00" y="495.5" >deskto..</text>
</g>
<g >
<title>RemoteJSONPoll::pollingThread (5 samples, 25.00%)</title><rect x="895.0" y="533" width="295.0" height="15.0" fill="rgb(251,177,3)" rx="2" ry="2" />
<text  x="898.00" y="543.5" >RemoteJSONPoll::pollingThread</text>
</g>
<g >
<title>FcFontSetMatchInternal (3 samples, 15.00%)</title><rect x="659.0" y="165" width="177.0" height="15.0" fill="rgb(235,54,20)" rx="2" ry="2" />
<text  x="662.00" y="175.5" >FcFontSetMatchInternal</text>
</g>
<g >
<title>StyleItemController::DrawText (2 samples, 10.00%)</title><rect x="482.0" y="405" width="118.0" height="15.0" fill="rgb(246,5,52)" rx="2" ry="2" />
<text  x="485.00" y="415.5" >StyleItemContr..</text>
</g>
<g >
<title>IconView::DumpAsPropertyTree (1 samples, 5.00%)</title><rect x="836.0" y="341" width="59.0" height="15.0" fill="rgb(229,229,16)" rx="2" ry="2" />
<text  x="839.00" y="351.5" >IconVi..</text>
</g>
<g >
<title>SwStyleSheetIterator::First (1 samples, 5.00%)</title><rect x="836.0" y="229" width="59.0" height="15.0" fill="rgb(213,126,7)" rx="2" ry="2" />
<text  x="839.00" y="239.5" >SwStyl..</text>
</g>
<g >
<title>ClipboardCache::insertClipboard (1 samples, 5.00%)</title><rect x="187.0" y="501" width="59.0" height="15.0" fill="rgb(247,206,26)" rx="2" ry="2" />
<text  x="190.00" y="511.5" >Clipbo..</text>
</g>
<g >
<title>StylesPreviewWindow_Base::GetCachedPreview (1 samples, 5.00%)</title><rect x="836.0" y="261" width="59.0" height="15.0" fill="rgb(229,101,5)" rx="2" ry="2" />
<text  x="839.00" y="271.5" >Styles..</text>
</g>
<g >
<title>syscall (1 samples, 5.00%)</title><rect x="246.0" y="357" width="59.0" height="15.0" fill="rgb(232,51,22)" rx="2" ry="2" />
<text  x="249.00" y="367.5" >syscall</text>
</g>
<g >
<title>StylesPreviewWindow_Base::GetCachedPreview (3 samples, 15.00%)</title><rect x="659.0" y="325" width="177.0" height="15.0" fill="rgb(252,150,54)" rx="2" ry="2" />
<text  x="662.00" y="335.5" >StylesPreviewWindow_Bas..</text>
</g>
<g >
<title>ImplFontCache::GetFontInstance (2 samples, 10.00%)</title><rect x="482.0" y="325" width="118.0" height="15.0" fill="rgb(240,163,30)" rx="2" ry="2" />
<text  x="485.00" y="335.5" >ImplFontCache:..</text>
</g>
<g >
<title>handleUserProfileSignal (3 samples, 15.00%)</title><rect x="10.0" y="437" width="177.0" height="15.0" fill="rgb(238,146,45)" rx="2" ry="2" />
<text  x="13.00" y="447.5" >handleUserProfileSignal</text>
</g>
<g >
<title>StyleItemController::DrawEntry (3 samples, 15.00%)</title><rect x="659.0" y="309" width="177.0" height="15.0" fill="rgb(237,116,25)" rx="2" ry="2" />
<text  x="662.00" y="319.5" >StyleItemController::Dr..</text>
</g>
<g >
<title>Application::Execute (3 samples, 15.00%)</title><rect x="659.0" y="533" width="177.0" height="15.0" fill="rgb(237,83,26)" rx="2" ry="2" />
<text  x="662.00" y="543.5" >Application::Execute</text>
</g>
<g >
<title>TransferableHelper::getTransferData (4 samples, 20.00%)</title><rect x="246.0" y="485" width="236.0" height="15.0" fill="rgb(241,224,4)" rx="2" ry="2" />
<text  x="249.00" y="495.5" >TransferableHelper::getTransfer..</text>
</g>
<g >
<title>remotefontconfi (5 samples, 25.00%)</title><rect x="895.0" y="581" width="295.0" height="15.0" fill="rgb(236,149,31)" rx="2" ry="2" />
<text  x="898.00" y="591.5" >remotefontconfi</text>
</g>
<g >
<title>all (20 samples, 100%)</title><rect x="10.0" y="597" width="1180.0" height="15.0" fill="rgb(232,123,42)" rx="2" ry="2" />
<text  x="13.00" y="607.5" ></text>
</g>
<g >
<title>JSDialogNotifyIdle::Invoke (2 samples, 10.00%)</title><rect x="482.0" y="549" width="118.0" height="15.0" fill="rgb(245,141,32)" rx="2" ry="2" />
<text  x="485.00" y="559.5" >JSDialogNotify..</text>
</g>
<g >
<title>SdrTextObj::NbcSetLogicRect (1 samples, 5.00%)</title><rect x="600.0" y="373" width="59.0" height="15.0" fill="rgb(238,144,15)" rx="2" ry="2" />
<text  x="603.00" y="383.5" >SdrTex..</text>
</g>
<g >
<title>StylesPreviewWindow_Base::GetCachedPreviewJson (1 samples, 5.00%)</title><rect x="836.0" y="277" width="59.0" height="15.0" fill="rgb(215,213,46)" rx="2" ry="2" />
<text  x="839.00" y="287.5" >Styles..</text>
</g>
<g >
<title>FcCompareValueList (2 samples, 10.00%)</title><rect x="482.0" y="213" width="118.0" height="15.0" fill="rgb(226,146,41)" rx="2" ry="2" />
<text  x="485.00" y="223.5" >FcCompareValue..</text>
</g>
<g >
<title>Scheduler::CallbackTaskScheduling (1 samples, 5.00%)</title><rect x="836.0" y="389" width="59.0" height="15.0" fill="rgb(250,155,1)" rx="2" ry="2" />
<text  x="839.00" y="399.5" >Schedu..</text>
</g>
<g >
<title>ImpEditEngine::ImplInitLayoutMode (1 samples, 5.00%)</title><rect x="600.0" y="133" width="59.0" height="15.0" fill="rgb(232,129,9)" rx="2" ry="2" />
<text  x="603.00" y="143.5" >ImpEdi..</text>
</g>
<g >
<title>SdrTextObj::NbcSetOutlinerParaObjectForText (1 samples, 5.00%)</title><rect x="600.0" y="293" width="59.0" height="15.0" fill="rgb(206,229,18)" rx="2" ry="2" />
<text  x="603.00" y="303.5" >SdrTex..</text>
</g>
<g >
<title>desktop::Desktop::Main (3 samples, 15.00%)</title><rect x="659.0" y="549" width="177.0" height="15.0" fill="rgb(246,107,24)" rx="2" ry="2" />
<text  x="662.00" y="559.5" >desktop::Desktop::Main</text>
</g>
<g >
<title>rtl_uString_release (1 samples, 5.00%)</title><rect x="836.0" y="197" width="59.0" height="15.0" fill="rgb(245,93,0)" rx="2" ry="2" />
<text  x="839.00" y="207.5" >rtl_uS..</text>
</g>
<g >
<title>SdrTextObj::NbcAdjustTextFrameWidthAndHeight (1 samples, 5.00%)</title><rect x="600.0" y="277" width="59.0" height="15.0" fill="rgb(235,199,6)" rx="2" ry="2" />
<text  x="603.00" y="287.5" >SdrTex..</text>
</g>
<g >
<title>ChildSession::_handleInput (4 samples, 20.00%)</title><rect x="246.0" y="549" width="236.0" height="15.0" fill="rgb(236,87,22)" rx="2" ry="2" />
<text  x="249.00" y="559.5" >ChildSession::_handleInput</text>
</g>
<g >
<title>__memcpy_avx_unaligned_erms (1 samples, 5.00%)</title><rect x="187.0" y="469" width="59.0" height="15.0" fill="rgb(224,61,30)" rx="2" ry="2" />
<text  x="190.00" y="479.5" >__memc..</text>
</g>
<g >
<title>SvpSalInstance::DoYield (3 samples, 15.00%)</title><rect x="659.0" y="501" width="177.0" height="15.0" fill="rgb(213,76,9)" rx="2" ry="2" />
<text  x="662.00" y="511.5" >SvpSalInstance::DoYield</text>
</g>
<g >
<title>IconView::DumpEntryAndSiblings (1 samples, 5.00%)</title><rect x="836.0" y="325" width="59.0" height="15.0" fill="rgb(247,228,54)" rx="2" ry="2" />
<text  x="839.00" y="335.5" >IconVi..</text>
</g>
<g >
<title>syscall (1 samples, 5.00%)</title><rect x="187.0" y="421" width="59.0" height="15.0" fill="rgb(207,138,42)" rx="2" ry="2" />
<text  x="190.00" y="431.5" >syscall</text>
</g>
<g >
<title>FcFontSetMatch (2 samples, 10.00%)</title><rect x="482.0" y="261" width="118.0" height="15.0" fill="rgb(211,219,45)" rx="2" ry="2" />
<text  x="485.00" y="271.5" >FcFontSetMatch</text>
</g>
<g >
<title>StylesPreviewWindow_Base::DoJsonProperty (1 samples, 5.00%)</title><rect x="836.0" y="293" width="59.0" height="15.0" fill="rgb(245,143,21)" rx="2" ry="2" />
<text  x="839.00" y="303.5" >Styles..</text>
</g>
<g >
<title>lo_runLoop (1 samples, 5.00%)</title><rect x="836.0" y="533" width="59.0" height="15.0" fill="rgb(250,159,27)" rx="2" ry="2" />
<text  x="839.00" y="543.5" >lo_run..</text>
</g>
<g >
<title>ImpEditEngine::SetUpdateLayout (1 samples, 5.00%)</title><rect x="600.0" y="213" width="59.0" height="15.0" fill="rgb(217,219,12)" rx="2" ry="2" />
<text  x="603.00" y="223.5" >ImpEdi..</text>
</g>
<g >
<title>ppoll (5 samples, 25.00%)</title><rect x="895.0" y="469" width="295.0" height="15.0" fill="rgb(235,48,50)" rx="2" ry="2" />
<text  x="898.00" y="479.5" >ppoll</text>
</g>
<g >
<title>handleUserProfileSignal (5 samples, 25.00%)</title><rect x="895.0" y="437" width="295.0" height="15.0" fill="rgb(215,93,4)" rx="2" ry="2" />
<text  x="898.00" y="447.5" >handleUserProfileSignal</text>
</g>
<g >
<title>ImpEditEngine::ImplCalcDigitLang (1 samples, 5.00%)</title><rect x="600.0" y="117" width="59.0" height="15.0" fill="rgb(249,13,9)" rx="2" ry="2" />
<text  x="603.00" y="127.5" >ImpEdi..</text>
</g>
<g >
<title>SwStyleSheetIterator::SwPoolFormatList::Append (1 samples, 5.00%)</title><rect x="836.0" y="213" width="59.0" height="15.0" fill="rgb(235,112,17)" rx="2" ry="2" />
<text  x="839.00" y="223.5" >SwStyl..</text>
</g>
<g >
<title>SalInstanceIconView::LinkStubDumpElemToPropertyTreeHdl (3 samples, 15.00%)</title><rect x="659.0" y="373" width="177.0" height="15.0" fill="rgb(205,129,21)" rx="2" ry="2" />
<text  x="662.00" y="383.5" >SalInstanceIconView::Li..</text>
</g>
<g >
<title>DocumentBroker::handleInput (4 samples, 20.00%)</title><rect x="10.0" y="549" width="236.0" height="15.0" fill="rgb(241,147,15)" rx="2" ry="2" />
<text  x="13.00" y="559.5" >DocumentBroker::handleInput</text>
</g>
<g >
<title>ScColumn::CopyCellNotesToDocument (1 samples, 5.00%)</title><rect x="600.0" y="485" width="59.0" height="15.0" fill="rgb(233,34,9)" rx="2" ry="2" />
<text  x="603.00" y="495.5" >ScColu..</text>
</g>
<g >
<title>EditEngine::SetUpdateLayout (1 samples, 5.00%)</title><rect x="600.0" y="229" width="59.0" height="15.0" fill="rgb(238,139,33)" rx="2" ry="2" />
<text  x="603.00" y="239.5" >EditEn..</text>
</g>
<g >
<title>_IO_funlockfile (3 samples, 15.00%)</title><rect x="659.0" y="133" width="177.0" height="15.0" fill="rgb(222,131,33)" rx="2" ry="2" />
<text  x="662.00" y="143.5" >_IO_funlockfile</text>
</g>
<g >
<title>SalLayoutGlyphsCache::CachedGlyphsKey::CachedGlyphsKey (2 samples, 10.00%)</title><rect x="482.0" y="373" width="118.0" height="15.0" fill="rgb(239,218,40)" rx="2" ry="2" />
<text  x="485.00" y="383.5" >SalLayoutGlyph..</text>
</g>
<g >
<title>_IO_funlockfile (2 samples, 10.00%)</title><rect x="482.0" y="197" width="118.0" height="15.0" fill="rgb(229,190,25)" rx="2" ry="2" />
<text  x="485.00" y="207.5" >_IO_funlockfile</text>
</g>
<g >
<title>IconView::DumpEntryAndSiblings (3 samples, 15.00%)</title><rect x="659.0" y="389" width="177.0" height="15.0" fill="rgb(205,18,31)" rx="2" ry="2" />
<text  x="662.00" y="399.5" >IconView::DumpEntryAndS..</text>
</g>
<g >
<title>JSDialogNotifyIdle::Invoke (1 samples, 5.00%)</title><rect x="836.0" y="373" width="59.0" height="15.0" fill="rgb(209,137,25)" rx="2" ry="2" />
<text  x="839.00" y="383.5" >JSDial..</text>
</g>
<g >
<title>ClientSession::postProcessCopyPayload (3 samples, 15.00%)</title><rect x="10.0" y="501" width="177.0" height="15.0" fill="rgb(225,71,31)" rx="2" ry="2" />
<text  x="13.00" y="511.5" >ClientSession::postProc..</text>
</g>
<g >
<title>OutputDevice::ImplNewFont (2 samples, 10.00%)</title><rect x="482.0" y="341" width="118.0" height="15.0" fill="rgb(237,25,21)" rx="2" ry="2" />
<text  x="485.00" y="351.5" >OutputDevice::..</text>
</g>
<g >
<title>OutputDevice::GetFontMetric (2 samples, 10.00%)</title><rect x="482.0" y="357" width="118.0" height="15.0" fill="rgb(225,168,38)" rx="2" ry="2" />
<text  x="485.00" y="367.5" >OutputDevice::..</text>
</g>
<g >
<title>_IO_funlockfile (3 samples, 15.00%)</title><rect x="10.0" y="453" width="177.0" height="15.0" fill="rgb(231,54,48)" rx="2" ry="2" />
<text  x="13.00" y="463.5" >_IO_funlockfile</text>
</g>
<g >
<title>syscall (3 samples, 15.00%)</title><rect x="305.0" y="341" width="177.0" height="15.0" fill="rgb(229,170,41)" rx="2" ry="2" />
<text  x="308.00" y="351.5" >syscall</text>
</g>
<g >
<title>makeCacheId (3 samples, 15.00%)</title><rect x="659.0" y="229" width="177.0" height="15.0" fill="rgb(207,182,24)" rx="2" ry="2" />
<text  x="662.00" y="239.5" >makeCacheId</text>
</g>
<g >
<title>ChildSession::getClipboard (4 samples, 20.00%)</title><rect x="246.0" y="533" width="236.0" height="15.0" fill="rgb(209,16,49)" rx="2" ry="2" />
<text  x="249.00" y="543.5" >ChildSession::getClipboard</text>
</g>
<g >
<title>syscall (5 samples, 25.00%)</title><rect x="895.0" y="421" width="295.0" height="15.0" fill="rgb(242,204,49)" rx="2" ry="2" />
<text  x="898.00" y="431.5" >syscall</text>
</g>
<g >
<title>ScDocument::CopyBlockFromClip (1 samples, 5.00%)</title><rect x="600.0" y="549" width="59.0" height="15.0" fill="rgb(215,163,16)" rx="2" ry="2" />
<text  x="603.00" y="559.5" >ScDocu..</text>
</g>
<g >
<title>lokit_main (1 samples, 5.00%)</title><rect x="836.0" y="549" width="59.0" height="15.0" fill="rgb(245,112,17)" rx="2" ry="2" />
<text  x="839.00" y="559.5" >lokit_..</text>
</g>
<g >
<title>ScTransferObj::InitDocShell (4 samples, 20.00%)</title><rect x="246.0" y="437" width="236.0" height="15.0" fill="rgb(242,9,31)" rx="2" ry="2" />
<text  x="249.00" y="447.5" >ScTransferObj::InitDocShell</text>
</g>
<g >
<title>[unknown] (11 samples, 55.00%)</title><rect x="246.0" y="565" width="649.0" height="15.0" fill="rgb(231,105,53)" rx="2" ry="2" />
<text  x="249.00" y="575.5" >[unknown]</text>
</g>
<g >
<title>comphelper::detail::ConfigurationWrapper::getPropertyValue (1 samples, 5.00%)</title><rect x="600.0" y="85" width="59.0" height="15.0" fill="rgb(224,135,31)" rx="2" ry="2" />
<text  x="603.00" y="95.5" >comphe..</text>
</g>
<g >
<title>_IO_funlockfile (1 samples, 5.00%)</title><rect x="600.0" y="69" width="59.0" height="15.0" fill="rgb(237,221,41)" rx="2" ry="2" />
<text  x="603.00" y="79.5" >_IO_fu..</text>
</g>
<g >
<title>SalLayoutGlyphsCache::GetLayoutGlyphs (2 samples, 10.00%)</title><rect x="482.0" y="389" width="118.0" height="15.0" fill="rgb(229,21,40)" rx="2" ry="2" />
<text  x="485.00" y="399.5" >SalLayoutGlyph..</text>
</g>
<g >
<title>ImplYield (3 samples, 15.00%)</title><rect x="659.0" y="517" width="177.0" height="15.0" fill="rgb(253,202,28)" rx="2" ry="2" />
<text  x="662.00" y="527.5" >ImplYield</text>
</g>
<g >
<title>SalInstanceIconView::LinkStubDumpElemToPropertyTreeHdl (1 samples, 5.00%)</title><rect x="836.0" y="309" width="59.0" height="15.0" fill="rgb(213,22,23)" rx="2" ry="2" />
<text  x="839.00" y="319.5" >SalIns..</text>
</g>
<g >
<title>getFromTransferable (4 samples, 20.00%)</title><rect x="246.0" y="501" width="236.0" height="15.0" fill="rgb(209,45,17)" rx="2" ry="2" />
<text  x="249.00" y="511.5" >getFromTransferable</text>
</g>
<g >
<title>std::string::_S_construct&lt;char const*&gt; (1 samples, 5.00%)</title><rect x="187.0" y="485" width="59.0" height="15.0" fill="rgb(227,54,13)" rx="2" ry="2" />
<text  x="190.00" y="495.5" >std::s..</text>
</g>
<g >
<title>_IO_funlockfile (1 samples, 5.00%)</title><rect x="246.0" y="389" width="59.0" height="15.0" fill="rgb(236,134,42)" rx="2" ry="2" />
<text  x="249.00" y="399.5" >_IO_fu..</text>
</g>
<g >
<title>ImpEditEngine::CreateLines (1 samples, 5.00%)</title><rect x="600.0" y="149" width="59.0" height="15.0" fill="rgb(232,75,30)" rx="2" ry="2" />
<text  x="603.00" y="159.5" >ImpEdi..</text>
</g>
<g >
<title>StylesPreviewWindow_Base::GetCachedPreviewJson (2 samples, 10.00%)</title><rect x="482.0" y="453" width="118.0" height="15.0" fill="rgb(246,125,40)" rx="2" ry="2" />
<text  x="485.00" y="463.5" >StylesPreviewW..</text>
</g>
<g >
<title>FcCompare (2 samples, 10.00%)</title><rect x="482.0" y="229" width="118.0" height="15.0" fill="rgb(253,175,20)" rx="2" ry="2" />
<text  x="485.00" y="239.5" >FcCompare</text>
</g>
<g >
<title>_IO_funlockfile (1 samples, 5.00%)</title><rect x="836.0" y="181" width="59.0" height="15.0" fill="rgb(238,159,54)" rx="2" ry="2" />
<text  x="839.00" y="191.5" >_IO_fu..</text>
</g>
<g >
<title>doc_getClipboard (4 samples, 20.00%)</title><rect x="246.0" y="517" width="236.0" height="15.0" fill="rgb(242,159,7)" rx="2" ry="2" />
<text  x="249.00" y="527.5" >doc_getClipboard</text>
</g>
<g >
<title>handleUserProfileSignal (3 samples, 15.00%)</title><rect x="305.0" y="357" width="177.0" height="15.0" fill="rgb(206,16,1)" rx="2" ry="2" />
<text  x="308.00" y="367.5" >handleUserProfileSignal</text>
</g>
<g >
<title>ScDocument::RowHidden (1 samples, 5.00%)</title><rect x="246.0" y="421" width="59.0" height="15.0" fill="rgb(207,157,44)" rx="2" ry="2" />
<text  x="249.00" y="431.5" >ScDocu..</text>
</g>
<g >
<title>SvpSalInstance::ImplYield (1 samples, 5.00%)</title><rect x="836.0" y="421" width="59.0" height="15.0" fill="rgb(246,162,5)" rx="2" ry="2" />
<text  x="839.00" y="431.5" >SvpSal..</text>
</g>
<g >
<title>TransferableHelper::getTransferData2 (4 samples, 20.00%)</title><rect x="246.0" y="469" width="236.0" height="15.0" fill="rgb(207,57,27)" rx="2" ry="2" />
<text  x="249.00" y="479.5" >TransferableHelper::getTransfer..</text>
</g>
<g >
<title>SdrObject::SetLogicRect (1 samples, 5.00%)</title><rect x="600.0" y="421" width="59.0" height="15.0" fill="rgb(217,92,39)" rx="2" ry="2" />
<text  x="603.00" y="431.5" >SdrObj..</text>
</g>
<g >
<title>OutputDevice::DrawText (3 samples, 15.00%)</title><rect x="659.0" y="277" width="177.0" height="15.0" fill="rgb(249,78,12)" rx="2" ry="2" />
<text  x="662.00" y="287.5" >OutputDevice::DrawText</text>
</g>
<g >
<title>SdrTextObj::AdaptTextMinSize (1 samples, 5.00%)</title><rect x="600.0" y="357" width="59.0" height="15.0" fill="rgb(210,105,46)" rx="2" ry="2" />
<text  x="603.00" y="367.5" >SdrTex..</text>
</g>
<g >
<title>SvpSalInstance::DoYield (1 samples, 5.00%)</title><rect x="836.0" y="437" width="59.0" height="15.0" fill="rgb(208,209,6)" rx="2" ry="2" />
<text  x="839.00" y="447.5" >SvpSal..</text>
</g>
<g >
<title>_IO_funlockfile (1 samples, 5.00%)</title><rect x="187.0" y="453" width="59.0" height="15.0" fill="rgb(236,226,5)" rx="2" ry="2" />
<text  x="190.00" y="463.5" >_IO_fu..</text>
</g>
<g >
<title>ScColumn::DuplicateNotes (1 samples, 5.00%)</title><rect x="600.0" y="501" width="59.0" height="15.0" fill="rgb(216,190,41)" rx="2" ry="2" />
<text  x="603.00" y="511.5" >ScColu..</text>
</g>
<g >
<title>IconView::DumpAsPropertyTree (3 samples, 15.00%)</title><rect x="659.0" y="405" width="177.0" height="15.0" fill="rgb(207,95,26)" rx="2" ry="2" />
<text  x="662.00" y="415.5" >IconView::DumpAsPropert..</text>
</g>
<g >
<title>SdrRectObj::NbcSetLogicRect (1 samples, 5.00%)</title><rect x="600.0" y="389" width="59.0" height="15.0" fill="rgb(205,104,41)" rx="2" ry="2" />
<text  x="603.00" y="399.5" >SdrRec..</text>
</g>
<g >
<title>StyleItemController::DrawEntry (1 samples, 5.00%)</title><rect x="836.0" y="245" width="59.0" height="15.0" fill="rgb(210,52,34)" rx="2" ry="2" />
<text  x="839.00" y="255.5" >StyleI..</text>
</g>
<g >
<title>[unknown] (4 samples, 20.00%)</title><rect x="10.0" y="565" width="236.0" height="15.0" fill="rgb(213,8,10)" rx="2" ry="2" />
<text  x="13.00" y="575.5" >[unknown]</text>
</g>
<g >
<title>sdr::properties::DefaultProperties::SetObjectItemSet (1 samples, 5.00%)</title><rect x="600.0" y="341" width="59.0" height="15.0" fill="rgb(219,176,30)" rx="2" ry="2" />
<text  x="603.00" y="351.5" >sdr::p..</text>
</g>
<g >
<title>ScPostIt::CreateCaption (1 samples, 5.00%)</title><rect x="600.0" y="437" width="59.0" height="15.0" fill="rgb(252,91,14)" rx="2" ry="2" />
<text  x="603.00" y="447.5" >ScPost..</text>
</g>
<g >
<title>ScTable::SetRowHeight (3 samples, 15.00%)</title><rect x="305.0" y="421" width="177.0" height="15.0" fill="rgb(240,10,48)" rx="2" ry="2" />
<text  x="308.00" y="431.5" >ScTable::SetRowHeight</text>
</g>
<g >
<title>psp::PrintFontManager::Substitute (2 samples, 10.00%)</title><rect x="482.0" y="277" width="118.0" height="15.0" fill="rgb(242,150,32)" rx="2" ry="2" />
<text  x="485.00" y="287.5" >psp::PrintFont..</text>
</g>
<g >
<title>JSDialogNotifyIdle::generateWidgetUpdate (3 samples, 15.00%)</title><rect x="659.0" y="421" width="177.0" height="15.0" fill="rgb(233,55,46)" rx="2" ry="2" />
<text  x="662.00" y="431.5" >JSDialogNotifyIdle::gen..</text>
</g>
<g >
<title>DocumentBroker::forwardToClient (4 samples, 20.00%)</title><rect x="10.0" y="533" width="236.0" height="15.0" fill="rgb(214,92,0)" rx="2" ry="2" />
<text  x="13.00" y="543.5" >DocumentBroker::forwardToClient</text>
</g>
<g >
<title>handleUserProfileSignal (2 samples, 10.00%)</title><rect x="482.0" y="181" width="118.0" height="15.0" fill="rgb(244,6,26)" rx="2" ry="2" />
<text  x="485.00" y="191.5" >handleUserProf..</text>
</g>
<g >
<title>ScPostIt::Clone (1 samples, 5.00%)</title><rect x="600.0" y="469" width="59.0" height="15.0" fill="rgb(221,76,26)" rx="2" ry="2" />
<text  x="603.00" y="479.5" >ScPost..</text>
</g>
<g >
<title>SvtCTLOptions::GetCTLTextNumerals (1 samples, 5.00%)</title><rect x="600.0" y="101" width="59.0" height="15.0" fill="rgb(225,60,53)" rx="2" ry="2" />
<text  x="603.00" y="111.5" >SvtCTL..</text>
</g>
<g >
<title>Outliner::SetText (1 samples, 5.00%)</title><rect x="600.0" y="245" width="59.0" height="15.0" fill="rgb(223,96,29)" rx="2" ry="2" />
<text  x="603.00" y="255.5" >Outlin..</text>
</g>
<g >
<title>FcFontSetMatch (3 samples, 15.00%)</title><rect x="659.0" y="181" width="177.0" height="15.0" fill="rgb(207,147,43)" rx="2" ry="2" />
<text  x="662.00" y="191.5" >FcFontSetMatch</text>
</g>
</g>
</svg>
